G04*
G04 #@! TF.GenerationSoftware,Altium Limited,Altium NEXUS,3.0.14 (129)*
G04*
G04 Layer_Physical_Order=5*
G04 Layer_Color=6736896*
%FSLAX25Y25*%
%MOIN*%
G70*
G01*
G75*
%ADD15C,0.00000*%
%ADD112R,0.03543X0.03543*%
%ADD113C,0.01575*%
G36*
X117961Y124701D02*
X117642Y124312D01*
X117479Y124421D01*
X116634Y124590D01*
X115789Y124421D01*
X115073Y123943D01*
X114594Y123227D01*
X114426Y122382D01*
X114594Y121537D01*
X115073Y120821D01*
X115323Y120654D01*
X115171Y120154D01*
X113862D01*
Y117882D01*
X116634D01*
X119405D01*
Y120154D01*
X118097D01*
X117945Y120654D01*
X118195Y120821D01*
X118674Y121537D01*
X118842Y122382D01*
X118674Y123227D01*
X118565Y123390D01*
X118953Y123709D01*
X127951Y114710D01*
X127886Y114309D01*
X127809Y114146D01*
X127475Y113923D01*
X127214Y113532D01*
X127122Y113071D01*
X127214Y112610D01*
X127475Y112220D01*
X127866Y111959D01*
X128327Y111867D01*
X128788Y111959D01*
X129178Y112220D01*
X129401Y112553D01*
X129564Y112630D01*
X129966Y112696D01*
X140199Y102463D01*
X140007Y102001D01*
X127036D01*
X126885Y102501D01*
X126958Y102550D01*
X127262Y103006D01*
X127369Y103543D01*
X127262Y104081D01*
X126958Y104537D01*
X126502Y104841D01*
X125964Y104948D01*
X125427Y104841D01*
X124971Y104537D01*
X124667Y104081D01*
X124559Y103543D01*
X124667Y103006D01*
X124971Y102550D01*
X125044Y102501D01*
X124892Y102001D01*
X94488D01*
X94187Y101876D01*
X94062Y101575D01*
Y92142D01*
X93571Y91869D01*
X93110Y91960D01*
X92649Y91869D01*
X92259Y91607D01*
X91998Y91217D01*
X91906Y90756D01*
X91998Y90295D01*
X92259Y89904D01*
X92649Y89643D01*
X93110Y89552D01*
X93571Y89643D01*
X94062Y89370D01*
Y46457D01*
X94187Y46155D01*
X94488Y46031D01*
X104360D01*
X104512Y45531D01*
X104356Y45427D01*
X104095Y45036D01*
X104004Y44575D01*
X104004Y44574D01*
X103962Y44502D01*
X103571Y44190D01*
X103300Y44243D01*
X102839Y44152D01*
X102449Y43891D01*
X102188Y43500D01*
X102096Y43039D01*
X102188Y42578D01*
X102449Y42188D01*
X102839Y41927D01*
X103300Y41835D01*
X103761Y41927D01*
X104152Y42188D01*
X104413Y42578D01*
X104504Y43039D01*
X104504Y43040D01*
X104546Y43112D01*
X104938Y43425D01*
X105208Y43371D01*
X105669Y43462D01*
X106060Y43724D01*
X106321Y44114D01*
X106412Y44575D01*
X106321Y45036D01*
X106060Y45427D01*
X105904Y45531D01*
X106056Y46031D01*
X142493D01*
Y43331D01*
X131754Y32592D01*
X131366Y32911D01*
X131428Y33004D01*
X131519Y33465D01*
X131428Y33925D01*
X131167Y34316D01*
X130776Y34577D01*
X130315Y34669D01*
X129854Y34577D01*
X129463Y34316D01*
X129202Y33925D01*
X129111Y33465D01*
X129202Y33004D01*
X129463Y32613D01*
X129854Y32352D01*
X130315Y32260D01*
X130776Y32352D01*
X130868Y32414D01*
X131187Y32026D01*
X127780Y28618D01*
X117267Y39130D01*
X117319Y39363D01*
X117468Y39637D01*
X117837Y39710D01*
X118227Y39971D01*
X118488Y40362D01*
X118580Y40823D01*
X118488Y41284D01*
X118227Y41675D01*
X117837Y41936D01*
X117376Y42027D01*
X116915Y41936D01*
X116524Y41675D01*
X116263Y41284D01*
X116190Y40915D01*
X115916Y40766D01*
X115683Y40714D01*
X115630Y40768D01*
X95461Y40768D01*
X86221Y50008D01*
Y52901D01*
X86495Y53105D01*
X86721Y53203D01*
X87106Y53127D01*
X87567Y53218D01*
X87958Y53479D01*
X88219Y53870D01*
X88310Y54331D01*
X88219Y54791D01*
X87958Y55182D01*
X87567Y55443D01*
X87106Y55535D01*
X86721Y55458D01*
X86495Y55556D01*
X86221Y55761D01*
Y76129D01*
X86495Y76334D01*
X86721Y76432D01*
X87106Y76355D01*
X87567Y76446D01*
X87958Y76708D01*
X88219Y77098D01*
X88310Y77559D01*
X88219Y78020D01*
X87958Y78411D01*
X87567Y78672D01*
X87106Y78763D01*
X86721Y78686D01*
X86495Y78784D01*
X86221Y78989D01*
Y98933D01*
X86397Y99073D01*
X86845Y99269D01*
X87236Y99008D01*
X87697Y98916D01*
X88158Y99008D01*
X88548Y99269D01*
X88809Y99660D01*
X88901Y100120D01*
X88809Y100581D01*
X88548Y100972D01*
X88513Y100995D01*
X88450Y101639D01*
X102277Y115466D01*
X102557Y115521D01*
X102947Y115782D01*
X103208Y116173D01*
X103264Y116453D01*
X105677Y118866D01*
X105677Y122791D01*
X98059Y130409D01*
X94828D01*
X94511Y130796D01*
X94513Y130807D01*
X94414Y131306D01*
X94131Y131730D01*
X93708Y132012D01*
X93209Y132112D01*
X92709Y132012D01*
X92286Y131730D01*
X92003Y131306D01*
X91904Y130807D01*
X91906Y130796D01*
X91589Y130409D01*
X80659D01*
X75689Y135380D01*
Y140493D01*
X79149D01*
X79466Y140106D01*
X79457Y140059D01*
X79548Y139598D01*
X79809Y139207D01*
X80200Y138946D01*
X80661Y138855D01*
X81122Y138946D01*
X81512Y139207D01*
X81774Y139598D01*
X81865Y140059D01*
X81856Y140106D01*
X82173Y140493D01*
X85884D01*
X86152Y140100D01*
X86177Y139993D01*
X86096Y139587D01*
X86188Y139126D01*
X86449Y138735D01*
X86839Y138474D01*
X87300Y138382D01*
X87761Y138474D01*
X88152Y138735D01*
X88413Y139126D01*
X88505Y139587D01*
X88424Y139993D01*
X88449Y140100D01*
X88717Y140493D01*
X102169D01*
X117961Y124701D01*
D02*
G37*
G36*
X75263Y135380D02*
X75263Y135380D01*
X75388Y135078D01*
X75388Y135078D01*
X80358Y130108D01*
X80659Y129983D01*
X91589D01*
X91610Y129992D01*
X91631Y129985D01*
X91758Y130053D01*
X91890Y130108D01*
X92307Y129871D01*
X92709Y129602D01*
X93209Y129502D01*
X93708Y129602D01*
X94111Y129871D01*
X94527Y130108D01*
X94660Y130053D01*
X94787Y129985D01*
X94808Y129992D01*
X94828Y129983D01*
X97882D01*
X105251Y122615D01*
X105251Y119042D01*
X102963Y116755D01*
X102915Y116640D01*
X102846Y116536D01*
X102807Y116339D01*
X102640Y116090D01*
X102391Y115923D01*
X102193Y115884D01*
X102090Y115814D01*
X101975Y115767D01*
X88149Y101940D01*
X88140Y101920D01*
X88121Y101909D01*
X88079Y101772D01*
X88024Y101639D01*
X87677Y101321D01*
X87236Y101233D01*
X86845Y100972D01*
X86584Y100581D01*
X86493Y100120D01*
X86584Y99660D01*
X86303Y99497D01*
X86226Y99463D01*
X86203Y99439D01*
X86162Y99415D01*
X86132Y99407D01*
X85956Y99267D01*
X85943Y99245D01*
X85919Y99235D01*
X85865Y99105D01*
X85797Y98983D01*
X85804Y98957D01*
X85794Y98933D01*
Y78989D01*
X85807Y78959D01*
X85799Y78928D01*
X85868Y78812D01*
X85919Y78688D01*
X86116Y78229D01*
X86007Y78040D01*
X85994Y78020D01*
X85902Y77559D01*
X85994Y77098D01*
X86007Y77078D01*
X86116Y76889D01*
X85919Y76430D01*
X85868Y76306D01*
X85799Y76190D01*
X85807Y76159D01*
X85794Y76129D01*
Y55761D01*
X85807Y55731D01*
X85799Y55699D01*
X85868Y55584D01*
X85919Y55459D01*
X86116Y55001D01*
X86007Y54812D01*
X85994Y54791D01*
X85902Y54331D01*
X85994Y53870D01*
X86007Y53850D01*
X86116Y53661D01*
X85919Y53202D01*
X85868Y53078D01*
X85799Y52962D01*
X85807Y52931D01*
X85794Y52901D01*
Y50008D01*
X85794Y50008D01*
X85919Y49707D01*
X85919Y49707D01*
X95160Y40466D01*
X95461Y40342D01*
X115529Y40342D01*
X115573Y40334D01*
X115683Y40288D01*
X115728Y40307D01*
X115776Y40298D01*
X116040Y40333D01*
X116432Y40110D01*
X116524Y39971D01*
X116663Y39879D01*
X116886Y39487D01*
X116851Y39223D01*
X116859Y39175D01*
X116841Y39130D01*
X116887Y39020D01*
X116908Y38902D01*
X116947Y38874D01*
X116966Y38829D01*
X127478Y28317D01*
X102237Y3075D01*
X101707Y3099D01*
X101597Y3243D01*
X101473Y3507D01*
X101549Y3889D01*
X101457Y4350D01*
X101196Y4740D01*
X100805Y5001D01*
X100345Y5093D01*
X99884Y5001D01*
X99493Y4740D01*
X99232Y4350D01*
X99140Y3889D01*
X99151Y3833D01*
X98874Y3474D01*
X98824Y3449D01*
X98608Y3516D01*
X98575Y3686D01*
X98313Y4076D01*
X97923Y4337D01*
X97462Y4429D01*
X97001Y4337D01*
X96610Y4076D01*
X96349Y3686D01*
X96258Y3225D01*
X96079Y3007D01*
X95584D01*
X95173Y3507D01*
X95181Y3543D01*
X95089Y4004D01*
X94828Y4395D01*
X94437Y4656D01*
X93976Y4747D01*
X93515Y4656D01*
X93125Y4395D01*
X92864Y4004D01*
X92772Y3543D01*
X92779Y3507D01*
X92369Y3007D01*
X44831D01*
X10172Y37666D01*
X10337Y38209D01*
X10500Y38241D01*
X10891Y38502D01*
X11152Y38893D01*
X11244Y39354D01*
X11152Y39815D01*
X10891Y40205D01*
X10500Y40466D01*
X10039Y40558D01*
X9578Y40466D01*
X9188Y40205D01*
X8927Y39815D01*
X8894Y39651D01*
X8352Y39487D01*
X4507Y43331D01*
Y100169D01*
X35427Y131089D01*
X35501Y131082D01*
X35892Y130821D01*
X36353Y130729D01*
X36814Y130821D01*
X37204Y131082D01*
X37465Y131473D01*
X37557Y131933D01*
X37465Y132394D01*
X37204Y132785D01*
X37197Y132859D01*
X44831Y140493D01*
X50086D01*
X50416Y139993D01*
X50371Y139764D01*
X50462Y139303D01*
X50723Y138912D01*
X51114Y138651D01*
X51575Y138559D01*
X52036Y138651D01*
X52426Y138912D01*
X52687Y139303D01*
X52779Y139764D01*
X52733Y139993D01*
X53064Y140493D01*
X55852D01*
X56223Y139993D01*
X56119Y139469D01*
X56287Y138624D01*
X56766Y137908D01*
X57482Y137429D01*
X58327Y137261D01*
X59172Y137429D01*
X59888Y137908D01*
X60367Y138624D01*
X60535Y139469D01*
X60455Y139871D01*
X60812Y140253D01*
X61161Y140138D01*
Y137303D01*
X65492D01*
Y140493D01*
X75263D01*
Y135380D01*
D02*
G37*
%LPC*%
G36*
X94587Y135064D02*
X94087Y134965D01*
X93664Y134682D01*
X93486Y134416D01*
X93451Y134404D01*
X92966D01*
X92931Y134416D01*
X92753Y134682D01*
X92330Y134965D01*
X91831Y135064D01*
X91331Y134965D01*
X90908Y134682D01*
X90625Y134259D01*
X90526Y133760D01*
X90625Y133261D01*
X90908Y132837D01*
X91331Y132555D01*
X91831Y132455D01*
X92330Y132555D01*
X92753Y132837D01*
X92931Y133103D01*
X92966Y133116D01*
X93451D01*
X93486Y133103D01*
X93664Y132837D01*
X94087Y132555D01*
X94587Y132455D01*
X95086Y132555D01*
X95509Y132837D01*
X95792Y133261D01*
X95891Y133760D01*
X95792Y134259D01*
X95509Y134682D01*
X95086Y134965D01*
X94587Y135064D01*
D02*
G37*
G36*
X119405Y116882D02*
X117134D01*
Y114610D01*
X119405D01*
Y116882D01*
D02*
G37*
G36*
X116134D02*
X113862D01*
Y114610D01*
X116134D01*
Y116882D01*
D02*
G37*
G36*
X125964Y110460D02*
X125427Y110353D01*
X124971Y110049D01*
X124667Y109593D01*
X124559Y109055D01*
X124667Y108518D01*
X124971Y108062D01*
X125427Y107757D01*
X125964Y107650D01*
X126502Y107757D01*
X126958Y108062D01*
X127262Y108518D01*
X127369Y109055D01*
X127262Y109593D01*
X126958Y110049D01*
X126502Y110353D01*
X125964Y110460D01*
D02*
G37*
G36*
X107736Y111516D02*
X103406D01*
Y107185D01*
X107736D01*
Y111516D01*
D02*
G37*
G36*
X110571Y111558D02*
X109726Y111390D01*
X109010Y110911D01*
X108531Y110195D01*
X108363Y109350D01*
X108531Y108505D01*
X109010Y107789D01*
X109726Y107310D01*
X110571Y107142D01*
X111416Y107310D01*
X112132Y107789D01*
X112610Y108505D01*
X112778Y109350D01*
X112610Y110195D01*
X112132Y110911D01*
X111416Y111390D01*
X110571Y111558D01*
D02*
G37*
G36*
X127933Y107704D02*
X127395Y107597D01*
X126939Y107293D01*
X126635Y106837D01*
X126528Y106299D01*
X126635Y105762D01*
X126939Y105306D01*
X127395Y105001D01*
X127933Y104894D01*
X128471Y105001D01*
X128926Y105306D01*
X129231Y105762D01*
X129338Y106299D01*
X129231Y106837D01*
X128926Y107293D01*
X128471Y107597D01*
X127933Y107704D01*
D02*
G37*
G36*
X123996D02*
X123458Y107597D01*
X123003Y107293D01*
X122698Y106837D01*
X122591Y106299D01*
X122698Y105762D01*
X123003Y105306D01*
X123458Y105001D01*
X123996Y104894D01*
X124534Y105001D01*
X124989Y105306D01*
X125294Y105762D01*
X125401Y106299D01*
X125294Y106837D01*
X124989Y107293D01*
X124534Y107597D01*
X123996Y107704D01*
D02*
G37*
G36*
X133570Y106820D02*
X133109Y106728D01*
X132718Y106467D01*
X132457Y106076D01*
X132365Y105615D01*
X132457Y105155D01*
X132718Y104764D01*
X133109Y104503D01*
X133570Y104411D01*
X134030Y104503D01*
X134421Y104764D01*
X134682Y105155D01*
X134774Y105615D01*
X134682Y106076D01*
X134421Y106467D01*
X134030Y106728D01*
X133570Y106820D01*
D02*
G37*
G36*
X88444Y86305D02*
X87983Y86213D01*
X87593Y85952D01*
X87332Y85562D01*
X87240Y85101D01*
X87332Y84640D01*
X87593Y84249D01*
X87983Y83988D01*
X88444Y83897D01*
X88905Y83988D01*
X89296Y84249D01*
X89557Y84640D01*
X89648Y85101D01*
X89557Y85562D01*
X89296Y85952D01*
X88905Y86213D01*
X88444Y86305D01*
D02*
G37*
G36*
X90453Y82949D02*
X89992Y82858D01*
X89601Y82596D01*
X89340Y82206D01*
X89249Y81745D01*
X89340Y81284D01*
X89601Y80893D01*
X89504Y80357D01*
X89502Y80356D01*
X89241Y79965D01*
X89150Y79504D01*
X89241Y79044D01*
X89502Y78653D01*
X89893Y78392D01*
X90354Y78300D01*
X90815Y78392D01*
X91205Y78653D01*
X91466Y79044D01*
X91558Y79504D01*
X91466Y79965D01*
X91205Y80356D01*
X91303Y80892D01*
X91304Y80893D01*
X91565Y81284D01*
X91657Y81745D01*
X91565Y82206D01*
X91304Y82596D01*
X90914Y82858D01*
X90453Y82949D01*
D02*
G37*
G36*
X125295Y42149D02*
X124834Y42057D01*
X124444Y41796D01*
X124183Y41406D01*
X124091Y40945D01*
X124183Y40484D01*
X124444Y40093D01*
X124834Y39832D01*
X125295Y39741D01*
X125756Y39832D01*
X126147Y40093D01*
X126408Y40484D01*
X126499Y40945D01*
X126408Y41406D01*
X126147Y41796D01*
X125756Y42057D01*
X125295Y42149D01*
D02*
G37*
G36*
X69966Y136781D02*
X69506Y136689D01*
X69115Y136428D01*
X68854Y136037D01*
X68762Y135576D01*
X68854Y135116D01*
X69115Y134725D01*
X69506Y134464D01*
X69966Y134372D01*
X70427Y134464D01*
X70818Y134725D01*
X71079Y135116D01*
X71171Y135576D01*
X71079Y136037D01*
X70818Y136428D01*
X70427Y136689D01*
X69966Y136781D01*
D02*
G37*
G36*
X52461Y135751D02*
X52000Y135660D01*
X51609Y135399D01*
X51348Y135008D01*
X51256Y134547D01*
X51348Y134086D01*
X51609Y133696D01*
X52000Y133435D01*
X52461Y133343D01*
X52921Y133435D01*
X53312Y133696D01*
X53573Y134086D01*
X53665Y134547D01*
X53573Y135008D01*
X53312Y135399D01*
X52921Y135660D01*
X52461Y135751D01*
D02*
G37*
G36*
X55666Y134964D02*
X55205Y134872D01*
X54814Y134611D01*
X54554Y134221D01*
X54462Y133760D01*
X54554Y133299D01*
X54814Y132908D01*
X55205Y132647D01*
X55666Y132556D01*
X56127Y132647D01*
X56518Y132908D01*
X56779Y133299D01*
X56870Y133760D01*
X56779Y134221D01*
X56518Y134611D01*
X56127Y134872D01*
X55666Y134964D01*
D02*
G37*
G36*
X61319Y131657D02*
X60858Y131565D01*
X60467Y131304D01*
X60206Y130914D01*
X60115Y130453D01*
X60206Y129992D01*
X60467Y129601D01*
X60858Y129340D01*
X61319Y129248D01*
X61780Y129340D01*
X62170Y129601D01*
X62432Y129992D01*
X62523Y130453D01*
X62432Y130914D01*
X62170Y131304D01*
X61780Y131565D01*
X61319Y131657D01*
D02*
G37*
G36*
X48720Y131224D02*
X48260Y131132D01*
X47869Y130871D01*
X47608Y130481D01*
X47516Y130020D01*
X47608Y129559D01*
X47869Y129168D01*
X48260Y128907D01*
X48720Y128815D01*
X49181Y128907D01*
X49572Y129168D01*
X49833Y129559D01*
X49925Y130020D01*
X49833Y130481D01*
X49572Y130871D01*
X49181Y131132D01*
X48720Y131224D01*
D02*
G37*
G36*
X44783D02*
X44323Y131132D01*
X43932Y130871D01*
X43671Y130481D01*
X43579Y130020D01*
X43671Y129559D01*
X43932Y129168D01*
X44323Y128907D01*
X44783Y128815D01*
X45244Y128907D01*
X45635Y129168D01*
X45896Y129559D01*
X45988Y130020D01*
X45896Y130481D01*
X45635Y130871D01*
X45244Y131132D01*
X44783Y131224D01*
D02*
G37*
G36*
X94587Y129159D02*
X94087Y129060D01*
X93664Y128777D01*
X93486Y128511D01*
X93451Y128498D01*
X92966D01*
X92931Y128511D01*
X92753Y128777D01*
X92330Y129060D01*
X91831Y129159D01*
X91331Y129060D01*
X90908Y128777D01*
X90625Y128354D01*
X90526Y127854D01*
X90625Y127355D01*
X90908Y126932D01*
X91331Y126649D01*
X91831Y126550D01*
X92330Y126649D01*
X92753Y126932D01*
X92931Y127198D01*
X92966Y127210D01*
X93451D01*
X93486Y127198D01*
X93664Y126932D01*
X94087Y126649D01*
X94587Y126550D01*
X95086Y126649D01*
X95509Y126932D01*
X95792Y127355D01*
X95891Y127854D01*
X95792Y128354D01*
X95509Y128777D01*
X95086Y129060D01*
X94587Y129159D01*
D02*
G37*
G36*
X36312Y129641D02*
X35851Y129550D01*
X35460Y129288D01*
X35199Y128898D01*
X35108Y128437D01*
X35199Y127976D01*
X35333Y127776D01*
X34973Y127415D01*
X34873Y127482D01*
X34713Y127589D01*
X34252Y127681D01*
X33791Y127589D01*
X33400Y127328D01*
X33139Y126937D01*
X33048Y126476D01*
X33139Y126016D01*
X33400Y125625D01*
X33791Y125364D01*
X34252Y125272D01*
X34713Y125364D01*
X35103Y125625D01*
X35364Y126016D01*
X35456Y126476D01*
X35364Y126937D01*
X35231Y127138D01*
X35591Y127498D01*
X35691Y127431D01*
X35851Y127324D01*
X36312Y127233D01*
X36773Y127324D01*
X37163Y127585D01*
X37425Y127976D01*
X37516Y128437D01*
X37425Y128898D01*
X37163Y129288D01*
X36773Y129550D01*
X36312Y129641D01*
D02*
G37*
G36*
X79823Y128078D02*
X79285Y127971D01*
X78829Y127667D01*
X78525Y127211D01*
X78418Y126673D01*
X78525Y126136D01*
X78829Y125680D01*
X79285Y125375D01*
X79823Y125268D01*
X80361Y125375D01*
X80816Y125680D01*
X81121Y126136D01*
X81228Y126673D01*
X81121Y127211D01*
X80816Y127667D01*
X80361Y127971D01*
X79823Y128078D01*
D02*
G37*
G36*
X75492D02*
X74954Y127971D01*
X74499Y127667D01*
X74194Y127211D01*
X74087Y126673D01*
X74194Y126136D01*
X74499Y125680D01*
X74954Y125375D01*
X75492Y125268D01*
X76030Y125375D01*
X76486Y125680D01*
X76790Y126136D01*
X76897Y126673D01*
X76790Y127211D01*
X76486Y127667D01*
X76030Y127971D01*
X75492Y128078D01*
D02*
G37*
G36*
X58573Y128788D02*
X58112Y128697D01*
X57721Y128435D01*
X57460Y128045D01*
X57397Y127729D01*
X57146Y127428D01*
X56921Y127269D01*
X56572Y127200D01*
X56181Y126939D01*
X55920Y126548D01*
X55829Y126087D01*
X55920Y125626D01*
X56181Y125236D01*
X56572Y124975D01*
X57033Y124883D01*
X57494Y124975D01*
X57884Y125236D01*
X58145Y125626D01*
X58208Y125942D01*
X58459Y126243D01*
X58684Y126402D01*
X59033Y126471D01*
X59424Y126732D01*
X59685Y127123D01*
X59777Y127584D01*
X59685Y128045D01*
X59424Y128435D01*
X59033Y128697D01*
X58573Y128788D01*
D02*
G37*
G36*
X48720Y127287D02*
X48260Y127195D01*
X47869Y126934D01*
X47608Y126543D01*
X47516Y126083D01*
X47608Y125622D01*
X47869Y125231D01*
X48260Y124970D01*
X48720Y124878D01*
X49181Y124970D01*
X49572Y125231D01*
X49833Y125622D01*
X49925Y126083D01*
X49833Y126543D01*
X49572Y126934D01*
X49181Y127195D01*
X48720Y127287D01*
D02*
G37*
G36*
X44783D02*
X44323Y127195D01*
X43932Y126934D01*
X43671Y126543D01*
X43579Y126083D01*
X43671Y125622D01*
X43932Y125231D01*
X44323Y124970D01*
X44783Y124878D01*
X45244Y124970D01*
X45635Y125231D01*
X45896Y125622D01*
X45988Y126083D01*
X45896Y126543D01*
X45635Y126934D01*
X45244Y127195D01*
X44783Y127287D01*
D02*
G37*
G36*
X69626Y125712D02*
X69165Y125620D01*
X68774Y125359D01*
X68513Y124969D01*
X68422Y124508D01*
X68513Y124047D01*
X68774Y123656D01*
X69165Y123395D01*
X69626Y123304D01*
X70087Y123395D01*
X70477Y123656D01*
X70739Y124047D01*
X70830Y124508D01*
X70739Y124969D01*
X70477Y125359D01*
X70087Y125620D01*
X69626Y125712D01*
D02*
G37*
G36*
X33563Y124708D02*
X33102Y124617D01*
X32711Y124355D01*
X32450Y123965D01*
X32359Y123504D01*
X32450Y123043D01*
X32711Y122652D01*
X33102Y122391D01*
X33563Y122300D01*
X34024Y122391D01*
X34414Y122652D01*
X34676Y123043D01*
X34767Y123504D01*
X34676Y123965D01*
X34414Y124355D01*
X34024Y124617D01*
X33563Y124708D01*
D02*
G37*
G36*
X79823Y123748D02*
X79285Y123641D01*
X78829Y123336D01*
X78525Y122880D01*
X78418Y122343D01*
X78525Y121805D01*
X78829Y121349D01*
X79285Y121045D01*
X79823Y120938D01*
X80361Y121045D01*
X80816Y121349D01*
X81121Y121805D01*
X81228Y122343D01*
X81121Y122880D01*
X80816Y123336D01*
X80361Y123641D01*
X79823Y123748D01*
D02*
G37*
G36*
X75492D02*
X74954Y123641D01*
X74499Y123336D01*
X74194Y122880D01*
X74087Y122343D01*
X74194Y121805D01*
X74499Y121349D01*
X74954Y121045D01*
X75492Y120938D01*
X76030Y121045D01*
X76486Y121349D01*
X76790Y121805D01*
X76897Y122343D01*
X76790Y122880D01*
X76486Y123336D01*
X76030Y123641D01*
X75492Y123748D01*
D02*
G37*
G36*
X30955Y122858D02*
X30494Y122766D01*
X30103Y122505D01*
X29842Y122114D01*
X29750Y121653D01*
X29842Y121193D01*
X30103Y120802D01*
X30494Y120541D01*
X30955Y120449D01*
X31416Y120541D01*
X31806Y120802D01*
X32067Y121193D01*
X32159Y121653D01*
X32067Y122114D01*
X31806Y122505D01*
X31416Y122766D01*
X30955Y122858D01*
D02*
G37*
G36*
X56845Y122563D02*
X56384Y122471D01*
X55993Y122210D01*
X55732Y121819D01*
X55640Y121358D01*
X55732Y120897D01*
X55993Y120507D01*
X56384Y120246D01*
X56845Y120154D01*
X57306Y120246D01*
X57696Y120507D01*
X57957Y120897D01*
X58049Y121358D01*
X57957Y121819D01*
X57696Y122210D01*
X57306Y122471D01*
X56845Y122563D01*
D02*
G37*
G36*
X46065Y121781D02*
X45604Y121689D01*
X45214Y121428D01*
X44953Y121038D01*
X44861Y120577D01*
X44953Y120116D01*
X45214Y119725D01*
X45604Y119464D01*
X46065Y119372D01*
X46526Y119464D01*
X46917Y119725D01*
X47178Y120116D01*
X47269Y120577D01*
X47178Y121038D01*
X46917Y121428D01*
X46526Y121689D01*
X46065Y121781D01*
D02*
G37*
G36*
X94980Y121480D02*
X94520Y121388D01*
X94129Y121127D01*
X93868Y120736D01*
X93776Y120276D01*
X93868Y119815D01*
X94129Y119424D01*
X94520Y119163D01*
X94980Y119071D01*
X95441Y119163D01*
X95832Y119424D01*
X96093Y119815D01*
X96185Y120276D01*
X96093Y120736D01*
X95832Y121127D01*
X95441Y121388D01*
X94980Y121480D01*
D02*
G37*
G36*
X48720Y118645D02*
X48260Y118553D01*
X47869Y118292D01*
X47608Y117902D01*
X47516Y117441D01*
X47608Y116980D01*
X47869Y116589D01*
X48260Y116328D01*
X48720Y116237D01*
X49181Y116328D01*
X49572Y116589D01*
X49833Y116980D01*
X49925Y117441D01*
X49833Y117902D01*
X49572Y118292D01*
X49181Y118553D01*
X48720Y118645D01*
D02*
G37*
G36*
X35270Y118133D02*
X34809Y118042D01*
X34418Y117781D01*
X34157Y117390D01*
X34066Y116929D01*
X34157Y116468D01*
X34418Y116078D01*
X34629Y115937D01*
X34678Y115406D01*
X34663Y115359D01*
X34611Y115324D01*
X34350Y114933D01*
X34259Y114472D01*
X34350Y114012D01*
X34611Y113621D01*
X35002Y113360D01*
X35463Y113268D01*
X35924Y113360D01*
X36314Y113621D01*
X36575Y114012D01*
X36667Y114472D01*
X36575Y114933D01*
X36314Y115324D01*
X36104Y115465D01*
X36055Y115995D01*
X36070Y116043D01*
X36121Y116078D01*
X36383Y116468D01*
X36474Y116929D01*
X36383Y117390D01*
X36121Y117781D01*
X35731Y118042D01*
X35270Y118133D01*
D02*
G37*
G36*
X27571Y114481D02*
X27110Y114389D01*
X26719Y114128D01*
X26458Y113737D01*
X26367Y113277D01*
X26458Y112816D01*
X26719Y112425D01*
X27110Y112164D01*
X27571Y112072D01*
X28032Y112164D01*
X28422Y112425D01*
X28684Y112816D01*
X28775Y113277D01*
X28684Y113737D01*
X28422Y114128D01*
X28032Y114389D01*
X27571Y114481D01*
D02*
G37*
G36*
X46850Y111343D02*
X46390Y111252D01*
X45999Y110991D01*
X45738Y110600D01*
X45646Y110139D01*
X45738Y109678D01*
X45999Y109288D01*
X46390Y109027D01*
X46850Y108935D01*
X47311Y109027D01*
X47702Y109288D01*
X47963Y109678D01*
X48055Y110139D01*
X47963Y110600D01*
X47702Y110991D01*
X47311Y111252D01*
X46850Y111343D01*
D02*
G37*
G36*
X23465Y111029D02*
X23004Y110937D01*
X22613Y110676D01*
X22352Y110285D01*
X22260Y109825D01*
X22352Y109364D01*
X22613Y108973D01*
X23004Y108712D01*
X23465Y108620D01*
X23925Y108712D01*
X24316Y108973D01*
X24577Y109364D01*
X24669Y109825D01*
X24577Y110285D01*
X24316Y110676D01*
X23925Y110937D01*
X23465Y111029D01*
D02*
G37*
G36*
X34252Y110555D02*
X33791Y110463D01*
X33400Y110202D01*
X33139Y109811D01*
X33048Y109351D01*
X33139Y108890D01*
X33400Y108499D01*
X33791Y108238D01*
X34252Y108146D01*
X34713Y108238D01*
X35103Y108499D01*
X35364Y108890D01*
X35456Y109351D01*
X35364Y109811D01*
X35103Y110202D01*
X34713Y110463D01*
X34252Y110555D01*
D02*
G37*
G36*
X74016Y107456D02*
X73555Y107364D01*
X73164Y107103D01*
X72903Y106712D01*
X72812Y106251D01*
X72903Y105791D01*
X73164Y105400D01*
X73555Y105139D01*
X74016Y105047D01*
X74477Y105139D01*
X74867Y105400D01*
X75128Y105791D01*
X75220Y106251D01*
X75128Y106712D01*
X74867Y107103D01*
X74477Y107364D01*
X74016Y107456D01*
D02*
G37*
G36*
X23465Y106126D02*
X23004Y106034D01*
X22613Y105773D01*
X22352Y105382D01*
X22260Y104921D01*
X22352Y104461D01*
X22613Y104070D01*
X23004Y103809D01*
X23465Y103717D01*
X23925Y103809D01*
X24316Y104070D01*
X24577Y104461D01*
X24669Y104921D01*
X24577Y105382D01*
X24316Y105773D01*
X23925Y106034D01*
X23465Y106126D01*
D02*
G37*
G36*
X41144Y104162D02*
X40683Y104070D01*
X40292Y103809D01*
X40216Y103695D01*
X39765Y103536D01*
X39603Y103609D01*
X39339Y103785D01*
X38878Y103876D01*
X38417Y103785D01*
X38026Y103524D01*
X37871Y103291D01*
X37846Y103282D01*
X37350Y103279D01*
X37315Y103291D01*
X37163Y103517D01*
X36773Y103778D01*
X36312Y103870D01*
X35851Y103778D01*
X35460Y103517D01*
X35199Y103127D01*
X35108Y102666D01*
X35199Y102205D01*
X35460Y101814D01*
X35691Y101661D01*
X36103Y101378D01*
X36012Y100917D01*
X36103Y100456D01*
X36364Y100066D01*
X36755Y99805D01*
X37216Y99713D01*
X37677Y99805D01*
X38067Y100066D01*
X38328Y100456D01*
X38420Y100917D01*
X38839Y101218D01*
X38923Y101218D01*
X39347Y100939D01*
X39439Y100478D01*
X39700Y100087D01*
X40090Y99826D01*
X40551Y99734D01*
X41012Y99826D01*
X41403Y100087D01*
X41664Y100478D01*
X41755Y100939D01*
X41664Y101399D01*
X41605Y101845D01*
X41995Y102106D01*
X42256Y102497D01*
X42348Y102958D01*
X42256Y103419D01*
X41995Y103809D01*
X41605Y104070D01*
X41144Y104162D01*
D02*
G37*
G36*
X43690Y102385D02*
X43229Y102294D01*
X42838Y102033D01*
X42577Y101642D01*
X42485Y101181D01*
X42577Y100720D01*
X42838Y100330D01*
X43229Y100068D01*
X43690Y99977D01*
X44150Y100068D01*
X44541Y100330D01*
X44802Y100720D01*
X44894Y101181D01*
X44802Y101642D01*
X44541Y102033D01*
X44150Y102294D01*
X43690Y102385D01*
D02*
G37*
G36*
X58914Y100614D02*
X58453Y100522D01*
X58063Y100261D01*
X57802Y99870D01*
X57731Y99519D01*
X57377Y99381D01*
X57231Y99368D01*
X57094Y99572D01*
X56704Y99833D01*
X56243Y99925D01*
X55782Y99833D01*
X55391Y99572D01*
X55130Y99181D01*
X55039Y98721D01*
X55114Y98343D01*
X54656Y98197D01*
X54395Y98588D01*
X54004Y98849D01*
X53543Y98940D01*
X53083Y98849D01*
X52692Y98588D01*
X52431Y98197D01*
X52339Y97736D01*
X52431Y97275D01*
X52692Y96885D01*
X53083Y96624D01*
X53543Y96532D01*
X54004Y96624D01*
X54395Y96885D01*
X54656Y97275D01*
X54748Y97736D01*
X54673Y98113D01*
X55130Y98260D01*
X55391Y97869D01*
X55693Y97668D01*
X55738Y97421D01*
Y97362D01*
X55693Y97116D01*
X55391Y96914D01*
X55130Y96524D01*
X55039Y96063D01*
X55130Y95602D01*
X55391Y95211D01*
X55782Y94950D01*
X56243Y94859D01*
X56704Y94950D01*
X57094Y95211D01*
X57306Y95529D01*
X57578Y95569D01*
X57851Y95529D01*
X58063Y95211D01*
X58453Y94950D01*
X58914Y94859D01*
X59375Y94950D01*
X59766Y95211D01*
X59913Y95431D01*
X59926Y95436D01*
X60455D01*
X60468Y95431D01*
X60615Y95211D01*
X61006Y94950D01*
X61466Y94859D01*
X61927Y94950D01*
X62318Y95211D01*
X62579Y95602D01*
X62671Y96063D01*
X62622Y96310D01*
X62970Y96507D01*
X63086Y96538D01*
X63449Y96295D01*
X63910Y96204D01*
X64371Y96295D01*
X64762Y96556D01*
X65022Y96947D01*
X65114Y97408D01*
X65022Y97869D01*
X64762Y98259D01*
X64371Y98520D01*
X63910Y98612D01*
X63449Y98520D01*
X63058Y98259D01*
X62797Y97869D01*
X62706Y97408D01*
X62755Y97161D01*
X62406Y96964D01*
X62290Y96933D01*
X61927Y97176D01*
X61466Y97267D01*
X61006Y97176D01*
X60615Y96914D01*
X60468Y96695D01*
X60455Y96690D01*
X59926D01*
X59913Y96695D01*
X59766Y96914D01*
X59375Y97176D01*
X58914Y97267D01*
X58453Y97176D01*
X58063Y96914D01*
X57851Y96597D01*
X57578Y96557D01*
X57306Y96597D01*
X57094Y96914D01*
X56793Y97116D01*
X56748Y97362D01*
Y97421D01*
X56793Y97668D01*
X57094Y97869D01*
X57355Y98260D01*
X57425Y98611D01*
X57780Y98749D01*
X57926Y98762D01*
X58063Y98558D01*
X58453Y98297D01*
X58914Y98205D01*
X59375Y98297D01*
X59766Y98558D01*
X60027Y98949D01*
X60118Y99409D01*
X60027Y99870D01*
X59766Y100261D01*
X59375Y100522D01*
X58914Y100614D01*
D02*
G37*
G36*
X34255Y101486D02*
X33794Y101394D01*
X33403Y101133D01*
X33142Y100743D01*
X33051Y100282D01*
X33142Y99821D01*
X33403Y99430D01*
X33794Y99169D01*
X34255Y99077D01*
X34716Y99169D01*
X35106Y99430D01*
X35367Y99821D01*
X35459Y100282D01*
X35367Y100743D01*
X35106Y101133D01*
X34716Y101394D01*
X34255Y101486D01*
D02*
G37*
G36*
X15186Y101428D02*
X14725Y101337D01*
X14334Y101075D01*
X14074Y100685D01*
X13982Y100224D01*
X14074Y99763D01*
X14334Y99372D01*
X14725Y99111D01*
X15186Y99020D01*
X15647Y99111D01*
X16038Y99372D01*
X16299Y99763D01*
X16390Y100224D01*
X16299Y100685D01*
X16038Y101075D01*
X15647Y101337D01*
X15186Y101428D01*
D02*
G37*
G36*
X20251D02*
X19790Y101337D01*
X19399Y101075D01*
X19138Y100685D01*
X19046Y100224D01*
X19138Y99763D01*
X19399Y99372D01*
Y98826D01*
X19138Y98436D01*
X19046Y97975D01*
X19138Y97514D01*
X19399Y97123D01*
X19790Y96862D01*
X20251Y96771D01*
X20711Y96862D01*
X21102Y97123D01*
X21363Y97514D01*
X21455Y97975D01*
X21363Y98436D01*
X21102Y98826D01*
Y99372D01*
X21363Y99763D01*
X21455Y100224D01*
X21363Y100685D01*
X21102Y101075D01*
X20711Y101337D01*
X20251Y101428D01*
D02*
G37*
G36*
X64767Y95500D02*
X64306Y95408D01*
X63915Y95148D01*
X63654Y94757D01*
X63563Y94296D01*
X63654Y93835D01*
X63915Y93444D01*
X64306Y93183D01*
X64767Y93092D01*
X65228Y93183D01*
X65618Y93444D01*
X65879Y93835D01*
X65971Y94296D01*
X65879Y94757D01*
X65618Y95148D01*
X65228Y95408D01*
X64767Y95500D01*
D02*
G37*
G36*
X9154Y94818D02*
X8693Y94726D01*
X8302Y94465D01*
X8041Y94074D01*
X7949Y93613D01*
X8041Y93152D01*
X8302Y92762D01*
X8693Y92501D01*
X9154Y92409D01*
X9614Y92501D01*
X10005Y92762D01*
X10266Y93152D01*
X10358Y93613D01*
X10266Y94074D01*
X10005Y94465D01*
X9614Y94726D01*
X9154Y94818D01*
D02*
G37*
G36*
X21457Y95299D02*
X20996Y95207D01*
X20605Y94946D01*
X20344Y94555D01*
X20252Y94095D01*
X20344Y93634D01*
X20605Y93243D01*
X20946Y93015D01*
X20945Y92965D01*
X20913Y92726D01*
X20849Y92525D01*
X20479Y92451D01*
X20088Y92190D01*
X19827Y91799D01*
X19736Y91339D01*
X19827Y90878D01*
X20088Y90487D01*
X20479Y90226D01*
X20940Y90134D01*
X21400Y90226D01*
X21791Y90487D01*
X22052Y90878D01*
X22144Y91339D01*
X22052Y91799D01*
X21791Y92190D01*
X21450Y92418D01*
X21451Y92468D01*
X21483Y92707D01*
X21548Y92908D01*
X21917Y92982D01*
X22308Y93243D01*
X22569Y93634D01*
X22661Y94095D01*
X22569Y94555D01*
X22308Y94946D01*
X21917Y95207D01*
X21457Y95299D01*
D02*
G37*
G36*
X57339Y90968D02*
X56878Y90876D01*
X56488Y90615D01*
X56227Y90225D01*
X56135Y89764D01*
X56227Y89303D01*
X56488Y88912D01*
X56878Y88651D01*
X57339Y88560D01*
X57800Y88651D01*
X58191Y88912D01*
X58452Y89303D01*
X58543Y89764D01*
X58452Y90225D01*
X58191Y90615D01*
X57800Y90876D01*
X57339Y90968D01*
D02*
G37*
G36*
X67471Y90635D02*
X67010Y90544D01*
X66619Y90283D01*
X66358Y89892D01*
X66267Y89431D01*
X66358Y88970D01*
X66619Y88580D01*
X67010Y88319D01*
X67471Y88227D01*
X67932Y88319D01*
X68322Y88580D01*
X68584Y88970D01*
X68675Y89431D01*
X68584Y89892D01*
X68322Y90283D01*
X67932Y90544D01*
X67471Y90635D01*
D02*
G37*
G36*
X19488Y89676D02*
X19027Y89584D01*
X18637Y89323D01*
X18376Y88933D01*
X18284Y88472D01*
X18376Y88011D01*
X18637Y87620D01*
X19027Y87359D01*
X19488Y87268D01*
X19949Y87359D01*
X20340Y87620D01*
X20601Y88011D01*
X20692Y88472D01*
X20601Y88933D01*
X20340Y89323D01*
X19949Y89584D01*
X19488Y89676D01*
D02*
G37*
G36*
X57797Y88018D02*
X57336Y87926D01*
X56945Y87665D01*
X56684Y87274D01*
X56593Y86814D01*
X56684Y86353D01*
X56945Y85962D01*
X57336Y85701D01*
X57797Y85609D01*
X58258Y85701D01*
X58648Y85962D01*
X58909Y86353D01*
X59001Y86814D01*
X58909Y87274D01*
X58648Y87665D01*
X58258Y87926D01*
X57797Y88018D01*
D02*
G37*
G36*
X76870Y87307D02*
X76409Y87215D01*
X76019Y86954D01*
X75757Y86563D01*
X75666Y86102D01*
X75757Y85641D01*
X76019Y85251D01*
X76409Y84990D01*
X76870Y84898D01*
X77331Y84990D01*
X77722Y85251D01*
X77983Y85641D01*
X78074Y86102D01*
X77983Y86563D01*
X77722Y86954D01*
X77331Y87215D01*
X76870Y87307D01*
D02*
G37*
G36*
X44862Y83849D02*
X44401Y83757D01*
X44011Y83496D01*
X43750Y83106D01*
X43658Y82645D01*
X43750Y82184D01*
X44011Y81793D01*
X44401Y81532D01*
X44862Y81441D01*
X45323Y81532D01*
X45714Y81793D01*
X45975Y82184D01*
X46066Y82645D01*
X45975Y83106D01*
X45714Y83496D01*
X45323Y83757D01*
X44862Y83849D01*
D02*
G37*
G36*
X80319Y83689D02*
X79858Y83597D01*
X79467Y83336D01*
X79206Y82945D01*
X79115Y82484D01*
X79206Y82024D01*
X79467Y81633D01*
X79858Y81372D01*
X80319Y81280D01*
X80780Y81372D01*
X81170Y81633D01*
X81431Y82024D01*
X81523Y82484D01*
X81431Y82945D01*
X81170Y83336D01*
X80780Y83597D01*
X80319Y83689D01*
D02*
G37*
G36*
X17088Y83668D02*
X16627Y83576D01*
X16236Y83315D01*
X15975Y82925D01*
X15883Y82464D01*
X15975Y82003D01*
X16236Y81612D01*
X16627Y81351D01*
X17088Y81260D01*
X17549Y81351D01*
X17939Y81612D01*
X18200Y82003D01*
X18292Y82464D01*
X18200Y82925D01*
X17939Y83315D01*
X17549Y83576D01*
X17088Y83668D01*
D02*
G37*
G36*
X20251Y82622D02*
X19790Y82530D01*
X19399Y82269D01*
X19138Y81879D01*
X19046Y81418D01*
X19138Y80957D01*
X19384Y80589D01*
X19049Y80257D01*
X18658Y80518D01*
X18197Y80610D01*
X17736Y80518D01*
X17345Y80257D01*
X17085Y79866D01*
X17062Y79752D01*
X16585Y79338D01*
X16124Y79246D01*
X15733Y78985D01*
X15472Y78594D01*
X15380Y78133D01*
X15472Y77672D01*
X15733Y77282D01*
X16124Y77021D01*
X16585Y76929D01*
X17045Y77021D01*
X17436Y77282D01*
X17697Y77672D01*
X17720Y77786D01*
X18197Y78201D01*
X18707Y77793D01*
X18720Y77728D01*
X18981Y77337D01*
X19372Y77076D01*
X19833Y76985D01*
X20293Y77076D01*
X20684Y77337D01*
X20945Y77728D01*
X21037Y78189D01*
X21494Y78323D01*
X21955Y78415D01*
X22346Y78676D01*
X22607Y79067D01*
X22698Y79528D01*
X22607Y79988D01*
X22346Y80379D01*
X21955Y80640D01*
X21776Y80676D01*
X21469Y80885D01*
X21415Y81218D01*
X21455Y81418D01*
X21363Y81879D01*
X21102Y82269D01*
X20711Y82530D01*
X20251Y82622D01*
D02*
G37*
G36*
X6398D02*
X5937Y82530D01*
X5546Y82269D01*
X5285Y81879D01*
X5193Y81418D01*
X5285Y80957D01*
X5546Y80566D01*
X5937Y80305D01*
X6398Y80214D01*
X6859Y80305D01*
X7249Y80566D01*
X7510Y80957D01*
X7602Y81418D01*
X7510Y81879D01*
X7249Y82269D01*
X6859Y82530D01*
X6398Y82622D01*
D02*
G37*
G36*
X63681Y81004D02*
X63220Y80912D01*
X62830Y80651D01*
X62568Y80260D01*
X62477Y79799D01*
X62568Y79339D01*
X62830Y78948D01*
X63220Y78687D01*
X63681Y78595D01*
X64142Y78687D01*
X64533Y78948D01*
X64794Y79339D01*
X64885Y79799D01*
X64794Y80260D01*
X64533Y80651D01*
X64142Y80912D01*
X63681Y81004D01*
D02*
G37*
G36*
X56845Y83849D02*
X56384Y83757D01*
X55993Y83496D01*
X55732Y83106D01*
X55640Y82645D01*
X55732Y82184D01*
X55993Y81793D01*
X56384Y81532D01*
X56612Y81043D01*
X56384Y80603D01*
X55959Y80518D01*
X55568Y80257D01*
X55307Y79866D01*
X55216Y79406D01*
X55307Y78945D01*
X55568Y78554D01*
X55959Y78293D01*
X56420Y78201D01*
X56881Y78293D01*
X57271Y78554D01*
X57533Y78945D01*
X57569Y79130D01*
X57815Y79591D01*
X58275Y79682D01*
X58666Y79944D01*
X58927Y80334D01*
X59019Y80795D01*
X58927Y81256D01*
X58666Y81647D01*
X58275Y81908D01*
X58014Y82469D01*
X58049Y82645D01*
X57957Y83106D01*
X57696Y83496D01*
X57306Y83757D01*
X56845Y83849D01*
D02*
G37*
G36*
X71217Y80240D02*
X70756Y80149D01*
X70366Y79887D01*
X70105Y79497D01*
X70013Y79036D01*
X70105Y78575D01*
X70366Y78184D01*
X70756Y77923D01*
X71217Y77832D01*
X71678Y77923D01*
X72069Y78184D01*
X72330Y78575D01*
X72421Y79036D01*
X72330Y79497D01*
X72069Y79887D01*
X71678Y80149D01*
X71217Y80240D01*
D02*
G37*
G36*
X10905Y80849D02*
X10061Y80681D01*
X9344Y80203D01*
X8866Y79487D01*
X8698Y78642D01*
X8866Y77797D01*
X9344Y77081D01*
X10061Y76602D01*
X10905Y76434D01*
X11750Y76602D01*
X12467Y77081D01*
X12945Y77797D01*
X13113Y78642D01*
X12945Y79487D01*
X12467Y80203D01*
X11750Y80681D01*
X10905Y80849D01*
D02*
G37*
G36*
X56483Y74311D02*
X56022Y74219D01*
X55632Y73958D01*
X55371Y73567D01*
X55279Y73106D01*
X55371Y72646D01*
X55632Y72255D01*
X56022Y71994D01*
X56483Y71902D01*
X56944Y71994D01*
X57335Y72255D01*
X57596Y72646D01*
X57687Y73106D01*
X57596Y73567D01*
X57335Y73958D01*
X56944Y74219D01*
X56483Y74311D01*
D02*
G37*
G36*
X21457Y73645D02*
X20996Y73554D01*
X20605Y73292D01*
X20344Y72902D01*
X20252Y72441D01*
X20344Y71980D01*
X20605Y71589D01*
X20996Y71328D01*
X21457Y71237D01*
X21917Y71328D01*
X22308Y71589D01*
X22569Y71980D01*
X22661Y72441D01*
X22569Y72902D01*
X22308Y73292D01*
X21917Y73554D01*
X21457Y73645D01*
D02*
G37*
G36*
X10905Y75849D02*
X10061Y75681D01*
X9344Y75203D01*
X8866Y74487D01*
X8698Y73642D01*
X8866Y72797D01*
X9344Y72081D01*
X10061Y71602D01*
X10905Y71434D01*
X11750Y71602D01*
X12190Y71895D01*
X12640Y71595D01*
X12589Y71343D01*
X12681Y70882D01*
X12942Y70491D01*
X13333Y70230D01*
X13794Y70139D01*
X14255Y70230D01*
X14645Y70491D01*
X14906Y70882D01*
X14998Y71343D01*
X14906Y71804D01*
X14645Y72194D01*
X14255Y72455D01*
X13794Y72547D01*
X13333Y72455D01*
X13307Y72438D01*
X12948Y72794D01*
X12945Y72798D01*
X13113Y73642D01*
X12945Y74487D01*
X12467Y75203D01*
X11750Y75681D01*
X10905Y75849D01*
D02*
G37*
G36*
X84013Y70614D02*
X83552Y70522D01*
X83161Y70261D01*
X82900Y69870D01*
X82808Y69409D01*
X82900Y68949D01*
X83161Y68558D01*
X83552Y68297D01*
X84013Y68205D01*
X84473Y68297D01*
X84864Y68558D01*
X85125Y68949D01*
X85217Y69409D01*
X85125Y69870D01*
X84864Y70261D01*
X84473Y70522D01*
X84013Y70614D01*
D02*
G37*
G36*
X63681Y70594D02*
X63220Y70502D01*
X62830Y70241D01*
X62568Y69851D01*
X62477Y69390D01*
X62568Y68929D01*
X62830Y68538D01*
X63220Y68277D01*
X63681Y68186D01*
X64142Y68277D01*
X64533Y68538D01*
X64794Y68929D01*
X64885Y69390D01*
X64794Y69851D01*
X64533Y70241D01*
X64142Y70502D01*
X63681Y70594D01*
D02*
G37*
G36*
X71217Y70299D02*
X70756Y70207D01*
X70366Y69946D01*
X70105Y69555D01*
X70013Y69095D01*
X70105Y68634D01*
X70366Y68243D01*
X70756Y67982D01*
X71217Y67890D01*
X71678Y67982D01*
X72069Y68243D01*
X72330Y68634D01*
X72421Y69095D01*
X72330Y69555D01*
X72069Y69946D01*
X71678Y70207D01*
X71217Y70299D01*
D02*
G37*
G36*
X22736D02*
X22275Y70207D01*
X21885Y69946D01*
X21624Y69555D01*
X21532Y69095D01*
X21624Y68634D01*
X21885Y68243D01*
X22275Y67982D01*
X22736Y67890D01*
X23197Y67982D01*
X23588Y68243D01*
X24146Y68179D01*
X24177Y68133D01*
X24568Y67871D01*
X25028Y67780D01*
X25489Y67871D01*
X25880Y68133D01*
X26141Y68523D01*
X26233Y68984D01*
X26141Y69445D01*
X25880Y69836D01*
X25489Y70097D01*
X25028Y70188D01*
X24568Y70097D01*
X24177Y69836D01*
X23619Y69900D01*
X23588Y69946D01*
X23197Y70207D01*
X22736Y70299D01*
D02*
G37*
G36*
X10905Y70850D02*
X10061Y70681D01*
X9344Y70203D01*
X8866Y69487D01*
X8698Y68642D01*
X8866Y67797D01*
X9344Y67081D01*
X10061Y66602D01*
X10905Y66434D01*
X11750Y66602D01*
X12467Y67081D01*
X12945Y67797D01*
X13113Y68642D01*
X12945Y69487D01*
X12467Y70203D01*
X11750Y70681D01*
X10905Y70850D01*
D02*
G37*
G36*
X13866Y67351D02*
X13406Y67259D01*
X13015Y66998D01*
X12754Y66608D01*
X12662Y66147D01*
X12754Y65686D01*
X13015Y65295D01*
X13406Y65034D01*
X13866Y64943D01*
X14327Y65034D01*
X14718Y65295D01*
X14979Y65686D01*
X15071Y66147D01*
X14979Y66608D01*
X14718Y66998D01*
X14327Y67259D01*
X13866Y67351D01*
D02*
G37*
G36*
X45276Y67153D02*
X44815Y67062D01*
X44424Y66800D01*
X44163Y66410D01*
X44071Y65949D01*
X44163Y65488D01*
X44424Y65097D01*
X44815Y64836D01*
X45276Y64745D01*
X45736Y64836D01*
X46127Y65097D01*
X46388Y65488D01*
X46480Y65949D01*
X46388Y66410D01*
X46127Y66800D01*
X45736Y67062D01*
X45276Y67153D01*
D02*
G37*
G36*
X28543D02*
X28082Y67062D01*
X27692Y66800D01*
X27431Y66410D01*
X27339Y65949D01*
X27431Y65488D01*
X27692Y65097D01*
X28082Y64836D01*
X28543Y64745D01*
X29004Y64836D01*
X29395Y65097D01*
X29656Y65488D01*
X29748Y65949D01*
X29656Y66410D01*
X29395Y66800D01*
X29004Y67062D01*
X28543Y67153D01*
D02*
G37*
G36*
X53543Y66165D02*
X53083Y66073D01*
X52692Y65812D01*
X52431Y65421D01*
X52339Y64961D01*
X52431Y64500D01*
X52692Y64109D01*
X53083Y63848D01*
X53543Y63756D01*
X54004Y63848D01*
X54395Y64109D01*
X54656Y64500D01*
X54748Y64961D01*
X54656Y65421D01*
X54395Y65812D01*
X54004Y66073D01*
X53543Y66165D01*
D02*
G37*
G36*
X40585D02*
X40124Y66073D01*
X39734Y65812D01*
X39473Y65421D01*
X39381Y64961D01*
X39473Y64500D01*
X39734Y64109D01*
X40124Y63848D01*
X40585Y63756D01*
X41046Y63848D01*
X41437Y64109D01*
X41698Y64500D01*
X41789Y64961D01*
X41698Y65421D01*
X41437Y65812D01*
X41046Y66073D01*
X40585Y66165D01*
D02*
G37*
G36*
X67471Y65895D02*
X67010Y65803D01*
X66619Y65542D01*
X66358Y65151D01*
X66267Y64690D01*
X66358Y64229D01*
X66619Y63839D01*
X67010Y63578D01*
X67471Y63486D01*
X67932Y63578D01*
X68322Y63839D01*
X68584Y64229D01*
X68675Y64690D01*
X68584Y65151D01*
X68322Y65542D01*
X67932Y65803D01*
X67471Y65895D01*
D02*
G37*
G36*
X24508D02*
X24047Y65803D01*
X23656Y65542D01*
X23395Y65151D01*
X23304Y64690D01*
X23395Y64229D01*
X23656Y63839D01*
X24047Y63578D01*
X24508Y63486D01*
X24969Y63578D01*
X25359Y63839D01*
X25620Y64229D01*
X25712Y64690D01*
X25620Y65151D01*
X25359Y65542D01*
X24969Y65803D01*
X24508Y65895D01*
D02*
G37*
G36*
X10905Y65850D02*
X10061Y65681D01*
X9344Y65203D01*
X8866Y64487D01*
X8698Y63642D01*
X8866Y62797D01*
X9344Y62081D01*
X10061Y61602D01*
X10905Y61434D01*
X11750Y61602D01*
X12348Y62002D01*
X12709Y61641D01*
X12681Y61600D01*
X12589Y61139D01*
X12681Y60678D01*
X12702Y60647D01*
X12341Y60287D01*
X11750Y60681D01*
X10905Y60849D01*
X10061Y60681D01*
X9344Y60203D01*
X8866Y59487D01*
X8698Y58642D01*
X8866Y57797D01*
X9344Y57081D01*
X10061Y56602D01*
X10905Y56434D01*
X11750Y56602D01*
X12467Y57081D01*
X12945Y57797D01*
X13113Y58642D01*
X12945Y59487D01*
X12707Y59843D01*
X13068Y60203D01*
X13333Y60026D01*
X13794Y59935D01*
X14255Y60026D01*
X14645Y60287D01*
X14906Y60678D01*
X14998Y61139D01*
X14906Y61600D01*
X14645Y61990D01*
X14255Y62251D01*
X13794Y62343D01*
X13333Y62251D01*
X13060Y62069D01*
X12700Y62430D01*
X12945Y62797D01*
X13113Y63642D01*
X12945Y64487D01*
X12467Y65203D01*
X11750Y65681D01*
X10905Y65850D01*
D02*
G37*
G36*
X47638Y60567D02*
X47177Y60475D01*
X46786Y60214D01*
X46525Y59824D01*
X46434Y59363D01*
X46525Y58902D01*
X46786Y58511D01*
X47177Y58250D01*
X47638Y58159D01*
X48099Y58250D01*
X48489Y58511D01*
X48750Y58902D01*
X48842Y59363D01*
X48750Y59824D01*
X48489Y60214D01*
X48099Y60475D01*
X47638Y60567D01*
D02*
G37*
G36*
X17088Y59846D02*
X16627Y59754D01*
X16236Y59493D01*
X15975Y59103D01*
X15883Y58642D01*
X15975Y58181D01*
X16236Y57790D01*
X16627Y57529D01*
X17088Y57437D01*
X17549Y57529D01*
X17939Y57790D01*
X18200Y58181D01*
X18292Y58642D01*
X18200Y59103D01*
X17939Y59493D01*
X17549Y59754D01*
X17088Y59846D01*
D02*
G37*
G36*
X62612Y57243D02*
X62151Y57152D01*
X61760Y56890D01*
X61499Y56500D01*
X61408Y56039D01*
X61499Y55578D01*
X61760Y55187D01*
X62151Y54926D01*
X62612Y54835D01*
X63073Y54926D01*
X63463Y55187D01*
X63725Y55578D01*
X63816Y56039D01*
X63725Y56500D01*
X63463Y56890D01*
X63073Y57152D01*
X62612Y57243D01*
D02*
G37*
G36*
X27953Y55535D02*
X27492Y55443D01*
X27101Y55182D01*
X26840Y54791D01*
X26748Y54331D01*
X26840Y53870D01*
X27101Y53479D01*
X27492Y53218D01*
X27953Y53127D01*
X28414Y53218D01*
X28804Y53479D01*
X29065Y53870D01*
X29157Y54331D01*
X29065Y54791D01*
X28804Y55182D01*
X28414Y55443D01*
X27953Y55535D01*
D02*
G37*
G36*
X8563Y54157D02*
X8102Y54065D01*
X7711Y53804D01*
X7450Y53414D01*
X7359Y52953D01*
X7450Y52492D01*
X7711Y52101D01*
X8102Y51840D01*
X8563Y51749D01*
X9024Y51840D01*
X9414Y52101D01*
X9676Y52492D01*
X9767Y52953D01*
X9676Y53414D01*
X9414Y53804D01*
X9024Y54065D01*
X8563Y54157D01*
D02*
G37*
G36*
X14681Y47210D02*
X14221Y47119D01*
X13830Y46858D01*
X13569Y46467D01*
X13477Y46006D01*
X13569Y45545D01*
X13830Y45155D01*
X14221Y44894D01*
X14681Y44802D01*
X15142Y44894D01*
X15533Y45155D01*
X15794Y45545D01*
X15886Y46006D01*
X15794Y46467D01*
X15533Y46858D01*
X15142Y47119D01*
X14681Y47210D01*
D02*
G37*
G36*
X29431Y49211D02*
X28970Y49119D01*
X28579Y48858D01*
X28318Y48467D01*
X28226Y48006D01*
X28318Y47546D01*
X28579Y47155D01*
X28970Y46894D01*
X29430Y46802D01*
X29484Y46321D01*
X29211Y46266D01*
X28820Y46005D01*
X28559Y45614D01*
X28467Y45154D01*
X28559Y44693D01*
X28820Y44302D01*
X29211Y44041D01*
X29671Y43949D01*
X30132Y44041D01*
X30523Y44302D01*
X30784Y44693D01*
X30876Y45154D01*
X30784Y45614D01*
X30523Y46005D01*
X30132Y46266D01*
X29671Y46358D01*
X29618Y46840D01*
X29891Y46894D01*
X30282Y47155D01*
X30543Y47546D01*
X30635Y48006D01*
X30543Y48467D01*
X30282Y48858D01*
X29891Y49119D01*
X29431Y49211D01*
D02*
G37*
G36*
X15059Y44193D02*
X14598Y44101D01*
X14208Y43840D01*
X13947Y43449D01*
X13855Y42988D01*
X13947Y42527D01*
X14208Y42137D01*
X14598Y41876D01*
X15059Y41784D01*
X15520Y41876D01*
X15911Y42137D01*
X16172Y42527D01*
X16263Y42988D01*
X16172Y43449D01*
X15911Y43840D01*
X15520Y44101D01*
X15059Y44193D01*
D02*
G37*
G36*
X20989Y42142D02*
X20528Y42050D01*
X20138Y41789D01*
X19877Y41399D01*
X19785Y40938D01*
X19877Y40477D01*
X20138Y40086D01*
X20528Y39825D01*
X20989Y39734D01*
X21450Y39825D01*
X21841Y40086D01*
X22102Y40477D01*
X22194Y40938D01*
X22102Y41399D01*
X21841Y41789D01*
X21450Y42050D01*
X20989Y42142D01*
D02*
G37*
G36*
X24148Y41859D02*
X23687Y41767D01*
X23297Y41506D01*
X23036Y41116D01*
X22944Y40655D01*
X23036Y40194D01*
X23297Y39803D01*
X23687Y39542D01*
X24148Y39450D01*
X24609Y39542D01*
X25000Y39803D01*
X25261Y40194D01*
X25352Y40655D01*
X25261Y41116D01*
X25000Y41506D01*
X24609Y41767D01*
X24148Y41859D01*
D02*
G37*
G36*
X73386Y37303D02*
X72925Y37211D01*
X72534Y36950D01*
X72273Y36559D01*
X72181Y36099D01*
X72273Y35638D01*
X72534Y35247D01*
X72925Y34986D01*
X73386Y34894D01*
X73847Y34986D01*
X74237Y35247D01*
X74498Y35638D01*
X74590Y36099D01*
X74498Y36559D01*
X74237Y36950D01*
X73847Y37211D01*
X73386Y37303D01*
D02*
G37*
G36*
X15658Y36456D02*
X15197Y36364D01*
X14806Y36103D01*
X14545Y35713D01*
X14453Y35252D01*
X14545Y34791D01*
X14806Y34400D01*
X15197Y34139D01*
X15658Y34047D01*
X16118Y34139D01*
X16509Y34400D01*
X16770Y34791D01*
X16862Y35252D01*
X16770Y35713D01*
X16509Y36103D01*
X16118Y36364D01*
X15658Y36456D01*
D02*
G37*
G36*
X90453Y36342D02*
X89992Y36250D01*
X89601Y35989D01*
X89340Y35599D01*
X89249Y35138D01*
X89340Y34677D01*
X89601Y34286D01*
X89992Y34025D01*
X90453Y33934D01*
X90914Y34025D01*
X91304Y34286D01*
X91565Y34677D01*
X91657Y35138D01*
X91565Y35599D01*
X91304Y35989D01*
X90914Y36250D01*
X90453Y36342D01*
D02*
G37*
G36*
X43248Y36293D02*
X42787Y36201D01*
X42397Y35940D01*
X42136Y35549D01*
X42044Y35089D01*
X42136Y34628D01*
X42397Y34237D01*
X42787Y33976D01*
X43248Y33884D01*
X43709Y33976D01*
X44100Y34237D01*
X44361Y34628D01*
X44452Y35089D01*
X44361Y35549D01*
X44100Y35940D01*
X43709Y36201D01*
X43248Y36293D01*
D02*
G37*
G36*
X119299Y35223D02*
X118838Y35131D01*
X118448Y34870D01*
X118187Y34479D01*
X118095Y34018D01*
X118167Y33654D01*
X117950Y33404D01*
X117769Y33288D01*
X117376Y33366D01*
X116915Y33274D01*
X116524Y33013D01*
X116263Y32622D01*
X116172Y32162D01*
X116263Y31701D01*
X116524Y31310D01*
X116915Y31049D01*
X117376Y30957D01*
X117837Y31049D01*
X118227Y31310D01*
X118488Y31701D01*
X118580Y32162D01*
X118508Y32526D01*
X118725Y32776D01*
X118906Y32893D01*
X119299Y32814D01*
X119760Y32906D01*
X120151Y33167D01*
X120412Y33558D01*
X120503Y34018D01*
X120412Y34479D01*
X120151Y34870D01*
X119760Y35131D01*
X119299Y35223D01*
D02*
G37*
G36*
X23620Y35531D02*
X23159Y35440D01*
X22769Y35178D01*
X22508Y34788D01*
X22416Y34327D01*
X22508Y33866D01*
X22769Y33475D01*
X23159Y33214D01*
X23620Y33123D01*
X24081Y33214D01*
X24472Y33475D01*
X24733Y33866D01*
X24824Y34327D01*
X24733Y34788D01*
X24472Y35178D01*
X24081Y35440D01*
X23620Y35531D01*
D02*
G37*
G36*
X67028Y30535D02*
X66567Y30443D01*
X66176Y30182D01*
X65915Y29792D01*
X65823Y29331D01*
X65915Y28870D01*
X66176Y28479D01*
X66567Y28218D01*
X67028Y28126D01*
X67488Y28218D01*
X67879Y28479D01*
X68140Y28870D01*
X68232Y29331D01*
X68140Y29792D01*
X67879Y30182D01*
X67488Y30443D01*
X67028Y30535D01*
D02*
G37*
G36*
X106205Y32070D02*
X105745Y31979D01*
X105354Y31718D01*
X105093Y31327D01*
X105001Y30866D01*
X105093Y30405D01*
X105354Y30015D01*
X105329Y29430D01*
X105288Y29368D01*
X105196Y28907D01*
X105288Y28446D01*
X105549Y28056D01*
X105940Y27795D01*
X106401Y27703D01*
X106861Y27795D01*
X107252Y28056D01*
X107513Y28446D01*
X107605Y28907D01*
X107513Y29368D01*
X107252Y29759D01*
X107277Y30344D01*
X107318Y30405D01*
X107410Y30866D01*
X107318Y31327D01*
X107057Y31718D01*
X106666Y31979D01*
X106205Y32070D01*
D02*
G37*
G36*
X43909Y28744D02*
X43448Y28652D01*
X43057Y28391D01*
X42796Y28000D01*
X42705Y27539D01*
X42796Y27079D01*
X43057Y26688D01*
X43448Y26427D01*
X43909Y26335D01*
X44370Y26427D01*
X44760Y26688D01*
X45021Y27079D01*
X45113Y27539D01*
X45021Y28000D01*
X44760Y28391D01*
X44370Y28652D01*
X43909Y28744D01*
D02*
G37*
G36*
X93498Y27878D02*
X93037Y27786D01*
X92646Y27525D01*
X92385Y27134D01*
X92293Y26673D01*
X92385Y26212D01*
X92646Y25822D01*
X93037Y25561D01*
X93498Y25469D01*
X93958Y25561D01*
X94349Y25822D01*
X94610Y26212D01*
X94702Y26673D01*
X94610Y27134D01*
X94349Y27525D01*
X93958Y27786D01*
X93498Y27878D01*
D02*
G37*
G36*
X122933Y27460D02*
X122472Y27369D01*
X122081Y27108D01*
X121820Y26717D01*
X121729Y26256D01*
X121820Y25795D01*
X122081Y25405D01*
X122472Y25144D01*
X122933Y25052D01*
X123394Y25144D01*
X123785Y25405D01*
X124046Y25795D01*
X124137Y26256D01*
X124046Y26717D01*
X123785Y27108D01*
X123394Y27369D01*
X122933Y27460D01*
D02*
G37*
G36*
X83028D02*
X82567Y27369D01*
X82177Y27108D01*
X81916Y26717D01*
X81824Y26256D01*
X81916Y25795D01*
X82177Y25405D01*
X82567Y25144D01*
X83028Y25052D01*
X83489Y25144D01*
X83880Y25405D01*
X84141Y25795D01*
X84232Y26256D01*
X84141Y26717D01*
X83880Y27108D01*
X83489Y27369D01*
X83028Y27460D01*
D02*
G37*
G36*
X99508Y26204D02*
X99047Y26113D01*
X98656Y25852D01*
X98395Y25461D01*
X98304Y25000D01*
X98395Y24539D01*
X98656Y24148D01*
X99047Y23887D01*
X99508Y23796D01*
X99969Y23887D01*
X100359Y24148D01*
X100620Y24539D01*
X100712Y25000D01*
X100620Y25461D01*
X100359Y25852D01*
X99969Y26113D01*
X99508Y26204D01*
D02*
G37*
G36*
X26673Y25318D02*
X26212Y25227D01*
X25822Y24966D01*
X25561Y24575D01*
X25469Y24114D01*
X25561Y23653D01*
X25822Y23263D01*
X26212Y23002D01*
X26673Y22910D01*
X27134Y23002D01*
X27525Y23263D01*
X27786Y23653D01*
X27878Y24114D01*
X27786Y24575D01*
X27525Y24966D01*
X27134Y25227D01*
X26673Y25318D01*
D02*
G37*
G36*
X93461Y23891D02*
X93001Y23800D01*
X92610Y23539D01*
X92349Y23148D01*
X92257Y22687D01*
X92349Y22226D01*
X92610Y21836D01*
X93001Y21574D01*
X93461Y21483D01*
X93922Y21574D01*
X94313Y21836D01*
X94574Y22226D01*
X94666Y22687D01*
X94574Y23148D01*
X94313Y23539D01*
X93922Y23800D01*
X93461Y23891D01*
D02*
G37*
G36*
X44350D02*
X43890Y23800D01*
X43499Y23539D01*
X43238Y23148D01*
X43146Y22687D01*
X43238Y22226D01*
X43499Y21836D01*
X43890Y21574D01*
X44350Y21483D01*
X44811Y21574D01*
X45202Y21836D01*
X45463Y22226D01*
X45555Y22687D01*
X45463Y23148D01*
X45202Y23539D01*
X44811Y23800D01*
X44350Y23891D01*
D02*
G37*
G36*
X37106D02*
X36645Y23800D01*
X36255Y23539D01*
X35994Y23148D01*
X35902Y22687D01*
X35994Y22226D01*
X36255Y21836D01*
X36645Y21574D01*
X37106Y21483D01*
X37567Y21574D01*
X37958Y21836D01*
X38219Y22226D01*
X38311Y22687D01*
X38219Y23148D01*
X37958Y23539D01*
X37567Y23800D01*
X37106Y23891D01*
D02*
G37*
G36*
X66953Y20889D02*
X66492Y20798D01*
X66101Y20537D01*
X65840Y20146D01*
X65748Y19685D01*
X65840Y19224D01*
X66101Y18834D01*
X66492Y18573D01*
X66953Y18481D01*
X67414Y18573D01*
X67804Y18834D01*
X68065Y19224D01*
X68157Y19685D01*
X68065Y20146D01*
X67804Y20537D01*
X67414Y20798D01*
X66953Y20889D01*
D02*
G37*
G36*
X81890Y20767D02*
X81429Y20676D01*
X81038Y20415D01*
X80777Y20024D01*
X80686Y19563D01*
X80777Y19102D01*
X81038Y18712D01*
X81429Y18451D01*
X81890Y18359D01*
X82351Y18451D01*
X82741Y18712D01*
X83002Y19102D01*
X83094Y19563D01*
X83002Y20024D01*
X82741Y20415D01*
X82351Y20676D01*
X81890Y20767D01*
D02*
G37*
G36*
X113583Y19167D02*
X113122Y19075D01*
X112731Y18814D01*
X112470Y18423D01*
X112378Y17963D01*
X112470Y17502D01*
X112731Y17111D01*
X113122Y16850D01*
X113583Y16758D01*
X114043Y16850D01*
X114434Y17111D01*
X114695Y17502D01*
X114787Y17963D01*
X114695Y18423D01*
X114434Y18814D01*
X114043Y19075D01*
X113583Y19167D01*
D02*
G37*
G36*
X39291Y16460D02*
X38831Y16368D01*
X38440Y16107D01*
X38179Y15717D01*
X38087Y15256D01*
X38179Y14795D01*
X38440Y14404D01*
X38831Y14143D01*
X39291Y14052D01*
X39752Y14143D01*
X40143Y14404D01*
X40404Y14795D01*
X40496Y15256D01*
X40404Y15717D01*
X40143Y16107D01*
X39752Y16368D01*
X39291Y16460D01*
D02*
G37*
G36*
X102362Y13213D02*
X101901Y13121D01*
X101511Y12860D01*
X101250Y12469D01*
X101158Y12009D01*
X101250Y11548D01*
X101511Y11157D01*
X101901Y10896D01*
X102362Y10804D01*
X102823Y10896D01*
X103214Y11157D01*
X103475Y11548D01*
X103566Y12009D01*
X103475Y12469D01*
X103214Y12860D01*
X102823Y13121D01*
X102362Y13213D01*
D02*
G37*
G36*
X106004Y11357D02*
X105543Y11266D01*
X105152Y11005D01*
X104891Y10614D01*
X104800Y10153D01*
X104891Y9692D01*
X105152Y9302D01*
X105543Y9041D01*
X106004Y8949D01*
X106465Y9041D01*
X106855Y9302D01*
X107116Y9692D01*
X107208Y10153D01*
X107116Y10614D01*
X106855Y11005D01*
X106465Y11266D01*
X106004Y11357D01*
D02*
G37*
G36*
X91634Y9275D02*
X91173Y9183D01*
X90782Y8922D01*
X90521Y8532D01*
X90430Y8071D01*
X90521Y7610D01*
X90782Y7219D01*
X91173Y6958D01*
X91634Y6867D01*
X92095Y6958D01*
X92485Y7219D01*
X92746Y7610D01*
X92838Y8071D01*
X92746Y8532D01*
X92485Y8922D01*
X92095Y9183D01*
X91634Y9275D01*
D02*
G37*
G36*
X102362Y8192D02*
X101901Y8101D01*
X101511Y7840D01*
X101250Y7449D01*
X101158Y6988D01*
X101250Y6527D01*
X101511Y6137D01*
X101901Y5876D01*
X102362Y5784D01*
X102823Y5876D01*
X103214Y6137D01*
X103475Y6527D01*
X103566Y6988D01*
X103475Y7449D01*
X103214Y7840D01*
X102823Y8101D01*
X102362Y8192D01*
D02*
G37*
G36*
X83028Y7946D02*
X82567Y7855D01*
X82177Y7594D01*
X81916Y7203D01*
X81824Y6742D01*
X81916Y6281D01*
X82177Y5891D01*
X82567Y5630D01*
X83028Y5538D01*
X83489Y5630D01*
X83880Y5891D01*
X84141Y6281D01*
X84232Y6742D01*
X84141Y7203D01*
X83880Y7594D01*
X83489Y7855D01*
X83028Y7946D01*
D02*
G37*
G36*
X50295D02*
X49834Y7855D01*
X49444Y7594D01*
X49183Y7203D01*
X49091Y6742D01*
X49183Y6281D01*
X49444Y5891D01*
X49834Y5630D01*
X50295Y5538D01*
X50756Y5630D01*
X51147Y5891D01*
X51408Y6281D01*
X51499Y6742D01*
X51408Y7203D01*
X51147Y7594D01*
X50756Y7855D01*
X50295Y7946D01*
D02*
G37*
%LPD*%
D15*
X2500Y101000D02*
X44000Y142500D01*
X103000D01*
X144500Y101000D01*
Y42500D02*
Y101000D01*
X103000Y1000D02*
X144500Y42500D01*
X44000Y1000D02*
X103000D01*
X2500Y42500D02*
X44000Y1000D01*
X2500Y42500D02*
Y101000D01*
D112*
X116634Y117382D02*
D03*
D113*
X102657Y37303D02*
D03*
X119002Y25690D02*
D03*
X128057Y34549D02*
D03*
X52318Y115057D02*
D03*
X18602Y64129D02*
D03*
X33556Y103032D02*
D03*
X80811Y134554D02*
D03*
X101279Y139587D02*
D03*
X102096Y116634D02*
D03*
X58366Y19685D02*
D03*
X42421Y117441D02*
D03*
X26575Y120276D02*
D03*
X46752Y136516D02*
D03*
X79091Y97962D02*
D03*
X61860Y99409D02*
D03*
X109597Y10039D02*
D03*
X90453Y19563D02*
D03*
X10827Y101457D02*
D03*
X19496Y30020D02*
D03*
X21654Y49626D02*
D03*
X67280Y85916D02*
D03*
Y61277D02*
D03*
M02*
