G04*
G04 #@! TF.GenerationSoftware,Altium Limited,Altium NEXUS,3.0.14 (129)*
G04*
G04 Layer_Physical_Order=3*
G04 Layer_Color=16776960*
%FSLAX25Y25*%
%MOIN*%
G70*
G01*
G75*
%ADD11C,0.00394*%
%ADD15C,0.00000*%
%ADD68C,0.01968*%
%ADD108C,0.01181*%
%ADD110R,0.03543X0.03543*%
%ADD111C,0.03543*%
%ADD113C,0.01575*%
%ADD114C,0.01772*%
G36*
X100131Y140100D02*
X100156Y139993D01*
X100075Y139587D01*
X100167Y139126D01*
X100428Y138735D01*
X100819Y138474D01*
X101279Y138382D01*
X101740Y138474D01*
X102131Y138735D01*
X102392Y139126D01*
X102465Y139490D01*
X102747Y139641D01*
X102973Y139688D01*
X117033Y125629D01*
X116799Y125156D01*
X116634Y125177D01*
X115910Y125082D01*
X115236Y124803D01*
X114657Y124358D01*
X114213Y123779D01*
X113934Y123105D01*
X113904Y122882D01*
X116634D01*
Y121882D01*
X113904D01*
X113934Y121658D01*
X114213Y120984D01*
X114657Y120405D01*
X115123Y120047D01*
X114994Y119547D01*
X114468D01*
Y115217D01*
X118799D01*
Y119547D01*
X118274D01*
X118145Y120047D01*
X118611Y120405D01*
X119055Y120984D01*
X119334Y121658D01*
X119430Y122382D01*
X119408Y122547D01*
X119881Y122780D01*
X127951Y114710D01*
X127886Y114309D01*
X127809Y114146D01*
X127703Y114075D01*
X98622D01*
X98238Y113998D01*
X97913Y113781D01*
X89743Y105611D01*
X89526Y105286D01*
X89449Y104902D01*
Y90785D01*
X88949Y90577D01*
X85016Y94511D01*
Y104865D01*
X84940Y105249D01*
X84722Y105575D01*
X56815Y133482D01*
X56870Y133760D01*
X56779Y134221D01*
X56518Y134611D01*
X56127Y134872D01*
X55666Y134964D01*
X55205Y134872D01*
X54814Y134611D01*
X54554Y134221D01*
X54462Y133760D01*
X54554Y133299D01*
X54770Y132975D01*
X54814Y132753D01*
X55032Y132427D01*
X57987Y129472D01*
X57956Y128843D01*
X57786Y128690D01*
X41760D01*
X40183Y130267D01*
X39731Y130454D01*
X37165D01*
X37013Y130954D01*
X37204Y131082D01*
X37346Y131294D01*
X49847D01*
X50299Y131481D01*
X52210Y133393D01*
X52461Y133343D01*
X52921Y133435D01*
X53312Y133696D01*
X53573Y134086D01*
X53665Y134547D01*
X53573Y135008D01*
X53312Y135399D01*
X52921Y135660D01*
X52461Y135751D01*
X52000Y135660D01*
X51609Y135399D01*
X51348Y135008D01*
X51256Y134547D01*
X51306Y134297D01*
X49582Y132573D01*
X37618D01*
X37411Y133073D01*
X44831Y140493D01*
X55852D01*
X56223Y139993D01*
X56119Y139469D01*
X56287Y138624D01*
X56766Y137908D01*
X57482Y137429D01*
X58327Y137261D01*
X59172Y137429D01*
X59888Y137908D01*
X60055Y138157D01*
X60555Y138006D01*
Y136697D01*
X62827D01*
Y139468D01*
X63327D01*
Y139968D01*
X66098D01*
Y140493D01*
X99863D01*
X100131Y140100D01*
D02*
G37*
G36*
X28337Y120305D02*
X30787Y117855D01*
X31239Y117668D01*
X35576D01*
X36009Y117235D01*
Y116078D01*
X35967Y115982D01*
X35625Y115645D01*
X35463Y115677D01*
X35002Y115585D01*
X34611Y115324D01*
X34350Y114933D01*
X34259Y114472D01*
X34308Y114222D01*
X30939Y110852D01*
X30751Y110400D01*
Y102280D01*
X30290Y102089D01*
X28210Y104168D01*
Y112283D01*
X28422Y112425D01*
X28684Y112816D01*
X28775Y113277D01*
X28684Y113737D01*
X28422Y114128D01*
X28032Y114389D01*
X27571Y114481D01*
X27110Y114389D01*
X26719Y114128D01*
X26458Y113737D01*
X26367Y113277D01*
X26458Y112816D01*
X26719Y112425D01*
X26932Y112283D01*
Y103903D01*
X27119Y103451D01*
X51617Y78954D01*
X52069Y78766D01*
X55427D01*
X55568Y78554D01*
X55959Y78293D01*
X56000Y78285D01*
X56165Y77742D01*
X45526Y67103D01*
X45276Y67153D01*
X44815Y67062D01*
X44424Y66800D01*
X44163Y66410D01*
X44071Y65949D01*
X44163Y65488D01*
X44424Y65097D01*
X44448Y65081D01*
X44538Y64509D01*
X44297Y64222D01*
X29522D01*
X29281Y64509D01*
X29371Y65081D01*
X29395Y65097D01*
X29656Y65488D01*
X29748Y65949D01*
X29656Y66410D01*
X29395Y66800D01*
X29182Y66942D01*
Y85684D01*
X28995Y86136D01*
X22271Y92860D01*
X22308Y93243D01*
X22569Y93634D01*
X22661Y94095D01*
X22569Y94555D01*
X22322Y94926D01*
Y94984D01*
X22497Y95406D01*
Y117993D01*
X24881Y120377D01*
X25108Y120330D01*
X25390Y120179D01*
X25462Y119815D01*
X25723Y119424D01*
X26114Y119163D01*
X26575Y119071D01*
X27036Y119163D01*
X27426Y119424D01*
X27687Y119815D01*
X27779Y120276D01*
X27752Y120411D01*
X28233Y120556D01*
X28337Y120305D01*
D02*
G37*
G36*
X140199Y102463D02*
X140007Y102001D01*
X94488D01*
X94187Y101876D01*
X94062Y101575D01*
Y92142D01*
X93571Y91869D01*
X93110Y91960D01*
X92649Y91869D01*
X92259Y91607D01*
X91998Y91217D01*
X91956Y91009D01*
X91456Y91058D01*
Y104486D01*
X99038Y112068D01*
X102799D01*
Y109851D01*
X105571D01*
Y109351D01*
X106071D01*
Y106579D01*
X108343D01*
Y107887D01*
X108843Y108039D01*
X109010Y107789D01*
X109726Y107310D01*
X110571Y107142D01*
X111416Y107310D01*
X112132Y107789D01*
X112610Y108505D01*
X112778Y109350D01*
X112610Y110195D01*
X112132Y110911D01*
X111416Y111390D01*
X110571Y111558D01*
X109726Y111390D01*
X109010Y110911D01*
X108843Y110662D01*
X108343Y110813D01*
Y112068D01*
X127703D01*
X127866Y111959D01*
X128327Y111867D01*
X128788Y111959D01*
X129178Y112220D01*
X129401Y112553D01*
X129564Y112630D01*
X129966Y112696D01*
X140199Y102463D01*
D02*
G37*
G36*
X41895Y119012D02*
X41772Y118428D01*
X41570Y118292D01*
X41309Y117902D01*
X41217Y117441D01*
X41309Y116980D01*
X41570Y116589D01*
X41960Y116328D01*
X42421Y116237D01*
X42882Y116328D01*
X43273Y116589D01*
X43408Y116792D01*
X43992Y116915D01*
X48591Y112316D01*
Y107910D01*
X48091Y107711D01*
X38862Y116941D01*
Y118844D01*
X38675Y119296D01*
X34717Y123254D01*
X34767Y123504D01*
X34720Y123743D01*
X35045Y124243D01*
X36664D01*
X41895Y119012D01*
D02*
G37*
G36*
X21218Y116227D02*
Y101599D01*
X20718Y101332D01*
X20711Y101337D01*
X20251Y101428D01*
X19790Y101337D01*
X19399Y101075D01*
X19138Y100685D01*
X19046Y100224D01*
X19096Y99973D01*
X18420Y99298D01*
X18233Y98846D01*
Y94607D01*
X18420Y94155D01*
X20115Y92460D01*
X20088Y92190D01*
X19827Y91799D01*
X19736Y91339D01*
X19827Y90878D01*
X20088Y90487D01*
X20335Y90322D01*
X20329Y89913D01*
X19972Y89627D01*
X19918Y89591D01*
X19488Y89676D01*
X19027Y89584D01*
X18637Y89323D01*
X18495Y89111D01*
X16668D01*
X16216Y88924D01*
X6733Y79441D01*
X6546Y78989D01*
Y46586D01*
X6733Y46134D01*
X27412Y25455D01*
Y23434D01*
X27599Y22982D01*
X39024Y11557D01*
X39476Y11369D01*
X101369D01*
X101511Y11157D01*
X101901Y10896D01*
X102362Y10804D01*
X102823Y10896D01*
X103214Y11157D01*
X103475Y11548D01*
X103566Y12009D01*
X103475Y12469D01*
X103214Y12860D01*
X102823Y13121D01*
X102362Y13213D01*
X101901Y13121D01*
X101511Y12860D01*
X101369Y12648D01*
X40100D01*
X40014Y12777D01*
X40210Y13383D01*
X40314Y13426D01*
X44802Y17914D01*
X44990Y18366D01*
Y21694D01*
X45202Y21836D01*
X45463Y22226D01*
X45555Y22687D01*
X45463Y23148D01*
X45202Y23539D01*
X44811Y23800D01*
X44350Y23891D01*
X43890Y23800D01*
X43499Y23539D01*
X43238Y23148D01*
X43146Y22687D01*
X43238Y22226D01*
X43499Y21836D01*
X43711Y21694D01*
Y18631D01*
X40862Y15782D01*
X40278Y15905D01*
X40143Y16107D01*
X39931Y16249D01*
Y16707D01*
X39743Y17159D01*
X24146Y32756D01*
X24269Y33340D01*
X24472Y33475D01*
X24613Y33688D01*
X40158D01*
X51327Y22519D01*
X51779Y22331D01*
X78218D01*
X80735Y19814D01*
X80686Y19563D01*
X80777Y19102D01*
X81038Y18712D01*
X81429Y18451D01*
X81890Y18359D01*
X82351Y18451D01*
X82741Y18712D01*
X83002Y19102D01*
X83094Y19563D01*
X83002Y20024D01*
X82741Y20415D01*
X82351Y20676D01*
X81890Y20767D01*
X81639Y20718D01*
X78934Y23423D01*
X78482Y23610D01*
X52044D01*
X40875Y34779D01*
X40423Y34966D01*
X24613D01*
X24472Y35178D01*
X24081Y35440D01*
X23751Y35505D01*
X23573Y35875D01*
X23554Y36015D01*
X27432Y39893D01*
X27619Y40345D01*
Y45291D01*
X29180Y46852D01*
X29431Y46802D01*
X29891Y46894D01*
X30282Y47155D01*
X30543Y47546D01*
X30635Y48006D01*
X30587Y48245D01*
X30913Y48745D01*
X53272D01*
X76213Y25804D01*
X76665Y25617D01*
X82035D01*
X82177Y25405D01*
X82567Y25144D01*
X83028Y25052D01*
X83489Y25144D01*
X83880Y25405D01*
X84141Y25795D01*
X84232Y26256D01*
X84141Y26717D01*
X83880Y27108D01*
X83489Y27369D01*
X83028Y27460D01*
X82567Y27369D01*
X82177Y27108D01*
X82035Y26895D01*
X76930D01*
X53989Y49837D01*
X53537Y50024D01*
X28860D01*
X28408Y49837D01*
X25741Y47170D01*
X25554Y46718D01*
Y41577D01*
X25054Y41426D01*
X25000Y41506D01*
X24609Y41767D01*
X24148Y41859D01*
X23898Y41809D01*
X8873Y56834D01*
X8882Y56872D01*
X9059Y56952D01*
X9435Y57020D01*
X10061Y56602D01*
X10905Y56434D01*
X11750Y56602D01*
X12467Y57081D01*
X12945Y57797D01*
X13113Y58642D01*
X12945Y59487D01*
X12707Y59843D01*
X13068Y60203D01*
X13333Y60026D01*
X13794Y59935D01*
X14255Y60026D01*
X14645Y60287D01*
X14906Y60678D01*
X14998Y61139D01*
X14906Y61600D01*
X14645Y61990D01*
X14617Y62009D01*
X14575Y62575D01*
X21053Y69052D01*
X21577Y68869D01*
X21624Y68634D01*
X21885Y68243D01*
X22097Y68101D01*
Y62160D01*
X22284Y61708D01*
X23168Y60825D01*
X23620Y60637D01*
X64057D01*
X64509Y60825D01*
X65857Y62172D01*
X66245Y61853D01*
X66168Y61737D01*
X66076Y61277D01*
X66168Y60816D01*
X66429Y60425D01*
X66819Y60164D01*
X67280Y60072D01*
X67741Y60164D01*
X68132Y60425D01*
X68260Y60617D01*
X68760Y60466D01*
Y59041D01*
X68948Y58589D01*
X106743Y20794D01*
Y9242D01*
X103974Y6473D01*
X103513Y6719D01*
X103566Y6988D01*
X103475Y7449D01*
X103214Y7840D01*
X102823Y8101D01*
X102362Y8192D01*
X101901Y8101D01*
X101511Y7840D01*
X101250Y7449D01*
X101158Y6988D01*
X101250Y6527D01*
X101511Y6137D01*
X101901Y5876D01*
X102362Y5784D01*
X102631Y5837D01*
X102877Y5377D01*
X101915Y4415D01*
X101331Y4538D01*
X101196Y4740D01*
X100805Y5001D01*
X100345Y5093D01*
X99884Y5001D01*
X99493Y4740D01*
X99232Y4350D01*
X99140Y3889D01*
X99151Y3833D01*
X98874Y3474D01*
X98824Y3449D01*
X98608Y3516D01*
X98575Y3686D01*
X98313Y4076D01*
X97923Y4337D01*
X97462Y4429D01*
X97001Y4337D01*
X96610Y4076D01*
X96349Y3686D01*
X96258Y3225D01*
X96079Y3007D01*
X95495D01*
X95152Y3397D01*
X95181Y3543D01*
X95089Y4004D01*
X94828Y4395D01*
X94437Y4656D01*
X93976Y4747D01*
X93515Y4656D01*
X93125Y4395D01*
X92864Y4004D01*
X92772Y3543D01*
X92779Y3507D01*
X92369Y3007D01*
X44831D01*
X19494Y28344D01*
X19494Y28348D01*
X19691Y28854D01*
X19957Y28907D01*
X20348Y29168D01*
X20609Y29559D01*
X20701Y30020D01*
X20609Y30481D01*
X20348Y30871D01*
X19957Y31132D01*
X19496Y31224D01*
X19036Y31132D01*
X18645Y30871D01*
X18384Y30481D01*
X18331Y30215D01*
X17824Y30018D01*
X17821Y30018D01*
X10172Y37666D01*
X10337Y38209D01*
X10500Y38241D01*
X10891Y38502D01*
X11152Y38893D01*
X11244Y39354D01*
X11152Y39815D01*
X10891Y40205D01*
X10500Y40466D01*
X10039Y40558D01*
X9578Y40466D01*
X9188Y40205D01*
X8927Y39815D01*
X8894Y39651D01*
X8352Y39487D01*
X4507Y43331D01*
Y100169D01*
X20756Y116418D01*
X21218Y116227D01*
D02*
G37*
G36*
X47140Y106854D02*
Y99625D01*
X46641Y99418D01*
X45909Y100149D01*
Y101549D01*
X45722Y102002D01*
X42936Y104788D01*
X42484Y104975D01*
X40541D01*
X40089Y104788D01*
X39128Y103827D01*
X38878Y103876D01*
X38417Y103785D01*
X38026Y103524D01*
X37871Y103291D01*
X37846Y103282D01*
X37350Y103279D01*
X37315Y103291D01*
X37163Y103517D01*
X36961Y103653D01*
X36838Y104236D01*
X38080Y105479D01*
X38267Y105931D01*
Y115074D01*
X38729Y115265D01*
X47140Y106854D01*
D02*
G37*
G36*
X57033Y124883D02*
X57283Y124933D01*
X79830Y102386D01*
Y99445D01*
X79330Y99119D01*
X79091Y99167D01*
X78630Y99075D01*
X78240Y98814D01*
X77979Y98423D01*
X77887Y97962D01*
X77979Y97501D01*
X78240Y97111D01*
X78630Y96850D01*
X79091Y96758D01*
X79330Y96806D01*
X79830Y96480D01*
Y92269D01*
X79833Y92260D01*
X79409Y91977D01*
X56106Y115281D01*
Y124685D01*
X56559Y124966D01*
X56606Y124968D01*
X57033Y124883D01*
D02*
G37*
G36*
X41043Y127599D02*
X41495Y127412D01*
X54827D01*
Y115016D01*
X55015Y114564D01*
X66920Y102659D01*
X66730Y102295D01*
X66658Y102214D01*
X57148D01*
X56696Y102027D01*
X53599Y98929D01*
X53543Y98940D01*
X53305Y98893D01*
X52805Y99219D01*
Y110759D01*
X52617Y111211D01*
X36945Y126884D01*
X36941Y126893D01*
X36928Y127189D01*
X36956Y127447D01*
X37163Y127585D01*
X37425Y127976D01*
X37516Y128437D01*
X37469Y128676D01*
X37794Y129176D01*
X39467D01*
X41043Y127599D01*
D02*
G37*
G36*
X83009Y104450D02*
Y94095D01*
X83085Y93711D01*
X83303Y93385D01*
X87441Y89248D01*
Y86854D01*
X86979Y86663D01*
X81108Y92533D01*
Y102651D01*
X80921Y103103D01*
X58187Y125837D01*
X58208Y125942D01*
X58459Y126243D01*
X58684Y126402D01*
X59033Y126471D01*
X59424Y126732D01*
X59662Y127089D01*
X59710Y127129D01*
X60218Y127240D01*
X83009Y104450D01*
D02*
G37*
G36*
X63780Y93647D02*
X63915Y93444D01*
X64306Y93183D01*
X64767Y93092D01*
X65017Y93142D01*
X68760Y89398D01*
Y86727D01*
X68260Y86575D01*
X68132Y86767D01*
X67741Y87028D01*
X67280Y87120D01*
X66819Y87028D01*
X66429Y86767D01*
X66168Y86377D01*
X66076Y85916D01*
X66168Y85455D01*
X66429Y85064D01*
X66819Y84803D01*
X67280Y84712D01*
X67741Y84803D01*
X68132Y85064D01*
X68260Y85257D01*
X68760Y85105D01*
Y65786D01*
X68524Y65654D01*
X68260Y65583D01*
X67932Y65803D01*
X67471Y65895D01*
X67010Y65803D01*
X66619Y65542D01*
X66358Y65151D01*
X66267Y64690D01*
X66317Y64440D01*
X63793Y61916D01*
X23885D01*
X23375Y62425D01*
Y63428D01*
X23875Y63692D01*
X24047Y63578D01*
X24508Y63486D01*
X24969Y63578D01*
X25359Y63839D01*
X25620Y64229D01*
X25712Y64690D01*
X25620Y65151D01*
X25359Y65542D01*
X24969Y65803D01*
X24508Y65895D01*
X24047Y65803D01*
X23875Y65688D01*
X23375Y65953D01*
Y67861D01*
X23689Y68107D01*
X24177Y68133D01*
X24568Y67871D01*
X25028Y67780D01*
X25386Y67851D01*
X25737Y67662D01*
X25886Y67535D01*
Y66018D01*
X26074Y65566D01*
X28509Y63131D01*
X28961Y62944D01*
X44858D01*
X45310Y63131D01*
X60432Y78253D01*
X60619Y78705D01*
Y84631D01*
X60432Y85083D01*
X58951Y86563D01*
X59001Y86814D01*
X58909Y87274D01*
X58648Y87665D01*
X58676Y88248D01*
X61505Y91077D01*
X61692Y91529D01*
Y92266D01*
X63196Y93770D01*
X63780Y93647D01*
D02*
G37*
G36*
X43164Y102752D02*
X43040Y102168D01*
X42838Y102033D01*
X42577Y101642D01*
X42485Y101181D01*
X42577Y100720D01*
X42838Y100330D01*
X43229Y100068D01*
X43690Y99977D01*
X44131Y100065D01*
X44154Y100067D01*
X44357Y99989D01*
X44662Y99809D01*
X44818Y99432D01*
X56316Y87934D01*
X56479Y87867D01*
X56690Y87289D01*
X56688Y87280D01*
X56684Y87274D01*
X56593Y86814D01*
X56684Y86353D01*
X56271Y86071D01*
X42351Y99991D01*
X42029Y100125D01*
X41854Y100294D01*
X41704Y100678D01*
X41755Y100939D01*
X41664Y101399D01*
X41605Y101845D01*
X41995Y102106D01*
X42256Y102497D01*
X42332Y102876D01*
X42585Y103019D01*
X42833Y103083D01*
X43164Y102752D01*
D02*
G37*
G36*
X36193Y99087D02*
X36645Y98900D01*
X41634D01*
X56319Y84215D01*
X56196Y83632D01*
X55993Y83496D01*
X55732Y83106D01*
X55640Y82645D01*
X55732Y82184D01*
X55899Y81934D01*
X55717Y81479D01*
X55677Y81434D01*
X52058D01*
X34781Y98711D01*
X34904Y99295D01*
X35106Y99430D01*
X35121Y99452D01*
X35765Y99515D01*
X36193Y99087D01*
D02*
G37*
G36*
X8760Y78952D02*
X8698Y78642D01*
X8866Y77797D01*
X9344Y77081D01*
X10061Y76602D01*
X10905Y76434D01*
X11750Y76602D01*
X12467Y77081D01*
X12655Y77362D01*
X13155Y77210D01*
Y75073D01*
X12655Y74922D01*
X12467Y75203D01*
X11750Y75681D01*
X10905Y75849D01*
X10061Y75681D01*
X9344Y75203D01*
X8866Y74487D01*
X8698Y73642D01*
X8866Y72797D01*
X9344Y72081D01*
X10061Y71602D01*
X10905Y71434D01*
X11750Y71602D01*
X12190Y71895D01*
X12640Y71595D01*
X12589Y71343D01*
X12681Y70882D01*
X12942Y70491D01*
X13333Y70230D01*
X13794Y70139D01*
X14255Y70230D01*
X14404Y70330D01*
X14723Y69942D01*
X13590Y68809D01*
X13047Y68973D01*
X12945Y69487D01*
X12467Y70203D01*
X11750Y70681D01*
X10905Y70850D01*
X10061Y70681D01*
X9344Y70203D01*
X8866Y69487D01*
X8698Y68642D01*
X8866Y67797D01*
X9245Y67229D01*
X9306Y66948D01*
X9198Y66577D01*
X8324Y65704D01*
X7824Y65911D01*
Y78724D01*
X8299Y79199D01*
X8760Y78952D01*
D02*
G37*
G36*
X94062Y74066D02*
Y49158D01*
X93600Y48967D01*
X91007Y51560D01*
Y56060D01*
X90930Y56444D01*
X90713Y56769D01*
X81664Y65818D01*
Y70867D01*
X83120Y72323D01*
X87795D01*
X88179Y72400D01*
X88231Y72434D01*
X88550Y72046D01*
X86917Y70413D01*
X84637D01*
X84473Y70522D01*
X84013Y70614D01*
X83552Y70522D01*
X83161Y70261D01*
X82900Y69870D01*
X82808Y69409D01*
X82900Y68949D01*
X83161Y68558D01*
X83552Y68297D01*
X84013Y68205D01*
X84473Y68297D01*
X84637Y68406D01*
X87333D01*
X87717Y68482D01*
X88042Y68700D01*
X93600Y74258D01*
X94062Y74066D01*
D02*
G37*
G36*
X27904Y85419D02*
Y67161D01*
X27665Y66983D01*
X27165Y67233D01*
Y76445D01*
X26978Y76897D01*
X22005Y81870D01*
X21553Y82057D01*
X21244D01*
X21102Y82269D01*
X20711Y82530D01*
X20251Y82622D01*
X19790Y82530D01*
X19399Y82269D01*
X19138Y81879D01*
X19046Y81418D01*
X19138Y80957D01*
X19384Y80589D01*
X19049Y80257D01*
X18658Y80518D01*
X18197Y80610D01*
X17736Y80518D01*
X17345Y80257D01*
X17085Y79866D01*
X16993Y79406D01*
X17085Y78945D01*
X17345Y78554D01*
X17558Y78412D01*
Y72777D01*
X15195Y70414D01*
X14806Y70732D01*
X14906Y70882D01*
X14998Y71343D01*
X14906Y71804D01*
X14645Y72194D01*
X14433Y72336D01*
Y80854D01*
X17148Y83569D01*
X17973D01*
X18425Y83756D01*
X21515Y86846D01*
X21702Y87298D01*
Y90428D01*
X21791Y90487D01*
X21926Y90689D01*
X22510Y90813D01*
X27904Y85419D01*
D02*
G37*
G36*
X86582Y82997D02*
Y80689D01*
X86769Y80237D01*
X89430Y77576D01*
X89775Y77433D01*
X89976Y76926D01*
X87380Y74330D01*
X82705D01*
X82320Y74254D01*
X81995Y74036D01*
X79951Y71993D01*
X79734Y71667D01*
X79657Y71283D01*
Y65402D01*
X79734Y65018D01*
X79951Y64692D01*
X89000Y55644D01*
Y51411D01*
X88500Y51204D01*
X77706Y61998D01*
Y82528D01*
X78934Y83756D01*
X79122Y84208D01*
Y86814D01*
X78934Y87266D01*
X76847Y89353D01*
Y92025D01*
X76928Y92097D01*
X77292Y92287D01*
X86582Y82997D01*
D02*
G37*
G36*
X21311Y42588D02*
X21065Y42127D01*
X20989Y42142D01*
X20528Y42050D01*
X20138Y41789D01*
X20134Y41783D01*
X19586Y41863D01*
X19485Y42107D01*
X15836Y45756D01*
X15886Y46006D01*
X15794Y46467D01*
X15533Y46858D01*
X15142Y47119D01*
X14681Y47210D01*
X14221Y47119D01*
X13830Y46858D01*
X13569Y46467D01*
X13477Y46006D01*
X13569Y45545D01*
X13830Y45155D01*
X14221Y44894D01*
X14681Y44802D01*
X14791Y44649D01*
X14600Y44107D01*
X14578Y44087D01*
X14208Y43840D01*
X13947Y43449D01*
X13855Y42988D01*
X13947Y42527D01*
X14208Y42137D01*
X14598Y41876D01*
X15059Y41784D01*
X15520Y41876D01*
X15911Y42137D01*
X16172Y42527D01*
X16234Y42842D01*
X16640Y43028D01*
X16744Y43039D01*
X18393Y41390D01*
Y36935D01*
X17931Y36744D01*
X7824Y46851D01*
Y55422D01*
X8286Y55613D01*
X21311Y42588D01*
D02*
G37*
G36*
X102125Y43588D02*
X102175Y43436D01*
X102096Y43039D01*
X102188Y42578D01*
X102449Y42188D01*
X102839Y41927D01*
X103300Y41835D01*
X103761Y41927D01*
X104152Y42188D01*
X104294Y42400D01*
X105719D01*
X107139Y40980D01*
Y32264D01*
X106673Y31983D01*
X106639Y31984D01*
X106205Y32070D01*
X105955Y32021D01*
X102319Y35656D01*
X102565Y36117D01*
X102657Y36099D01*
X103118Y36191D01*
X103509Y36452D01*
X103770Y36842D01*
X103862Y37303D01*
X103770Y37764D01*
X103509Y38155D01*
X103118Y38416D01*
X102657Y38507D01*
X102197Y38416D01*
X101806Y38155D01*
X101545Y37764D01*
X101453Y37303D01*
X101472Y37211D01*
X101011Y36965D01*
X94540Y43436D01*
X94747Y43936D01*
X101877D01*
X102125Y43588D01*
D02*
G37*
G36*
X108469Y42401D02*
X108794Y42183D01*
X109178Y42107D01*
X116271D01*
X116402Y41884D01*
X116479Y41607D01*
X116263Y41284D01*
X116172Y40823D01*
X116263Y40362D01*
X116524Y39971D01*
X116737Y39830D01*
Y37085D01*
X108880Y29228D01*
X108418Y29419D01*
Y41244D01*
X108231Y41696D01*
X106436Y43491D01*
X106476Y43686D01*
X107020Y43849D01*
X108469Y42401D01*
D02*
G37*
G36*
X88444Y47723D02*
X105051Y31117D01*
X105001Y30866D01*
X105093Y30405D01*
X105354Y30015D01*
X105745Y29754D01*
X106205Y29662D01*
X106639Y29748D01*
X106673Y29749D01*
X107139Y29468D01*
Y28601D01*
X106707Y28168D01*
X106095D01*
X86180Y48083D01*
X74812Y59451D01*
Y60648D01*
X75312Y60855D01*
X88444Y47723D01*
D02*
G37*
G36*
X70578Y93439D02*
Y81745D01*
X70765Y81293D01*
X72747Y79312D01*
Y58860D01*
X72934Y58408D01*
X82024Y49317D01*
X105052Y26290D01*
X105504Y26103D01*
X107298D01*
X107749Y26290D01*
X117796Y36336D01*
X117950Y36322D01*
X118296Y36191D01*
Y34642D01*
X118187Y34479D01*
X118095Y34018D01*
X118167Y33654D01*
X117950Y33404D01*
X117769Y33288D01*
X117376Y33366D01*
X116915Y33274D01*
X116524Y33013D01*
X116263Y32622D01*
X116172Y32162D01*
X116263Y31701D01*
X116524Y31310D01*
X116915Y31049D01*
X117376Y30957D01*
X117837Y31049D01*
X118227Y31310D01*
X118488Y31701D01*
X118580Y32162D01*
X118508Y32526D01*
X118725Y32776D01*
X118906Y32893D01*
X119299Y32814D01*
X119760Y32906D01*
X120151Y33167D01*
X120412Y33558D01*
X120503Y34018D01*
X120412Y34479D01*
X120303Y34642D01*
Y41405D01*
X120226Y41789D01*
X120009Y42115D01*
X118304Y43820D01*
X117978Y44037D01*
X117594Y44114D01*
X109594D01*
X108139Y45569D01*
X108331Y46031D01*
X142493D01*
Y43331D01*
X110211Y11049D01*
X110057Y11152D01*
X109597Y11244D01*
X109136Y11152D01*
X108745Y10891D01*
X108115Y10849D01*
X108021Y10924D01*
Y21059D01*
X107834Y21511D01*
X70039Y59306D01*
Y89663D01*
X69852Y90115D01*
X65921Y94046D01*
X65971Y94296D01*
X65924Y94535D01*
X66249Y95035D01*
X68983D01*
X70578Y93439D01*
D02*
G37*
%LPC*%
G36*
X66098Y138968D02*
X63827D01*
Y136697D01*
X66098D01*
Y138968D01*
D02*
G37*
G36*
X46752Y137720D02*
X46291Y137628D01*
X45900Y137367D01*
X45639Y136977D01*
X45548Y136516D01*
X45639Y136055D01*
X45900Y135664D01*
X46291Y135403D01*
X46752Y135311D01*
X47213Y135403D01*
X47603Y135664D01*
X47864Y136055D01*
X47956Y136516D01*
X47864Y136977D01*
X47603Y137367D01*
X47213Y137628D01*
X46752Y137720D01*
D02*
G37*
G36*
X69966Y136781D02*
X69506Y136689D01*
X69115Y136428D01*
X68854Y136037D01*
X68762Y135576D01*
X68854Y135116D01*
X69115Y134725D01*
X69506Y134464D01*
X69966Y134372D01*
X70427Y134464D01*
X70818Y134725D01*
X71079Y135116D01*
X71171Y135576D01*
X71079Y136037D01*
X70818Y136428D01*
X70427Y136689D01*
X69966Y136781D01*
D02*
G37*
G36*
X80811Y135758D02*
X80350Y135666D01*
X79959Y135405D01*
X79698Y135015D01*
X79607Y134554D01*
X79698Y134093D01*
X79959Y133702D01*
X80350Y133441D01*
X80811Y133350D01*
X81272Y133441D01*
X81663Y133702D01*
X81924Y134093D01*
X82015Y134554D01*
X81924Y135015D01*
X81663Y135405D01*
X81272Y135666D01*
X80811Y135758D01*
D02*
G37*
G36*
X69626Y125712D02*
X69165Y125620D01*
X68774Y125359D01*
X68513Y124969D01*
X68422Y124508D01*
X68513Y124047D01*
X68774Y123656D01*
X69165Y123395D01*
X69626Y123304D01*
X70087Y123395D01*
X70477Y123656D01*
X70739Y124047D01*
X70830Y124508D01*
X70739Y124969D01*
X70477Y125359D01*
X70087Y125620D01*
X69626Y125712D01*
D02*
G37*
G36*
X102096Y117838D02*
X101635Y117746D01*
X101244Y117485D01*
X100983Y117095D01*
X100892Y116634D01*
X100983Y116173D01*
X101244Y115782D01*
X101635Y115521D01*
X102096Y115430D01*
X102557Y115521D01*
X102947Y115782D01*
X103208Y116173D01*
X103300Y116634D01*
X103208Y117095D01*
X102947Y117485D01*
X102557Y117746D01*
X102096Y117838D01*
D02*
G37*
G36*
X105071Y108851D02*
X102799D01*
Y106579D01*
X105071D01*
Y108851D01*
D02*
G37*
G36*
X10827Y102662D02*
X10366Y102570D01*
X9975Y102309D01*
X9714Y101918D01*
X9623Y101457D01*
X9714Y100996D01*
X9975Y100606D01*
X10366Y100345D01*
X10827Y100253D01*
X11288Y100345D01*
X11678Y100606D01*
X11939Y100996D01*
X12031Y101457D01*
X11939Y101918D01*
X11678Y102309D01*
X11288Y102570D01*
X10827Y102662D01*
D02*
G37*
G36*
X18602Y65333D02*
X18142Y65242D01*
X17751Y64981D01*
X17490Y64590D01*
X17398Y64129D01*
X17490Y63668D01*
X17751Y63278D01*
X18142Y63016D01*
X18602Y62925D01*
X19063Y63016D01*
X19454Y63278D01*
X19715Y63668D01*
X19807Y64129D01*
X19715Y64590D01*
X19454Y64981D01*
X19063Y65242D01*
X18602Y65333D01*
D02*
G37*
G36*
X21654Y50830D02*
X21193Y50739D01*
X20802Y50477D01*
X20541Y50087D01*
X20449Y49626D01*
X20541Y49165D01*
X20802Y48774D01*
X21193Y48513D01*
X21654Y48422D01*
X22114Y48513D01*
X22505Y48774D01*
X22766Y49165D01*
X22858Y49626D01*
X22766Y50087D01*
X22505Y50477D01*
X22114Y50739D01*
X21654Y50830D01*
D02*
G37*
G36*
X99508Y26204D02*
X99047Y26113D01*
X98656Y25852D01*
X98395Y25461D01*
X98304Y25000D01*
X98395Y24539D01*
X98656Y24148D01*
X99047Y23887D01*
X99508Y23796D01*
X99969Y23887D01*
X100359Y24148D01*
X100620Y24539D01*
X100712Y25000D01*
X100620Y25461D01*
X100359Y25852D01*
X99969Y26113D01*
X99508Y26204D01*
D02*
G37*
G36*
X58366Y20889D02*
X57905Y20798D01*
X57515Y20537D01*
X57254Y20146D01*
X57162Y19685D01*
X57254Y19224D01*
X57515Y18834D01*
X57905Y18573D01*
X58366Y18481D01*
X58827Y18573D01*
X59218Y18834D01*
X59479Y19224D01*
X59570Y19685D01*
X59479Y20146D01*
X59218Y20537D01*
X58827Y20798D01*
X58366Y20889D01*
D02*
G37*
G36*
X90453Y20767D02*
X89992Y20676D01*
X89601Y20415D01*
X89340Y20024D01*
X89249Y19563D01*
X89340Y19102D01*
X89601Y18712D01*
X89992Y18451D01*
X90453Y18359D01*
X90914Y18451D01*
X91304Y18712D01*
X91565Y19102D01*
X91657Y19563D01*
X91565Y20024D01*
X91304Y20415D01*
X90914Y20676D01*
X90453Y20767D01*
D02*
G37*
G36*
X46065Y121781D02*
X45604Y121689D01*
X45214Y121428D01*
X44953Y121038D01*
X44861Y120577D01*
X44953Y120116D01*
X45214Y119725D01*
X45604Y119464D01*
X46065Y119372D01*
X46526Y119464D01*
X46917Y119725D01*
X47178Y120116D01*
X47269Y120577D01*
X47178Y121038D01*
X46917Y121428D01*
X46526Y121689D01*
X46065Y121781D01*
D02*
G37*
G36*
X52318Y116261D02*
X51857Y116170D01*
X51467Y115909D01*
X51205Y115518D01*
X51114Y115057D01*
X51205Y114596D01*
X51467Y114206D01*
X51857Y113945D01*
X52318Y113853D01*
X52779Y113945D01*
X53170Y114206D01*
X53431Y114596D01*
X53522Y115057D01*
X53431Y115518D01*
X53170Y115909D01*
X52779Y116170D01*
X52318Y116261D01*
D02*
G37*
G36*
X80319Y83689D02*
X79858Y83597D01*
X79467Y83336D01*
X79206Y82945D01*
X79115Y82484D01*
X79206Y82024D01*
X79467Y81633D01*
X79858Y81372D01*
X80319Y81280D01*
X80780Y81372D01*
X81170Y81633D01*
X81431Y82024D01*
X81523Y82484D01*
X81431Y82945D01*
X81170Y83336D01*
X80780Y83597D01*
X80319Y83689D01*
D02*
G37*
G36*
X128057Y35753D02*
X127597Y35662D01*
X127206Y35401D01*
X126945Y35010D01*
X126853Y34549D01*
X126945Y34088D01*
X127206Y33697D01*
X127597Y33436D01*
X128057Y33345D01*
X128518Y33436D01*
X128909Y33697D01*
X129170Y34088D01*
X129262Y34549D01*
X129170Y35010D01*
X128909Y35401D01*
X128518Y35662D01*
X128057Y35753D01*
D02*
G37*
G36*
X119002Y26895D02*
X118541Y26803D01*
X118150Y26542D01*
X117889Y26151D01*
X117798Y25690D01*
X117889Y25229D01*
X118150Y24839D01*
X118541Y24578D01*
X119002Y24486D01*
X119463Y24578D01*
X119853Y24839D01*
X120114Y25229D01*
X120206Y25690D01*
X120114Y26151D01*
X119853Y26542D01*
X119463Y26803D01*
X119002Y26895D01*
D02*
G37*
%LPD*%
D11*
X75492Y61579D02*
X88896Y48175D01*
X90914Y47886D02*
X94225Y44575D01*
X77067Y61733D02*
X90914Y47886D01*
X75492Y61579D02*
Y84783D01*
X88896Y48175D02*
X106205Y30866D01*
X94225Y44575D02*
X105208D01*
X77067Y61733D02*
Y82793D01*
X36448Y126476D02*
X52165Y110759D01*
X36929Y124882D02*
X49231Y112580D01*
X90453Y81745D02*
X91831Y80367D01*
X90826Y78028D02*
X91831Y79033D01*
X88444Y81414D02*
Y83152D01*
X89882Y78028D02*
X90826D01*
X90354Y79504D02*
Y79505D01*
X91831Y79033D02*
Y80367D01*
X88444Y81414D02*
X90354Y79505D01*
X58253Y127584D02*
X58573D01*
X57786Y128051D02*
X58253Y127584D01*
X55467Y115016D02*
Y128051D01*
X57033Y126087D02*
X80469Y102651D01*
Y92269D02*
Y102651D01*
X55467Y115016D02*
X87221Y83262D01*
X80469Y92269D02*
X87066Y85672D01*
Y84530D02*
X88444Y83152D01*
X87221Y80689D02*
Y83262D01*
X87066Y84530D02*
Y85672D01*
X78482Y84208D02*
Y86814D01*
X77067Y82793D02*
X78482Y84208D01*
X74173Y86102D02*
X75492Y84783D01*
X74173Y86102D02*
Y92975D01*
X87221Y80689D02*
X89882Y78028D01*
X66687Y101575D02*
X76208Y92054D01*
Y89088D02*
X78482Y86814D01*
X76208Y89088D02*
Y92054D01*
X66361Y100787D02*
X74173Y92975D01*
X67249Y98786D02*
X72244Y93791D01*
Y82470D02*
Y93791D01*
X60292Y100787D02*
X66361D01*
X57148Y101575D02*
X66687D01*
X71217Y81745D02*
X73386Y79576D01*
X69247Y95674D02*
X71217Y93704D01*
Y81745D02*
Y93704D01*
X72244Y82470D02*
X74173Y80541D01*
X73386Y58860D02*
Y79576D01*
X74173Y59186D02*
X85728Y47631D01*
X74173Y59186D02*
Y80541D01*
X69400Y59041D02*
Y89663D01*
X64767Y94296D02*
X69400Y89663D01*
Y59041D02*
X107382Y21059D01*
X73386Y58860D02*
X82476Y49769D01*
X28961Y63583D02*
X44858D01*
X59980Y78705D01*
X26526Y66018D02*
X28961Y63583D01*
X103300Y43039D02*
X105984D01*
X107779Y41244D01*
X85728Y47631D02*
X105830Y27529D01*
X36648Y116024D02*
Y117500D01*
X31239Y118307D02*
X35841D01*
X34528Y129815D02*
X39731D01*
X28789Y124076D02*
X34528Y129815D01*
X28789Y120756D02*
Y124076D01*
Y120756D02*
X31239Y118307D01*
X36841Y109771D02*
Y115831D01*
X35841Y118307D02*
X36648Y117500D01*
Y116024D02*
X36841Y115831D01*
X32178Y105108D02*
X36841Y109771D01*
X32178Y102358D02*
Y105108D01*
Y102358D02*
X34255Y100282D01*
X38878Y102672D02*
X40541Y104336D01*
X42484D01*
X45270Y101549D01*
Y99884D02*
Y101549D01*
X57910Y88386D02*
X61053Y91529D01*
X56768Y88386D02*
X57910D01*
X45270Y99884D02*
X56768Y88386D01*
X61053Y91529D02*
Y92531D01*
X64196Y95674D01*
X69247D01*
X82476Y49769D02*
X105504Y26742D01*
X107298D01*
X117376Y36820D01*
Y40823D01*
X93976Y3543D02*
X95673Y1847D01*
X100251D01*
X107382Y8977D01*
Y21059D01*
X7185Y46586D02*
X28051Y25720D01*
Y23434D02*
Y25720D01*
X39476Y12009D02*
X102362D01*
X28051Y23434D02*
X39476Y12009D01*
X56243Y96063D02*
X58211Y98032D01*
X62431D01*
X63185Y98786D02*
X67249D01*
X62431Y98032D02*
X63185Y98786D01*
X105830Y27529D02*
X106971D01*
X107779Y28337D01*
Y41244D01*
X53543Y97736D02*
Y97970D01*
X57148Y101575D01*
X58914Y99409D02*
X60292Y100787D01*
X34264Y128437D02*
X36312D01*
X29577Y123750D02*
X34264Y128437D01*
X29577Y121083D02*
Y123750D01*
Y121083D02*
X31565Y119095D01*
X36167D01*
X34934Y102095D02*
X35633Y101396D01*
X36645Y99539D02*
X41899D01*
X36167Y119095D02*
X37435Y117826D01*
X37628Y105931D02*
Y116157D01*
X34934Y102095D02*
Y103237D01*
X37435Y116350D02*
Y117826D01*
Y116350D02*
X37628Y116157D01*
X35633Y100551D02*
Y101396D01*
Y100551D02*
X36645Y99539D01*
X34934Y103237D02*
X37628Y105931D01*
X41899Y99539D02*
X59192Y82246D01*
Y79866D02*
Y82246D01*
X45276Y65949D02*
X59192Y79866D01*
X27571Y103903D02*
Y113277D01*
Y103903D02*
X52069Y79406D01*
X56420D01*
X31391Y110400D02*
X35463Y114472D01*
X31391Y101197D02*
Y110400D01*
Y101197D02*
X51793Y80795D01*
X57814D01*
X30955Y121653D02*
Y122844D01*
X32992Y124882D01*
X36929D01*
X49231Y98987D02*
Y112580D01*
Y98987D02*
X53532Y94685D01*
X62037D01*
X63738Y96386D01*
X33563Y123504D02*
X38223Y118844D01*
Y116676D02*
Y118844D01*
Y116676D02*
X47780Y107119D01*
Y99323D02*
Y107119D01*
Y99323D02*
X57339Y89764D01*
X34252Y126476D02*
X36448D01*
X52165Y97165D02*
Y110759D01*
Y97165D02*
X52973Y96358D01*
X54114D01*
X56243Y98487D01*
Y98721D01*
X18872Y98846D02*
X20251Y100224D01*
X18872Y94607D02*
Y98846D01*
X28543Y65949D02*
Y85684D01*
X23620Y34327D02*
X40423D01*
X51779Y22971D01*
X78482D01*
X81890Y19563D01*
X20989Y40938D02*
X22650Y39277D01*
X24719D01*
X26193Y40751D01*
Y46718D01*
X28860Y49384D01*
X53537D01*
X76665Y26256D01*
X83028D01*
X14681Y46006D02*
X19033Y41655D01*
Y35852D02*
Y41655D01*
Y35852D02*
X34870Y20014D01*
Y17728D02*
Y20014D01*
Y17728D02*
X38721Y13878D01*
X39862D01*
X44350Y18366D01*
Y22687D01*
X35362Y131763D02*
X36182D01*
X36353Y131933D01*
X21858Y95406D02*
Y118258D01*
X49847Y131933D02*
X52461Y134547D01*
X36353Y131933D02*
X49847D01*
X57797Y86814D02*
X59980Y84631D01*
Y78705D02*
Y84631D01*
X26526Y66018D02*
Y76445D01*
X21553Y81418D02*
X26526Y76445D01*
X20251Y81418D02*
X21553D01*
X12416Y66731D02*
X18197Y72512D01*
Y79406D01*
X19833Y78189D02*
X22835Y75187D01*
Y71738D02*
Y75187D01*
X13794Y62697D02*
X22835Y71738D01*
X13794Y61139D02*
Y62697D01*
X20161Y72441D02*
X21457D01*
X13866Y66147D02*
X20161Y72441D01*
X16883Y84208D02*
X17973D01*
X13794Y71343D02*
Y81119D01*
X17973Y84208D02*
X21063Y87298D01*
X13794Y81119D02*
X16883Y84208D01*
X25028Y68984D02*
Y75993D01*
X21494Y79528D02*
X25028Y75993D01*
X26980Y45556D02*
X29431Y48006D01*
X26980Y40345D02*
Y45556D01*
X22242Y35607D02*
X26980Y40345D01*
X22242Y33756D02*
Y35607D01*
Y33756D02*
X39291Y16707D01*
Y15256D02*
Y16707D01*
X21858Y118258D02*
X35362Y131763D01*
X7185Y46586D02*
Y78989D01*
X11884Y66280D02*
X12335Y66731D01*
X12416D01*
X7972Y64049D02*
X8563Y64640D01*
X7972Y56831D02*
X24148Y40655D01*
X7972Y56831D02*
Y64049D01*
X8563Y65039D02*
X9804Y66280D01*
X8563Y64640D02*
Y65039D01*
X9804Y66280D02*
X11884D01*
X39731Y129815D02*
X41495Y128051D01*
X55467D01*
X57786D01*
X63738Y97161D02*
X63910Y97333D01*
Y97408D01*
X63738Y96386D02*
Y97161D01*
X22736Y62160D02*
X23620Y61277D01*
X22736Y62160D02*
Y69095D01*
X64057Y61277D02*
X67471Y64690D01*
X23620Y61277D02*
X64057D01*
X16668Y88472D02*
X19488D01*
X7185Y78989D02*
X16668Y88472D01*
X21683Y95231D02*
X21858Y95406D01*
X21683Y94320D02*
Y95231D01*
X18872Y94607D02*
X20763Y92716D01*
X21510D01*
X28543Y85684D01*
X21457Y94095D02*
X21683Y94320D01*
X21063Y87298D02*
Y91215D01*
X20940Y91339D02*
X21063Y91215D01*
D15*
X2500Y101000D02*
X44000Y142500D01*
X103000D01*
X144500Y101000D01*
Y42500D02*
Y101000D01*
X103000Y1000D02*
X144500Y42500D01*
X44000Y1000D02*
X103000D01*
X2500Y42500D02*
X44000Y1000D01*
X2500Y42500D02*
Y101000D01*
D68*
X75492Y126673D02*
D03*
X79823D02*
D03*
X75492Y122343D02*
D03*
X79823D02*
D03*
X125964Y103543D02*
D03*
Y109055D02*
D03*
X127933Y106299D02*
D03*
X123996D02*
D03*
D108*
X80661Y65402D02*
X90003Y56060D01*
Y51145D02*
Y56060D01*
Y51145D02*
X94431Y46718D01*
X88444Y85101D02*
X89783Y83762D01*
X91634D01*
X93110Y82286D01*
Y78642D02*
Y82286D01*
X94685Y76762D02*
Y83762D01*
X82705Y73327D02*
X87795D01*
X93110Y78642D01*
X90453Y87995D02*
X94685Y83762D01*
X87333Y69409D02*
X94685Y76762D01*
X80661Y71283D02*
X82705Y73327D01*
X80661Y65402D02*
Y71283D01*
X94431Y46718D02*
X105571D01*
X109178Y43110D02*
X117594D01*
X105571Y46718D02*
X109178Y43110D01*
X117594D02*
X119299Y41405D01*
Y34018D02*
Y41405D01*
X55666Y133760D02*
X55741Y133685D01*
Y133137D02*
Y133685D01*
X84013Y94095D02*
Y104865D01*
X55741Y133137D02*
X84013Y104865D01*
Y94095D02*
X88444Y89663D01*
Y85101D02*
Y89663D01*
X90453Y104902D02*
X98622Y113071D01*
X90453Y87995D02*
Y104902D01*
X84013Y69409D02*
X87333D01*
X98622Y113071D02*
X128327D01*
D110*
X63327Y139468D02*
D03*
X105571Y109351D02*
D03*
D111*
X116634Y122382D02*
D03*
D113*
X44862Y82645D02*
D03*
X87106Y77559D02*
D03*
X90453Y81745D02*
D03*
X90354Y79504D02*
D03*
X105208Y44575D02*
D03*
X58573Y127584D02*
D03*
X88444Y85101D02*
D03*
X119299Y34018D02*
D03*
X71217Y69095D02*
D03*
X128327Y113071D02*
D03*
X37106Y22687D02*
D03*
X40585Y64961D02*
D03*
X103300Y43039D02*
D03*
X87106Y54331D02*
D03*
X84013Y69409D02*
D03*
X20940Y91339D02*
D03*
X21457Y94095D02*
D03*
X19488Y88472D02*
D03*
X67471Y64690D02*
D03*
X63910Y97408D02*
D03*
X23620Y34327D02*
D03*
X14681Y46006D02*
D03*
X27571Y113277D02*
D03*
X57814Y80795D02*
D03*
X56420Y79406D02*
D03*
X56483Y73106D02*
D03*
X45276Y65949D02*
D03*
X28543D02*
D03*
X25028Y68984D02*
D03*
X21457Y72441D02*
D03*
X19833Y78189D02*
D03*
X17088Y58642D02*
D03*
X13794Y61139D02*
D03*
X13866Y66147D02*
D03*
X13794Y71343D02*
D03*
X16585Y78133D02*
D03*
X6398Y81418D02*
D03*
X18197Y79406D02*
D03*
X17088Y82464D02*
D03*
X24148Y40655D02*
D03*
X36312Y128437D02*
D03*
X34252Y126476D02*
D03*
X33563Y123504D02*
D03*
X30955Y121653D02*
D03*
X23465Y104921D02*
D03*
X34255Y100282D02*
D03*
X35463Y114472D02*
D03*
X52461Y134547D02*
D03*
X80661Y140059D02*
D03*
X87300Y139587D02*
D03*
X133570Y105615D02*
D03*
X122933Y26256D02*
D03*
X130315Y33465D02*
D03*
X106205Y30866D02*
D03*
X106401Y28907D02*
D03*
X66953Y19685D02*
D03*
X67028Y29331D02*
D03*
X73386Y36099D02*
D03*
X67471Y89431D02*
D03*
X29431Y48006D02*
D03*
X20989Y40938D02*
D03*
X15658Y35252D02*
D03*
X22736Y69095D02*
D03*
X21494Y79528D02*
D03*
X20251Y81418D02*
D03*
Y100224D02*
D03*
X15186D02*
D03*
X9154Y93613D02*
D03*
X61319Y130453D02*
D03*
X57033Y126087D02*
D03*
X36353Y131933D02*
D03*
X48720Y117441D02*
D03*
X35270Y116929D02*
D03*
X46850Y110139D02*
D03*
X51575Y139764D02*
D03*
X55666Y133760D02*
D03*
X87697Y100120D02*
D03*
X57797Y86814D02*
D03*
X64767Y94296D02*
D03*
X74016Y106251D02*
D03*
X56845Y121358D02*
D03*
X94980Y120276D02*
D03*
X117376Y40823D02*
D03*
X125295Y40945D02*
D03*
X29671Y45154D02*
D03*
X53543Y64961D02*
D03*
X47638Y59363D02*
D03*
X62612Y56039D02*
D03*
X81890Y19563D02*
D03*
X83028Y26256D02*
D03*
X90453Y35138D02*
D03*
X43248Y35089D02*
D03*
X43909Y27539D02*
D03*
X44350Y22687D02*
D03*
X50295Y6742D02*
D03*
X83028D02*
D03*
X93498Y26673D02*
D03*
X102362Y12009D02*
D03*
X93976Y3543D02*
D03*
X91634Y8071D02*
D03*
X113583Y17963D02*
D03*
X106004Y10153D02*
D03*
X93461Y22687D02*
D03*
X39291Y15256D02*
D03*
X23465Y109825D02*
D03*
X8563Y52953D02*
D03*
X26673Y24114D02*
D03*
X27953Y54331D02*
D03*
X71217Y79036D02*
D03*
X63681Y79799D02*
D03*
Y69390D02*
D03*
X57339Y89764D02*
D03*
X56243Y96063D02*
D03*
X58914Y99409D02*
D03*
X56243Y98721D02*
D03*
X53543Y97736D02*
D03*
X38878Y102672D02*
D03*
X44783Y126083D02*
D03*
X48720D02*
D03*
X44783Y130020D02*
D03*
X48720D02*
D03*
D114*
X91831Y127854D02*
D03*
Y133760D02*
D03*
X94587D02*
D03*
X94587Y127854D02*
D03*
X93209Y130807D02*
D03*
M02*
