G04*
G04 #@! TF.GenerationSoftware,Altium Limited,Altium NEXUS,3.0.14 (129)*
G04*
G04 Layer_Physical_Order=1*
G04 Layer_Color=255*
%FSLAX25Y25*%
%MOIN*%
G70*
G01*
G75*
%ADD11C,0.00394*%
%ADD12C,0.00787*%
%ADD14C,0.01000*%
%ADD15C,0.00000*%
%ADD20R,0.01378X0.02264*%
%ADD21R,0.02264X0.01378*%
%ADD26R,0.01575X0.03740*%
%ADD27R,0.01378X0.09055*%
%ADD28R,0.05118X0.01378*%
G04:AMPARAMS|DCode=50|XSize=37.4mil|YSize=33.47mil|CornerRadius=0mil|HoleSize=0mil|Usage=FLASHONLY|Rotation=135.000|XOffset=0mil|YOffset=0mil|HoleType=Round|Shape=Rectangle|*
%AMROTATEDRECTD50*
4,1,4,0.02506,-0.00139,0.00139,-0.02506,-0.02506,0.00139,-0.00139,0.02506,0.02506,-0.00139,0.0*
%
%ADD50ROTATEDRECTD50*%

%ADD60R,0.02165X0.02165*%
%ADD65R,0.03937X0.03937*%
%ADD67R,0.03937X0.03937*%
%ADD68C,0.01968*%
G04:AMPARAMS|DCode=69|XSize=31.5mil|YSize=59.06mil|CornerRadius=7.87mil|HoleSize=0mil|Usage=FLASHONLY|Rotation=90.000|XOffset=0mil|YOffset=0mil|HoleType=Round|Shape=RoundedRectangle|*
%AMROUNDEDRECTD69*
21,1,0.03150,0.04331,0,0,90.0*
21,1,0.01575,0.05906,0,0,90.0*
1,1,0.01575,0.02165,0.00787*
1,1,0.01575,0.02165,-0.00787*
1,1,0.01575,-0.02165,-0.00787*
1,1,0.01575,-0.02165,0.00787*
%
%ADD69ROUNDEDRECTD69*%
%ADD70O,0.03150X0.00984*%
%ADD71O,0.00984X0.03150*%
%ADD72R,0.08071X0.08071*%
%ADD73R,0.02992X0.02835*%
%ADD74R,0.01654X0.02441*%
%ADD75R,0.02835X0.02992*%
%ADD76R,0.02441X0.01654*%
%ADD77R,0.03661X0.05394*%
%ADD78R,0.10236X0.03110*%
%ADD79R,0.00984X0.02953*%
%ADD80R,0.02559X0.04134*%
%ADD81R,0.02756X0.03543*%
%ADD82R,0.03347X0.03740*%
%ADD83R,0.02559X0.02559*%
%ADD84R,0.10315X0.04291*%
%ADD85R,0.01772X0.01772*%
%ADD86R,0.03543X0.02756*%
%ADD87R,0.03150X0.01102*%
%ADD88R,0.04724X0.07874*%
%ADD89R,0.03740X0.03347*%
G04:AMPARAMS|DCode=90|XSize=34.84mil|YSize=27.56mil|CornerRadius=0.14mil|HoleSize=0mil|Usage=FLASHONLY|Rotation=90.000|XOffset=0mil|YOffset=0mil|HoleType=Round|Shape=RoundedRectangle|*
%AMROUNDEDRECTD90*
21,1,0.03484,0.02728,0,0,90.0*
21,1,0.03457,0.02756,0,0,90.0*
1,1,0.00028,0.01364,0.01728*
1,1,0.00028,0.01364,-0.01728*
1,1,0.00028,-0.01364,-0.01728*
1,1,0.00028,-0.01364,0.01728*
%
%ADD90ROUNDEDRECTD90*%
G04:AMPARAMS|DCode=91|XSize=14.21mil|YSize=14.21mil|CornerRadius=0.07mil|HoleSize=0mil|Usage=FLASHONLY|Rotation=315.000|XOffset=0mil|YOffset=0mil|HoleType=Round|Shape=RoundedRectangle|*
%AMROUNDEDRECTD91*
21,1,0.01421,0.01407,0,0,315.0*
21,1,0.01407,0.01421,0,0,315.0*
1,1,0.00014,0.00000,-0.00995*
1,1,0.00014,-0.00995,0.00000*
1,1,0.00014,0.00000,0.00995*
1,1,0.00014,0.00995,0.00000*
%
%ADD91ROUNDEDRECTD91*%
G04:AMPARAMS|DCode=92|XSize=21.14mil|YSize=21.14mil|CornerRadius=0.11mil|HoleSize=0mil|Usage=FLASHONLY|Rotation=315.000|XOffset=0mil|YOffset=0mil|HoleType=Round|Shape=RoundedRectangle|*
%AMROUNDEDRECTD92*
21,1,0.02114,0.02093,0,0,315.0*
21,1,0.02093,0.02114,0,0,315.0*
1,1,0.00021,0.00000,-0.01480*
1,1,0.00021,-0.01480,0.00000*
1,1,0.00021,0.00000,0.01480*
1,1,0.00021,0.01480,0.00000*
%
%ADD92ROUNDEDRECTD92*%
G04:AMPARAMS|DCode=93|XSize=21.14mil|YSize=21.14mil|CornerRadius=0.11mil|HoleSize=0mil|Usage=FLASHONLY|Rotation=225.000|XOffset=0mil|YOffset=0mil|HoleType=Round|Shape=RoundedRectangle|*
%AMROUNDEDRECTD93*
21,1,0.02114,0.02093,0,0,225.0*
21,1,0.02093,0.02114,0,0,225.0*
1,1,0.00021,-0.01480,0.00000*
1,1,0.00021,0.00000,0.01480*
1,1,0.00021,0.01480,0.00000*
1,1,0.00021,0.00000,-0.01480*
%
%ADD93ROUNDEDRECTD93*%
G04:AMPARAMS|DCode=94|XSize=14.21mil|YSize=14.21mil|CornerRadius=0.07mil|HoleSize=0mil|Usage=FLASHONLY|Rotation=225.000|XOffset=0mil|YOffset=0mil|HoleType=Round|Shape=RoundedRectangle|*
%AMROUNDEDRECTD94*
21,1,0.01421,0.01407,0,0,225.0*
21,1,0.01407,0.01421,0,0,225.0*
1,1,0.00014,-0.00995,0.00000*
1,1,0.00014,0.00000,0.00995*
1,1,0.00014,0.00995,0.00000*
1,1,0.00014,0.00000,-0.00995*
%
%ADD94ROUNDEDRECTD94*%
G04:AMPARAMS|DCode=95|XSize=100mil|YSize=29.92mil|CornerRadius=0.15mil|HoleSize=0mil|Usage=FLASHONLY|Rotation=180.000|XOffset=0mil|YOffset=0mil|HoleType=Round|Shape=RoundedRectangle|*
%AMROUNDEDRECTD95*
21,1,0.10000,0.02962,0,0,180.0*
21,1,0.09970,0.02992,0,0,180.0*
1,1,0.00030,-0.04985,0.01481*
1,1,0.00030,0.04985,0.01481*
1,1,0.00030,0.04985,-0.01481*
1,1,0.00030,-0.04985,-0.01481*
%
%ADD95ROUNDEDRECTD95*%
%ADD96R,0.02559X0.04331*%
%ADD97R,0.08465X0.24803*%
G04:AMPARAMS|DCode=98|XSize=41.34mil|YSize=25.59mil|CornerRadius=0mil|HoleSize=0mil|Usage=FLASHONLY|Rotation=135.000|XOffset=0mil|YOffset=0mil|HoleType=Round|Shape=Rectangle|*
%AMROTATEDRECTD98*
4,1,4,0.02366,-0.00557,0.00557,-0.02366,-0.02366,0.00557,-0.00557,0.02366,0.02366,-0.00557,0.0*
%
%ADD98ROTATEDRECTD98*%

%ADD99R,0.06299X0.07874*%
%ADD100R,0.02362X0.00984*%
G04:AMPARAMS|DCode=101|XSize=35.43mil|YSize=27.56mil|CornerRadius=0mil|HoleSize=0mil|Usage=FLASHONLY|Rotation=45.000|XOffset=0mil|YOffset=0mil|HoleType=Round|Shape=Rectangle|*
%AMROTATEDRECTD101*
4,1,4,-0.00278,-0.02227,-0.02227,-0.00278,0.00278,0.02227,0.02227,0.00278,-0.00278,-0.02227,0.0*
%
%ADD101ROTATEDRECTD101*%

G04:AMPARAMS|DCode=102|XSize=29.53mil|YSize=94.49mil|CornerRadius=7.38mil|HoleSize=0mil|Usage=FLASHONLY|Rotation=270.000|XOffset=0mil|YOffset=0mil|HoleType=Round|Shape=RoundedRectangle|*
%AMROUNDEDRECTD102*
21,1,0.02953,0.07972,0,0,270.0*
21,1,0.01476,0.09449,0,0,270.0*
1,1,0.01476,-0.03986,-0.00738*
1,1,0.01476,-0.03986,0.00738*
1,1,0.01476,0.03986,0.00738*
1,1,0.01476,0.03986,-0.00738*
%
%ADD102ROUNDEDRECTD102*%
G04:AMPARAMS|DCode=103|XSize=29.53mil|YSize=94.49mil|CornerRadius=7.38mil|HoleSize=0mil|Usage=FLASHONLY|Rotation=0.000|XOffset=0mil|YOffset=0mil|HoleType=Round|Shape=RoundedRectangle|*
%AMROUNDEDRECTD103*
21,1,0.02953,0.07972,0,0,0.0*
21,1,0.01476,0.09449,0,0,0.0*
1,1,0.01476,0.00738,-0.03986*
1,1,0.01476,-0.00738,-0.03986*
1,1,0.01476,-0.00738,0.03986*
1,1,0.01476,0.00738,0.03986*
%
%ADD103ROUNDEDRECTD103*%
%ADD104R,0.01772X0.01772*%
%ADD105R,0.02047X0.01260*%
%ADD106R,0.01968X0.04961*%
%ADD107R,0.02913X0.03071*%
%ADD108C,0.01181*%
%ADD109C,0.01575*%
%ADD110R,0.03543X0.03543*%
%ADD111C,0.03543*%
%ADD112R,0.03543X0.03543*%
%ADD113C,0.01575*%
%ADD114C,0.01772*%
G36*
X96063Y137205D02*
X97327D01*
Y135689D01*
X96571D01*
Y135744D01*
X93709D01*
Y130807D01*
X92709D01*
Y135744D01*
X89846D01*
Y135689D01*
X87539D01*
X87398Y136028D01*
X87167Y136259D01*
X86715Y136446D01*
X85276D01*
Y137091D01*
X85882D01*
Y139087D01*
X83465D01*
Y140087D01*
X85882D01*
Y140493D01*
X90142D01*
Y139969D01*
X92815D01*
X95488D01*
Y140493D01*
X96063D01*
Y137205D01*
D02*
G37*
G36*
X109587Y133074D02*
X109396Y132612D01*
X102102D01*
X102098Y132611D01*
X102096Y132612D01*
X101789Y132484D01*
X101744Y132439D01*
X100955Y133228D01*
X100503Y133415D01*
X100378D01*
X100098Y133799D01*
Y135689D01*
X98933D01*
Y137205D01*
X100197D01*
Y138288D01*
X100697Y138555D01*
X100819Y138474D01*
X101279Y138382D01*
X101740Y138474D01*
X102131Y138735D01*
X102392Y139126D01*
X102465Y139490D01*
X102747Y139641D01*
X102973Y139688D01*
X109587Y133074D01*
D02*
G37*
G36*
X56223Y139993D02*
X56119Y139469D01*
X56287Y138624D01*
X56637Y138100D01*
X56601Y138046D01*
X56540Y137739D01*
Y135198D01*
X56366Y135061D01*
X56040Y134890D01*
X55666Y134964D01*
X55205Y134872D01*
X54814Y134611D01*
X54554Y134221D01*
X54462Y133760D01*
X54554Y133299D01*
X54663Y133136D01*
Y130204D01*
X46211Y121752D01*
X46065Y121781D01*
X45604Y121689D01*
X45214Y121428D01*
X44953Y121038D01*
X44861Y120577D01*
X44889Y120437D01*
X44517Y119937D01*
X44236D01*
Y117941D01*
X46654D01*
Y116941D01*
X44236D01*
Y114945D01*
X44842D01*
Y114301D01*
X41760D01*
X41634Y114385D01*
Y115991D01*
X42134Y116294D01*
X42421Y116237D01*
X42882Y116328D01*
X43273Y116589D01*
X43534Y116980D01*
X43626Y117441D01*
X43534Y117902D01*
X43273Y118292D01*
X42882Y118553D01*
X42421Y118645D01*
X42134Y118588D01*
X41634Y118891D01*
Y119685D01*
X38583D01*
X38583Y120185D01*
Y120768D01*
X38139D01*
Y127249D01*
X37952Y127701D01*
X37466Y128187D01*
X37516Y128437D01*
X37425Y128898D01*
X37163Y129288D01*
X36773Y129550D01*
X36312Y129641D01*
X35851Y129550D01*
X35460Y129288D01*
X35199Y128898D01*
X35108Y128437D01*
X35199Y127976D01*
X35333Y127776D01*
X34973Y127415D01*
X34713Y127589D01*
X34252Y127681D01*
X33791Y127589D01*
X33400Y127328D01*
X33139Y126937D01*
X33048Y126476D01*
X33139Y126016D01*
X33400Y125625D01*
X33791Y125364D01*
X34046Y125313D01*
X34224Y125048D01*
X34194Y124983D01*
X33894Y124642D01*
X33563Y124708D01*
X33102Y124617D01*
X32711Y124355D01*
X32450Y123965D01*
X32359Y123504D01*
X32450Y123043D01*
X32711Y122652D01*
X32924Y122511D01*
Y120768D01*
X32480D01*
Y120185D01*
X32480Y119685D01*
X31594D01*
Y120660D01*
X31806Y120802D01*
X32067Y121193D01*
X32159Y121653D01*
X32067Y122114D01*
X31806Y122505D01*
X31416Y122766D01*
X30955Y122858D01*
X30494Y122766D01*
X30103Y122505D01*
X29842Y122114D01*
X29750Y121653D01*
X29842Y121193D01*
X30103Y120802D01*
X30316Y120660D01*
Y119685D01*
X29429D01*
Y118323D01*
X28823D01*
Y117134D01*
X30955D01*
Y116134D01*
X28823D01*
Y114416D01*
X28679Y114313D01*
X28323Y114195D01*
X28032Y114389D01*
X27571Y114481D01*
X27110Y114389D01*
X26719Y114128D01*
X26458Y113737D01*
X26367Y113277D01*
X26458Y112816D01*
X26719Y112425D01*
X27110Y112164D01*
X27571Y112072D01*
X28032Y112164D01*
X28071Y112190D01*
X28392Y112058D01*
X29429D01*
Y111614D01*
X32249D01*
X32356Y111114D01*
X30768Y109527D01*
X30581Y109075D01*
Y107323D01*
X29937D01*
Y107929D01*
X27941D01*
Y105512D01*
X27441D01*
Y105012D01*
X24945D01*
Y103094D01*
Y101386D01*
X26772D01*
Y100386D01*
X24945D01*
Y98833D01*
X24833Y98786D01*
X22372D01*
X21920Y98599D01*
X21821Y98501D01*
X21237Y98624D01*
X21102Y98826D01*
Y99372D01*
X21363Y99763D01*
X21455Y100224D01*
X21363Y100685D01*
X21102Y101075D01*
X20711Y101337D01*
X20251Y101428D01*
X19790Y101337D01*
X19399Y101075D01*
X19138Y100685D01*
X19046Y100224D01*
X19096Y99973D01*
X18281Y99158D01*
X16701D01*
X16354Y99390D01*
Y99917D01*
X13295D01*
Y98228D01*
X12295D01*
Y99917D01*
X11507D01*
X11396Y100417D01*
X11678Y100606D01*
X11939Y100996D01*
X12031Y101457D01*
X11939Y101918D01*
X11806Y102118D01*
X12047Y102618D01*
X12976D01*
Y102012D01*
X14972D01*
Y104429D01*
X15472D01*
Y104929D01*
X17968D01*
Y106539D01*
X20232D01*
Y108260D01*
X18406D01*
X16579D01*
Y106846D01*
X15671D01*
X15295Y107146D01*
Y110374D01*
X15295D01*
X15124Y110786D01*
X24922Y120584D01*
X25383Y120337D01*
X25371Y120276D01*
X25462Y119815D01*
X25723Y119424D01*
X26114Y119163D01*
X26575Y119071D01*
X27036Y119163D01*
X27426Y119424D01*
X27687Y119815D01*
X27779Y120276D01*
X27687Y120736D01*
X27426Y121127D01*
X27036Y121388D01*
X26575Y121480D01*
X26513Y121467D01*
X26267Y121928D01*
X35427Y131089D01*
X35501Y131082D01*
X35892Y130821D01*
X36353Y130729D01*
X36814Y130821D01*
X37204Y131082D01*
X37465Y131473D01*
X37557Y131933D01*
X37465Y132394D01*
X37204Y132785D01*
X37197Y132859D01*
X44831Y140493D01*
X55852D01*
X56223Y139993D01*
D02*
G37*
G36*
X66806Y130976D02*
X67728Y130054D01*
X67728Y130054D01*
X68119Y129793D01*
X68580Y129701D01*
X68621D01*
X68888Y129201D01*
X68772Y129027D01*
X68755Y128945D01*
X71260D01*
Y127945D01*
X68755D01*
X68772Y127863D01*
X68827Y127779D01*
X68560Y127279D01*
X68504D01*
X68504Y127279D01*
X68197Y127218D01*
X67936Y127044D01*
X67936Y127044D01*
X67475Y126583D01*
X67301Y126322D01*
X67246Y126043D01*
X61225D01*
Y126370D01*
X61164Y126677D01*
X60990Y126937D01*
X60989Y126937D01*
X60950Y126977D01*
Y128236D01*
X60950Y128236D01*
X60889Y128543D01*
X60715Y128804D01*
X60715Y128804D01*
X58932Y130587D01*
X58826Y130658D01*
X58706Y130778D01*
X58897Y131240D01*
X66630D01*
X66806Y130976D01*
D02*
G37*
G36*
X110026Y127408D02*
X110027Y127407D01*
X110339Y127278D01*
X113067D01*
X113379Y127407D01*
X113508Y127719D01*
Y128500D01*
X113970Y128692D01*
X117033Y125629D01*
X116799Y125156D01*
X116634Y125177D01*
X115910Y125082D01*
X115236Y124803D01*
X114657Y124358D01*
X114213Y123779D01*
X114008Y123285D01*
X113508Y123384D01*
Y123659D01*
X113379Y123971D01*
X113067Y124100D01*
X110339D01*
X110027Y123971D01*
X110026Y123970D01*
X108669Y122612D01*
X105504D01*
X104147Y123970D01*
X104146Y123971D01*
X103834Y124100D01*
X103110D01*
Y125500D01*
X102922Y125952D01*
X102058Y126816D01*
X102250Y127278D01*
X103834D01*
X104146Y127407D01*
X104147Y127408D01*
X105504Y128765D01*
X108669D01*
X110026Y127408D01*
D02*
G37*
G36*
X57761Y129452D02*
X57761Y129452D01*
X57867Y129381D01*
X58086Y129162D01*
X57952Y128589D01*
X57721Y128435D01*
X57460Y128045D01*
X57397Y127729D01*
X57146Y127428D01*
X56921Y127269D01*
X56572Y127200D01*
X56181Y126939D01*
X55920Y126548D01*
X55829Y126087D01*
X55878Y125837D01*
X52737Y122695D01*
X52550Y122243D01*
Y119543D01*
X51878D01*
Y117717D01*
X50878D01*
Y119543D01*
X49158D01*
X49071Y119937D01*
X47941D01*
X47734Y120437D01*
X56376Y129078D01*
X56593Y129404D01*
X56670Y129788D01*
Y129836D01*
X57170Y130044D01*
X57761Y129452D01*
D02*
G37*
G36*
X57033Y124883D02*
X57236Y124923D01*
X57736Y124581D01*
Y120965D01*
X57480Y120571D01*
X55413D01*
Y117028D01*
X58981D01*
X59335Y116674D01*
X59335Y115732D01*
X58862Y115665D01*
X58079D01*
Y113287D01*
X57079D01*
Y115665D01*
X54820D01*
X54807Y115665D01*
X54335Y115628D01*
X54148Y116080D01*
X53828Y116400D01*
Y121978D01*
X56782Y124933D01*
X57033Y124883D01*
D02*
G37*
G36*
X101789Y118894D02*
X102096Y118766D01*
X102098Y118767D01*
X102102Y118766D01*
X108507D01*
X108646Y118323D01*
X108646D01*
Y115953D01*
X111319D01*
Y114953D01*
X108646D01*
Y112583D01*
X108646D01*
X108798Y112115D01*
X108343Y112122D01*
Y112122D01*
X106071D01*
Y109351D01*
Y106579D01*
X107294D01*
Y102307D01*
X106988Y102001D01*
X100416D01*
Y109376D01*
X100328Y109818D01*
X100078Y110192D01*
X99704Y110442D01*
X99262Y110530D01*
X97785D01*
X97344Y110442D01*
X96969Y110192D01*
X96719Y109818D01*
X96631Y109376D01*
Y102001D01*
X96085D01*
Y109376D01*
X95997Y109818D01*
X95747Y110192D01*
X95373Y110442D01*
X94931Y110530D01*
X93455D01*
X93013Y110442D01*
X92639Y110192D01*
X92388Y109818D01*
X92301Y109376D01*
Y101404D01*
X92388Y100962D01*
X92639Y100588D01*
X93013Y100337D01*
X93455Y100250D01*
X94062D01*
Y92142D01*
X93571Y91869D01*
X93110Y91960D01*
X92860Y91910D01*
X89259Y95511D01*
X88807Y95698D01*
X69823D01*
X66284Y99238D01*
X65832Y99425D01*
X63339D01*
X63015Y99783D01*
X63275Y100250D01*
X63435D01*
X63877Y100337D01*
X64251Y100588D01*
X64501Y100962D01*
X64589Y101404D01*
Y109376D01*
X64501Y109818D01*
X64251Y110192D01*
X64206Y110824D01*
X64269Y110909D01*
X65381D01*
X65455Y110909D01*
X65519Y110824D01*
X65473Y110192D01*
X65223Y109818D01*
X65135Y109376D01*
Y101404D01*
X65223Y100962D01*
X65473Y100588D01*
X65848Y100337D01*
X66289Y100250D01*
X67766D01*
X68207Y100337D01*
X68582Y100588D01*
X68832Y100962D01*
X68920Y101404D01*
Y109376D01*
X68832Y109818D01*
X68582Y110192D01*
X68207Y110442D01*
X67766Y110530D01*
X66739D01*
X66289Y110530D01*
X66267Y110526D01*
X66001Y110557D01*
X65862Y110955D01*
X65862Y111200D01*
Y113181D01*
X63484D01*
Y114181D01*
X65862D01*
Y116339D01*
X67205D01*
X67224Y115847D01*
X67224D01*
Y111516D01*
X70768D01*
Y111516D01*
X71260D01*
Y111516D01*
X74803D01*
Y114698D01*
X75058Y114804D01*
X76114Y115859D01*
X76219Y116115D01*
X76711Y116258D01*
X76723Y116254D01*
X76772Y115847D01*
X76772D01*
Y111516D01*
X79607D01*
X79724Y111467D01*
X79758D01*
X79863Y111213D01*
X80107Y110969D01*
X80035Y110505D01*
X79997Y110426D01*
X79647Y110192D01*
X79396Y109818D01*
X79308Y109376D01*
Y101404D01*
X79396Y100962D01*
X79647Y100588D01*
X80021Y100337D01*
X80463Y100250D01*
X81939D01*
X82381Y100337D01*
X82755Y100588D01*
X83005Y100962D01*
X83093Y101404D01*
Y109376D01*
X83005Y109818D01*
X82763Y110180D01*
X82778Y110258D01*
X82925Y110680D01*
X83807D01*
X83954Y110258D01*
X83969Y110180D01*
X83727Y109818D01*
X83639Y109376D01*
Y101404D01*
X83727Y100962D01*
X83977Y100588D01*
X84352Y100337D01*
X84793Y100250D01*
X86270D01*
X86711Y100337D01*
X87086Y100588D01*
X87336Y100962D01*
X87424Y101404D01*
Y109376D01*
X87336Y109818D01*
X87086Y110192D01*
X86711Y110442D01*
X86270Y110530D01*
X86255D01*
X86048Y111030D01*
X86485Y111467D01*
X86614D01*
X86732Y111516D01*
X89567D01*
Y115730D01*
X90004Y115998D01*
X90437Y115853D01*
Y115339D01*
X92709D01*
Y117717D01*
X93709D01*
Y115339D01*
X95161D01*
Y115067D01*
X98032D01*
Y114567D01*
D01*
Y115067D01*
X100902D01*
Y115456D01*
X100917Y115471D01*
X101402Y115677D01*
X101635Y115521D01*
X102096Y115430D01*
X102346Y115479D01*
X102825Y115001D01*
X103277Y114814D01*
X103937D01*
Y113189D01*
X108071D01*
Y117717D01*
X103937D01*
Y116720D01*
X103437Y116505D01*
X103307Y116628D01*
X103298Y116645D01*
X103208Y117095D01*
X102947Y117485D01*
X102557Y117746D01*
X102096Y117838D01*
X101635Y117746D01*
X101297Y117520D01*
X100296Y118521D01*
X100295Y118523D01*
Y119787D01*
X100789Y119887D01*
X100795Y119887D01*
X101789Y118894D01*
D02*
G37*
G36*
X119885Y113999D02*
X120145Y113825D01*
X120453Y113764D01*
X120453Y113764D01*
X123706D01*
X124013Y113825D01*
X124274Y113999D01*
X124336D01*
X125074Y113261D01*
X125118Y113195D01*
X125962Y112351D01*
X126010Y112112D01*
X126184Y111851D01*
X126337Y111698D01*
X126146Y111236D01*
X122634D01*
Y111728D01*
X120953D01*
Y110236D01*
X120453D01*
Y109736D01*
X118272D01*
Y108907D01*
X117085D01*
X116633Y108720D01*
X115411Y107499D01*
X113154Y109756D01*
X112702Y109943D01*
X112661D01*
X112610Y110195D01*
X112358Y110573D01*
X112625Y111073D01*
X113291D01*
X113743Y111260D01*
X117086Y114603D01*
X117273Y115055D01*
Y115217D01*
X118667D01*
X119885Y113999D01*
D02*
G37*
G36*
X44842Y112023D02*
X44711Y111969D01*
X36562Y103820D01*
X36312Y103870D01*
X35851Y103778D01*
X35460Y103517D01*
X35239Y103187D01*
X34999Y103174D01*
X34719Y103239D01*
X34669Y103492D01*
X34408Y103883D01*
X34017Y104144D01*
X33556Y104236D01*
X33497Y104224D01*
X33110Y104541D01*
Y107323D01*
X31860D01*
Y108810D01*
X33342Y110293D01*
X33843Y110086D01*
Y109925D01*
X35032D01*
Y112057D01*
X36031D01*
Y109925D01*
X37000D01*
Y112057D01*
X38000D01*
Y109925D01*
X39189D01*
Y111614D01*
X41634D01*
Y112808D01*
X41937Y112934D01*
X42025Y113022D01*
X44842D01*
Y112023D01*
D02*
G37*
G36*
X114507Y106595D02*
X113286Y105373D01*
X113099Y104921D01*
Y102001D01*
X108600D01*
X108572Y102042D01*
Y107612D01*
X109072Y107747D01*
X109726Y107310D01*
X110571Y107142D01*
X111416Y107310D01*
X112132Y107789D01*
X112386Y108169D01*
X112883Y108218D01*
X114507Y106595D01*
D02*
G37*
G36*
X48347Y110873D02*
X48428Y110378D01*
X48151Y110192D01*
X47900Y109818D01*
X47813Y109376D01*
Y101825D01*
X47313Y101618D01*
X45132Y103798D01*
X44680Y103986D01*
X41852D01*
X41778Y103955D01*
X41605Y104070D01*
X41144Y104162D01*
X40683Y104070D01*
X40292Y103809D01*
X40216Y103695D01*
X39765Y103536D01*
X39603Y103609D01*
X39339Y103785D01*
X39091Y103834D01*
X38902Y104352D01*
X45428Y110878D01*
X48345D01*
X48347Y110873D01*
D02*
G37*
G36*
X54807Y112753D02*
Y111016D01*
X54799Y110899D01*
X54516Y110530D01*
X53297D01*
X52856Y110442D01*
X52481Y110192D01*
X52231Y109818D01*
X52143Y109376D01*
Y101404D01*
X52231Y100962D01*
X52481Y100588D01*
X52856Y100337D01*
X53297Y100250D01*
X54774D01*
X55215Y100337D01*
X55590Y100588D01*
X55840Y100962D01*
X55928Y101404D01*
Y109376D01*
X55840Y109818D01*
X55590Y110192D01*
X55544Y110824D01*
X55608Y110909D01*
X56794D01*
X56857Y110824D01*
X56812Y110192D01*
X56562Y109818D01*
X56474Y109376D01*
Y101404D01*
X56562Y100962D01*
X56812Y100588D01*
X57186Y100337D01*
X57350Y100305D01*
X57657Y99846D01*
X57621Y99684D01*
X57094Y99572D01*
X56704Y99833D01*
X56243Y99925D01*
X55782Y99833D01*
X55391Y99572D01*
X55130Y99181D01*
X55039Y98721D01*
X55114Y98343D01*
X54656Y98197D01*
X54395Y98588D01*
X54004Y98849D01*
X53543Y98940D01*
X53083Y98849D01*
X52692Y98588D01*
X52431Y98197D01*
X52339Y97736D01*
X52431Y97275D01*
X52568Y97070D01*
X52180Y96751D01*
X49181Y99750D01*
X49388Y100250D01*
X50443D01*
X50885Y100337D01*
X51259Y100588D01*
X51509Y100962D01*
X51597Y101404D01*
Y109376D01*
X51509Y109818D01*
X51259Y110192D01*
X50981Y110378D01*
X51062Y110873D01*
X51064Y110878D01*
X52392D01*
X52844Y111065D01*
X54148Y112369D01*
X54335Y112821D01*
X54807Y112753D01*
D02*
G37*
G36*
X42886Y99828D02*
X43050Y99695D01*
Y98972D01*
X43238Y98520D01*
X56328Y85430D01*
X56121Y84930D01*
X48044D01*
X45930Y87043D01*
X45479Y87230D01*
X40383D01*
X40044Y87730D01*
X40081Y87919D01*
Y89396D01*
X39993Y89837D01*
X39743Y90212D01*
X39369Y90462D01*
X38927Y90550D01*
X30955D01*
X30513Y90462D01*
X30139Y90212D01*
X29888Y89837D01*
X29801Y89396D01*
Y89297D01*
X27756D01*
Y90134D01*
X24987D01*
X24861Y90437D01*
X22286Y93013D01*
X22308Y93243D01*
X22569Y93634D01*
X22661Y94095D01*
X22569Y94555D01*
X22343Y94894D01*
X22630Y95275D01*
X30274D01*
X30492Y94812D01*
X30486Y94775D01*
X30139Y94543D01*
X29888Y94168D01*
X29801Y93726D01*
Y92250D01*
X29888Y91808D01*
X30139Y91434D01*
X30513Y91184D01*
X30955Y91096D01*
X38927D01*
X39369Y91184D01*
X39743Y91434D01*
X39993Y91808D01*
X40081Y92250D01*
Y93726D01*
X39993Y94168D01*
X39743Y94543D01*
X39369Y94793D01*
X38927Y94881D01*
X37830D01*
X37731Y95381D01*
X37927Y95462D01*
X42381Y99916D01*
X42886Y99828D01*
D02*
G37*
G36*
X80594Y90142D02*
X83563D01*
Y89642D01*
X84063D01*
Y86673D01*
X86532D01*
Y89888D01*
X86993Y90080D01*
X94062Y83011D01*
Y79224D01*
X93980D01*
Y73287D01*
X94062D01*
Y72532D01*
X93980D01*
Y66595D01*
X94062D01*
Y65447D01*
X93562Y65240D01*
X92134Y66669D01*
X92056Y66701D01*
X92155Y67201D01*
X92618D01*
Y71925D01*
X87894D01*
Y68710D01*
X87432Y68519D01*
X86030Y69921D01*
Y69980D01*
X85843Y70432D01*
X81228Y75046D01*
X80776Y75234D01*
X67202D01*
X62311Y80125D01*
X62502Y80587D01*
X65847D01*
Y80901D01*
X65928Y80949D01*
X66347Y81054D01*
X67209Y80192D01*
Y79980D01*
X67420D01*
X70195Y77206D01*
X70647Y77019D01*
X76351D01*
X76803Y77206D01*
X79578Y79980D01*
X79839D01*
Y80176D01*
X80117Y80400D01*
X80594Y80189D01*
Y79980D01*
X83063D01*
Y82949D01*
Y85917D01*
X80594D01*
Y84111D01*
X80273Y83945D01*
X79839Y84252D01*
Y85917D01*
X77370D01*
Y82949D01*
X76870D01*
Y82449D01*
X73902D01*
Y79980D01*
X77117D01*
X77308Y79519D01*
X76086Y78297D01*
X70911D01*
X69690Y79519D01*
X69881Y79980D01*
X73146D01*
Y82449D01*
X70177D01*
Y82949D01*
X69677D01*
Y85917D01*
X68863D01*
X68714Y86188D01*
X69007Y86673D01*
X69677D01*
Y89642D01*
X70177D01*
Y90142D01*
X73146D01*
Y92063D01*
X73902D01*
Y90142D01*
X76870D01*
X79839D01*
Y92063D01*
X80594D01*
Y90142D01*
D02*
G37*
G36*
X53709Y92206D02*
X54161Y92019D01*
X56129D01*
X56813Y91334D01*
X56690Y90750D01*
X56488Y90615D01*
X56227Y90225D01*
X56135Y89764D01*
X56227Y89303D01*
X56488Y88912D01*
X56878Y88651D01*
X57339Y88560D01*
X57800Y88651D01*
X58147Y88883D01*
X58244Y88902D01*
X58721Y88805D01*
X58774Y88676D01*
X60516Y86934D01*
Y86673D01*
X60777D01*
X61607Y85843D01*
X61685Y85811D01*
X61585Y85311D01*
X61122D01*
Y83220D01*
X60660Y83029D01*
X58426Y85264D01*
X58520Y85876D01*
X58648Y85962D01*
X58909Y86353D01*
X59001Y86814D01*
X58909Y87274D01*
X58648Y87665D01*
X58258Y87926D01*
X57797Y88018D01*
X57336Y87926D01*
X56945Y87665D01*
X56810Y87463D01*
X56226Y87340D01*
X44329Y99237D01*
Y100188D01*
X44541Y100330D01*
X44676Y100532D01*
X45260Y100655D01*
X53709Y92206D01*
D02*
G37*
G36*
X9803Y104812D02*
Y102618D01*
X9803Y102618D01*
X9848Y102118D01*
X9714Y101918D01*
X9623Y101457D01*
X9672Y101207D01*
X8702Y100236D01*
X8514Y99784D01*
Y96965D01*
X8472D01*
Y91437D01*
Y85909D01*
X8786D01*
X9006Y85579D01*
Y82949D01*
X9194Y82497D01*
X10427Y81264D01*
X10289Y80727D01*
X10061Y80681D01*
X9344Y80203D01*
X8866Y79487D01*
X8698Y78642D01*
X8685Y78629D01*
X8071Y78751D01*
X6406D01*
Y76142D01*
X5406D01*
Y78751D01*
X4507D01*
Y100169D01*
X9341Y105003D01*
X9803Y104812D01*
D02*
G37*
G36*
X18118Y85909D02*
X18262D01*
X18480Y85409D01*
X18338Y85067D01*
Y82669D01*
X17745Y82076D01*
X17558Y81625D01*
Y80399D01*
X17345Y80257D01*
X17085Y79866D01*
X16993Y79406D01*
X17085Y78945D01*
X17345Y78554D01*
X17736Y78293D01*
X18197Y78201D01*
X18707Y77793D01*
X18720Y77728D01*
X18981Y77337D01*
X19372Y77076D01*
X19833Y76985D01*
X20293Y77076D01*
X20684Y77337D01*
X20945Y77728D01*
X21037Y78189D01*
X21494Y78323D01*
X21955Y78415D01*
X22346Y78676D01*
X22607Y79067D01*
X22642Y79243D01*
X22783Y79302D01*
X23188Y79707D01*
X23375Y80159D01*
Y82973D01*
X24213D01*
Y85925D01*
X21579D01*
Y86596D01*
X22164Y87181D01*
X23913D01*
X23957Y87075D01*
X24665Y86368D01*
X24803Y85925D01*
X24803Y85925D01*
X24803D01*
X24803Y85925D01*
Y82973D01*
X27756D01*
Y83810D01*
X29801D01*
Y83589D01*
X29888Y83147D01*
X30139Y82773D01*
X30513Y82522D01*
X30955Y82435D01*
X38927D01*
X39369Y82522D01*
X39743Y82773D01*
X39993Y83147D01*
X40081Y83589D01*
Y85065D01*
X40004Y85452D01*
X40031Y85562D01*
X40298Y85952D01*
X45214D01*
X47327Y83838D01*
X47779Y83651D01*
X55495D01*
X55762Y83151D01*
X55732Y83106D01*
X55640Y82645D01*
X55732Y82184D01*
X55993Y81793D01*
X56384Y81532D01*
X56612Y81043D01*
X56384Y80603D01*
X55959Y80518D01*
X55568Y80257D01*
X55307Y79866D01*
X55216Y79406D01*
X55273Y79118D01*
X54970Y78618D01*
X54429D01*
Y73894D01*
X58810D01*
Y71925D01*
X54429D01*
Y67201D01*
X58810D01*
Y65232D01*
X54429D01*
Y60508D01*
X59153D01*
Y61613D01*
X59615Y61804D01*
X65732Y55687D01*
Y38461D01*
X61122D01*
Y33736D01*
X65846D01*
X65847Y33736D01*
Y33736D01*
X65889Y33638D01*
X65919Y33566D01*
X66131Y33354D01*
X66132Y33354D01*
X66145Y33341D01*
X66724Y32762D01*
X66405Y32374D01*
X65973Y32374D01*
X63984D01*
Y29906D01*
X66453D01*
Y31877D01*
X66453Y32326D01*
X66840Y32645D01*
X67209Y32277D01*
Y29906D01*
X70177D01*
Y29406D01*
X70677D01*
Y26437D01*
X72425D01*
Y21576D01*
X72612Y21124D01*
X73645Y20091D01*
Y18320D01*
X73182Y18106D01*
X73145Y18112D01*
X72913Y18460D01*
X72538Y18710D01*
X72097Y18798D01*
X70620D01*
X70178Y18710D01*
X69847Y18489D01*
X69780Y18463D01*
X69257Y18541D01*
X69019Y18897D01*
X68444Y19281D01*
X67766Y19416D01*
X67528D01*
Y13658D01*
Y7899D01*
X67766D01*
X68444Y8034D01*
X69019Y8418D01*
X69257Y8774D01*
X69780Y8852D01*
X69847Y8826D01*
X70178Y8605D01*
X70620Y8517D01*
X72097D01*
X72538Y8605D01*
X72913Y8855D01*
X73163Y9230D01*
X73251Y9671D01*
Y12070D01*
X73751Y12169D01*
X73832Y11972D01*
X81679Y4125D01*
X82131Y3938D01*
X89846D01*
X90298Y4125D01*
X90455Y4282D01*
X92494D01*
X92820Y3782D01*
X92772Y3543D01*
X92779Y3507D01*
X92369Y3007D01*
X44831D01*
X19494Y28344D01*
X19494Y28348D01*
X19691Y28854D01*
X19957Y28907D01*
X20348Y29168D01*
X20609Y29559D01*
X20701Y30020D01*
X20609Y30481D01*
X20348Y30871D01*
X19957Y31132D01*
X19496Y31224D01*
X19036Y31132D01*
X18645Y30871D01*
X18384Y30481D01*
X18331Y30215D01*
X17824Y30018D01*
X17821Y30018D01*
X15066Y32773D01*
X15257Y33235D01*
X16228D01*
X16680Y33422D01*
X17647Y34388D01*
X17834Y34840D01*
Y36207D01*
X19439D01*
Y36591D01*
X21688D01*
X21934Y36426D01*
Y35374D01*
X22121Y34922D01*
X22466Y34577D01*
X22416Y34327D01*
X22508Y33866D01*
X22769Y33475D01*
X23159Y33214D01*
X23620Y33123D01*
X24081Y33214D01*
X24472Y33475D01*
X24733Y33866D01*
X24824Y34327D01*
X24733Y34788D01*
X24472Y35178D01*
X24081Y35440D01*
X23620Y35531D01*
X23212Y35932D01*
Y36837D01*
X23853D01*
Y38587D01*
X24324Y39069D01*
X24398D01*
X24443Y39000D01*
Y36837D01*
X25084D01*
Y36557D01*
X25271Y36105D01*
X27501Y33875D01*
X27953Y33688D01*
X29801D01*
Y33589D01*
X29888Y33147D01*
X30110Y32816D01*
X30135Y32748D01*
X30058Y32225D01*
X29702Y31988D01*
X29317Y31413D01*
X29182Y30734D01*
Y30496D01*
X34941D01*
X40699D01*
Y30734D01*
X40565Y31413D01*
X40180Y31988D01*
X39824Y32225D01*
X39747Y32748D01*
X39772Y32816D01*
X39993Y33147D01*
X40081Y33589D01*
Y35065D01*
X39993Y35507D01*
X39743Y35881D01*
X39369Y36131D01*
X38927Y36219D01*
X30955D01*
X30513Y36131D01*
X30139Y35881D01*
X29888Y35507D01*
X29801Y35065D01*
Y34966D01*
X28218D01*
X26847Y36337D01*
X27003Y36837D01*
X27003D01*
Y39396D01*
X25283D01*
X25169Y39560D01*
X25062Y39896D01*
X25261Y40194D01*
X25352Y40655D01*
X25335Y40742D01*
X25732Y41242D01*
X26724D01*
X29405Y38562D01*
X29801Y38398D01*
Y37919D01*
X29888Y37478D01*
X30139Y37103D01*
X30513Y36853D01*
X30955Y36765D01*
X38927D01*
X39369Y36853D01*
X39743Y37103D01*
X39993Y37478D01*
X40081Y37919D01*
Y39396D01*
X39993Y39838D01*
X39743Y40212D01*
X39369Y40462D01*
X38927Y40550D01*
X30955D01*
X30513Y40462D01*
X30139Y40212D01*
X30127Y40194D01*
X29629Y40145D01*
X27397Y42377D01*
X27003Y42540D01*
Y43303D01*
X27003Y43765D01*
X27382Y44093D01*
X28938Y42536D01*
X29390Y42349D01*
X29801D01*
Y42250D01*
X29888Y41809D01*
X30139Y41434D01*
X30513Y41184D01*
X30955Y41096D01*
X38927D01*
X39369Y41184D01*
X39743Y41434D01*
X39993Y41809D01*
X40081Y42250D01*
Y43727D01*
X39993Y44168D01*
X39743Y44543D01*
X39369Y44793D01*
X38927Y44881D01*
X30955D01*
X30513Y44793D01*
X30139Y44543D01*
X29888Y44168D01*
X29877Y44112D01*
X29335Y43948D01*
X27003Y46280D01*
Y47935D01*
X24443D01*
Y45376D01*
X26098D01*
X27294Y44181D01*
X26966Y43802D01*
X26518Y43802D01*
X24443D01*
Y42463D01*
X24148Y42292D01*
X23853Y42463D01*
Y43802D01*
X21294D01*
Y42591D01*
X20989Y42142D01*
X20528Y42050D01*
X20138Y41789D01*
X19939Y41492D01*
X19475Y41561D01*
X19439Y41575D01*
Y42191D01*
X18579D01*
Y44075D01*
X19518D01*
Y45093D01*
X21922D01*
X22270Y45162D01*
X22566Y45360D01*
X22582Y45376D01*
X23853D01*
Y47935D01*
X21771D01*
X21722Y48435D01*
X22114Y48513D01*
X22505Y48774D01*
X22766Y49165D01*
X22858Y49626D01*
X22766Y50087D01*
X22505Y50477D01*
X22114Y50739D01*
X21654Y50830D01*
X21193Y50739D01*
X20802Y50477D01*
X20624Y50211D01*
X20124Y50359D01*
Y52398D01*
X18167D01*
Y49862D01*
X17667D01*
Y49362D01*
X15211D01*
Y47967D01*
X14737Y47552D01*
X14459Y47592D01*
X14415Y47667D01*
Y49362D01*
X9502D01*
Y47327D01*
X10108D01*
Y44075D01*
X12984D01*
X13880Y43179D01*
X13877Y43100D01*
X13855Y42988D01*
X13601Y42679D01*
X13321D01*
Y42191D01*
X11171D01*
Y40617D01*
X10671Y40352D01*
X10500Y40466D01*
X10039Y40558D01*
X9578Y40466D01*
X9188Y40205D01*
X8927Y39815D01*
X8894Y39651D01*
X8352Y39487D01*
X7110Y40729D01*
Y44075D01*
X8321D01*
Y47327D01*
X8927D01*
Y49362D01*
X6470D01*
Y49862D01*
X5970D01*
Y52398D01*
X4507D01*
Y59150D01*
X5532D01*
X5695Y58755D01*
X8725Y55725D01*
X9177Y55538D01*
X17201D01*
X17653Y55725D01*
X19054Y57127D01*
X19242Y57579D01*
Y63136D01*
X19454Y63278D01*
X19715Y63668D01*
X19807Y64129D01*
X19715Y64590D01*
X19454Y64981D01*
X19063Y65242D01*
X18602Y65333D01*
X18142Y65242D01*
X17751Y64981D01*
X17490Y64590D01*
X17398Y64129D01*
X17490Y63668D01*
X17751Y63278D01*
X17963Y63136D01*
Y57844D01*
X16936Y56817D01*
X12891D01*
X12624Y57316D01*
X12945Y57797D01*
X13113Y58642D01*
X12945Y59487D01*
X12707Y59843D01*
X13068Y60203D01*
X13333Y60026D01*
X13794Y59935D01*
X14255Y60026D01*
X14645Y60287D01*
X14906Y60678D01*
X14998Y61139D01*
X14906Y61600D01*
X14645Y61990D01*
X14255Y62251D01*
X13794Y62343D01*
X13333Y62251D01*
X13060Y62069D01*
X12700Y62430D01*
X12945Y62797D01*
X13113Y63642D01*
X12945Y64487D01*
X12467Y65203D01*
X11750Y65681D01*
X10905Y65850D01*
X10061Y65681D01*
X9775Y65491D01*
X9275Y65758D01*
Y66526D01*
X9775Y66793D01*
X10061Y66602D01*
X10905Y66434D01*
X11750Y66602D01*
X12467Y67081D01*
X12945Y67797D01*
X13113Y68642D01*
X12945Y69487D01*
X12467Y70203D01*
X11750Y70681D01*
X10905Y70850D01*
X10785Y70825D01*
X10397Y71142D01*
X10785Y71458D01*
X10905Y71434D01*
X11750Y71602D01*
X12190Y71895D01*
X12640Y71595D01*
X12589Y71343D01*
X12681Y70882D01*
X12942Y70491D01*
X13333Y70230D01*
X13794Y70139D01*
X14255Y70230D01*
X14645Y70491D01*
X15207Y70432D01*
X15260Y70304D01*
X21326Y64238D01*
X21778Y64051D01*
X23515D01*
X23656Y63839D01*
X24047Y63578D01*
X24508Y63486D01*
X24969Y63578D01*
X25359Y63839D01*
X25620Y64229D01*
X25712Y64690D01*
X25699Y64756D01*
X26106Y65256D01*
X27586D01*
X27692Y65097D01*
X28082Y64836D01*
X28543Y64745D01*
X29004Y64836D01*
X29395Y65097D01*
X29584Y65380D01*
X30039Y65458D01*
X30139Y65450D01*
X30513Y65200D01*
X30955Y65112D01*
X38927D01*
X39369Y65200D01*
X39743Y65450D01*
X39993Y65824D01*
X40081Y66266D01*
Y67742D01*
X39993Y68184D01*
X39743Y68558D01*
X39369Y68809D01*
X38927Y68896D01*
X30955D01*
X30513Y68809D01*
X30139Y68558D01*
X29888Y68184D01*
X29845Y67966D01*
X27756D01*
Y68209D01*
X26487D01*
X26178Y68709D01*
X26233Y68984D01*
X26141Y69445D01*
X25880Y69836D01*
X25489Y70097D01*
X25028Y70188D01*
X24568Y70097D01*
X24177Y69836D01*
X23619Y69900D01*
X23588Y69946D01*
X23197Y70207D01*
X22736Y70299D01*
X22275Y70207D01*
X21885Y69946D01*
X21624Y69555D01*
X21532Y69095D01*
X21609Y68709D01*
X21511Y68483D01*
X21306Y68209D01*
X21260D01*
Y66765D01*
X20798Y66574D01*
X16351Y71021D01*
Y71789D01*
X16164Y72241D01*
X14714Y73690D01*
Y79993D01*
X14527Y80445D01*
X12965Y82007D01*
X12513Y82194D01*
X11356D01*
X11119Y82488D01*
X11324Y82957D01*
X12295D01*
Y84646D01*
X12795D01*
Y85146D01*
X16354D01*
Y85909D01*
X17118D01*
Y91437D01*
X18118D01*
Y85909D01*
D02*
G37*
G36*
X117815Y42855D02*
X117315Y42490D01*
X117247Y42511D01*
Y43727D01*
X117159Y44168D01*
X116909Y44543D01*
X116534Y44793D01*
X116093Y44881D01*
X108120D01*
X107678Y44793D01*
X107304Y44543D01*
X107054Y44168D01*
X106966Y43727D01*
Y42250D01*
X107054Y41809D01*
X107304Y41434D01*
X107678Y41184D01*
X108120Y41096D01*
X115556D01*
X115633Y40855D01*
X115307Y40550D01*
X108120D01*
X107678Y40462D01*
X107304Y40212D01*
X107054Y39837D01*
X106966Y39396D01*
Y37919D01*
X107054Y37478D01*
X107304Y37103D01*
X107678Y36853D01*
X108120Y36765D01*
X116093D01*
X116534Y36853D01*
X116909Y37103D01*
X117159Y37478D01*
X117247Y37919D01*
Y39135D01*
X117376Y39619D01*
X117837Y39710D01*
X118102Y39888D01*
X118523Y39731D01*
X118602Y39666D01*
Y36220D01*
X120751D01*
X120943Y35759D01*
X120206Y35022D01*
X119923D01*
X119760Y35131D01*
X119299Y35223D01*
X118838Y35131D01*
X118448Y34870D01*
X118187Y34479D01*
X118095Y34018D01*
X118167Y33658D01*
X117825Y33335D01*
X117344Y33485D01*
X117247Y33850D01*
Y35065D01*
X117159Y35507D01*
X116909Y35881D01*
X116534Y36131D01*
X116093Y36219D01*
X108120D01*
X107678Y36131D01*
X107304Y35881D01*
X107054Y35507D01*
X106966Y35065D01*
Y33589D01*
X107054Y33147D01*
X107275Y32816D01*
X107300Y32748D01*
X107223Y32225D01*
X106867Y31988D01*
X106801Y31889D01*
X106666Y31979D01*
X106205Y32070D01*
X105745Y31979D01*
X105354Y31718D01*
X105093Y31327D01*
X105001Y30866D01*
X105093Y30405D01*
X105354Y30015D01*
X105745Y29754D01*
X106205Y29662D01*
X106363Y29183D01*
X106483Y28580D01*
X106867Y28005D01*
X107223Y27767D01*
X107300Y27244D01*
X107275Y27176D01*
X107054Y26845D01*
X106966Y26404D01*
Y24927D01*
X107054Y24486D01*
X107304Y24111D01*
X107678Y23861D01*
X108120Y23773D01*
X115764D01*
X115972Y23273D01*
X107348Y14650D01*
X107161Y14198D01*
Y9629D01*
X105629Y8096D01*
X105167Y8288D01*
Y27986D01*
X104980Y28438D01*
X101919Y31499D01*
Y35821D01*
X102419Y36146D01*
X102657Y36099D01*
X103118Y36191D01*
X103509Y36452D01*
X103770Y36842D01*
X103862Y37303D01*
X103770Y37764D01*
X103509Y38155D01*
X103118Y38416D01*
X102657Y38507D01*
X102517Y38623D01*
Y41587D01*
X103017Y41891D01*
X103300Y41835D01*
X103761Y41927D01*
X104152Y42188D01*
X104413Y42578D01*
X104504Y43039D01*
X104504Y43040D01*
X104546Y43112D01*
X104938Y43425D01*
X105208Y43371D01*
X105669Y43462D01*
X106060Y43724D01*
X106321Y44114D01*
X106412Y44575D01*
X106321Y45036D01*
X106060Y45427D01*
X105904Y45531D01*
X106056Y46031D01*
X107126D01*
X107304Y45765D01*
X107678Y45515D01*
X108120Y45427D01*
X116093D01*
X116534Y45515D01*
X116909Y45765D01*
X117086Y46031D01*
X117815D01*
Y42855D01*
D02*
G37*
G36*
X134153Y41732D02*
X135926D01*
X136054Y41595D01*
X136130Y41444D01*
X136161Y41232D01*
X134818Y39889D01*
X134735Y39834D01*
X134684Y39783D01*
X129429D01*
Y41339D01*
X127323D01*
X127067Y41732D01*
Y46031D01*
X134153D01*
Y41732D01*
D02*
G37*
G36*
X101238Y38737D02*
X100828Y38326D01*
X100640Y37874D01*
Y31234D01*
X100828Y30782D01*
X103888Y27721D01*
Y26735D01*
X103427Y26544D01*
X94242Y35728D01*
Y40072D01*
X94587Y40429D01*
X94742Y40429D01*
X99311D01*
Y45154D01*
X94722D01*
X94346Y45554D01*
X94376Y45956D01*
X94488Y46031D01*
X101238D01*
Y38737D01*
D02*
G37*
G36*
X116885Y18146D02*
X115273Y16534D01*
X115484Y16323D01*
X110211Y11049D01*
X110057Y11152D01*
X109597Y11244D01*
X109136Y11152D01*
X108939Y11021D01*
X108439Y11265D01*
Y13933D01*
X113157Y18651D01*
X114566Y17242D01*
X116178Y18853D01*
X116885Y18146D01*
D02*
G37*
G36*
X66485Y74143D02*
X66937Y73955D01*
X80511D01*
X83487Y70980D01*
X83363Y70396D01*
X83161Y70261D01*
X82900Y69870D01*
X82808Y69409D01*
X82900Y68949D01*
X83161Y68558D01*
X83552Y68297D01*
X84013Y68205D01*
X84473Y68297D01*
X84864Y68558D01*
X84870Y68566D01*
X85513Y68629D01*
X88378Y65765D01*
X88456Y65732D01*
X88357Y65232D01*
X87894D01*
Y60508D01*
X92618D01*
X92963Y60151D01*
Y58897D01*
X92618Y58539D01*
X92463Y58539D01*
X87894D01*
Y53815D01*
X92463D01*
X92618Y53815D01*
X92963Y53458D01*
Y52204D01*
X92618Y51847D01*
X92463Y51847D01*
X87894D01*
Y47122D01*
X92463D01*
X92618Y47122D01*
X92963Y46765D01*
Y45511D01*
X92618Y45154D01*
X92463Y45154D01*
X87894D01*
Y40429D01*
X92463D01*
X92618Y40429D01*
X92963Y40072D01*
Y35464D01*
X93150Y35012D01*
X103101Y25061D01*
Y13491D01*
X102601Y13165D01*
X102362Y13213D01*
X101901Y13121D01*
X101534Y12876D01*
X101401Y12903D01*
X101034Y13047D01*
Y13158D01*
X99024D01*
Y7899D01*
X99262D01*
X99940Y8034D01*
X100515Y8418D01*
X100899Y8993D01*
X101034Y9671D01*
Y10970D01*
X101401Y11114D01*
X101534Y11141D01*
X101901Y10896D01*
X102362Y10804D01*
X102601Y10852D01*
X103101Y10526D01*
Y8631D01*
X102613Y8143D01*
X102362Y8192D01*
X101901Y8101D01*
X101511Y7840D01*
X101250Y7449D01*
X101158Y6988D01*
X101250Y6527D01*
X101511Y6137D01*
X101713Y6001D01*
X101836Y5418D01*
X101174Y4755D01*
X100805Y5001D01*
X100345Y5093D01*
X99884Y5001D01*
X99493Y4740D01*
X98855Y4685D01*
X97379Y6161D01*
X96927Y6348D01*
X89864D01*
X89412Y6161D01*
X89255Y6003D01*
X82722D01*
X80708Y8017D01*
X80915Y8517D01*
X81939D01*
X82381Y8605D01*
X82712Y8826D01*
X82779Y8852D01*
X83302Y8774D01*
X83540Y8418D01*
X84115Y8034D01*
X84793Y7899D01*
X85031D01*
Y13658D01*
Y19416D01*
X84793D01*
X84115Y19281D01*
X83568Y18915D01*
X83528Y18898D01*
X82964Y18934D01*
X82928Y18991D01*
X83002Y19102D01*
X83094Y19563D01*
X83002Y20024D01*
X82741Y20415D01*
X82351Y20676D01*
X81890Y20767D01*
X81429Y20676D01*
X81038Y20415D01*
X80777Y20024D01*
X80686Y19563D01*
X80738Y19298D01*
X80514Y18891D01*
X80500Y18874D01*
X80389Y18783D01*
X80021Y18710D01*
X79647Y18460D01*
X79429Y18134D01*
X79322Y18072D01*
X78867Y17989D01*
X74710Y22146D01*
Y26437D01*
X76370D01*
Y29406D01*
Y32374D01*
X73998D01*
X73630Y32742D01*
X73950Y33130D01*
X74382Y33130D01*
X76370D01*
Y35598D01*
X73902D01*
Y33628D01*
X73902Y33178D01*
X73514Y32859D01*
X73146Y33227D01*
Y35598D01*
X70177D01*
Y36099D01*
X69677D01*
Y39067D01*
X67929D01*
Y57594D01*
X67742Y58046D01*
X62295Y63494D01*
Y77626D01*
X62795Y77833D01*
X66485Y74143D01*
D02*
G37*
%LPC*%
G36*
X95488Y138969D02*
X93315D01*
Y136598D01*
X95488D01*
Y138969D01*
D02*
G37*
G36*
X92315D02*
X90142D01*
Y136598D01*
X92315D01*
Y138969D01*
D02*
G37*
G36*
X46752Y137720D02*
X46291Y137628D01*
X45900Y137367D01*
X45639Y136977D01*
X45548Y136516D01*
X45639Y136055D01*
X45900Y135664D01*
X46291Y135403D01*
X46752Y135311D01*
X47213Y135403D01*
X47603Y135664D01*
X47864Y136055D01*
X47956Y136516D01*
X47864Y136977D01*
X47603Y137367D01*
X47213Y137628D01*
X46752Y137720D01*
D02*
G37*
G36*
X52461Y135751D02*
X52000Y135660D01*
X51609Y135399D01*
X51348Y135008D01*
X51256Y134547D01*
X51348Y134086D01*
X51609Y133696D01*
X52000Y133435D01*
X52461Y133343D01*
X52921Y133435D01*
X53312Y133696D01*
X53573Y134086D01*
X53665Y134547D01*
X53573Y135008D01*
X53312Y135399D01*
X52921Y135660D01*
X52461Y135751D01*
D02*
G37*
G36*
X20232Y110980D02*
X18905D01*
Y109260D01*
X20232D01*
Y110980D01*
D02*
G37*
G36*
X17906D02*
X16579D01*
Y109260D01*
X17906D01*
Y110980D01*
D02*
G37*
G36*
X26941Y107929D02*
X24945D01*
Y106012D01*
X26941D01*
Y107929D01*
D02*
G37*
G36*
X17968Y103929D02*
X15972D01*
Y102012D01*
X17968D01*
Y103929D01*
D02*
G37*
G36*
X100902Y114067D02*
X98532D01*
Y111894D01*
X100902D01*
Y114067D01*
D02*
G37*
G36*
X97531D02*
X95161D01*
Y111894D01*
X97531D01*
Y114067D01*
D02*
G37*
G36*
X105071Y112122D02*
X102799D01*
Y109851D01*
X105071D01*
Y112122D01*
D02*
G37*
G36*
Y108851D02*
X102799D01*
Y106579D01*
X105071D01*
Y108851D01*
D02*
G37*
G36*
X90600Y110530D02*
X89124D01*
X88682Y110442D01*
X88308Y110192D01*
X88058Y109818D01*
X87970Y109376D01*
Y101404D01*
X88058Y100962D01*
X88308Y100588D01*
X88682Y100337D01*
X89124Y100250D01*
X90600D01*
X91042Y100337D01*
X91416Y100588D01*
X91667Y100962D01*
X91755Y101404D01*
Y109376D01*
X91667Y109818D01*
X91416Y110192D01*
X91042Y110442D01*
X90600Y110530D01*
D02*
G37*
G36*
X72097Y110530D02*
X70620D01*
X70178Y110442D01*
X69804Y110192D01*
X69554Y109818D01*
X69466Y109376D01*
Y101404D01*
X69554Y100962D01*
X69804Y100588D01*
X70178Y100337D01*
X70620Y100250D01*
X72097D01*
X72538Y100337D01*
X72913Y100588D01*
X73163Y100962D01*
X73251Y101404D01*
Y109376D01*
X73163Y109818D01*
X72913Y110192D01*
X72538Y110442D01*
X72097Y110530D01*
D02*
G37*
G36*
X79091Y99167D02*
X78630Y99075D01*
X78240Y98814D01*
X77979Y98423D01*
X77887Y97962D01*
X77979Y97501D01*
X78240Y97111D01*
X78630Y96850D01*
X79091Y96758D01*
X79552Y96850D01*
X79943Y97111D01*
X80204Y97501D01*
X80295Y97962D01*
X80204Y98423D01*
X79943Y98814D01*
X79552Y99075D01*
X79091Y99167D01*
D02*
G37*
G36*
X119953Y111728D02*
X118272D01*
Y110736D01*
X119953D01*
Y111728D01*
D02*
G37*
G36*
X83063Y89142D02*
X80594D01*
Y86673D01*
X83063D01*
Y89142D01*
D02*
G37*
G36*
X79839D02*
X77370D01*
Y86673D01*
X79839D01*
Y89142D01*
D02*
G37*
G36*
X76370D02*
X73902D01*
Y86673D01*
X76370D01*
Y89142D01*
D02*
G37*
G36*
X73146D02*
X70677D01*
Y86673D01*
X73146D01*
Y89142D01*
D02*
G37*
G36*
X88444Y86305D02*
X87983Y86213D01*
X87593Y85952D01*
X87332Y85562D01*
X87240Y85101D01*
X87332Y84640D01*
X87593Y84249D01*
X87983Y83988D01*
X88444Y83897D01*
X88905Y83988D01*
X89296Y84249D01*
X89557Y84640D01*
X89648Y85101D01*
X89557Y85562D01*
X89296Y85952D01*
X88905Y86213D01*
X88444Y86305D01*
D02*
G37*
G36*
X73146Y85917D02*
X70677D01*
Y83449D01*
X73146D01*
Y85917D01*
D02*
G37*
G36*
X76370D02*
X73902D01*
Y83449D01*
X76370D01*
Y85917D01*
D02*
G37*
G36*
X86532Y85917D02*
X84063D01*
Y83449D01*
X86532D01*
Y85917D01*
D02*
G37*
G36*
Y82449D02*
X84063D01*
Y79980D01*
X86532D01*
Y82449D01*
D02*
G37*
G36*
X90453Y82949D02*
X89992Y82858D01*
X89601Y82596D01*
X89340Y82206D01*
X89249Y81745D01*
X89340Y81284D01*
X89601Y80893D01*
X89504Y80357D01*
X89502Y80356D01*
X89241Y79965D01*
X89150Y79504D01*
X89227Y79118D01*
X89131Y78896D01*
X88924Y78618D01*
X87894D01*
Y73894D01*
X92618D01*
Y78618D01*
X91784D01*
X91577Y78896D01*
X91481Y79118D01*
X91558Y79504D01*
X91466Y79965D01*
X91205Y80356D01*
X91303Y80892D01*
X91304Y80893D01*
X91565Y81284D01*
X91657Y81745D01*
X91565Y82206D01*
X91304Y82596D01*
X90914Y82858D01*
X90453Y82949D01*
D02*
G37*
G36*
X7473Y96965D02*
X6284D01*
Y91937D01*
X7473D01*
Y96965D01*
D02*
G37*
G36*
Y90937D02*
X6284D01*
Y85909D01*
X7473D01*
Y90937D01*
D02*
G37*
G36*
X16354Y84146D02*
X13295D01*
Y82957D01*
X16354D01*
Y84146D01*
D02*
G37*
G36*
X38927Y81889D02*
X30955D01*
X30513Y81801D01*
X30139Y81550D01*
X29888Y81176D01*
X29801Y80734D01*
Y79258D01*
X29888Y78816D01*
X30139Y78442D01*
X30513Y78192D01*
X30955Y78104D01*
X38927D01*
X39369Y78192D01*
X39743Y78442D01*
X39993Y78816D01*
X40081Y79258D01*
Y80734D01*
X39993Y81176D01*
X39743Y81550D01*
X39369Y81801D01*
X38927Y81889D01*
D02*
G37*
G36*
X53067Y79224D02*
X50599D01*
Y76756D01*
X53067D01*
Y79224D01*
D02*
G37*
G36*
X49599D02*
X47130D01*
Y76756D01*
X49599D01*
Y79224D01*
D02*
G37*
G36*
X50099Y76256D02*
D01*
D01*
D01*
D02*
G37*
G36*
X38927Y77558D02*
X30955D01*
X30513Y77470D01*
X30139Y77220D01*
X29888Y76845D01*
X29801Y76404D01*
Y74927D01*
X29888Y74486D01*
X30139Y74111D01*
X30513Y73861D01*
X30955Y73773D01*
X38927D01*
X39369Y73861D01*
X39743Y74111D01*
X39993Y74486D01*
X40081Y74927D01*
Y76404D01*
X39993Y76845D01*
X39743Y77220D01*
X39369Y77470D01*
X38927Y77558D01*
D02*
G37*
G36*
X53067Y75756D02*
X50599D01*
Y73287D01*
X53067D01*
Y75756D01*
D02*
G37*
G36*
X49599D02*
X47130D01*
Y73287D01*
X49599D01*
Y75756D01*
D02*
G37*
G36*
X21457Y73645D02*
X20996Y73554D01*
X20605Y73292D01*
X20344Y72902D01*
X20252Y72441D01*
X20344Y71980D01*
X20605Y71589D01*
X20996Y71328D01*
X21457Y71237D01*
X21917Y71328D01*
X22308Y71589D01*
X22569Y71980D01*
X22661Y72441D01*
X22569Y72902D01*
X22308Y73292D01*
X21917Y73554D01*
X21457Y73645D01*
D02*
G37*
G36*
X53067Y72532D02*
X50598D01*
Y70063D01*
X53067D01*
Y72532D01*
D02*
G37*
G36*
X49598D02*
X47130D01*
Y70063D01*
X49598D01*
Y72532D01*
D02*
G37*
G36*
X38927Y73227D02*
X30955D01*
X30513Y73139D01*
X30139Y72889D01*
X29888Y72515D01*
X29801Y72073D01*
Y70597D01*
X29888Y70155D01*
X30139Y69781D01*
X30513Y69530D01*
X30955Y69442D01*
X38927D01*
X39369Y69530D01*
X39743Y69781D01*
X39993Y70155D01*
X40081Y70597D01*
Y72073D01*
X39993Y72515D01*
X39743Y72889D01*
X39369Y73139D01*
X38927Y73227D01*
D02*
G37*
G36*
X53067Y69063D02*
X50598D01*
Y66595D01*
X53067D01*
Y69063D01*
D02*
G37*
G36*
X49598D02*
X47130D01*
Y66595D01*
X49598D01*
Y69063D01*
D02*
G37*
G36*
X13866Y67351D02*
X13406Y67259D01*
X13015Y66998D01*
X12754Y66608D01*
X12662Y66147D01*
X12754Y65686D01*
X13015Y65295D01*
X13406Y65034D01*
X13866Y64943D01*
X14327Y65034D01*
X14718Y65295D01*
X14979Y65686D01*
X15071Y66147D01*
X14979Y66608D01*
X14718Y66998D01*
X14327Y67259D01*
X13866Y67351D01*
D02*
G37*
G36*
X45276Y67153D02*
X44815Y67062D01*
X44424Y66800D01*
X44163Y66410D01*
X44071Y65949D01*
X44163Y65488D01*
X44424Y65097D01*
X44815Y64836D01*
X45276Y64745D01*
X45736Y64836D01*
X46127Y65097D01*
X46388Y65488D01*
X46480Y65949D01*
X46388Y66410D01*
X46127Y66800D01*
X45736Y67062D01*
X45276Y67153D01*
D02*
G37*
G36*
X52461Y65232D02*
X47736D01*
Y60508D01*
X52461D01*
Y65232D01*
D02*
G37*
G36*
X38927Y62203D02*
X30955D01*
X30513Y62116D01*
X30139Y61865D01*
X29888Y61491D01*
X29801Y61049D01*
Y59573D01*
X29888Y59131D01*
X30139Y58757D01*
X30513Y58507D01*
X30955Y58419D01*
X38927D01*
X39369Y58507D01*
X39743Y58757D01*
X39993Y59131D01*
X40081Y59573D01*
Y61049D01*
X39993Y61491D01*
X39743Y61865D01*
X39369Y62116D01*
X38927Y62203D01*
D02*
G37*
G36*
Y57873D02*
X30955D01*
X30513Y57785D01*
X30139Y57535D01*
X29888Y57160D01*
X29801Y56719D01*
Y55242D01*
X29888Y54801D01*
X30139Y54426D01*
X30513Y54176D01*
X30955Y54088D01*
X38927D01*
X39369Y54176D01*
X39743Y54426D01*
X39993Y54801D01*
X40081Y55242D01*
Y56719D01*
X39993Y57160D01*
X39743Y57535D01*
X39369Y57785D01*
X38927Y57873D01*
D02*
G37*
G36*
X59153Y58539D02*
X54429D01*
Y53815D01*
X59153D01*
Y58539D01*
D02*
G37*
G36*
X52461D02*
X47736D01*
Y53815D01*
X52461D01*
Y58539D01*
D02*
G37*
G36*
X8927Y52398D02*
X6970D01*
Y50362D01*
X8927D01*
Y52398D01*
D02*
G37*
G36*
X17167Y52398D02*
X15211D01*
Y50362D01*
X17167D01*
Y52398D01*
D02*
G37*
G36*
X14415D02*
X12459D01*
Y50362D01*
X14415D01*
Y52398D01*
D02*
G37*
G36*
X11459D02*
X9502D01*
Y50362D01*
X11459D01*
Y52398D01*
D02*
G37*
G36*
X38927Y53542D02*
X30955D01*
X30513Y53454D01*
X30139Y53204D01*
X29888Y52830D01*
X29801Y52388D01*
Y50912D01*
X29888Y50470D01*
X30139Y50095D01*
X30513Y49845D01*
X30955Y49758D01*
X38927D01*
X39369Y49845D01*
X39743Y50095D01*
X39993Y50470D01*
X40081Y50912D01*
Y52388D01*
X39993Y52830D01*
X39743Y53204D01*
X39369Y53454D01*
X38927Y53542D01*
D02*
G37*
G36*
Y49211D02*
X30955D01*
X30513Y49123D01*
X30199Y48914D01*
X29891Y49119D01*
X29431Y49211D01*
X28970Y49119D01*
X28579Y48858D01*
X28318Y48467D01*
X28226Y48006D01*
X28318Y47546D01*
X28579Y47155D01*
X28970Y46894D01*
X29431Y46802D01*
X29842Y46374D01*
X29888Y46139D01*
X30139Y45765D01*
X30513Y45515D01*
X30955Y45427D01*
X38927D01*
X39369Y45515D01*
X39743Y45765D01*
X39993Y46139D01*
X40081Y46581D01*
Y48057D01*
X39993Y48499D01*
X39743Y48873D01*
X39369Y49123D01*
X38927Y49211D01*
D02*
G37*
G36*
X59153Y51847D02*
X54429D01*
Y47122D01*
X59153D01*
Y51847D01*
D02*
G37*
G36*
X52461D02*
X47736D01*
Y47122D01*
X52461D01*
Y51847D01*
D02*
G37*
G36*
X59153Y45154D02*
X54429D01*
Y40429D01*
X59153D01*
Y45154D01*
D02*
G37*
G36*
X52461D02*
X47736D01*
Y40429D01*
X52461D01*
Y45154D01*
D02*
G37*
G36*
X62984Y32374D02*
X60516D01*
Y29906D01*
X62984D01*
Y32374D01*
D02*
G37*
G36*
X69677Y28906D02*
X67209D01*
Y26437D01*
X69677D01*
Y28906D01*
D02*
G37*
G36*
X66453D02*
X63984D01*
Y26437D01*
X66453D01*
Y28906D01*
D02*
G37*
G36*
X62984D02*
X60516D01*
Y26437D01*
X62984D01*
Y28906D01*
D02*
G37*
G36*
X40699Y29496D02*
X34941D01*
X29182D01*
Y29258D01*
X29317Y28580D01*
X29702Y28005D01*
Y27657D01*
X29317Y27082D01*
X29182Y26404D01*
Y26166D01*
X34941D01*
Y25666D01*
D01*
Y26166D01*
X40699D01*
Y26404D01*
X40565Y27082D01*
X40180Y27657D01*
Y28005D01*
X40565Y28580D01*
X40699Y29258D01*
Y29496D01*
D02*
G37*
G36*
Y25166D02*
X35441D01*
Y23155D01*
X38927D01*
X39605Y23290D01*
X40180Y23674D01*
X40565Y24249D01*
X40699Y24927D01*
Y25166D01*
D02*
G37*
G36*
X34441D02*
X29182D01*
Y24927D01*
X29317Y24249D01*
X29702Y23674D01*
X30277Y23290D01*
X30955Y23155D01*
X34441D01*
Y25166D01*
D02*
G37*
G36*
X44350Y23891D02*
X43890Y23800D01*
X43499Y23539D01*
X43238Y23148D01*
X43146Y22687D01*
X43238Y22226D01*
X43499Y21836D01*
X43890Y21574D01*
X44350Y21483D01*
X44811Y21574D01*
X45202Y21836D01*
X45463Y22226D01*
X45555Y22687D01*
X45463Y23148D01*
X45202Y23539D01*
X44811Y23800D01*
X44350Y23891D01*
D02*
G37*
G36*
X58366Y20889D02*
X57905Y20798D01*
X57515Y20537D01*
X57254Y20146D01*
X57162Y19685D01*
X57252Y19233D01*
X57253Y19223D01*
X57186Y18710D01*
X56812Y18460D01*
X56562Y18086D01*
X56474Y17644D01*
Y14297D01*
X55928D01*
Y17644D01*
X55840Y18086D01*
X55590Y18460D01*
X55215Y18710D01*
X54774Y18798D01*
X53297D01*
X52856Y18710D01*
X52481Y18460D01*
X52231Y18086D01*
X52143Y17644D01*
Y9671D01*
X52231Y9230D01*
X52481Y8855D01*
X52856Y8605D01*
X53297Y8517D01*
X54774D01*
X55215Y8605D01*
X55590Y8855D01*
X55840Y9230D01*
X55928Y9671D01*
Y13018D01*
X56474D01*
Y9671D01*
X56562Y9230D01*
X56812Y8855D01*
X57186Y8605D01*
X57628Y8517D01*
X59104D01*
X59546Y8605D01*
X59877Y8826D01*
X59945Y8852D01*
X60468Y8774D01*
X60706Y8418D01*
X61281Y8034D01*
X61959Y7899D01*
X62197D01*
Y13658D01*
Y19416D01*
X61959D01*
X61281Y19281D01*
X60706Y18897D01*
X60468Y18541D01*
X59959Y18465D01*
X59541Y18752D01*
X59479Y19223D01*
X59480Y19233D01*
X59570Y19685D01*
X59479Y20146D01*
X59218Y20537D01*
X58827Y20798D01*
X58366Y20889D01*
D02*
G37*
G36*
X39291Y16460D02*
X38831Y16368D01*
X38440Y16107D01*
X38179Y15717D01*
X38087Y15256D01*
X38179Y14795D01*
X38440Y14404D01*
X38831Y14143D01*
X39291Y14052D01*
X39752Y14143D01*
X40143Y14404D01*
X40404Y14795D01*
X40496Y15256D01*
X40404Y15717D01*
X40143Y16107D01*
X39752Y16368D01*
X39291Y16460D01*
D02*
G37*
G36*
X50443Y18798D02*
X48967D01*
X48525Y18710D01*
X48151Y18460D01*
X47900Y18086D01*
X47813Y17644D01*
Y9671D01*
X47900Y9230D01*
X48151Y8855D01*
X48525Y8605D01*
X48967Y8517D01*
X50443D01*
X50885Y8605D01*
X51259Y8855D01*
X51509Y9230D01*
X51597Y9671D01*
Y17644D01*
X51509Y18086D01*
X51259Y18460D01*
X50885Y18710D01*
X50443Y18798D01*
D02*
G37*
G36*
X63435Y19416D02*
X63197D01*
Y13658D01*
Y7899D01*
X63435D01*
X64113Y8034D01*
X64688Y8418D01*
X65211Y8301D01*
X65611Y8034D01*
X66289Y7899D01*
X66528D01*
Y13658D01*
Y19416D01*
X66289D01*
X65611Y19281D01*
X65036Y18897D01*
X64513Y19014D01*
X64113Y19281D01*
X63435Y19416D01*
D02*
G37*
G36*
X67471Y65895D02*
X67010Y65803D01*
X66619Y65542D01*
X66358Y65151D01*
X66267Y64690D01*
X66358Y64229D01*
X66619Y63839D01*
X67010Y63578D01*
X67471Y63486D01*
X67932Y63578D01*
X68322Y63839D01*
X68584Y64229D01*
X68675Y64690D01*
X68584Y65151D01*
X68322Y65542D01*
X67932Y65803D01*
X67471Y65895D01*
D02*
G37*
G36*
X67280Y62481D02*
X66819Y62389D01*
X66429Y62128D01*
X66168Y61737D01*
X66076Y61277D01*
X66168Y60816D01*
X66429Y60425D01*
X66819Y60164D01*
X67280Y60072D01*
X67741Y60164D01*
X68132Y60425D01*
X68393Y60816D01*
X68484Y61277D01*
X68393Y61737D01*
X68132Y62128D01*
X67741Y62389D01*
X67280Y62481D01*
D02*
G37*
G36*
X86532Y39067D02*
X84063D01*
Y36599D01*
X86532D01*
Y39067D01*
D02*
G37*
G36*
X83063D02*
X80594D01*
Y36599D01*
X83063D01*
Y39067D01*
D02*
G37*
G36*
X79839Y39067D02*
X77370D01*
Y36599D01*
X79839D01*
Y39067D01*
D02*
G37*
G36*
X76370D02*
X73902D01*
Y36599D01*
X76370D01*
Y39067D01*
D02*
G37*
G36*
X73146D02*
X70677D01*
Y36599D01*
X73146D01*
Y39067D01*
D02*
G37*
G36*
X86532Y35599D02*
X84063D01*
Y33130D01*
X86532D01*
Y35599D01*
D02*
G37*
G36*
X83063D02*
X80594D01*
Y33130D01*
X83063D01*
Y35599D01*
D02*
G37*
G36*
X79839Y35598D02*
X77370D01*
Y33130D01*
X79839D01*
Y35598D01*
D02*
G37*
G36*
X86532Y32374D02*
X84063D01*
Y29906D01*
X86532D01*
Y32374D01*
D02*
G37*
G36*
X83063D02*
X80594D01*
Y29906D01*
X83063D01*
Y32374D01*
D02*
G37*
G36*
X79839D02*
X77370D01*
Y29906D01*
X79839D01*
Y32374D01*
D02*
G37*
G36*
Y28906D02*
X77370D01*
Y26437D01*
X79839D01*
Y28906D01*
D02*
G37*
G36*
X86532D02*
X80594D01*
Y26437D01*
X81675D01*
X81824Y26256D01*
X81916Y25795D01*
X82177Y25405D01*
X82567Y25144D01*
X83028Y25052D01*
X83489Y25144D01*
X83880Y25405D01*
X84141Y25795D01*
X84232Y26256D01*
X84381Y26437D01*
X86532D01*
Y28906D01*
D02*
G37*
G36*
X99508Y26204D02*
X99047Y26113D01*
X98656Y25852D01*
X98395Y25461D01*
X98304Y25000D01*
X98353Y24750D01*
X93741Y20137D01*
X93554Y19685D01*
Y18798D01*
X93455D01*
X93013Y18710D01*
X92682Y18489D01*
X92615Y18463D01*
X92092Y18541D01*
X91854Y18897D01*
X91559Y19094D01*
X91565Y19102D01*
X91657Y19563D01*
X91565Y20024D01*
X91304Y20415D01*
X90914Y20676D01*
X90453Y20767D01*
X89992Y20676D01*
X89601Y20415D01*
X89340Y20024D01*
X89249Y19563D01*
X88781Y19348D01*
X88446Y19281D01*
X88046Y19014D01*
X87523Y18897D01*
X86948Y19281D01*
X86270Y19416D01*
X86032D01*
Y13658D01*
Y7899D01*
X86270D01*
X86948Y8034D01*
X87348Y8301D01*
X87871Y8418D01*
X88446Y8034D01*
X89124Y7899D01*
X89362D01*
Y13658D01*
X90362D01*
Y7899D01*
X90600D01*
X91279Y8034D01*
X91854Y8418D01*
X92092Y8774D01*
X92615Y8852D01*
X92682Y8826D01*
X93013Y8605D01*
X93455Y8517D01*
X94931D01*
X95373Y8605D01*
X95704Y8826D01*
X95771Y8852D01*
X96294Y8774D01*
X96532Y8418D01*
X97107Y8034D01*
X97785Y7899D01*
X98024D01*
Y13658D01*
Y19416D01*
X97785D01*
X97107Y19281D01*
X96532Y18897D01*
X96294Y18541D01*
X95771Y18463D01*
X95704Y18489D01*
X95373Y18710D01*
X94931Y18798D01*
X94832D01*
Y19420D01*
X99257Y23846D01*
X99508Y23796D01*
X99969Y23887D01*
X100359Y24148D01*
X100620Y24539D01*
X100712Y25000D01*
X100620Y25461D01*
X100359Y25852D01*
X99969Y26113D01*
X99508Y26204D01*
D02*
G37*
G36*
X99262Y19416D02*
X99024D01*
Y14158D01*
X101034D01*
Y17644D01*
X100899Y18322D01*
X100515Y18897D01*
X99940Y19281D01*
X99262Y19416D01*
D02*
G37*
%LPD*%
D11*
X101279Y31234D02*
X104528Y27986D01*
X101279Y31234D02*
Y37874D01*
X101877Y38472D02*
Y76100D01*
X101279Y37874D02*
X101877Y38472D01*
X129059Y113297D02*
X129148Y113386D01*
X130956D01*
X128327Y113071D02*
X128553Y113297D01*
X129059D01*
X139669Y96165D02*
Y104673D01*
X130956Y113386D02*
X139669Y104673D01*
X135630Y92126D02*
Y92323D01*
X137106Y93799D01*
X137303D01*
X139669Y96165D01*
X105812Y99922D02*
X107933Y102042D01*
Y110053D01*
X109592Y111712D01*
X113291D01*
X116634Y115055D02*
Y117382D01*
X113291Y111712D02*
X116634Y115055D01*
X105812Y92795D02*
Y99922D01*
X106791Y91700D02*
X107735Y90756D01*
X106791Y91700D02*
Y91816D01*
X105812Y92795D02*
X106791Y91816D01*
X117421Y88812D02*
X118209Y88024D01*
X117421Y88812D02*
Y89946D01*
X116612Y90756D02*
X117421Y89946D01*
X107735Y90756D02*
X116612D01*
X34527Y98228D02*
X37216Y100917D01*
X25028Y98228D02*
X34527D01*
X22366Y95914D02*
X37475D01*
X22698Y97360D02*
X36972D01*
X41929Y101369D02*
X43119Y102559D01*
X37475Y95914D02*
X41929Y100368D01*
X36972Y97360D02*
X40551Y100939D01*
X41929Y100368D02*
Y101369D01*
X18876Y97736D02*
X20020D01*
X20251Y97967D02*
Y97975D01*
X20020Y97736D02*
X20251Y97967D01*
X18898Y94673D02*
X22372Y98147D01*
X24947D01*
X25028Y98228D01*
X21457Y94095D02*
X21683Y94320D01*
X20079Y93524D02*
X20886Y92716D01*
X20079Y93524D02*
Y94741D01*
X24409Y87527D02*
Y89985D01*
X20886Y92716D02*
X21678D01*
X24409Y89985D01*
X21683Y95231D02*
X22366Y95914D01*
X20079Y94741D02*
X22698Y97360D01*
X21683Y94320D02*
Y95231D01*
X18898Y91047D02*
Y94673D01*
X20989Y88024D02*
Y88955D01*
X18898Y91047D02*
X20989Y88955D01*
X18977Y85067D02*
X20152Y86242D01*
Y87187D01*
X20989Y88024D01*
X20251Y81418D02*
Y85227D01*
X20940Y85916D02*
Y86861D01*
X20251Y85227D02*
X20940Y85916D01*
Y86861D02*
X22736Y88658D01*
X18977Y82404D02*
Y85067D01*
X18197Y79406D02*
Y81625D01*
X18977Y82404D01*
X52392Y111517D02*
X53696Y112821D01*
X52318Y114016D02*
Y115057D01*
X53189Y122243D02*
X57033Y126087D01*
X53696Y112821D02*
Y115628D01*
X53189Y116135D02*
X53696Y115628D01*
X51688Y113386D02*
X52318Y114016D01*
X53189Y116135D02*
Y122243D01*
X46929Y113386D02*
X51688D01*
X88807Y95059D02*
X93110Y90756D01*
X69559Y95059D02*
X88807D01*
X65832Y98786D02*
X69559Y95059D01*
X61994Y97441D02*
X63339Y98786D01*
X65832D01*
X59131Y96280D02*
X59858D01*
X60896Y97441D02*
X61994D01*
X59858Y96280D02*
X60089Y96511D01*
Y96634D01*
X58914Y96063D02*
X59131Y96280D01*
X60089Y96634D02*
X60896Y97441D01*
X9646Y82949D02*
Y85579D01*
X14075Y73426D02*
X15712Y71789D01*
X9646Y82949D02*
X11040Y81555D01*
X12513D01*
X14075Y73426D02*
Y79993D01*
X12513Y81555D02*
X14075Y79993D01*
X14469Y88779D02*
Y89336D01*
Y88077D02*
Y88779D01*
X59449Y62875D02*
Y78371D01*
X21778Y64690D02*
X24508D01*
X100492Y4036D02*
X101359D01*
X41144Y102958D02*
X41463D01*
X62059Y86295D02*
X64910D01*
X54161Y92658D02*
X56393D01*
X43119Y102559D02*
X44260D01*
X59226Y89128D02*
Y89826D01*
X44260Y102559D02*
X54161Y92658D01*
X56393D02*
X59226Y89826D01*
X80168Y82333D02*
X80319Y82484D01*
X59226Y89128D02*
X62059Y86295D01*
X64910D02*
X66710Y84496D01*
Y81595D02*
Y84496D01*
Y81595D02*
X70647Y77658D01*
X76351D01*
X80168Y81474D02*
Y82333D01*
X76351Y77658D02*
X80168Y81474D01*
X15712Y70756D02*
X21778Y64690D01*
X15712Y70756D02*
Y71789D01*
X9646Y85579D02*
X10188Y86122D01*
X11957D01*
X13321Y87486D01*
X13878D02*
X14469Y88077D01*
X66937Y74594D02*
X80776D01*
X43690Y98972D02*
X57226Y85436D01*
X57350D01*
X85391Y69656D02*
Y69980D01*
X60925Y80607D02*
Y81860D01*
X57350Y85436D02*
X60925Y81860D01*
X43690Y98972D02*
Y101181D01*
X85391Y69656D02*
X88830Y66217D01*
X60925Y80607D02*
X66937Y74594D01*
X88830Y66217D02*
X91682D01*
X80776Y74594D02*
X85391Y69980D01*
X91682Y66217D02*
X93602Y64296D01*
Y35464D02*
Y64296D01*
Y35464D02*
X103740Y25326D01*
Y8366D02*
Y25326D01*
X102362Y6988D02*
X103740Y8366D01*
X41463Y102958D02*
X41852Y103347D01*
X100345Y3889D02*
X100492Y4036D01*
X101359D02*
X104528Y7205D01*
X63669Y93446D02*
X64412Y92702D01*
X41852Y103347D02*
X44680D01*
X54581Y93446D02*
X63669D01*
X85275Y92702D02*
X101877Y76100D01*
X104528Y7205D02*
Y27986D01*
X44680Y103347D02*
X54581Y93446D01*
X64412Y92702D02*
X85275D01*
X74284Y12424D02*
X82131Y4577D01*
X56891Y82599D02*
X57960D01*
X59330Y78490D02*
X59449Y78371D01*
X82131Y4577D02*
X89846D01*
X56845Y82645D02*
X56891Y82599D01*
X59449Y62875D02*
X66371Y55952D01*
Y34018D02*
Y55952D01*
Y34018D02*
X68097Y32293D01*
X72062D01*
X73064Y31291D01*
Y21576D02*
Y31291D01*
Y21576D02*
X74284Y20356D01*
Y12424D02*
Y20356D01*
X90191Y4921D02*
X95766D01*
X89846Y4577D02*
X90191Y4921D01*
X59330Y78490D02*
Y81229D01*
X95766Y4921D02*
X97462Y3225D01*
X57960Y82599D02*
X59330Y81229D01*
X117376Y32162D02*
X117421Y32116D01*
Y23819D02*
Y32116D01*
X107800Y14198D02*
X117421Y23819D01*
X107800Y9364D02*
Y14198D01*
X100947Y2511D02*
X107800Y9364D01*
X25346Y86591D02*
X45479D01*
X96927Y5709D02*
X98840Y3796D01*
X78797Y9024D02*
X82457Y5364D01*
X89864Y5709D02*
X96927D01*
X98840Y3445D02*
X99774Y2511D01*
X78797Y9024D02*
Y17155D01*
X74071Y21881D02*
X78797Y17155D01*
X74071Y21881D02*
Y31398D01*
X72257Y33211D02*
X74071Y31398D01*
X68292Y33211D02*
X72257D01*
X67290Y34213D02*
X68292Y33211D01*
X67290Y34213D02*
Y57594D01*
X61655Y63229D02*
X67290Y57594D01*
X61655Y63229D02*
Y78082D01*
X60117Y79620D02*
X61655Y78082D01*
X60117Y79620D02*
Y81555D01*
X57381Y84290D02*
X60117Y81555D01*
X47779Y84290D02*
X57381D01*
X45479Y86591D02*
X47779Y84290D01*
X98840Y3445D02*
Y3796D01*
X24409Y87527D02*
X25346Y86591D01*
X82457Y5364D02*
X89520D01*
X89864Y5709D01*
X99774Y2511D02*
X100947D01*
X36312Y102666D02*
X45163Y111517D01*
X52392D01*
X18022Y37231D02*
X21688D01*
X17628D02*
X18022D01*
X22573Y35374D02*
Y38116D01*
Y35374D02*
X23620Y34327D01*
X14684Y46004D02*
X17667D01*
X14681Y46006D02*
X14684Y46004D01*
X27812Y113277D02*
X28392Y112697D01*
X30955D01*
X27571Y113277D02*
X27812D01*
X26280Y66732D02*
X26874Y67327D01*
X34618D01*
X34941Y67004D01*
X18602Y57579D02*
Y64129D01*
X17201Y56177D02*
X18602Y57579D01*
X6147Y59207D02*
X9177Y56177D01*
X17201D01*
X5906Y61142D02*
X6147Y60900D01*
Y59207D02*
Y60900D01*
X5906Y61142D02*
Y66142D01*
X10827Y103563D02*
X11693Y104429D01*
X10827Y101457D02*
Y103563D01*
X14075Y106811D02*
Y108760D01*
X12992Y105728D02*
X14075Y106811D01*
X12992Y105650D02*
Y105728D01*
X11772Y104429D02*
X12992Y105650D01*
X11693Y104429D02*
X11772D01*
X37500Y119242D02*
Y127249D01*
X36312Y128437D02*
X37500Y127249D01*
X34252Y126015D02*
Y126476D01*
X35531Y119242D02*
Y124736D01*
X34252Y126015D02*
X35531Y124736D01*
X33563Y119242D02*
Y123504D01*
X30955Y118602D02*
Y121653D01*
X31220Y101398D02*
Y105512D01*
Y101004D02*
Y101398D01*
X32126Y101909D02*
X33248Y103032D01*
X31220Y101398D02*
X31732Y101909D01*
X32126D01*
X33248Y103032D02*
X33556D01*
X31220Y105512D02*
Y109075D01*
X33071Y111565D02*
X33563Y112057D01*
X33071Y110925D02*
Y111565D01*
X31220Y109075D02*
X33071Y110925D01*
X35463Y114472D02*
X35656Y114665D01*
X40108D01*
Y112697D02*
X40551D01*
X41760Y113661D02*
X46654D01*
X41485Y113386D02*
X41760Y113661D01*
X41240Y113386D02*
X41485D01*
X40551Y112697D02*
X41240Y113386D01*
X46654Y113661D02*
X46929Y113386D01*
X80811Y133930D02*
Y134554D01*
X79952Y133071D02*
X80811Y133930D01*
X78839Y132973D02*
X79079D01*
X79177Y133071D01*
X79952D01*
X72539Y135576D02*
Y139862D01*
Y134941D02*
Y135576D01*
X72660D01*
X69966D02*
X72539D01*
X77658Y130905D02*
Y131828D01*
X78091Y132262D01*
X78128D01*
X78839Y132973D01*
X72342Y140059D02*
X72539Y139862D01*
X75689Y130905D02*
Y132148D01*
X75415Y132421D02*
X75689Y132148D01*
X75415Y132421D02*
Y132458D01*
X74114Y133760D02*
X75415Y132458D01*
X73721Y133760D02*
X74114D01*
X72539Y134941D02*
X73721Y133760D01*
X88287Y132776D02*
Y134744D01*
Y130807D02*
Y132776D01*
X87300Y134744D02*
X88287D01*
X86946Y135098D02*
X87300Y134744D01*
X86946Y135098D02*
Y135576D01*
X86715Y135807D02*
X86946Y135576D01*
X83465Y135807D02*
X86715D01*
X88287Y126870D02*
X88498Y126659D01*
X90222D01*
X90602Y126279D01*
X95815D01*
X96195Y126659D01*
X97919D01*
X98130Y126870D01*
X69095Y121019D02*
X69729Y121653D01*
X68799Y120079D02*
X69095Y120374D01*
X69729Y121653D02*
X69858D01*
X69095Y120374D02*
Y121019D01*
X67224Y118504D02*
Y118898D01*
X70089Y122267D02*
X70361Y122539D01*
X71260D01*
X69858Y121653D02*
X70089Y121884D01*
X68405Y120079D02*
X68799D01*
X67224Y118898D02*
X68405Y120079D01*
X70089Y121884D02*
Y122267D01*
X68996Y113681D02*
X73032D01*
Y114075D01*
X74213Y115256D01*
X74606D01*
X75662Y116311D01*
Y118083D01*
X75689Y118110D01*
X87795Y113287D02*
Y113681D01*
X86614Y112106D02*
X87795Y113287D01*
X86221Y112106D02*
X86614D01*
X85433Y111319D02*
X86221Y112106D01*
X80661Y111319D02*
X85433D01*
X78543Y113287D02*
Y113681D01*
Y113287D02*
X79724Y112106D01*
X80084D01*
X80315Y111876D01*
Y111665D02*
Y111876D01*
Y111665D02*
X80661Y111319D01*
X77658Y114567D02*
Y118110D01*
Y114567D02*
X78543Y113681D01*
X81595Y114370D02*
Y118088D01*
Y114370D02*
X82284Y113681D01*
X81867Y117815D02*
X88484D01*
X81595Y118088D02*
X81867Y117815D01*
X88484Y123327D02*
X93110D01*
X93209Y123228D01*
X84055Y120571D02*
X84132Y120648D01*
X85805D01*
X86910Y121752D01*
Y122146D01*
X88091Y123327D01*
X88484D01*
X103277Y115453D02*
X106004D01*
X102096Y116634D02*
X103277Y115453D01*
X98032Y119882D02*
X98228D01*
X99705Y118405D01*
Y118209D02*
Y118405D01*
Y118209D02*
X101279Y116634D01*
X102096D01*
X98130Y119980D02*
Y126870D01*
X98032Y119882D02*
X98130Y119980D01*
X102470Y121931D02*
Y125500D01*
X99603Y128484D02*
X100502Y127585D01*
Y127468D02*
X102470Y125500D01*
X100502Y127468D02*
Y127585D01*
X98130Y128839D02*
X98484Y128484D01*
X99603D01*
X98130Y132776D02*
X100503D01*
X102096Y131183D01*
X61466Y96063D02*
X63274D01*
X63307Y96030D01*
X65759D01*
X68175Y93613D02*
X88083D01*
X65759Y96030D02*
X68175Y93613D01*
X93038Y88658D02*
X112106D01*
X88083Y93613D02*
X93038Y88658D01*
X115411Y106595D02*
X117085Y108268D01*
X113738Y104921D02*
X115411Y106595D01*
X110571Y109350D02*
X110617Y109304D01*
X112702D01*
X115411Y106595D01*
X116240Y96752D02*
X116634D01*
X115059Y97933D02*
X116240Y96752D01*
X115059Y97933D02*
Y98327D01*
X113738Y99648D02*
X115059Y98327D01*
X113738Y99648D02*
Y104921D01*
X117085Y108268D02*
X120453D01*
X116634Y102264D02*
X117027D01*
X118209Y103445D01*
Y103839D01*
X118701Y104331D01*
X120453D01*
X136516Y103642D02*
Y105499D01*
X133747Y108268D02*
X136516Y105499D01*
X131476Y108268D02*
X133747D01*
X134055Y86102D02*
Y90354D01*
X135630Y91929D01*
Y92126D01*
X136024Y86102D02*
X136319Y86398D01*
Y87660D01*
X139604Y90945D02*
X142323D01*
X136319Y87660D02*
X139604Y90945D01*
X58366Y13658D02*
Y19685D01*
X54036Y13658D02*
X58366D01*
X58366Y13658D01*
X29431Y48006D02*
X29857Y47581D01*
X34679D02*
X34941Y47319D01*
X29857Y47581D02*
X34679D01*
X20989Y40938D02*
X22573Y42522D01*
X19405Y39354D02*
X20989Y40938D01*
X6470Y40311D02*
X12908Y33874D01*
X17195Y36797D02*
X17628Y37231D01*
X12908Y33874D02*
X16228D01*
X17195Y34840D02*
Y36797D01*
X16228Y33874D02*
X17195Y34840D01*
X10039Y38658D02*
Y39354D01*
Y38658D02*
X11205Y37492D01*
X25723Y46656D02*
X29390Y42988D01*
X34941D01*
X18022Y39199D02*
X18177Y39354D01*
X19405D01*
X12327Y37492D02*
X12589Y37231D01*
X11205Y37492D02*
X12327D01*
X34585Y39014D02*
X34941Y38658D01*
X29857Y39014D02*
X34585D01*
X26945Y41925D02*
X29857Y39014D01*
X25723Y42522D02*
X26320Y41925D01*
X26945D01*
X27953Y34327D02*
X34941D01*
X25723Y36557D02*
Y38116D01*
Y36557D02*
X27953Y34327D01*
X21688Y37231D02*
X22573Y38116D01*
X6470Y40311D02*
Y46004D01*
X11959Y45925D02*
Y46004D01*
Y45925D02*
X13219Y44665D01*
X13297D01*
X14974Y42988D01*
X15059D01*
X22736Y66732D02*
Y69095D01*
X22736Y69095D01*
X21494Y79528D02*
X21720Y79754D01*
X22331D01*
X22736Y80159D01*
Y84449D01*
X26280D02*
X34819D01*
X34941Y84327D01*
X26280Y88658D02*
X34941D01*
X17028Y96898D02*
Y97501D01*
X18872Y97732D02*
X18876Y97736D01*
X17258Y97732D02*
X18872D01*
X17028Y97501D02*
X17258Y97732D01*
X18545Y98519D02*
X20251Y100224D01*
X16701Y98519D02*
X18545D01*
X14469Y94095D02*
Y95177D01*
X15059Y95768D01*
X15064D01*
X15551Y96255D01*
Y96901D01*
X15945Y97295D01*
Y97763D01*
X16701Y98519D01*
X16339Y90650D02*
Y96209D01*
X17028Y96898D01*
X13321Y87486D02*
X13878D01*
X14469Y89336D02*
X15059Y89927D01*
X15616D01*
X16339Y90650D01*
X9154Y99784D02*
X10827Y101457D01*
X9154Y96949D02*
Y99784D01*
X11122Y94095D02*
Y95177D01*
X10531Y95768D02*
X11122Y95177D01*
X10335Y95768D02*
X10531D01*
X9154Y96949D02*
X10335Y95768D01*
X94193Y13658D02*
Y19685D01*
X99508Y25000D01*
D12*
X58329Y130020D02*
X58364D01*
X57424Y130925D02*
Y131227D01*
Y130925D02*
X58329Y130020D01*
X58327Y138723D02*
Y139469D01*
X57342Y137739D02*
X58327Y138723D01*
X57342Y131308D02*
Y137739D01*
Y131308D02*
X57424Y131227D01*
X126752Y112419D02*
X127723Y111448D01*
X125686Y113763D02*
X126752Y112697D01*
X125686Y113763D02*
Y115155D01*
X129575Y111448D02*
X130689Y110335D01*
X127723Y111448D02*
X129575D01*
X125686Y115155D02*
X125964Y115433D01*
X131378Y110335D02*
X131476Y110236D01*
X126752Y112419D02*
Y112697D01*
X130689Y110335D02*
X131378D01*
X129626Y72342D02*
X129952Y72016D01*
X118209Y72039D02*
X121264Y68984D01*
X118209Y72039D02*
Y88024D01*
X121264Y68984D02*
X125185D01*
X129005Y71426D02*
X129626Y72047D01*
X127627Y71426D02*
X129005D01*
X125185Y68984D02*
X127627Y71426D01*
X127756Y29331D02*
X128057Y29632D01*
Y34549D01*
X121161Y31604D02*
X124107Y34549D01*
X128057D01*
X61170Y123504D02*
X62174D01*
X60422Y125256D02*
X62174Y123504D01*
X63287D01*
X60422Y125256D02*
Y126370D01*
X60147Y126644D02*
X60422Y126370D01*
X60147Y126644D02*
Y128236D01*
X58364Y130020D02*
X60147Y128236D01*
X57579Y118799D02*
X57972D01*
X58957Y119783D01*
Y120177D01*
X59418Y120638D01*
Y121752D01*
X61170Y123504D01*
X68504Y126476D02*
X71260D01*
X68043Y126015D02*
X68504Y126476D01*
X68043Y125256D02*
Y126015D01*
X66291Y123504D02*
X68043Y125256D01*
X63287Y123504D02*
X66291D01*
X98130Y139469D02*
X98248Y139587D01*
X101279D01*
X98130Y134744D02*
Y139469D01*
X98130Y139469D02*
X98130Y139469D01*
X124573Y115433D02*
X125964D01*
X123706Y114567D02*
X124573Y115433D01*
X120453Y114567D02*
X123706D01*
X116634Y117382D02*
X117951Y116065D01*
X118955D01*
X120453Y114567D01*
X129952Y69261D02*
Y72016D01*
Y69261D02*
X131100Y68113D01*
X140197Y70787D02*
Y71653D01*
X138760Y69350D02*
X140197Y70787D01*
X137894Y69350D02*
X138760D01*
X136656Y68113D02*
X137894Y69350D01*
X131100Y68113D02*
X136656D01*
X129626Y72342D02*
Y72835D01*
X132087Y75366D02*
Y78465D01*
X131398Y74677D02*
X132087Y75366D01*
X131398Y74182D02*
Y74677D01*
X130936Y73721D02*
X131398Y74182D01*
X130512Y73721D02*
X130936D01*
X129626Y72835D02*
X130512Y73721D01*
X137992Y77531D02*
Y78465D01*
Y77531D02*
X138091Y77433D01*
X139024D01*
X140197Y76260D01*
Y71653D02*
Y76260D01*
X136024Y78465D02*
X137992D01*
X134016Y71653D02*
Y78425D01*
X134055Y78465D01*
X120276Y29331D02*
X121161Y30217D01*
Y31604D01*
X126921Y28495D02*
X127756Y29331D01*
X126921Y26625D02*
Y28495D01*
X123022Y22727D02*
X126921Y26625D01*
X121264Y23232D02*
X121769Y22727D01*
X123022D01*
D14*
X76870Y82949D02*
Y86102D01*
Y82949D02*
X76870Y82949D01*
X87106Y77559D02*
Y79406D01*
X117905Y94791D02*
Y95874D01*
X118905Y93791D02*
X119299D01*
X120177Y92913D01*
X117027Y96752D02*
X117905Y95874D01*
Y94791D02*
X118905Y93791D01*
X116634Y96752D02*
X117027D01*
X120177Y92520D02*
Y92913D01*
X54296Y116570D02*
X56307Y114559D01*
X56689Y121358D02*
X56845D01*
X56402Y121071D02*
X56689Y121358D01*
X55437Y121071D02*
X56402D01*
X54296Y119930D02*
X55437Y121071D01*
X54296Y116570D02*
Y119930D01*
X56307Y114165D02*
Y114559D01*
X57185Y113287D02*
X57579D01*
X56307Y114165D02*
X57185Y113287D01*
X59881Y115563D02*
X61319D01*
X57579Y113287D02*
X57972D01*
X58850Y114165D01*
Y114532D01*
X59881Y115563D01*
X5906Y76142D02*
Y80770D01*
X6398Y81262D01*
Y81418D01*
X5906Y71142D02*
Y76142D01*
X17053Y82464D02*
X17088D01*
X17028Y82489D02*
X17053Y82464D01*
X18406Y108760D02*
Y109153D01*
X18732Y109480D01*
X19126D01*
X19470Y109825D01*
X23465D01*
X15472Y104429D02*
X15551D01*
X16468Y105347D01*
Y105425D01*
X18079Y107035D01*
Y108433D01*
X18406Y108760D01*
X30955Y116634D02*
X34819D01*
X35114Y116929D01*
X35270D01*
X30955Y114665D02*
Y116634D01*
X24211Y105512D02*
X27441D01*
X23620Y104921D02*
X24211Y105512D01*
X23465Y104921D02*
X23620D01*
X26772Y100886D02*
Y104842D01*
X27441Y105512D01*
X35146Y110555D02*
Y112057D01*
X35531D02*
X37500D01*
X35146D02*
X35531D01*
X34539Y109949D02*
X35146Y110555D01*
X34539Y109793D02*
Y109949D01*
X34252Y109506D02*
X34539Y109793D01*
X34252Y109351D02*
Y109506D01*
X61574Y118366D02*
X61713Y118504D01*
X61574Y115818D02*
Y118366D01*
X61319Y115563D02*
X61574Y115818D01*
X63484Y113681D02*
Y114075D01*
X62606Y114953D02*
X63484Y114075D01*
X61929Y114953D02*
X62606D01*
X61319Y115563D02*
X61929Y114953D01*
X77658Y124508D02*
X81587Y128437D01*
X75492Y126673D02*
X77658Y124508D01*
X73728Y128437D02*
X75492Y126673D01*
X71260Y128445D02*
X73139D01*
X73146Y128437D02*
X73728D01*
X73139Y128445D02*
X73146Y128437D01*
X78051Y135335D02*
Y139862D01*
X77854Y140059D02*
X78051Y139862D01*
X77854Y140059D02*
X80661D01*
X83465Y139587D02*
X87300D01*
X92815Y131201D02*
Y139469D01*
Y131201D02*
X93209Y130807D01*
X82176Y128445D02*
X84055D01*
X82169Y128437D02*
X82176Y128445D01*
X81587Y128437D02*
X82169D01*
X88287Y128839D02*
X91347D01*
X93209Y130701D01*
Y130807D01*
X97036Y115563D02*
X98032Y114567D01*
X95363Y115563D02*
X97036D01*
X94480Y116445D02*
X95363Y115563D01*
X94480Y116445D02*
Y116839D01*
X93602Y117717D02*
X94480Y116839D01*
X93209Y117717D02*
X93602D01*
X94480Y118595D01*
Y118988D01*
X94870Y119378D01*
Y120166D01*
X94980Y120276D01*
X73721Y118110D02*
Y120571D01*
X75492Y122343D01*
X71260Y120571D02*
X73721D01*
X93209Y130807D02*
X98130D01*
X105571Y109351D02*
X110146Y113925D01*
Y114279D02*
X111319Y115453D01*
X110146Y113925D02*
Y114279D01*
X116634Y122382D02*
X116756Y122259D01*
X119138D01*
X122067Y119331D01*
X123315Y109736D02*
X125964Y107087D01*
X120453Y110236D02*
X122028D01*
X122528Y109736D01*
X123315D01*
X125964Y106299D02*
Y107087D01*
X123996Y106299D02*
X125964D01*
X120453D02*
X123996D01*
X123996Y103543D02*
X125964D01*
X120453Y102362D02*
X122815D01*
X123996Y103543D01*
X126083Y92126D02*
X130315D01*
X125689Y92520D02*
X126083Y92126D01*
X125964Y92795D02*
Y103543D01*
X125689Y92520D02*
X125964Y92795D01*
X131476Y106299D02*
X132730D01*
X133414Y105615D01*
X133570D01*
Y99269D02*
Y105615D01*
X133513Y99213D02*
X133570Y99269D01*
X135715Y98931D02*
X136516Y98130D01*
X133795Y98931D02*
X135715D01*
X133513Y99213D02*
X133795Y98931D01*
X132087Y83268D02*
Y86102D01*
Y83268D02*
X133071Y82284D01*
X130315Y91929D02*
Y92126D01*
Y91929D02*
X131488Y90756D01*
X132087Y86102D02*
Y90170D01*
X131501Y90756D02*
X132087Y90170D01*
X131488Y90756D02*
X131501D01*
X141543Y86228D02*
X142126Y86811D01*
X141084Y86228D02*
X141543D01*
X140957Y86102D02*
X141084Y86228D01*
X137992Y86102D02*
X140957D01*
X142126Y83169D02*
Y86811D01*
X136634Y82284D02*
X138083Y80835D01*
X138854D01*
X139669Y80020D01*
X142126D01*
X133071Y82284D02*
X136634D01*
X126503D02*
X133071D01*
X122933Y78714D02*
X126503Y82284D01*
X122933Y72047D02*
Y78714D01*
X115975Y19057D02*
X116531Y18500D01*
X114872Y19057D02*
X115975D01*
X114315Y18500D02*
X114872Y19057D01*
X114276Y18500D02*
X114315D01*
X113738Y17963D02*
X114276Y18500D01*
X113583Y17963D02*
X113738D01*
X123236Y28551D02*
X124016Y29331D01*
X123236Y26715D02*
Y28551D01*
X122933Y26412D02*
X123236Y26715D01*
X122933Y26256D02*
Y26412D01*
X132078Y35227D02*
X133357D01*
X130315Y33465D02*
X132078Y35227D01*
X111277Y29167D02*
X112106Y29996D01*
X106556Y28907D02*
X106816Y29167D01*
X106401Y28907D02*
X106556D01*
X106816Y29167D02*
X111277D01*
X87106Y74390D02*
Y77559D01*
X88083Y73228D02*
X96949D01*
X87394Y73917D02*
X88083Y73228D01*
X87394Y73917D02*
Y74102D01*
X87106Y74390D02*
X87394Y74102D01*
X90692Y9091D02*
X92795Y6988D01*
X96949D01*
X98126Y13260D02*
X98524Y13658D01*
X98126Y8166D02*
Y13260D01*
X96949Y6988D02*
X98126Y8166D01*
X84793Y12919D02*
X85532Y13658D01*
X84793Y8507D02*
Y12919D01*
X83028Y6742D02*
X84793Y8507D01*
X89862Y13658D02*
X90692Y12828D01*
Y9091D02*
Y12828D01*
X66990Y13695D02*
X67028Y13658D01*
X66990Y13695D02*
Y19648D01*
X66953Y19685D02*
X66990Y19648D01*
X62697Y13658D02*
X67028D01*
X67028Y13658D01*
X28225Y25666D02*
X34941D01*
X26673Y24114D02*
X28225Y25666D01*
X34941D02*
Y29996D01*
X70102Y29331D02*
X70177Y29406D01*
X67028Y29331D02*
X70102D01*
X63484Y29406D02*
X66953D01*
X67028Y29331D01*
X70177Y36099D02*
X73386D01*
X76284D02*
X76870Y35513D01*
X73386Y36099D02*
X76284D01*
X76870Y29406D02*
Y35513D01*
X83563Y29406D02*
X90765D01*
X93498Y26673D01*
X83563Y36099D02*
X89492D01*
X90453Y35138D01*
X96949Y69563D02*
X96949Y69563D01*
X96949Y69563D02*
Y73228D01*
Y76256D02*
X96949Y76256D01*
X96949Y73228D02*
Y76256D01*
X69966Y89431D02*
X70177Y89642D01*
X67471Y89431D02*
X69966D01*
X67376Y89336D02*
X67471Y89431D01*
X63790Y89336D02*
X67376D01*
X63484Y89642D02*
X63790Y89336D01*
X83563Y82949D02*
X87106Y79406D01*
X76870Y89642D02*
X83563D01*
X76870Y86102D02*
Y89642D01*
X70177Y82949D02*
X70187Y82939D01*
Y80066D02*
Y82939D01*
Y80066D02*
X71217Y79036D01*
X50098Y69563D02*
Y76256D01*
Y69563D02*
X51549Y68113D01*
Y66955D02*
Y68113D01*
Y66955D02*
X53543Y64961D01*
X15504Y35561D02*
X15658Y35407D01*
X15305Y39199D02*
X15504Y39000D01*
X15658Y35252D02*
Y35407D01*
X15504Y35561D02*
Y39000D01*
X17667Y41297D02*
Y46004D01*
Y41297D02*
X17797Y41168D01*
X18022D01*
X21922Y46004D02*
X22573Y46656D01*
X17667Y46004D02*
X21922D01*
X6470Y49862D02*
X17667D01*
X17667Y49862D01*
X6470Y49862D02*
X7427Y50819D01*
Y51817D01*
X8563Y52953D01*
X11122Y88779D02*
Y89635D01*
X10835Y89923D02*
X11122Y89635D01*
X8161Y89923D02*
X10835D01*
X7972Y90112D02*
X8161Y89923D01*
X7972Y90112D02*
Y91437D01*
X12795Y98228D02*
X14665D01*
X14854Y98417D01*
Y99669D01*
X15076Y99891D01*
Y100114D01*
X15186Y100224D01*
X17618Y83235D02*
Y91437D01*
X17028Y82645D02*
X17618Y83235D01*
X17028Y82489D02*
Y82645D01*
X12795Y84646D02*
X12984Y84457D01*
X15060D01*
X17028Y82489D01*
X7972Y91437D02*
Y93424D01*
X8161Y93613D01*
X9154D01*
X51102Y117441D02*
X51378Y117717D01*
X48720Y117441D02*
X51102D01*
X46654D02*
X48720D01*
D15*
X2500Y101000D02*
X44000Y142500D01*
X103000D01*
X144500Y101000D01*
Y42500D02*
Y101000D01*
X103000Y1000D02*
X144500Y42500D01*
X44000Y1000D02*
X103000D01*
X2500Y42500D02*
X44000Y1000D01*
X2500Y42500D02*
Y101000D01*
D20*
X33563Y119242D02*
D03*
X35531D02*
D03*
X37500D02*
D03*
Y112057D02*
D03*
X35531D02*
D03*
X33563D02*
D03*
D21*
X40108Y118602D02*
D03*
Y116634D02*
D03*
Y114665D02*
D03*
Y112697D02*
D03*
X30955D02*
D03*
Y114665D02*
D03*
Y116634D02*
D03*
Y118602D02*
D03*
D26*
X14469Y88779D02*
D03*
X11122D02*
D03*
X14469Y94095D02*
D03*
X11122D02*
D03*
D27*
X17618Y91437D02*
D03*
X7972D02*
D03*
D28*
X12795Y84646D02*
D03*
Y98228D02*
D03*
D50*
X137115Y38985D02*
D03*
X133357Y35227D02*
D03*
D60*
X26280Y66732D02*
D03*
X22736D02*
D03*
X22736Y84449D02*
D03*
X26280D02*
D03*
X22736Y88658D02*
D03*
X26280D02*
D03*
D65*
X63484Y89642D02*
D03*
X70177D02*
D03*
X76870D02*
D03*
X63484Y82949D02*
D03*
X70177Y82949D02*
D03*
X76870D02*
D03*
X83563Y36099D02*
D03*
X76870Y36099D02*
D03*
X70177D02*
D03*
X63484Y36099D02*
D03*
X83563Y29406D02*
D03*
X76870D02*
D03*
X70177D02*
D03*
X63484D02*
D03*
X83563Y82949D02*
D03*
Y89642D02*
D03*
X90256Y42791D02*
D03*
Y49484D02*
D03*
Y56177D02*
D03*
Y62870D02*
D03*
Y69563D02*
D03*
Y76256D02*
D03*
X56791Y76256D02*
D03*
Y69563D02*
D03*
Y62870D02*
D03*
Y56177D02*
D03*
Y49484D02*
D03*
Y42792D02*
D03*
D67*
X96949Y42791D02*
D03*
Y49484D02*
D03*
Y56177D02*
D03*
Y62870D02*
D03*
Y69563D02*
D03*
Y76256D02*
D03*
X50098Y76256D02*
D03*
Y69563D02*
D03*
Y62870D02*
D03*
Y56177D02*
D03*
Y49484D02*
D03*
Y42792D02*
D03*
D68*
X75492Y126673D02*
D03*
X79823D02*
D03*
X75492Y122343D02*
D03*
X79823D02*
D03*
X125964Y103543D02*
D03*
Y109055D02*
D03*
X127933Y106299D02*
D03*
X123996D02*
D03*
D69*
X5906Y76142D02*
D03*
Y71142D02*
D03*
Y66142D02*
D03*
Y61142D02*
D03*
D70*
X71260Y128445D02*
D03*
Y126476D02*
D03*
Y124508D02*
D03*
Y122539D02*
D03*
Y120571D02*
D03*
X84055D02*
D03*
Y122539D02*
D03*
Y124508D02*
D03*
Y126476D02*
D03*
Y128445D02*
D03*
D71*
X73721Y118110D02*
D03*
X75689D02*
D03*
X77658D02*
D03*
X79626D02*
D03*
X81595D02*
D03*
Y130905D02*
D03*
X79626D02*
D03*
X77658D02*
D03*
X75689D02*
D03*
X73721D02*
D03*
D72*
X77658Y124508D02*
D03*
D73*
X31220Y105512D02*
D03*
X27441D02*
D03*
X11693Y104429D02*
D03*
X15472D02*
D03*
D74*
X31102Y100886D02*
D03*
X26772D02*
D03*
X14075Y108760D02*
D03*
X18406D02*
D03*
D75*
X46654Y113661D02*
D03*
Y117441D02*
D03*
X83465Y135807D02*
D03*
Y139587D02*
D03*
D76*
X51378Y113386D02*
D03*
Y117717D02*
D03*
D77*
X140197Y71653D02*
D03*
X134016D02*
D03*
D78*
X133071Y82284D02*
D03*
D79*
X137992Y86102D02*
D03*
X136024D02*
D03*
X134055D02*
D03*
X132087D02*
D03*
X130118D02*
D03*
X128150D02*
D03*
X137992Y78465D02*
D03*
X136024D02*
D03*
X134055Y78465D02*
D03*
X132087D02*
D03*
X130118Y78465D02*
D03*
X128150D02*
D03*
D80*
X129626Y72047D02*
D03*
X122933Y72047D02*
D03*
D81*
X72660Y135576D02*
D03*
X78171D02*
D03*
X72342Y140059D02*
D03*
X77854D02*
D03*
X61713Y118504D02*
D03*
X67224D02*
D03*
X82284Y113681D02*
D03*
X87795D02*
D03*
X73032D02*
D03*
X78543D02*
D03*
X63484D02*
D03*
X68996D02*
D03*
X125689Y92520D02*
D03*
X120177D02*
D03*
D82*
X135630Y92126D02*
D03*
X130315D02*
D03*
X106004Y115453D02*
D03*
X111319D02*
D03*
X98130Y139469D02*
D03*
X92815D02*
D03*
D83*
X142323Y87008D02*
D03*
Y90945D02*
D03*
D84*
X63287Y123504D02*
D03*
Y133780D02*
D03*
D85*
X142126Y83169D02*
D03*
X142126Y80020D02*
D03*
D86*
X57579Y113287D02*
D03*
Y118799D02*
D03*
X88484Y123327D02*
D03*
Y117815D02*
D03*
X93209Y117717D02*
D03*
Y123228D02*
D03*
X116634Y96752D02*
D03*
Y102264D02*
D03*
X136516Y103642D02*
D03*
Y98130D02*
D03*
D87*
X98130Y130807D02*
D03*
X98130Y134744D02*
D03*
X98130Y132776D02*
D03*
Y128839D02*
D03*
X98130Y126870D02*
D03*
X88287D02*
D03*
Y128839D02*
D03*
Y132776D02*
D03*
Y134744D02*
D03*
Y130807D02*
D03*
D88*
X93209D02*
D03*
D89*
X98032Y119882D02*
D03*
Y114567D02*
D03*
D90*
X111703Y121931D02*
D03*
X102470D02*
D03*
Y129447D02*
D03*
X111703D02*
D03*
D91*
X112077Y120195D02*
D03*
X102096Y131183D02*
D03*
D92*
X110337Y122181D02*
D03*
X103836Y129197D02*
D03*
D93*
Y122181D02*
D03*
X110337Y129197D02*
D03*
D94*
X102096Y120195D02*
D03*
X112077Y131183D02*
D03*
D95*
X107087Y120689D02*
D03*
Y130689D02*
D03*
D96*
X120276Y29331D02*
D03*
X124016D02*
D03*
X127756D02*
D03*
Y38780D02*
D03*
X120276D02*
D03*
D97*
X138779Y54528D02*
D03*
X122441D02*
D03*
D98*
X121264Y23232D02*
D03*
X116531Y18500D02*
D03*
D99*
X125964Y106299D02*
D03*
D100*
X131476Y110236D02*
D03*
Y108268D02*
D03*
Y106299D02*
D03*
Y104331D02*
D03*
Y102362D02*
D03*
X120453D02*
D03*
Y104331D02*
D03*
Y106299D02*
D03*
Y108268D02*
D03*
Y110236D02*
D03*
D101*
X122067Y119331D02*
D03*
X125964Y115433D02*
D03*
D102*
X112106Y25666D02*
D03*
Y29996D02*
D03*
Y34327D02*
D03*
Y38658D02*
D03*
Y42988D02*
D03*
Y47319D02*
D03*
Y51650D02*
D03*
Y55980D02*
D03*
Y60311D02*
D03*
Y67004D02*
D03*
Y71335D02*
D03*
Y75665D02*
D03*
Y79996D02*
D03*
Y84327D02*
D03*
Y88658D02*
D03*
Y92988D02*
D03*
X34941Y60311D02*
D03*
Y92988D02*
D03*
Y88658D02*
D03*
X34941Y84327D02*
D03*
X34941Y79996D02*
D03*
Y75665D02*
D03*
Y71335D02*
D03*
Y67004D02*
D03*
Y55980D02*
D03*
Y51650D02*
D03*
Y47319D02*
D03*
Y42988D02*
D03*
Y38658D02*
D03*
Y34327D02*
D03*
Y29996D02*
D03*
Y25666D02*
D03*
D103*
X98524Y105390D02*
D03*
X94193Y105390D02*
D03*
X89862Y105390D02*
D03*
X85532Y105390D02*
D03*
X81201Y105390D02*
D03*
X71358Y105390D02*
D03*
X67028Y105390D02*
D03*
X62697D02*
D03*
X58366D02*
D03*
X54035D02*
D03*
X49705D02*
D03*
Y13658D02*
D03*
X54036Y13658D02*
D03*
X58366Y13658D02*
D03*
X62697Y13658D02*
D03*
X67028Y13658D02*
D03*
X71358Y13658D02*
D03*
X81201Y13658D02*
D03*
X85532Y13658D02*
D03*
X89862Y13658D02*
D03*
X94193Y13658D02*
D03*
X98524Y13658D02*
D03*
D104*
X25723Y46656D02*
D03*
X22573D02*
D03*
X25723Y42522D02*
D03*
X22573D02*
D03*
X25723Y38116D02*
D03*
X22573D02*
D03*
D105*
X18022Y37231D02*
D03*
Y39199D02*
D03*
X18022Y41168D02*
D03*
X12589Y37231D02*
D03*
Y39199D02*
D03*
Y41168D02*
D03*
D106*
X15305Y39199D02*
D03*
D107*
X17667Y46004D02*
D03*
X17667Y49862D02*
D03*
X11959Y46004D02*
D03*
Y49862D02*
D03*
X6470Y46004D02*
D03*
Y49862D02*
D03*
D108*
X46065Y120577D02*
X46141Y120652D01*
X46530D01*
X55666Y129788D02*
Y133760D01*
X46530Y120652D02*
X55666Y129788D01*
X119299Y34018D02*
X120622D01*
X123996Y38088D02*
X124688Y38780D01*
X123996Y37393D02*
Y38088D01*
X120622Y34018D02*
X123996Y37393D01*
X124688Y38780D02*
X127756D01*
X136976Y39125D02*
Y40656D01*
X137367Y41046D01*
Y53115D01*
X138779Y54528D01*
X127756Y38780D02*
X135100D01*
X135445Y39125D01*
X136976D01*
X137115Y38985D01*
X120276Y38780D02*
Y52362D01*
X122441Y54528D01*
D109*
X68580Y130905D02*
X73721D01*
X67658Y131828D02*
X68580Y130905D01*
X67658Y131828D02*
Y132421D01*
X66299Y133780D02*
X67658Y132421D01*
X63287Y133780D02*
X66299D01*
D110*
X63327Y139468D02*
D03*
X105571Y109351D02*
D03*
D111*
X58327Y139469D02*
D03*
X110571Y109350D02*
D03*
X116634Y122382D02*
D03*
D112*
X116634Y117382D02*
D03*
D113*
X44862Y82645D02*
D03*
X87106Y77559D02*
D03*
X102657Y37303D02*
D03*
X119002Y25690D02*
D03*
X46065Y120577D02*
D03*
X90453Y81745D02*
D03*
X90354Y79504D02*
D03*
X105208Y44575D02*
D03*
X58573Y127584D02*
D03*
X69626Y124508D02*
D03*
X88444Y85101D02*
D03*
X119299Y34018D02*
D03*
X76870Y86102D02*
D03*
X71217Y69095D02*
D03*
X128327Y113071D02*
D03*
X37106Y22687D02*
D03*
X40585Y64961D02*
D03*
X128057Y34549D02*
D03*
X103300Y43039D02*
D03*
X87106Y54331D02*
D03*
X84013Y69409D02*
D03*
X20251Y97975D02*
D03*
X20940Y91339D02*
D03*
X21457Y94095D02*
D03*
X19488Y88472D02*
D03*
X52318Y115057D02*
D03*
X67471Y64690D02*
D03*
X93110Y90756D02*
D03*
X63910Y97408D02*
D03*
X23620Y34327D02*
D03*
X14681Y46006D02*
D03*
X27571Y113277D02*
D03*
X57814Y80795D02*
D03*
X56845Y82645D02*
D03*
X56420Y79406D02*
D03*
X56483Y73106D02*
D03*
X45276Y65949D02*
D03*
X24508Y64690D02*
D03*
X28543Y65949D02*
D03*
X25028Y68984D02*
D03*
X21457Y72441D02*
D03*
X19833Y78189D02*
D03*
X17088Y58642D02*
D03*
X13794Y61139D02*
D03*
X13866Y66147D02*
D03*
X13794Y71343D02*
D03*
X16585Y78133D02*
D03*
X18602Y64129D02*
D03*
X6398Y81418D02*
D03*
X18197Y79406D02*
D03*
X17088Y82464D02*
D03*
X24148Y40655D02*
D03*
X36312Y128437D02*
D03*
X34252Y126476D02*
D03*
X33563Y123504D02*
D03*
X30955Y121653D02*
D03*
X23465Y104921D02*
D03*
X33556Y103032D02*
D03*
X37216Y100917D02*
D03*
X36312Y102666D02*
D03*
X34255Y100282D02*
D03*
X34252Y109351D02*
D03*
X35463Y114472D02*
D03*
X52461Y134547D02*
D03*
X80811Y134554D02*
D03*
X69966Y135576D02*
D03*
X80661Y140059D02*
D03*
X87300Y139587D02*
D03*
X101279D02*
D03*
X102096Y116634D02*
D03*
X133570Y105615D02*
D03*
X122933Y26256D02*
D03*
X130315Y33465D02*
D03*
X117376Y32162D02*
D03*
X106205Y30866D02*
D03*
X106401Y28907D02*
D03*
X58366Y19685D02*
D03*
X66953D02*
D03*
X67028Y29331D02*
D03*
X73386Y36099D02*
D03*
X67471Y89431D02*
D03*
X29431Y48006D02*
D03*
X20989Y40938D02*
D03*
X15658Y35252D02*
D03*
X10039Y39354D02*
D03*
X15059Y42988D02*
D03*
X22736Y69095D02*
D03*
X21494Y79528D02*
D03*
X20251Y81418D02*
D03*
Y100224D02*
D03*
X15186D02*
D03*
X9154Y93613D02*
D03*
X61319Y130453D02*
D03*
X57033Y126087D02*
D03*
X36353Y131933D02*
D03*
X80319Y82484D02*
D03*
X48720Y117441D02*
D03*
X42421D02*
D03*
X26575Y120276D02*
D03*
X35270Y116929D02*
D03*
X46850Y110139D02*
D03*
X51575Y139764D02*
D03*
X55666Y133760D02*
D03*
X46752Y136516D02*
D03*
X87697Y100120D02*
D03*
X79091Y97962D02*
D03*
X57797Y86814D02*
D03*
X61466Y96063D02*
D03*
X64767Y94296D02*
D03*
X74016Y106251D02*
D03*
X61860Y99409D02*
D03*
X56845Y121358D02*
D03*
X94980Y120276D02*
D03*
X117376Y40823D02*
D03*
X125295Y40945D02*
D03*
X29671Y45154D02*
D03*
X53543Y64961D02*
D03*
X47638Y59363D02*
D03*
X62612Y56039D02*
D03*
X81890Y19563D02*
D03*
X83028Y26256D02*
D03*
X90453Y35138D02*
D03*
X43248Y35089D02*
D03*
X43909Y27539D02*
D03*
X44350Y22687D02*
D03*
X50295Y6742D02*
D03*
X83028D02*
D03*
X93498Y26673D02*
D03*
X99508Y25000D02*
D03*
X102362Y12009D02*
D03*
Y6988D02*
D03*
X100345Y3889D02*
D03*
X97462Y3225D02*
D03*
X93976Y3543D02*
D03*
X91634Y8071D02*
D03*
X113583Y17963D02*
D03*
X106004Y10153D02*
D03*
X109597Y10039D02*
D03*
X93461Y22687D02*
D03*
X90453Y19563D02*
D03*
X39291Y15256D02*
D03*
X23465Y109825D02*
D03*
X10827Y101457D02*
D03*
X8563Y52953D02*
D03*
X26673Y24114D02*
D03*
X19496Y30020D02*
D03*
X21654Y49626D02*
D03*
X27953Y54331D02*
D03*
X67280Y85916D02*
D03*
X71217Y79036D02*
D03*
X63681Y79799D02*
D03*
Y69390D02*
D03*
X67280Y61277D02*
D03*
X57339Y89764D02*
D03*
X58914Y96063D02*
D03*
X56243D02*
D03*
X58914Y99409D02*
D03*
X56243Y98721D02*
D03*
X53543Y97736D02*
D03*
X41144Y102958D02*
D03*
X43690Y101181D02*
D03*
X40551Y100939D02*
D03*
X38878Y102672D02*
D03*
X44783Y126083D02*
D03*
X48720D02*
D03*
X44783Y130020D02*
D03*
X48720D02*
D03*
D114*
X91831Y127854D02*
D03*
Y133760D02*
D03*
X94587D02*
D03*
X94587Y127854D02*
D03*
X93209Y130807D02*
D03*
M02*
