G04*
G04 #@! TF.GenerationSoftware,Altium Limited,Altium NEXUS,3.0.14 (129)*
G04*
G04 Layer_Physical_Order=6*
G04 Layer_Color=16711680*
%FSLAX25Y25*%
%MOIN*%
G70*
G01*
G75*
%ADD11C,0.00394*%
%ADD14C,0.01000*%
%ADD15C,0.00000*%
%ADD34R,0.03740X0.04134*%
%ADD38R,0.03937X0.03150*%
%ADD68C,0.01968*%
G04:AMPARAMS|DCode=69|XSize=31.5mil|YSize=59.06mil|CornerRadius=7.87mil|HoleSize=0mil|Usage=FLASHONLY|Rotation=90.000|XOffset=0mil|YOffset=0mil|HoleType=Round|Shape=RoundedRectangle|*
%AMROUNDEDRECTD69*
21,1,0.03150,0.04331,0,0,90.0*
21,1,0.01575,0.05906,0,0,90.0*
1,1,0.01575,0.02165,0.00787*
1,1,0.01575,0.02165,-0.00787*
1,1,0.01575,-0.02165,-0.00787*
1,1,0.01575,-0.02165,0.00787*
%
%ADD69ROUNDEDRECTD69*%
%ADD73R,0.02992X0.02835*%
%ADD74R,0.01654X0.02441*%
%ADD75R,0.02835X0.02992*%
%ADD76R,0.02441X0.01654*%
%ADD80R,0.02559X0.04134*%
%ADD85R,0.01772X0.01772*%
%ADD107R,0.02913X0.03071*%
%ADD108C,0.01181*%
%ADD110R,0.03543X0.03543*%
%ADD111C,0.03543*%
%ADD112R,0.03543X0.03543*%
%ADD113C,0.01575*%
%ADD114C,0.01772*%
%ADD115R,0.01575X0.01575*%
%ADD116R,0.03150X0.06299*%
%ADD117R,0.07874X0.07874*%
%ADD118R,0.12598X0.08661*%
%ADD119R,0.01378X0.01476*%
%ADD120R,0.01476X0.01378*%
%ADD121R,0.01476X0.01378*%
%ADD122R,0.01378X0.01476*%
%ADD123R,0.02598X0.02441*%
%ADD124R,0.03071X0.02913*%
%ADD125R,0.01968X0.02362*%
%ADD126O,0.00886X0.04429*%
%ADD127O,0.00984X0.04378*%
%ADD128O,0.00787X0.04476*%
%ADD129O,0.01083X0.04323*%
%ADD130O,0.01181X0.04260*%
%ADD131O,0.01968X0.02992*%
%ADD132O,0.01280X0.04185*%
%ADD133O,0.01378X0.04095*%
%ADD134O,0.01476X0.03988*%
%ADD135O,0.01575X0.03862*%
%ADD136O,0.01673X0.03713*%
%ADD137O,0.01772X0.03532*%
%ADD138O,0.01831X0.03406*%
%ADD139O,0.01870X0.03307*%
%ADD140O,0.01929X0.03150*%
%ADD141O,0.02047X0.02480*%
%ADD142O,0.02008X0.02795*%
%ADD143C,0.02067*%
%ADD144O,0.04429X0.00886*%
%ADD145O,0.04378X0.00984*%
%ADD146O,0.04476X0.00787*%
%ADD147O,0.04323X0.01083*%
%ADD148O,0.04260X0.01181*%
%ADD149O,0.02992X0.01968*%
%ADD150O,0.04185X0.01280*%
%ADD151O,0.04095X0.01378*%
%ADD152O,0.03988X0.01476*%
%ADD153O,0.03862X0.01575*%
%ADD154O,0.03713X0.01673*%
%ADD155O,0.03532X0.01772*%
%ADD156O,0.03406X0.01831*%
%ADD157O,0.03307X0.01870*%
%ADD158O,0.03150X0.01929*%
%ADD159O,0.02480X0.02047*%
%ADD160O,0.02795X0.02008*%
%ADD161R,0.03898X0.05472*%
%ADD162R,0.02756X0.02559*%
G04:AMPARAMS|DCode=163|XSize=31.5mil|YSize=66.93mil|CornerRadius=0mil|HoleSize=0mil|Usage=FLASHONLY|Rotation=135.000|XOffset=0mil|YOffset=0mil|HoleType=Round|Shape=Rectangle|*
%AMROTATEDRECTD163*
4,1,4,0.03480,0.01253,-0.01253,-0.03480,-0.03480,-0.01253,0.01253,0.03480,0.03480,0.01253,0.0*
%
%ADD163ROTATEDRECTD163*%

%ADD164R,0.00787X0.00787*%
%ADD165R,0.08071X0.08071*%
%ADD166C,0.00992*%
%ADD167R,0.02953X0.05512*%
%ADD168R,0.02362X0.01968*%
%ADD169R,0.04134X0.04528*%
%ADD170R,0.25197X0.25197*%
%ADD171R,0.02559X0.00984*%
%ADD172R,0.00984X0.02559*%
%ADD173R,0.04331X0.03937*%
%ADD174R,0.03937X0.09055*%
%ADD175R,0.01181X0.05512*%
%ADD176R,0.06299X0.08661*%
%ADD177R,0.02953X0.01378*%
%ADD178C,0.01580*%
%ADD179C,0.07874*%
G36*
X56223Y139993D02*
X56119Y139469D01*
X56287Y138624D01*
X56766Y137908D01*
X57482Y137429D01*
X58327Y137261D01*
X59172Y137429D01*
X59888Y137908D01*
X60055Y138157D01*
X60555Y138006D01*
Y136909D01*
X60555Y136697D01*
X60154Y136457D01*
X57755D01*
X57638Y136505D01*
X57550D01*
X57407Y136564D01*
X50853D01*
X50638Y136846D01*
X50849Y137346D01*
X51138D01*
Y139264D01*
X48642D01*
Y140264D01*
X51138D01*
Y140493D01*
X55852D01*
X56223Y139993D01*
D02*
G37*
G36*
X50256Y133721D02*
Y133611D01*
X50172Y133408D01*
X50017Y133253D01*
X49814Y133169D01*
X49595D01*
X49393Y133253D01*
X49237Y133408D01*
X49154Y133611D01*
Y133721D01*
X49154Y136516D01*
X50256D01*
Y133721D01*
D02*
G37*
G36*
X44350D02*
X44350D01*
Y133611D01*
X44267Y133408D01*
X44111Y133253D01*
X43909Y133169D01*
X43690D01*
X43487Y133253D01*
X43332Y133408D01*
X43248Y133611D01*
Y133721D01*
Y136516D01*
X44350D01*
Y133721D01*
D02*
G37*
G36*
X55216Y131437D02*
X52312D01*
X52109Y131521D01*
X51954Y131676D01*
X51870Y131878D01*
Y131988D01*
Y132098D01*
X51954Y132300D01*
X52109Y132455D01*
X52312Y132539D01*
X55216D01*
Y131437D01*
D02*
G37*
G36*
X41395Y132455D02*
X41550Y132300D01*
X41634Y132098D01*
Y131988D01*
Y131878D01*
X41550Y131676D01*
X41395Y131521D01*
X41192Y131437D01*
X38287D01*
Y132539D01*
X41192D01*
X41395Y132455D01*
D02*
G37*
G36*
X55216Y129469D02*
X52312D01*
X52109Y129552D01*
X51954Y129708D01*
X51870Y129910D01*
Y130020D01*
Y130129D01*
X51954Y130332D01*
X52109Y130487D01*
X52312Y130571D01*
X52421D01*
X55216Y130571D01*
Y129469D01*
D02*
G37*
G36*
X41083Y130571D02*
X41192D01*
X41395Y130487D01*
X41550Y130332D01*
X41634Y130129D01*
Y130020D01*
Y129910D01*
X41550Y129708D01*
X41395Y129552D01*
X41192Y129469D01*
X38287D01*
Y130571D01*
X41083D01*
Y130571D01*
D02*
G37*
G36*
X100131Y140100D02*
X100156Y139993D01*
X100075Y139587D01*
X100167Y139126D01*
X100428Y138735D01*
X100819Y138474D01*
X101279Y138382D01*
X101740Y138474D01*
X102131Y138735D01*
X102392Y139126D01*
X102465Y139490D01*
X102747Y139641D01*
X102973Y139688D01*
X117033Y125629D01*
X116799Y125156D01*
X116634Y125177D01*
X115910Y125082D01*
X115236Y124803D01*
X114657Y124358D01*
X114213Y123779D01*
X113934Y123105D01*
X113904Y122882D01*
X116634D01*
Y121882D01*
X113904D01*
X113934Y121658D01*
X114213Y120984D01*
X114657Y120405D01*
X115123Y120047D01*
X114994Y119547D01*
X114468D01*
Y115217D01*
X118799D01*
Y119547D01*
X118274D01*
X118145Y120047D01*
X118611Y120405D01*
X119055Y120984D01*
X119334Y121658D01*
X119430Y122382D01*
X119408Y122547D01*
X119881Y122780D01*
X127951Y114710D01*
X127886Y114309D01*
X127809Y114146D01*
X127475Y113923D01*
X127214Y113532D01*
X127122Y113071D01*
X127214Y112610D01*
X127475Y112220D01*
X127866Y111959D01*
X128327Y111867D01*
X128788Y111959D01*
X129178Y112220D01*
X129401Y112553D01*
X129564Y112630D01*
X129966Y112696D01*
X140199Y102463D01*
X140007Y102001D01*
X94488D01*
X94187Y101876D01*
X94062Y101575D01*
Y92142D01*
X93571Y91869D01*
X93110Y91960D01*
X92649Y91869D01*
X92259Y91607D01*
X91998Y91217D01*
X91906Y90756D01*
X91956Y90505D01*
X91445Y89995D01*
X90945Y90202D01*
Y96457D01*
X87008D01*
Y89370D01*
X90532D01*
X90953Y89288D01*
X90995Y88891D01*
Y85698D01*
X90099Y84802D01*
X89638Y85048D01*
X89648Y85101D01*
X89557Y85562D01*
X89296Y85952D01*
X88905Y86213D01*
X88444Y86305D01*
X87983Y86213D01*
X87593Y85952D01*
X87475Y85777D01*
X80320D01*
X79868Y85590D01*
X77557Y83278D01*
X77369Y82826D01*
Y81974D01*
X77261Y81929D01*
X76788D01*
Y81456D01*
X76740Y81339D01*
X76788Y81221D01*
Y79610D01*
X76691Y79513D01*
X76503Y79061D01*
Y77818D01*
X76003Y77611D01*
X75859Y77755D01*
Y78008D01*
X75505Y78360D01*
X75505Y78508D01*
Y79815D01*
X73678D01*
X71851D01*
X71851Y78458D01*
X71351Y78187D01*
X71079Y78358D01*
Y78536D01*
X69685D01*
Y79536D01*
X71079D01*
Y80430D01*
X70919D01*
X70472Y80559D01*
Y82134D01*
X70205D01*
Y92406D01*
X73622D01*
Y89370D01*
X77559D01*
Y96457D01*
X73694D01*
X73392Y96861D01*
X74528Y97997D01*
X74776D01*
Y98246D01*
X75134Y98604D01*
X77544D01*
X77915Y98104D01*
X77887Y97962D01*
X77979Y97501D01*
X78240Y97111D01*
X78630Y96850D01*
X79091Y96758D01*
X79552Y96850D01*
X79943Y97111D01*
X80204Y97501D01*
X80295Y97962D01*
X80324Y97997D01*
X80560D01*
Y101753D01*
Y105509D01*
X79469D01*
Y104903D01*
X78607D01*
X78107Y104903D01*
Y104903D01*
X78107D01*
Y104903D01*
X74776D01*
Y105509D01*
X73686D01*
Y101753D01*
X72686D01*
Y105509D01*
X71595D01*
Y104903D01*
X66296D01*
Y101428D01*
X65878Y101255D01*
X64048Y99425D01*
X63307D01*
X62981Y99831D01*
X62973Y99870D01*
X62712Y100261D01*
X62321Y100522D01*
X61860Y100614D01*
X61610Y100564D01*
X61121Y101052D01*
Y106940D01*
X60934Y107392D01*
X60295Y108032D01*
X59842Y108219D01*
X57417D01*
X57270Y108324D01*
X57265Y108377D01*
X57546Y108824D01*
X60997D01*
Y109398D01*
X64918D01*
X65219Y109523D01*
X65344Y109824D01*
Y122029D01*
X65219Y122330D01*
X64918Y122455D01*
X59997D01*
X59695Y122330D01*
X59571Y122029D01*
Y119485D01*
X57347D01*
Y114155D01*
X56347D01*
Y119485D01*
X52698D01*
Y118202D01*
X52220Y118147D01*
Y118147D01*
X50500D01*
Y116320D01*
Y114493D01*
X51274D01*
X51467Y114206D01*
X51857Y113945D01*
X52318Y113853D01*
X52698Y113541D01*
Y110903D01*
X52198Y110696D01*
X51663Y111231D01*
Y111360D01*
X51614Y111477D01*
Y113210D01*
X48386D01*
Y110769D01*
X48386D01*
X48279Y110422D01*
X47818Y110326D01*
X47818Y110326D01*
X47818Y110326D01*
X45217D01*
X44958Y110714D01*
Y111475D01*
X45088Y111501D01*
X45098Y111507D01*
X45257Y111539D01*
X45292Y111562D01*
X45368Y111577D01*
X45411Y111606D01*
X45459Y111616D01*
X45540Y111670D01*
X45555Y111673D01*
X45611Y111710D01*
X45617Y111711D01*
X46050Y112000D01*
X46054Y112006D01*
X46121Y112051D01*
X46139Y112078D01*
X46225Y112136D01*
X46256Y112182D01*
X46314Y112221D01*
X46354Y112281D01*
X46391Y112305D01*
X46439Y112378D01*
X46457Y112390D01*
X46512Y112472D01*
X46516Y112475D01*
X46745Y112817D01*
X46747Y112828D01*
X46785Y112885D01*
X46790Y112909D01*
X46819Y112953D01*
X46826Y112986D01*
X46850Y113022D01*
X46857Y113059D01*
X46878Y113090D01*
X46886Y113131D01*
X46905Y113159D01*
X46966Y113466D01*
X46905Y113773D01*
X46896Y113786D01*
X46772Y114155D01*
X46896Y114524D01*
X46905Y114537D01*
X46966Y114844D01*
X46905Y115151D01*
X46886Y115179D01*
X46878Y115219D01*
X46857Y115251D01*
X46850Y115288D01*
X46826Y115324D01*
X46819Y115356D01*
X46790Y115401D01*
X46785Y115425D01*
X46747Y115481D01*
X46745Y115493D01*
X46516Y115835D01*
X46512Y115838D01*
X46457Y115920D01*
X46439Y115932D01*
X46391Y116004D01*
X46354Y116029D01*
X46314Y116089D01*
X46256Y116128D01*
X46225Y116174D01*
X46139Y116231D01*
X46121Y116258D01*
X46054Y116303D01*
X46050Y116309D01*
X45617Y116598D01*
X45611Y116600D01*
X45555Y116637D01*
X45540Y116640D01*
X45459Y116694D01*
X45411Y116704D01*
X45368Y116732D01*
X45292Y116747D01*
X45257Y116771D01*
X45098Y116802D01*
X45088Y116809D01*
X44535Y116919D01*
X44418D01*
X44319Y116939D01*
X44219Y116919D01*
X44102D01*
X43953Y116889D01*
X43588Y117254D01*
X43626Y117441D01*
X43534Y117902D01*
X43273Y118292D01*
X42882Y118553D01*
X42421Y118645D01*
X41960Y118553D01*
X41570Y118292D01*
X41309Y117902D01*
X41217Y117441D01*
X41309Y116980D01*
X41570Y116589D01*
X41906Y116365D01*
X41935Y116339D01*
X41987Y116251D01*
X42052Y116055D01*
X42092Y115792D01*
X41892Y115493D01*
X41890Y115481D01*
X41852Y115425D01*
X41847Y115401D01*
X41818Y115356D01*
X41811Y115324D01*
X41787Y115288D01*
X41780Y115251D01*
X41759Y115219D01*
X41751Y115179D01*
X41732Y115151D01*
X41671Y114844D01*
X41732Y114537D01*
X41741Y114524D01*
X41865Y114155D01*
X41741Y113786D01*
X41732Y113773D01*
X41671Y113466D01*
X41732Y113159D01*
X41751Y113131D01*
X41759Y113090D01*
X41780Y113059D01*
X41787Y113022D01*
X41811Y112986D01*
X41818Y112953D01*
X41847Y112909D01*
X41852Y112885D01*
X41890Y112828D01*
X41892Y112817D01*
X42121Y112475D01*
X42125Y112472D01*
X42180Y112390D01*
X42198Y112378D01*
X42247Y112305D01*
X42283Y112281D01*
X42323Y112221D01*
X42381Y112182D01*
X42412Y112136D01*
X42498Y112078D01*
X42516Y112051D01*
X42583Y112006D01*
X42587Y112000D01*
X42902Y111790D01*
X42777Y111327D01*
X42754Y111290D01*
X41794D01*
Y109405D01*
X40794D01*
Y111290D01*
X40341D01*
X39902Y111437D01*
Y114689D01*
X40508D01*
Y116685D01*
X35673D01*
Y115849D01*
X35463Y115677D01*
X35102Y115605D01*
X34755Y115791D01*
X34602Y115919D01*
Y116685D01*
X32185D01*
X29768D01*
Y114689D01*
X30374D01*
Y111437D01*
X30374D01*
X30272Y110979D01*
X29588D01*
Y113847D01*
X29401Y114299D01*
X28594Y115106D01*
X28741Y115471D01*
X28742Y115476D01*
X28767Y115539D01*
X28828Y115847D01*
X28767Y116154D01*
X28759Y116166D01*
X28634Y116535D01*
X28759Y116905D01*
X28767Y116917D01*
X28828Y117224D01*
X28767Y117532D01*
X28749Y117559D01*
X28741Y117600D01*
X28720Y117632D01*
X28712Y117668D01*
X28688Y117704D01*
X28682Y117737D01*
X28652Y117781D01*
X28648Y117805D01*
X28610Y117862D01*
X28607Y117874D01*
X28379Y118216D01*
X28374Y118219D01*
X28320Y118300D01*
X28301Y118313D01*
X28253Y118385D01*
X28217Y118409D01*
X28176Y118470D01*
X28119Y118508D01*
X28088Y118554D01*
X28002Y118612D01*
X27983Y118639D01*
X27916Y118684D01*
X27912Y118690D01*
X27570Y118919D01*
X27457Y119316D01*
X27480Y119495D01*
X27489Y119518D01*
X27687Y119815D01*
X27779Y120276D01*
X27687Y120736D01*
X27426Y121127D01*
X27036Y121388D01*
X26575Y121480D01*
X26513Y121467D01*
X26267Y121928D01*
X35427Y131089D01*
X35501Y131082D01*
X35892Y130821D01*
X36353Y130729D01*
X36814Y130821D01*
X37204Y131082D01*
X37803Y131092D01*
X37986Y130886D01*
Y130872D01*
X37861Y130571D01*
Y129469D01*
X37922Y129323D01*
X37839Y129177D01*
X37293Y129094D01*
X37163Y129288D01*
X36773Y129550D01*
X36312Y129641D01*
X35851Y129550D01*
X35460Y129288D01*
X35199Y128898D01*
X35108Y128437D01*
X35199Y127976D01*
X35333Y127776D01*
X34973Y127415D01*
X34873Y127482D01*
X34713Y127589D01*
X34252Y127681D01*
X33791Y127589D01*
X33400Y127328D01*
X33139Y126937D01*
X33048Y126476D01*
X33139Y126016D01*
X33400Y125625D01*
X33791Y125364D01*
X34252Y125272D01*
X34713Y125364D01*
X35103Y125625D01*
X35364Y126016D01*
X35456Y126476D01*
X35364Y126937D01*
X35231Y127138D01*
X35591Y127498D01*
X35691Y127431D01*
X35851Y127324D01*
X36312Y127233D01*
X36773Y127324D01*
X37163Y127585D01*
X37361Y127881D01*
X37839Y127807D01*
X37861Y127798D01*
Y127500D01*
X37986Y127199D01*
Y126935D01*
X37861Y126634D01*
Y125531D01*
X37986Y125230D01*
Y124967D01*
X37861Y124665D01*
Y123563D01*
X37986Y123262D01*
X38287Y123137D01*
X41192D01*
X41216Y123147D01*
X41717Y123016D01*
Y123016D01*
X42463D01*
X42647Y122846D01*
X42771Y122681D01*
X42832Y122516D01*
X42822Y122492D01*
Y120270D01*
X42796Y120138D01*
X42822Y120006D01*
Y119587D01*
X42947Y119285D01*
X43248Y119160D01*
X43667D01*
X43799Y119134D01*
X43931Y119160D01*
X44350D01*
X44652Y119285D01*
X44771Y119573D01*
X45441D01*
X45604Y119464D01*
X46065Y119372D01*
X46526Y119464D01*
X46917Y119725D01*
X47178Y120116D01*
X47269Y120577D01*
X47178Y121038D01*
X46917Y121428D01*
X46526Y121689D01*
X46065Y121781D01*
X45604Y121689D01*
X45441Y121580D01*
X44776D01*
Y122492D01*
X44767Y122516D01*
X44828Y122681D01*
X44952Y122846D01*
X45136Y123016D01*
X46252D01*
Y128051D01*
X47252D01*
Y123016D01*
X48740D01*
X48891Y122516D01*
X48626Y122338D01*
X48296Y121844D01*
X48279Y121760D01*
X49154D01*
Y122382D01*
X49154D01*
Y122492D01*
X49237Y122694D01*
X49393Y122849D01*
X49595Y122933D01*
X49814D01*
X50017Y122849D01*
X50172Y122694D01*
X50256Y122492D01*
Y122382D01*
Y121760D01*
X51131D01*
X51114Y121844D01*
X50783Y122338D01*
X50518Y122516D01*
X50670Y123016D01*
X51787D01*
Y123016D01*
X52287Y123147D01*
X52312Y123137D01*
X55216D01*
X55518Y123262D01*
X55643Y123563D01*
Y124665D01*
X55589Y124796D01*
X55702Y125054D01*
X55862Y125115D01*
X56277Y125172D01*
X56572Y124975D01*
X57033Y124883D01*
X57494Y124975D01*
X57884Y125236D01*
X58145Y125626D01*
X58208Y125942D01*
X58459Y126243D01*
X58684Y126402D01*
X59033Y126471D01*
X59424Y126732D01*
X59685Y127123D01*
X59777Y127584D01*
X59736Y127791D01*
X60076Y128291D01*
X61276D01*
Y130287D01*
X58858D01*
Y131287D01*
X61276D01*
Y133283D01*
X60669D01*
Y136244D01*
X60669Y136457D01*
X61070Y136697D01*
X62827D01*
Y139468D01*
X63327D01*
Y139968D01*
X66098D01*
Y140493D01*
X99863D01*
X100131Y140100D01*
D02*
G37*
G36*
X55216Y127500D02*
X52312D01*
X52109Y127584D01*
X51954Y127739D01*
X51870Y127942D01*
Y128051D01*
Y128161D01*
X51954Y128363D01*
X52109Y128518D01*
X52312Y128602D01*
X55216D01*
Y127500D01*
D02*
G37*
G36*
X41395Y128518D02*
X41550Y128363D01*
X41634Y128161D01*
Y128051D01*
Y127942D01*
X41550Y127739D01*
X41395Y127584D01*
X41192Y127500D01*
X38287D01*
Y128602D01*
X41192D01*
X41395Y128518D01*
D02*
G37*
G36*
X55216Y125531D02*
X52421D01*
Y125531D01*
X52312D01*
X52109Y125615D01*
X51954Y125770D01*
X51870Y125973D01*
Y126083D01*
Y126192D01*
X51954Y126395D01*
X52109Y126550D01*
X52312Y126634D01*
X55216D01*
Y125531D01*
D02*
G37*
G36*
X41395Y126550D02*
X41550Y126395D01*
X41634Y126192D01*
Y126083D01*
Y125973D01*
X41550Y125770D01*
X41395Y125615D01*
X41192Y125531D01*
X41083D01*
X38287Y125531D01*
Y126634D01*
X41192D01*
X41395Y126550D01*
D02*
G37*
G36*
X55216Y123563D02*
X52312D01*
X52109Y123647D01*
X51954Y123802D01*
X51870Y124004D01*
Y124114D01*
Y124224D01*
X51954Y124426D01*
X52109Y124581D01*
X52312Y124665D01*
X55216D01*
Y123563D01*
D02*
G37*
G36*
X41395Y124581D02*
X41550Y124426D01*
X41634Y124224D01*
Y124114D01*
Y124004D01*
X41550Y123802D01*
X41395Y123647D01*
X41192Y123563D01*
X38287D01*
Y124665D01*
X41192D01*
X41395Y124581D01*
D02*
G37*
G36*
X44111Y122849D02*
X44267Y122694D01*
X44350Y122492D01*
Y122382D01*
X44350Y119587D01*
X43248D01*
Y122382D01*
Y122492D01*
X43332Y122694D01*
X43487Y122849D01*
X43690Y122933D01*
X43909D01*
X44111Y122849D01*
D02*
G37*
G36*
X25383Y120337D02*
X25371Y120276D01*
X25462Y119815D01*
X25549Y119685D01*
X25422Y119192D01*
X25412Y119189D01*
X25402Y119183D01*
X25242Y119151D01*
X25207Y119128D01*
X25132Y119113D01*
X25089Y119084D01*
X25041Y119075D01*
X24960Y119020D01*
X24944Y119017D01*
X24889Y118980D01*
X24883Y118979D01*
X24450Y118690D01*
X24446Y118684D01*
X24379Y118639D01*
X24361Y118612D01*
X24274Y118554D01*
X24244Y118508D01*
X24186Y118470D01*
X24146Y118409D01*
X24109Y118385D01*
X24061Y118313D01*
X24042Y118300D01*
X23988Y118219D01*
X23983Y118216D01*
X23755Y117874D01*
X23753Y117862D01*
X23715Y117805D01*
X23710Y117781D01*
X23680Y117737D01*
X23674Y117704D01*
X23650Y117668D01*
X23642Y117632D01*
X23621Y117600D01*
X23613Y117559D01*
X23595Y117532D01*
X23534Y117224D01*
X23595Y116917D01*
X23603Y116905D01*
X23728Y116535D01*
X23603Y116166D01*
X23595Y116154D01*
X23534Y115847D01*
X23595Y115539D01*
X23613Y115512D01*
X23621Y115471D01*
X23642Y115439D01*
X23650Y115402D01*
X23674Y115367D01*
X23680Y115334D01*
X23710Y115290D01*
X23715Y115266D01*
X23753Y115209D01*
X23755Y115197D01*
X23983Y114855D01*
X23988Y114852D01*
X24042Y114771D01*
X24061Y114758D01*
X24109Y114686D01*
X24146Y114662D01*
X24186Y114601D01*
X24244Y114563D01*
X24274Y114516D01*
X24361Y114459D01*
X24379Y114432D01*
X24446Y114387D01*
X24450Y114381D01*
X24883Y114092D01*
X24889Y114091D01*
X24944Y114053D01*
X24960Y114050D01*
X25041Y113996D01*
X25089Y113987D01*
X25132Y113958D01*
X25207Y113943D01*
X25242Y113920D01*
X25402Y113888D01*
X25412Y113881D01*
X25956Y113773D01*
X25965Y113771D01*
X26233Y113537D01*
X26314Y113412D01*
X26366Y113283D01*
X26367Y113277D01*
X26395Y113135D01*
X26023Y112635D01*
X23961D01*
Y110639D01*
X26378D01*
Y109639D01*
X23961D01*
Y107643D01*
X24567D01*
Y104470D01*
X25739D01*
Y100197D01*
X25492D01*
Y97063D01*
X25378D01*
Y96949D01*
X22244D01*
Y96702D01*
X21372D01*
X21244Y96902D01*
X21155Y97202D01*
X21363Y97514D01*
X21455Y97975D01*
X21363Y98436D01*
X21102Y98826D01*
Y99372D01*
X21363Y99763D01*
X21455Y100224D01*
X21363Y100685D01*
X21102Y101075D01*
X20711Y101337D01*
X20251Y101428D01*
X19790Y101337D01*
X19399Y101075D01*
X19138Y100685D01*
X19046Y100224D01*
X18733Y99843D01*
X18213D01*
Y102198D01*
X18059Y102569D01*
X18108Y102643D01*
X18135Y102661D01*
X18180Y102729D01*
X18186Y102733D01*
X18475Y103165D01*
X18477Y103171D01*
X18514Y103227D01*
X18517Y103242D01*
X18571Y103323D01*
X18580Y103371D01*
X18609Y103414D01*
X18624Y103490D01*
X18647Y103525D01*
X18679Y103684D01*
X18686Y103694D01*
X18796Y104247D01*
Y104364D01*
X18816Y104464D01*
X18796Y104564D01*
Y104680D01*
X18686Y105233D01*
X18679Y105243D01*
X18647Y105403D01*
X18624Y105437D01*
X18609Y105513D01*
X18580Y105556D01*
X18571Y105604D01*
X18517Y105685D01*
X18514Y105701D01*
X18477Y105756D01*
X18475Y105762D01*
X18186Y106195D01*
X18180Y106199D01*
X18135Y106266D01*
X18108Y106284D01*
X18051Y106370D01*
X18004Y106401D01*
X17966Y106459D01*
X17906Y106499D01*
X17881Y106536D01*
X17809Y106584D01*
X17797Y106603D01*
X17715Y106657D01*
X17712Y106661D01*
X17370Y106890D01*
X17358Y106892D01*
X17302Y106930D01*
X17277Y106935D01*
X17233Y106965D01*
X17201Y106971D01*
X17165Y106995D01*
X17128Y107002D01*
X17096Y107023D01*
X17055Y107032D01*
X17028Y107050D01*
X16721Y107111D01*
X16413Y107050D01*
X16153Y106876D01*
X15910D01*
X15650Y107050D01*
X15343Y107111D01*
X15035Y107050D01*
X15008Y107032D01*
X14967Y107023D01*
X14935Y107002D01*
X14899Y106995D01*
X14863Y106971D01*
X14830Y106965D01*
X14786Y106935D01*
X14762Y106930D01*
X14705Y106892D01*
X14693Y106890D01*
X14352Y106661D01*
X14349Y106657D01*
X14267Y106603D01*
X14254Y106584D01*
X14182Y106536D01*
X14158Y106499D01*
X14097Y106459D01*
X14059Y106401D01*
X14013Y106370D01*
X13955Y106284D01*
X13928Y106266D01*
X13883Y106199D01*
X13877Y106195D01*
X13588Y105762D01*
X13587Y105756D01*
X13550Y105701D01*
X13547Y105685D01*
X13492Y105604D01*
X13483Y105556D01*
X13454Y105513D01*
X13439Y105437D01*
X13416Y105403D01*
X13384Y105243D01*
X13378Y105233D01*
X13298Y104833D01*
X11077Y102612D01*
X10827Y102662D01*
X10366Y102570D01*
X9975Y102309D01*
X9714Y101918D01*
X9623Y101457D01*
X9714Y100996D01*
X9975Y100606D01*
X10366Y100345D01*
X10827Y100253D01*
X11298Y99837D01*
Y98532D01*
X13794D01*
Y97531D01*
X11298D01*
Y95614D01*
X11828D01*
X12040Y95202D01*
X12040Y95114D01*
Y93481D01*
X13866D01*
X15693D01*
Y95114D01*
X15693Y95202D01*
X15905Y95614D01*
X16290D01*
Y96220D01*
X17558D01*
Y94596D01*
X16977D01*
Y91367D01*
X19259D01*
X19430Y91357D01*
X19791Y91061D01*
X19827Y90878D01*
X20088Y90487D01*
X20479Y90226D01*
X20940Y90134D01*
X20981Y90143D01*
X21408Y89774D01*
Y88617D01*
X21595Y88165D01*
X22006Y87753D01*
X22002Y87666D01*
X21884Y87253D01*
X21204D01*
X20539Y87919D01*
X20601Y88011D01*
X20692Y88472D01*
X20601Y88933D01*
X20340Y89323D01*
X19949Y89584D01*
X19488Y89676D01*
X19027Y89584D01*
X18637Y89323D01*
X18376Y88933D01*
X18284Y88472D01*
X18376Y88011D01*
X18637Y87620D01*
X19027Y87359D01*
X19339Y87297D01*
X19556Y86984D01*
X19339Y86516D01*
X17429D01*
X17126Y86516D01*
X16626Y86516D01*
X13386D01*
Y85482D01*
X12106D01*
Y86319D01*
X9350Y86319D01*
X9169Y86744D01*
Y86925D01*
X7685D01*
Y84744D01*
Y82563D01*
X8806D01*
X9013Y82063D01*
X5479Y78528D01*
X5315Y78133D01*
X4507D01*
Y100169D01*
X24922Y120584D01*
X25383Y120337D01*
D02*
G37*
G36*
X17043Y79656D02*
X16993Y79406D01*
X17085Y78945D01*
X17345Y78554D01*
X17415Y78508D01*
X17263Y78008D01*
X16721D01*
Y75590D01*
Y73173D01*
X18717D01*
Y73779D01*
X19361D01*
Y71736D01*
X19083Y71681D01*
X19070Y71672D01*
X18701Y71548D01*
X18331Y71672D01*
X18319Y71681D01*
X18012Y71742D01*
X17705Y71681D01*
X17677Y71662D01*
X17636Y71654D01*
X17605Y71633D01*
X17568Y71626D01*
X17532Y71602D01*
X17499Y71595D01*
X17455Y71566D01*
X17431Y71561D01*
X17374Y71523D01*
X17363Y71521D01*
X17021Y71292D01*
X17018Y71288D01*
X16936Y71233D01*
X16924Y71215D01*
X16851Y71166D01*
X16827Y71130D01*
X16767Y71090D01*
X16728Y71032D01*
X16682Y71001D01*
X16624Y70915D01*
X16597Y70897D01*
X16552Y70830D01*
X16546Y70826D01*
X16257Y70393D01*
X16256Y70387D01*
X16219Y70331D01*
X16216Y70316D01*
X16161Y70235D01*
X16152Y70187D01*
X16123Y70144D01*
X16108Y70068D01*
X16085Y70034D01*
X16053Y69874D01*
X16047Y69864D01*
X15937Y69311D01*
Y69194D01*
X15917Y69095D01*
X15937Y68995D01*
Y68878D01*
X15945Y68835D01*
Y66147D01*
X16133Y65695D01*
X17448Y64380D01*
X17398Y64129D01*
X17490Y63668D01*
X17751Y63278D01*
X18142Y63016D01*
X18537Y62938D01*
X18488Y62438D01*
X16038D01*
Y61153D01*
X15763Y61040D01*
X15420Y60696D01*
X14959Y60943D01*
X14998Y61139D01*
X14906Y61600D01*
X14645Y61990D01*
X14255Y62251D01*
X13794Y62343D01*
X13333Y62251D01*
X13060Y62069D01*
X12700Y62430D01*
X12945Y62797D01*
X13113Y63642D01*
X12945Y64487D01*
X12880Y64585D01*
X13116Y65131D01*
X13232Y65150D01*
X13406Y65034D01*
X13866Y64943D01*
X14327Y65034D01*
X14718Y65295D01*
X14979Y65686D01*
X15071Y66147D01*
X14979Y66608D01*
X14718Y66998D01*
X14327Y67259D01*
X13866Y67351D01*
X13406Y67259D01*
X13229Y67141D01*
X13120Y67159D01*
X12883Y67704D01*
X12945Y67797D01*
X13113Y68642D01*
X12945Y69487D01*
X12847Y69634D01*
X13067Y70205D01*
X13288Y70261D01*
X13333Y70230D01*
X13794Y70139D01*
X14255Y70230D01*
X14645Y70491D01*
X14906Y70882D01*
X14998Y71343D01*
X14906Y71804D01*
X14645Y72194D01*
X14255Y72455D01*
X13794Y72547D01*
X13333Y72455D01*
X13307Y72438D01*
X12948Y72794D01*
X12945Y72798D01*
X13113Y73642D01*
X12945Y74487D01*
X12467Y75203D01*
X11750Y75681D01*
X10905Y75849D01*
X10061Y75681D01*
X9775Y75491D01*
X9275Y75758D01*
Y76525D01*
X9775Y76793D01*
X10061Y76602D01*
X10905Y76434D01*
X11750Y76602D01*
X12467Y77081D01*
X12945Y77797D01*
X13113Y78642D01*
X12945Y79487D01*
X12467Y80203D01*
X11750Y80681D01*
X11403Y80751D01*
X11452Y81251D01*
X15448D01*
X17043Y79656D01*
D02*
G37*
G36*
X89300Y81488D02*
X89340Y81284D01*
X89601Y80893D01*
X89504Y80357D01*
X89502Y80356D01*
X89241Y79965D01*
X89150Y79504D01*
X89241Y79044D01*
X89502Y78653D01*
X89893Y78392D01*
X89902Y78390D01*
Y78332D01*
X90089Y77880D01*
X90862Y77107D01*
X91314Y76920D01*
X91471Y76763D01*
X91529Y76502D01*
X91208Y76098D01*
X90985D01*
Y74910D01*
X93461D01*
Y73909D01*
X90985D01*
Y72720D01*
X91297D01*
X91591Y72342D01*
Y70177D01*
X94062D01*
Y69193D01*
X91591D01*
Y67028D01*
X94062D01*
Y66043D01*
X91591D01*
Y63878D01*
X94062D01*
Y57398D01*
X92134D01*
Y54331D01*
Y51264D01*
X94062D01*
Y46457D01*
X94187Y46155D01*
X94488Y46031D01*
X95965D01*
Y42349D01*
X100886D01*
Y46031D01*
X102818D01*
X103009Y45569D01*
X102848Y45408D01*
X102661Y44956D01*
Y44033D01*
X102449Y43891D01*
X102188Y43500D01*
X102096Y43039D01*
X102188Y42578D01*
X102449Y42188D01*
X102839Y41927D01*
X103300Y41835D01*
X103761Y41927D01*
X104152Y42188D01*
X104413Y42578D01*
X104504Y43039D01*
X104504Y43040D01*
X104546Y43112D01*
X104938Y43425D01*
X105208Y43371D01*
X105292Y43387D01*
X105758Y42970D01*
Y39311D01*
X103307D01*
Y38845D01*
X102807Y38478D01*
X102657Y38507D01*
X102197Y38416D01*
X101806Y38155D01*
X101545Y37764D01*
X101453Y37303D01*
X101545Y36842D01*
X101806Y36452D01*
X102197Y36191D01*
X102657Y36099D01*
X102701Y36063D01*
Y34142D01*
X105118D01*
Y33142D01*
X102701D01*
Y31146D01*
X104772D01*
X105001Y30866D01*
X105093Y30405D01*
X105354Y30015D01*
X105745Y29754D01*
X106205Y29662D01*
X106666Y29754D01*
X106984Y29966D01*
X107272Y29884D01*
X107484Y29754D01*
Y29437D01*
X109980D01*
Y28937D01*
X110480D01*
Y26520D01*
X112476D01*
Y27126D01*
X115728D01*
Y30748D01*
X114222D01*
Y33603D01*
X114299Y33680D01*
X114798Y33666D01*
X114961Y33514D01*
X115148Y33062D01*
X116202Y32008D01*
X116263Y31701D01*
X116524Y31310D01*
X116915Y31049D01*
X117376Y30957D01*
X117837Y31049D01*
X118227Y31310D01*
X118488Y31701D01*
X118580Y32162D01*
X118508Y32526D01*
X118725Y32776D01*
X118906Y32893D01*
X119299Y32814D01*
X119638Y32882D01*
X120138Y32603D01*
Y30276D01*
X121388D01*
Y27993D01*
X119930Y26534D01*
X119853Y26542D01*
X119463Y26803D01*
X119002Y26895D01*
X118541Y26803D01*
X118150Y26542D01*
X117889Y26151D01*
X117798Y25690D01*
X117889Y25229D01*
X118150Y24839D01*
X118541Y24578D01*
X119002Y24486D01*
X119463Y24578D01*
X119853Y24839D01*
X119998Y25054D01*
X120441Y25238D01*
X122479Y27276D01*
X122667Y27728D01*
Y30276D01*
X123311D01*
Y29669D01*
X125307D01*
Y32087D01*
Y34504D01*
X123474D01*
Y35236D01*
X124449D01*
Y37677D01*
X121221D01*
Y35942D01*
X120721Y35735D01*
X118897Y37558D01*
X118445Y37745D01*
X116732D01*
Y39277D01*
X117232Y39647D01*
X117376Y39619D01*
X117837Y39710D01*
X118227Y39971D01*
X118488Y40362D01*
X118580Y40823D01*
X118488Y41284D01*
X118227Y41675D01*
X117837Y41936D01*
X117376Y42027D01*
X117232Y41999D01*
X116732Y42126D01*
Y42126D01*
X114665D01*
Y42224D01*
X114222D01*
Y42515D01*
X114035Y42967D01*
X113069Y43933D01*
X113108Y44433D01*
X115902D01*
Y46031D01*
X142493D01*
Y43331D01*
X128784Y29622D01*
X128303Y29849D01*
Y31587D01*
X126307D01*
Y29669D01*
X128124D01*
X128351Y29189D01*
X112706Y13544D01*
X112244Y13736D01*
Y15142D01*
X112850D01*
Y17138D01*
X110433D01*
Y17638D01*
X109933D01*
Y20134D01*
X108016D01*
Y18790D01*
X107618Y18543D01*
X104390D01*
Y17962D01*
X103839D01*
X103387Y17775D01*
X101289Y15677D01*
X100827Y15868D01*
Y18094D01*
X101433D01*
Y20090D01*
X99016D01*
X96598D01*
Y18094D01*
X97205D01*
Y17450D01*
X95020D01*
Y17461D01*
X91791D01*
Y17461D01*
X91487Y17335D01*
X91092Y17652D01*
Y18570D01*
X91304Y18712D01*
X91326Y18744D01*
X92905D01*
Y20571D01*
Y22398D01*
X91185D01*
Y21050D01*
X90685Y20721D01*
X90453Y20767D01*
X89992Y20676D01*
X89601Y20415D01*
X89340Y20024D01*
X89249Y19563D01*
X89340Y19102D01*
X89601Y18712D01*
X89814Y18570D01*
Y17323D01*
X90001Y16871D01*
X91083Y15788D01*
X91535Y15601D01*
X91791D01*
Y15020D01*
X93701D01*
Y11122D01*
X93209D01*
Y9760D01*
X92602D01*
Y8571D01*
X94340D01*
Y7571D01*
X92602D01*
Y6602D01*
X94340D01*
Y5602D01*
X92602D01*
Y4413D01*
X92602Y4413D01*
X92846Y3913D01*
X92772Y3543D01*
X92779Y3507D01*
X92369Y3007D01*
X89976D01*
Y6242D01*
X87008D01*
X84039D01*
Y3007D01*
X79717D01*
Y13632D01*
X79593Y13933D01*
X79291Y14058D01*
X74567D01*
X74266Y13933D01*
X74141Y13632D01*
Y3007D01*
X69718D01*
Y13632D01*
X69593Y13933D01*
X69291Y14058D01*
X64567D01*
X64266Y13933D01*
X64141Y13632D01*
Y3007D01*
X59718D01*
Y13632D01*
X59593Y13933D01*
X59291Y14058D01*
X54567D01*
X54266Y13933D01*
X54141Y13632D01*
Y3007D01*
X49819D01*
Y6242D01*
X43882D01*
Y4610D01*
X43420Y4418D01*
X22907Y24932D01*
X23098Y25394D01*
X23425D01*
Y27953D01*
X22129D01*
X22069Y28043D01*
X22336Y28543D01*
X23425D01*
Y29184D01*
X24158D01*
Y28039D01*
X28992D01*
Y30035D01*
X28386D01*
Y33209D01*
X27214D01*
Y39158D01*
X27027Y39610D01*
X25530Y41107D01*
X25166Y41258D01*
X25000Y41506D01*
X24609Y41767D01*
X24148Y41859D01*
X23687Y41767D01*
X23297Y41506D01*
X23036Y41116D01*
X22944Y40655D01*
X23036Y40194D01*
X23297Y39803D01*
X23687Y39542D01*
X24148Y39450D01*
X24609Y39542D01*
X25000Y39803D01*
X25023Y39805D01*
X25936Y38893D01*
Y33209D01*
X24895D01*
X24575Y33631D01*
X24733Y33866D01*
X24824Y34327D01*
X24733Y34788D01*
X24472Y35178D01*
X24081Y35440D01*
X23620Y35531D01*
X23332Y35474D01*
X23085Y35935D01*
X23533Y36382D01*
X20749Y39166D01*
X15460Y33877D01*
X18244Y31093D01*
Y31093D01*
X18541Y30716D01*
X18384Y30481D01*
X18331Y30215D01*
X17824Y30018D01*
X17821Y30018D01*
X10172Y37666D01*
X10337Y38209D01*
X10500Y38241D01*
X10891Y38502D01*
X11152Y38893D01*
X11244Y39354D01*
X11152Y39815D01*
X10891Y40205D01*
X10942Y40766D01*
X13390Y43214D01*
X13797Y43016D01*
X13858Y42975D01*
X13947Y42527D01*
X14208Y42137D01*
X14598Y41876D01*
X15059Y41784D01*
X15310Y41834D01*
X16657Y40486D01*
X17109Y40299D01*
X19996D01*
X20138Y40086D01*
X20528Y39825D01*
X20989Y39734D01*
X21450Y39825D01*
X21841Y40086D01*
X22102Y40477D01*
X22194Y40938D01*
X22102Y41399D01*
X21841Y41789D01*
X21450Y42050D01*
X20989Y42142D01*
X20528Y42050D01*
X20138Y41789D01*
X19996Y41577D01*
X17374D01*
X16214Y42738D01*
X16263Y42988D01*
X16172Y43449D01*
X16167Y43456D01*
X16435Y43956D01*
X26019D01*
X26471Y44143D01*
X29180Y46852D01*
X29431Y46802D01*
X29891Y46894D01*
X30282Y47155D01*
X30390Y47316D01*
X30890Y47164D01*
Y46860D01*
X32669D01*
Y49427D01*
X30890D01*
Y48849D01*
X30390Y48697D01*
X30282Y48858D01*
X29891Y49119D01*
X29431Y49211D01*
X29115Y49148D01*
X29068Y49154D01*
X28693Y49364D01*
X28582Y49461D01*
X28571Y49520D01*
X28562Y49532D01*
X28437Y49902D01*
X28562Y50271D01*
X28571Y50283D01*
X28632Y50591D01*
X28571Y50898D01*
X28552Y50925D01*
X28544Y50966D01*
X28523Y50998D01*
X28515Y51035D01*
X28492Y51070D01*
X28485Y51103D01*
X28456Y51147D01*
X28451Y51171D01*
X28413Y51228D01*
X28411Y51240D01*
X28182Y51582D01*
X28178Y51585D01*
X28123Y51666D01*
X28104Y51679D01*
X28056Y51751D01*
X28020Y51775D01*
X27979Y51836D01*
X27922Y51874D01*
X27891Y51920D01*
X27805Y51978D01*
X27787Y52005D01*
X27719Y52050D01*
X27715Y52056D01*
X27282Y52345D01*
X27277Y52346D01*
X27221Y52384D01*
X27206Y52387D01*
X27125Y52441D01*
X27077Y52450D01*
X27034Y52479D01*
X26958Y52494D01*
X26923Y52517D01*
X26763Y52549D01*
X26754Y52556D01*
X26623Y52582D01*
Y53445D01*
X26436Y53897D01*
X25872Y54462D01*
X26061Y54962D01*
X26961D01*
Y57458D01*
X27961D01*
Y54962D01*
X29878D01*
Y54962D01*
X30220Y54883D01*
X30220Y54883D01*
X30345Y54883D01*
X32177D01*
Y57418D01*
X33177D01*
Y54883D01*
X35134D01*
Y54883D01*
X35236Y55036D01*
X39921D01*
Y61296D01*
X39616D01*
Y66126D01*
X40051D01*
Y68405D01*
X41051D01*
Y66126D01*
X41487D01*
Y61296D01*
X41181D01*
Y55036D01*
X42884D01*
Y53853D01*
X41419Y52388D01*
X38189D01*
Y47467D01*
X41535D01*
Y50941D01*
X41954Y51115D01*
X43976Y53137D01*
X44163Y53589D01*
Y55036D01*
X45866D01*
X46123Y54643D01*
Y53977D01*
X47923D01*
Y56198D01*
Y58418D01*
X46123D01*
X45866Y58812D01*
Y61296D01*
X42765D01*
Y66732D01*
X43823D01*
X44128Y66232D01*
X44071Y65949D01*
X44163Y65488D01*
X44424Y65097D01*
X44815Y64836D01*
X45276Y64745D01*
X45736Y64836D01*
X46127Y65097D01*
X46388Y65488D01*
X46480Y65949D01*
X46424Y66232D01*
X46728Y66732D01*
X50936D01*
Y64416D01*
X49564D01*
Y61676D01*
X48958D01*
Y60191D01*
X51139D01*
Y59191D01*
X48958D01*
Y58418D01*
X48923D01*
Y56198D01*
Y53977D01*
X50722D01*
Y54584D01*
X53580D01*
Y57812D01*
X53580D01*
X53519Y57903D01*
X53542Y57959D01*
X53894Y58313D01*
X54830D01*
Y57717D01*
X54550D01*
Y54488D01*
X57408D01*
Y53882D01*
X59207D01*
Y56102D01*
X59707D01*
Y56602D01*
X62007D01*
Y58323D01*
X62241Y58680D01*
X62549Y58784D01*
X62919Y58659D01*
X62931Y58651D01*
X63238Y58590D01*
X63545Y58651D01*
X63573Y58669D01*
X63614Y58677D01*
X63645Y58699D01*
X63682Y58706D01*
X63718Y58730D01*
X63751Y58736D01*
X63795Y58766D01*
X63819Y58771D01*
X63876Y58809D01*
X63888Y58811D01*
X64229Y59039D01*
X64232Y59044D01*
X64314Y59098D01*
X64326Y59117D01*
X64399Y59165D01*
X64423Y59202D01*
X64483Y59242D01*
X64522Y59300D01*
X64568Y59330D01*
X64626Y59417D01*
X64653Y59435D01*
X64698Y59502D01*
X64704Y59506D01*
X64993Y59939D01*
X64994Y59945D01*
X65031Y60000D01*
X65034Y60016D01*
X65088Y60097D01*
X65098Y60145D01*
X65127Y60188D01*
X65142Y60264D01*
X65165Y60298D01*
X65197Y60458D01*
X65203Y60468D01*
X65229Y60598D01*
X66313D01*
X66429Y60425D01*
X66819Y60164D01*
X67280Y60072D01*
X67741Y60164D01*
X68132Y60425D01*
X68393Y60816D01*
X68484Y61277D01*
X68393Y61737D01*
X68132Y62128D01*
X67741Y62389D01*
X67280Y62481D01*
X66819Y62389D01*
X66429Y62128D01*
X66261Y61876D01*
X65229D01*
X65203Y62007D01*
X65197Y62016D01*
X65165Y62176D01*
X65142Y62211D01*
X65127Y62287D01*
X65098Y62330D01*
X65088Y62377D01*
X65034Y62458D01*
X65031Y62474D01*
X64994Y62530D01*
X64993Y62535D01*
X64704Y62968D01*
X64698Y62972D01*
X64653Y63040D01*
X64626Y63058D01*
X64568Y63144D01*
X64522Y63175D01*
X64483Y63232D01*
X64423Y63273D01*
X64399Y63309D01*
X64326Y63357D01*
X64314Y63376D01*
X64232Y63431D01*
X64229Y63435D01*
X63888Y63663D01*
X63876Y63666D01*
X63819Y63704D01*
X63795Y63709D01*
X63751Y63738D01*
X63718Y63744D01*
X63682Y63768D01*
X63645Y63776D01*
X63614Y63797D01*
X63573Y63805D01*
X63545Y63823D01*
X63238Y63885D01*
X62931Y63823D01*
X62919Y63815D01*
X62549Y63690D01*
X62180Y63815D01*
X62168Y63823D01*
X61860Y63885D01*
X61553Y63823D01*
X61525Y63805D01*
X61485Y63797D01*
X61453Y63776D01*
X61416Y63768D01*
X61380Y63744D01*
X61348Y63738D01*
X61304Y63709D01*
X61279Y63704D01*
X61223Y63666D01*
X61211Y63663D01*
X61021Y63537D01*
X60606Y63710D01*
X60521Y63801D01*
Y65079D01*
X61205D01*
Y64472D01*
X63240D01*
Y66929D01*
Y69386D01*
X61205D01*
Y68779D01*
X60561D01*
Y70531D01*
X61205D01*
Y69925D01*
X63201D01*
Y72342D01*
X63701D01*
Y72843D01*
X66197D01*
Y74518D01*
X68117D01*
X68569Y74705D01*
X69802Y75938D01*
X70472D01*
X70867Y75683D01*
Y73173D01*
X71851D01*
Y71760D01*
X73678D01*
X75505D01*
Y73173D01*
X75859D01*
Y73779D01*
X78301D01*
X78324Y73770D01*
X82143D01*
Y73327D01*
X85883D01*
X86073Y72906D01*
Y72764D01*
X85883Y72342D01*
X85573Y72342D01*
X82143D01*
Y71899D01*
X79229D01*
Y72874D01*
X76788D01*
Y69646D01*
X77369D01*
Y68543D01*
X76788D01*
Y65315D01*
X79229D01*
Y68543D01*
X78648D01*
Y69646D01*
X79229D01*
Y70621D01*
X82143D01*
Y70177D01*
X82550D01*
X82862Y69677D01*
X82808Y69410D01*
X82631Y69193D01*
X82143D01*
Y67028D01*
X85883Y67027D01*
X86073Y66607D01*
Y66464D01*
X85883Y66043D01*
X82143D01*
Y63878D01*
X84386D01*
X84577Y63416D01*
X83692Y62531D01*
X70534D01*
X68625Y64440D01*
X68675Y64690D01*
X68584Y65151D01*
X68322Y65542D01*
X67932Y65803D01*
X67471Y65895D01*
X67010Y65803D01*
X66776Y65646D01*
X66293Y65851D01*
X66276Y65868D01*
Y66429D01*
X64240D01*
Y64472D01*
X66276D01*
X66335Y64349D01*
X66358Y64229D01*
X66619Y63839D01*
X67010Y63578D01*
X67471Y63486D01*
X67721Y63536D01*
X69818Y61440D01*
X70270Y61252D01*
X83957D01*
X84409Y61440D01*
X87165Y64196D01*
X87352Y64648D01*
Y74803D01*
X87165Y75255D01*
X86489Y75931D01*
Y77059D01*
X84013D01*
Y78059D01*
X86489D01*
Y79248D01*
X86746Y79641D01*
X88760Y81655D01*
X89300Y81488D01*
D02*
G37*
G36*
X21857Y68285D02*
X21885Y68243D01*
X22275Y67982D01*
X22736Y67890D01*
X23197Y67982D01*
X23588Y68243D01*
X24146Y68179D01*
X24177Y68133D01*
X24568Y67871D01*
X25028Y67780D01*
X25492Y67362D01*
Y66732D01*
X27091D01*
X27395Y66232D01*
X27339Y65949D01*
X27431Y65488D01*
X27578Y65268D01*
X27353Y64768D01*
X25697D01*
X25620Y65151D01*
X25359Y65542D01*
X24969Y65803D01*
X24508Y65895D01*
X24047Y65803D01*
X23656Y65542D01*
X23395Y65151D01*
X23304Y64690D01*
X23395Y64229D01*
X23656Y63839D01*
X23691Y63489D01*
X23230Y63029D01*
X20433D01*
Y61857D01*
X19266D01*
Y62438D01*
X18717D01*
X18668Y62938D01*
X19063Y63016D01*
X19454Y63278D01*
X19715Y63668D01*
X19807Y64129D01*
X19715Y64590D01*
X19454Y64981D01*
X19063Y65242D01*
X18602Y65333D01*
X18352Y65284D01*
X17620Y66015D01*
X17866Y66476D01*
X18012Y66447D01*
X18319Y66508D01*
X18331Y66517D01*
X18701Y66641D01*
X19070Y66517D01*
X19083Y66508D01*
X19390Y66447D01*
X19697Y66508D01*
X19724Y66527D01*
X19765Y66535D01*
X19797Y66556D01*
X19834Y66563D01*
X19870Y66587D01*
X19902Y66594D01*
X19946Y66623D01*
X19971Y66628D01*
X20027Y66666D01*
X20039Y66668D01*
X20381Y66897D01*
X20384Y66901D01*
X20466Y66956D01*
X20478Y66974D01*
X20550Y67023D01*
X20575Y67059D01*
X20635Y67099D01*
X20674Y67157D01*
X20720Y67188D01*
X20777Y67274D01*
X20804Y67292D01*
X20849Y67359D01*
X20855Y67363D01*
X21145Y67796D01*
X21146Y67802D01*
X21183Y67857D01*
X21186Y67873D01*
X21240Y67954D01*
X21250Y68002D01*
X21278Y68045D01*
X21293Y68121D01*
X21317Y68155D01*
X21322Y68185D01*
X21662Y68300D01*
X21857Y68285D01*
D02*
G37*
G36*
X13333Y60026D02*
X13794Y59935D01*
X13994Y59974D01*
X14145Y59826D01*
X14309Y59527D01*
X14162Y59174D01*
Y55031D01*
X14349Y54579D01*
X15905Y53024D01*
X15771Y52823D01*
X15768Y52811D01*
X15731Y52754D01*
X15726Y52730D01*
X15696Y52686D01*
X15690Y52653D01*
X15666Y52618D01*
X15658Y52581D01*
X15637Y52549D01*
X15629Y52508D01*
X15611Y52481D01*
X15550Y52174D01*
X15611Y51866D01*
X15619Y51854D01*
X15744Y51485D01*
X15619Y51115D01*
X15611Y51103D01*
X15550Y50796D01*
X15611Y50488D01*
X15629Y50461D01*
X15637Y50420D01*
X15658Y50388D01*
X15666Y50352D01*
X15690Y50316D01*
X15696Y50283D01*
X15726Y50239D01*
X15731Y50215D01*
X15768Y50158D01*
X15771Y50146D01*
X15999Y49804D01*
X16004Y49801D01*
X16058Y49720D01*
X16077Y49707D01*
X16125Y49635D01*
X16161Y49611D01*
X16202Y49550D01*
X16260Y49512D01*
X16290Y49466D01*
X16376Y49408D01*
X16395Y49381D01*
X16462Y49336D01*
X16466Y49330D01*
X16899Y49041D01*
X16905Y49040D01*
X16960Y49003D01*
X16976Y49000D01*
X17057Y48945D01*
X17105Y48936D01*
X17148Y48907D01*
X17223Y48892D01*
X17258Y48869D01*
X17418Y48837D01*
X17427Y48831D01*
X17980Y48721D01*
X18097D01*
X18197Y48701D01*
X18297Y48721D01*
X18414D01*
X18967Y48831D01*
X18976Y48837D01*
X19136Y48869D01*
X19171Y48892D01*
X19247Y48907D01*
X19263Y48918D01*
X20706D01*
X20802Y48774D01*
X21193Y48513D01*
X21654Y48422D01*
X22114Y48513D01*
X22505Y48774D01*
X22647Y48987D01*
X23382D01*
X23398Y48905D01*
X23416Y48878D01*
X23425Y48837D01*
X23446Y48805D01*
X23453Y48768D01*
X23477Y48733D01*
X23483Y48700D01*
X23513Y48656D01*
X23518Y48632D01*
X23556Y48575D01*
X23558Y48563D01*
X23786Y48221D01*
X23791Y48219D01*
X23845Y48137D01*
X23864Y48124D01*
X23912Y48052D01*
X23949Y48028D01*
X23989Y47967D01*
X24047Y47929D01*
X24078Y47883D01*
X24164Y47825D01*
X24182Y47798D01*
X24249Y47753D01*
X24253Y47747D01*
X24686Y47458D01*
X24692Y47457D01*
X24747Y47420D01*
X24763Y47416D01*
X24844Y47362D01*
X24892Y47353D01*
X24935Y47324D01*
X25011Y47309D01*
X25045Y47286D01*
X25205Y47254D01*
X25215Y47248D01*
X25768Y47138D01*
X25884D01*
X25984Y47118D01*
X26084Y47138D01*
X26201D01*
X26754Y47248D01*
X26763Y47254D01*
X26923Y47286D01*
X26958Y47309D01*
X27034Y47324D01*
X27077Y47353D01*
X27125Y47362D01*
X27206Y47416D01*
X27221Y47420D01*
X27277Y47457D01*
X27282Y47458D01*
X27566Y47046D01*
X25754Y45234D01*
X16142D01*
X15832Y45734D01*
X15886Y46006D01*
X15794Y46467D01*
X15533Y46858D01*
X15142Y47119D01*
X14681Y47210D01*
X14221Y47119D01*
X13881Y46892D01*
X13458Y47315D01*
X10385Y44241D01*
X10031Y44595D01*
X9678Y44241D01*
X7857Y46062D01*
X5170Y43375D01*
X4974Y43251D01*
X4507Y43548D01*
Y59150D01*
X8071D01*
X8298Y59195D01*
X8733Y58821D01*
X8698Y58642D01*
X8866Y57797D01*
X9344Y57081D01*
X10061Y56602D01*
X10905Y56434D01*
X11750Y56602D01*
X12467Y57081D01*
X12945Y57797D01*
X13113Y58642D01*
X12945Y59487D01*
X12707Y59843D01*
X13068Y60203D01*
X13333Y60026D01*
D02*
G37*
G36*
X106504Y11165D02*
X108224D01*
Y11721D01*
X108622Y11969D01*
X109794D01*
Y11406D01*
X109596Y11244D01*
X109136Y11152D01*
X108745Y10891D01*
X108484Y10500D01*
X108392Y10039D01*
X108484Y9578D01*
X108587Y9425D01*
X102237Y3075D01*
X101707Y3099D01*
X101597Y3243D01*
X101473Y3507D01*
X101549Y3889D01*
X101457Y4350D01*
X101343Y4520D01*
X101476Y5020D01*
X101476D01*
Y5558D01*
X101750Y5763D01*
X101976Y5861D01*
X102362Y5784D01*
X102823Y5876D01*
X103214Y6137D01*
X103475Y6527D01*
X103566Y6988D01*
X103475Y7449D01*
X103214Y7840D01*
X102823Y8101D01*
X102506Y8164D01*
X102333Y8240D01*
X102083Y8647D01*
Y9539D01*
X100345D01*
Y10539D01*
X102199D01*
X102362Y10804D01*
X102823Y10896D01*
X103214Y11157D01*
X103284Y11261D01*
X103784Y11165D01*
Y11165D01*
X105504D01*
Y12992D01*
X106504D01*
Y11165D01*
D02*
G37*
%LPC*%
G36*
X66098Y138968D02*
X63827D01*
Y136697D01*
X66098D01*
Y138968D01*
D02*
G37*
G36*
X80811Y135758D02*
X80350Y135666D01*
X79959Y135405D01*
X79698Y135015D01*
X79607Y134554D01*
X79698Y134093D01*
X79959Y133702D01*
X80350Y133441D01*
X80811Y133350D01*
X81272Y133441D01*
X81663Y133702D01*
X81924Y134093D01*
X82015Y134554D01*
X81924Y135015D01*
X81663Y135405D01*
X81272Y135666D01*
X80811Y135758D01*
D02*
G37*
G36*
X69966Y136781D02*
X69506Y136689D01*
X69115Y136428D01*
X68854Y136037D01*
X68762Y135576D01*
X68854Y135116D01*
X69115Y134725D01*
X69327Y134583D01*
Y125653D01*
X69165Y125620D01*
X68774Y125359D01*
X68513Y124969D01*
X68422Y124508D01*
X68513Y124047D01*
X68774Y123656D01*
X69165Y123395D01*
X69626Y123304D01*
X70087Y123395D01*
X70477Y123656D01*
X70739Y124047D01*
X70830Y124508D01*
X70739Y124969D01*
X70606Y125168D01*
X70606Y125168D01*
Y134583D01*
X70818Y134725D01*
X71079Y135116D01*
X71171Y135576D01*
X71079Y136037D01*
X70818Y136428D01*
X70427Y136689D01*
X69966Y136781D01*
D02*
G37*
G36*
X33563Y124708D02*
X33102Y124617D01*
X32711Y124355D01*
X32450Y123965D01*
X32359Y123504D01*
X32450Y123043D01*
X32711Y122652D01*
X33102Y122391D01*
X33563Y122300D01*
X34024Y122391D01*
X34414Y122652D01*
X34676Y123043D01*
X34767Y123504D01*
X34676Y123965D01*
X34414Y124355D01*
X34024Y124617D01*
X33563Y124708D01*
D02*
G37*
G36*
X30955Y122858D02*
X30494Y122766D01*
X30103Y122505D01*
X29842Y122114D01*
X29750Y121653D01*
X29842Y121193D01*
X30103Y120802D01*
X30494Y120541D01*
X30955Y120449D01*
X31416Y120541D01*
X31806Y120802D01*
X32067Y121193D01*
X32159Y121653D01*
X32067Y122114D01*
X31806Y122505D01*
X31416Y122766D01*
X30955Y122858D01*
D02*
G37*
G36*
X49154Y120760D02*
X48279D01*
X48296Y120676D01*
X48626Y120181D01*
X49121Y119851D01*
X49154Y119844D01*
Y120760D01*
D02*
G37*
G36*
X51131D02*
X50256D01*
Y119844D01*
X50288Y119851D01*
X50783Y120181D01*
X51114Y120676D01*
X51131Y120760D01*
D02*
G37*
G36*
X34602Y119681D02*
X32685D01*
Y117685D01*
X34602D01*
Y119681D01*
D02*
G37*
G36*
X31685D02*
X29768D01*
Y117685D01*
X31685D01*
Y119681D01*
D02*
G37*
G36*
X40508Y119681D02*
X38591D01*
Y117685D01*
X40508D01*
Y119681D01*
D02*
G37*
G36*
X37591D02*
X35673D01*
Y117685D01*
X37591D01*
Y119681D01*
D02*
G37*
G36*
X49500Y118147D02*
X47780D01*
Y116820D01*
X49500D01*
Y118147D01*
D02*
G37*
G36*
X102096Y117838D02*
X101635Y117746D01*
X101244Y117485D01*
X100983Y117095D01*
X100892Y116634D01*
X100983Y116173D01*
X101244Y115782D01*
X101635Y115521D01*
X102096Y115430D01*
X102557Y115521D01*
X102947Y115782D01*
X103208Y116173D01*
X103300Y116634D01*
X103208Y117095D01*
X102947Y117485D01*
X102557Y117746D01*
X102096Y117838D01*
D02*
G37*
G36*
X99580Y119485D02*
X95930D01*
Y114655D01*
X99580D01*
Y119485D01*
D02*
G37*
G36*
X49500Y115820D02*
X47780D01*
Y114493D01*
X49500D01*
Y115820D01*
D02*
G37*
G36*
X105071Y112122D02*
X102799D01*
Y109851D01*
X105071D01*
Y112122D01*
D02*
G37*
G36*
X99580Y113655D02*
X95930D01*
Y108824D01*
X99580D01*
Y113655D01*
D02*
G37*
G36*
X92280Y122455D02*
X87359D01*
X87058Y122330D01*
X86933Y122029D01*
Y109825D01*
X87058Y109523D01*
X87359Y109398D01*
X91280D01*
Y108824D01*
X94930D01*
Y114155D01*
Y119485D01*
X92706D01*
Y122029D01*
X92582Y122330D01*
X92280Y122455D01*
D02*
G37*
G36*
X108343Y112122D02*
X106071D01*
Y109351D01*
Y106579D01*
X108343D01*
Y107887D01*
X108843Y108039D01*
X109010Y107789D01*
X109726Y107310D01*
X110571Y107142D01*
X111416Y107310D01*
X112132Y107789D01*
X112610Y108505D01*
X112778Y109350D01*
X112610Y110195D01*
X112132Y110911D01*
X111416Y111390D01*
X110571Y111558D01*
X109726Y111390D01*
X109010Y110911D01*
X108843Y110662D01*
X108343Y110813D01*
Y112122D01*
D02*
G37*
G36*
X105071Y108851D02*
X102799D01*
Y106579D01*
X105071D01*
Y108851D01*
D02*
G37*
G36*
X86587Y105509D02*
X85497D01*
Y102253D01*
X86587D01*
Y105509D01*
D02*
G37*
G36*
Y101253D02*
X85497D01*
Y97997D01*
X86587D01*
Y101253D01*
D02*
G37*
G36*
X84497Y105509D02*
X83528D01*
Y101753D01*
Y97997D01*
X84497D01*
Y101753D01*
Y105509D01*
D02*
G37*
G36*
X82528D02*
X81560D01*
Y101753D01*
Y97997D01*
X82528D01*
Y101753D01*
Y105509D01*
D02*
G37*
G36*
X75505Y82535D02*
X74178D01*
Y80815D01*
X75505D01*
Y82535D01*
D02*
G37*
G36*
X73178D02*
X71851D01*
Y80815D01*
X73178D01*
Y82535D01*
D02*
G37*
G36*
X15693Y92481D02*
X14366D01*
Y90761D01*
X15693D01*
Y92481D01*
D02*
G37*
G36*
X13366D02*
X12040D01*
Y90761D01*
X13366D01*
Y92481D01*
D02*
G37*
G36*
X6685Y86925D02*
X5201D01*
Y85244D01*
X6685D01*
Y86925D01*
D02*
G37*
G36*
Y84244D02*
X5201D01*
Y82563D01*
X6685D01*
Y84244D01*
D02*
G37*
G36*
X15721Y78008D02*
X13724D01*
Y76091D01*
X15721D01*
Y78008D01*
D02*
G37*
G36*
Y75090D02*
X13724D01*
Y73173D01*
X15721D01*
Y75090D01*
D02*
G37*
G36*
X66197Y71842D02*
X64201D01*
Y69925D01*
X66197D01*
Y71842D01*
D02*
G37*
G36*
X66276Y69386D02*
X64240D01*
Y67429D01*
X66276D01*
Y69386D01*
D02*
G37*
G36*
X75505Y70760D02*
X73678D01*
X71851D01*
Y69039D01*
Y67429D01*
X73678D01*
X75505D01*
Y69039D01*
Y70760D01*
D02*
G37*
G36*
Y66429D02*
X74178D01*
Y64709D01*
X75505D01*
Y66429D01*
D02*
G37*
G36*
X73178D02*
X71851D01*
Y64709D01*
X73178D01*
Y66429D01*
D02*
G37*
G36*
X91134Y57398D02*
X88764D01*
Y54831D01*
X91134D01*
Y57398D01*
D02*
G37*
G36*
X62007Y55602D02*
X60207D01*
Y53882D01*
X62007D01*
Y55602D01*
D02*
G37*
G36*
X91134Y53831D02*
X88764D01*
Y51264D01*
X91134D01*
Y53831D01*
D02*
G37*
G36*
X35449Y52994D02*
X33669D01*
Y50427D01*
X35449D01*
Y52994D01*
D02*
G37*
G36*
X32669D02*
X30890D01*
Y50427D01*
X32669D01*
Y52994D01*
D02*
G37*
G36*
X76653Y52903D02*
X71535D01*
Y48179D01*
X76653D01*
Y52903D01*
D02*
G37*
G36*
X62323D02*
X57205D01*
Y48179D01*
X62323D01*
Y52903D01*
D02*
G37*
G36*
X35449Y49427D02*
X33669D01*
Y46860D01*
X35449D01*
Y49427D01*
D02*
G37*
G36*
X125055Y42614D02*
X123335D01*
Y41287D01*
X125055D01*
Y42614D01*
D02*
G37*
G36*
X122335D02*
X120614D01*
Y41287D01*
X122335D01*
Y42614D01*
D02*
G37*
G36*
X125055Y40287D02*
X123335D01*
Y38961D01*
X125055D01*
Y40287D01*
D02*
G37*
G36*
X122335D02*
X120614D01*
Y38961D01*
X122335D01*
Y40287D01*
D02*
G37*
G36*
X49819Y40616D02*
X47350D01*
Y35589D01*
X49819D01*
Y40616D01*
D02*
G37*
G36*
X46350D02*
X43882D01*
Y35589D01*
X46350D01*
Y40616D01*
D02*
G37*
G36*
X89976D02*
X87508D01*
Y35589D01*
X89976D01*
Y40616D01*
D02*
G37*
G36*
X86508D02*
X84039D01*
Y35589D01*
X86508D01*
Y40616D01*
D02*
G37*
G36*
X128057Y35753D02*
X127597Y35662D01*
X127206Y35401D01*
X126945Y35010D01*
X126853Y34549D01*
X126816Y34504D01*
X126307D01*
Y32587D01*
X128303D01*
Y33394D01*
X128518Y33436D01*
X128909Y33697D01*
X129170Y34088D01*
X129262Y34549D01*
X129170Y35010D01*
X128909Y35401D01*
X128518Y35662D01*
X128057Y35753D01*
D02*
G37*
G36*
X69291Y43586D02*
X64567D01*
X64266Y43461D01*
X64141Y43159D01*
Y31742D01*
X64266Y31441D01*
X64567Y31316D01*
X69291D01*
X69593Y31441D01*
X69718Y31742D01*
Y43159D01*
X69593Y43461D01*
X69291Y43586D01*
D02*
G37*
G36*
X79291Y43586D02*
X74567D01*
X74265Y43461D01*
X74141Y43159D01*
Y31742D01*
X74265Y31441D01*
X74567Y31316D01*
X79291D01*
X79593Y31441D01*
X79717Y31742D01*
Y43159D01*
X79593Y43461D01*
X79291Y43586D01*
D02*
G37*
G36*
X59291Y43586D02*
X54567D01*
X54265Y43461D01*
X54141Y43159D01*
Y31742D01*
X54265Y31441D01*
X54567Y31316D01*
X59291D01*
X59593Y31441D01*
X59717Y31742D01*
Y43159D01*
X59593Y43461D01*
X59291Y43586D01*
D02*
G37*
G36*
X96571Y33063D02*
X94201D01*
Y30496D01*
X96571D01*
Y33063D01*
D02*
G37*
G36*
X93201D02*
X90831D01*
Y30496D01*
X93201D01*
Y33063D01*
D02*
G37*
G36*
X49819Y34589D02*
X43882D01*
Y29561D01*
X44669D01*
Y27911D01*
X50606D01*
Y29986D01*
X49819D01*
Y34589D01*
D02*
G37*
G36*
X96571Y29496D02*
X94201D01*
Y26929D01*
X96571D01*
Y29496D01*
D02*
G37*
G36*
X93201D02*
X90831D01*
Y26929D01*
X93201D01*
Y29496D01*
D02*
G37*
G36*
X109480Y28437D02*
X107484D01*
Y26520D01*
X109480D01*
Y28437D01*
D02*
G37*
G36*
X89976Y34589D02*
X87008D01*
X84039D01*
Y29805D01*
X83858Y29380D01*
X83858Y29136D01*
Y28051D01*
X83495D01*
X83043Y27863D01*
X82802Y27622D01*
X82709Y27397D01*
X82567Y27369D01*
X82177Y27108D01*
X81916Y26717D01*
X81824Y26256D01*
X81916Y25795D01*
X82177Y25405D01*
X82567Y25144D01*
X83028Y25052D01*
X83489Y25144D01*
X83880Y25405D01*
X83906Y25443D01*
X88583D01*
X88583Y29380D01*
X89008Y29561D01*
X89976D01*
Y34589D01*
D02*
G37*
G36*
X28992Y27039D02*
X27075D01*
Y25043D01*
X28992D01*
Y27039D01*
D02*
G37*
G36*
X26075D02*
X24158D01*
Y25043D01*
X26075D01*
Y27039D01*
D02*
G37*
G36*
X50606Y26911D02*
X44669D01*
Y24837D01*
X44851D01*
X45276Y24656D01*
X45276Y24091D01*
X44827Y23809D01*
X44776Y23807D01*
X44350Y23891D01*
X43890Y23800D01*
X43499Y23539D01*
X43238Y23148D01*
X43146Y22687D01*
X43238Y22226D01*
X43499Y21836D01*
X43890Y21574D01*
X44350Y21483D01*
X44776Y21567D01*
X44827Y21565D01*
X45276Y21283D01*
Y20719D01*
X50000D01*
X50000Y24656D01*
X50425Y24837D01*
X50606D01*
Y26911D01*
D02*
G37*
G36*
X100886Y41168D02*
X95965D01*
Y35853D01*
X97786D01*
Y32457D01*
X97146D01*
Y27536D01*
X98869D01*
Y25993D01*
X98656Y25852D01*
X98395Y25461D01*
X98304Y25000D01*
X98395Y24539D01*
X98656Y24148D01*
X99047Y23887D01*
X99508Y23796D01*
X99969Y23887D01*
X100359Y24148D01*
X100620Y24539D01*
X100712Y25000D01*
X100620Y25461D01*
X100359Y25852D01*
X100147Y25993D01*
Y27536D01*
X101673D01*
Y32457D01*
X99064D01*
Y35853D01*
X100886D01*
Y41168D01*
D02*
G37*
G36*
X101433Y23087D02*
X99516D01*
Y21091D01*
X101433D01*
Y23087D01*
D02*
G37*
G36*
X98516D02*
X96598D01*
Y21091D01*
X98516D01*
Y23087D01*
D02*
G37*
G36*
X95626Y22398D02*
X93906D01*
Y21071D01*
X95626D01*
Y22398D01*
D02*
G37*
G36*
X88583Y24656D02*
X83858D01*
Y20719D01*
X88583D01*
Y24656D01*
D02*
G37*
G36*
X35012Y21144D02*
X33016D01*
Y19227D01*
X35012D01*
Y21144D01*
D02*
G37*
G36*
X95626Y20071D02*
X93906D01*
Y18744D01*
X95626D01*
Y20071D01*
D02*
G37*
G36*
X58366Y20889D02*
X57905Y20798D01*
X57515Y20537D01*
X57254Y20146D01*
X57162Y19685D01*
X57254Y19224D01*
X57515Y18834D01*
X57905Y18573D01*
X58366Y18481D01*
X58827Y18573D01*
X59218Y18834D01*
X59479Y19224D01*
X59570Y19685D01*
X59479Y20146D01*
X59218Y20537D01*
X58827Y20798D01*
X58366Y20889D01*
D02*
G37*
G36*
X112850Y20134D02*
X110933D01*
Y18138D01*
X112850D01*
Y20134D01*
D02*
G37*
G36*
X35012Y18226D02*
X33016D01*
Y16309D01*
X35012D01*
Y18226D01*
D02*
G37*
G36*
X81890Y20767D02*
X81429Y20676D01*
X81038Y20415D01*
X80777Y20024D01*
X80686Y19563D01*
X80777Y19102D01*
X81038Y18712D01*
X81429Y18451D01*
X81890Y18359D01*
X81996Y18380D01*
X82865Y17511D01*
X83317Y17323D01*
X83858D01*
Y15994D01*
X88583D01*
Y19931D01*
X83858D01*
Y19032D01*
X83358Y18825D01*
X83015Y19168D01*
X83094Y19563D01*
X83002Y20024D01*
X82741Y20415D01*
X82351Y20676D01*
X81890Y20767D01*
D02*
G37*
G36*
X38008Y21144D02*
X36012D01*
Y18726D01*
Y16309D01*
X37511D01*
X37688Y16309D01*
X37827Y16289D01*
X38172Y15921D01*
X38181Y15754D01*
X38179Y15717D01*
X38160Y15623D01*
X38087Y15256D01*
X38179Y14795D01*
X38440Y14404D01*
X38831Y14143D01*
X39291Y14052D01*
X39752Y14143D01*
X40143Y14404D01*
X40404Y14795D01*
X40496Y15256D01*
X40404Y15717D01*
X40143Y16107D01*
X39931Y16249D01*
Y16916D01*
X41181D01*
Y18087D01*
X45276D01*
Y15994D01*
X50000D01*
Y19931D01*
X45276D01*
Y19366D01*
X41181D01*
Y20538D01*
X38008D01*
Y21144D01*
D02*
G37*
G36*
X49819Y12270D02*
X47350D01*
Y7242D01*
X49819D01*
Y12270D01*
D02*
G37*
G36*
X46350D02*
X43882D01*
Y7242D01*
X46350D01*
Y12270D01*
D02*
G37*
G36*
X89976D02*
X87508D01*
Y7242D01*
X89976D01*
Y12270D01*
D02*
G37*
G36*
X86508D02*
X84039D01*
Y7242D01*
X86508D01*
Y12270D01*
D02*
G37*
G36*
X11284Y49489D02*
X8564Y46769D01*
X10031Y45302D01*
X12751Y48022D01*
X11284Y49489D01*
D02*
G37*
%LPD*%
D11*
X70270Y61892D02*
X83957D01*
X91634Y89280D02*
X93110Y90756D01*
X91634Y85433D02*
Y89280D01*
X86080Y79879D02*
X91634Y85433D01*
X85241Y78937D02*
X86080Y79775D01*
Y79879D01*
X81398Y78051D02*
X82284Y78937D01*
X85241D01*
X81398Y76968D02*
Y78051D01*
Y76968D02*
X82185Y76181D01*
X85335D02*
X86713Y74803D01*
X82185Y76181D02*
X85335D01*
X86713Y64648D02*
Y74803D01*
X83957Y61892D02*
X86713Y64648D01*
X97736Y16732D02*
Y16811D01*
X93976D02*
X97736D01*
X102657Y37303D02*
X106378D01*
X106398Y37323D01*
X119002Y25690D02*
X119989D01*
X122028Y27728D01*
Y32087D01*
X90453Y81745D02*
X91489Y80709D01*
X93461D01*
X90541Y78332D02*
Y79317D01*
X90354Y79504D02*
X90541Y79317D01*
X105208Y44575D02*
X105812Y45179D01*
X69626Y124828D02*
X69966Y125168D01*
Y135576D01*
X69626Y124508D02*
Y124828D01*
X80320Y85138D02*
X88407D01*
X78009Y80709D02*
Y82826D01*
X80320Y85138D01*
X88407D02*
X88444Y85101D01*
X115600Y37106D02*
X118445D01*
X120728Y33307D02*
Y34823D01*
X118445Y37106D02*
X120728Y34823D01*
X42126Y59564D02*
Y68405D01*
Y59564D02*
X43524Y58166D01*
X103300Y44956D02*
X104212Y45867D01*
X103300Y43039D02*
Y44956D01*
X87106Y54331D02*
X91634D01*
X84013Y68110D02*
Y69409D01*
X20940Y91339D02*
X22047Y90231D01*
X21457Y94095D02*
X21704D01*
X22393Y93405D01*
X23130Y92913D02*
X23917D01*
X22638Y93405D02*
X23130Y92913D01*
X22393Y93405D02*
X22638D01*
X19685Y87869D02*
Y88275D01*
X19488Y88472D02*
X19685Y88275D01*
X67471Y64690D02*
X70270Y61892D01*
X63652Y96300D02*
Y97161D01*
X63663D02*
X63910Y97408D01*
X63652Y97161D02*
X63663D01*
X27882Y114655D02*
Y115275D01*
X28949Y108930D02*
Y113847D01*
X26935Y115354D02*
X27803D01*
X27882Y115275D01*
X28142Y114655D02*
X28949Y113847D01*
X27882Y114655D02*
X28142D01*
X27677Y107659D02*
X28949Y108930D01*
X57339Y89764D02*
X57366D01*
X54035D02*
X57339D01*
X55849Y80784D02*
X57803D01*
X59951Y79209D02*
Y81761D01*
X59822Y81890D02*
X59951Y81761D01*
X57803Y80784D02*
X57814Y80795D01*
X59822Y79081D02*
X59951Y79209D01*
X59822Y77264D02*
Y79081D01*
X56024Y81890D02*
X56779Y82645D01*
X54035Y81890D02*
X56024D01*
X56779Y82645D02*
X56845D01*
X57481Y83957D02*
X58722D01*
X57415Y84023D02*
X57481Y83957D01*
X56274Y84023D02*
X57415D01*
X55716Y83465D02*
X56274Y84023D01*
X54035Y83465D02*
X55716D01*
X55618Y80552D02*
X55849Y80784D01*
X54035Y80315D02*
X54273Y80552D01*
X55618D01*
X54291Y78996D02*
X55691D01*
X56100Y79406D01*
X54035Y77165D02*
X59921D01*
X56100Y79406D02*
X56420D01*
X54035Y78740D02*
X54291Y78996D01*
X55495Y72146D02*
X55913Y71728D01*
X57054D02*
X57766Y72441D01*
X59823D01*
X54331Y72146D02*
X55495D01*
X54035Y72441D02*
X54331Y72146D01*
X55913Y71728D02*
X57054D01*
X45276Y65949D02*
Y68405D01*
X23543Y62438D02*
X24418Y63312D01*
X25787D01*
X25817Y63342D01*
X30915D01*
X24508Y64690D02*
X24768D01*
X25329Y64129D01*
X32672Y63402D02*
X35827Y66558D01*
X30650Y64190D02*
X30848D01*
X30915Y63342D02*
X30976Y63402D01*
X32672D01*
X30589Y64129D02*
X30650Y64190D01*
X25329Y64129D02*
X30589D01*
X32677Y66019D02*
Y68405D01*
X30848Y64190D02*
X32677Y66019D01*
X28543Y65949D02*
Y66158D01*
X29249Y66864D02*
Y68127D01*
X28543Y66158D02*
X29249Y66864D01*
Y68127D02*
X29528Y68405D01*
X26378D02*
Y68689D01*
X26083Y68984D02*
X26378Y68689D01*
X25028Y68984D02*
X26083D01*
X23130Y74016D02*
X23917D01*
X22638Y73524D02*
X23130Y74016D01*
X22393Y73524D02*
X22638D01*
X21457Y72587D02*
X22393Y73524D01*
X21457Y72441D02*
Y72587D01*
X19833Y78189D02*
X19888Y78133D01*
X21475D01*
X22278Y77330D01*
X23753D02*
X23917Y77165D01*
X22278Y77330D02*
X23753D01*
X5906Y61142D02*
X13791D01*
X13794Y61139D01*
X5906Y66142D02*
X13861D01*
X13866Y66147D01*
X5906Y71142D02*
X13593D01*
X13794Y71343D01*
X16936Y52321D02*
X17524D01*
X16807Y52450D02*
Y53026D01*
Y52450D02*
X16936Y52321D01*
X14801Y55031D02*
X16807Y53026D01*
X14801Y59174D02*
X16215Y60588D01*
X14801Y55031D02*
Y59174D01*
X19537Y69095D02*
Y70880D01*
X20000Y75590D02*
X23917D01*
X19537Y70880D02*
X20000Y71343D01*
Y75590D01*
X16585Y66147D02*
Y69095D01*
Y66147D02*
X18602Y64129D01*
X6398Y81418D02*
X7185Y82205D01*
X9744Y81890D02*
X15713D01*
X5931Y78076D02*
X9744Y81890D01*
X15713D02*
X18197Y79406D01*
X5906Y76142D02*
X5931Y76167D01*
Y78076D01*
X24148Y40655D02*
X25078D01*
X26575Y39158D01*
Y31319D02*
Y39158D01*
X34127Y101654D02*
X34934Y102461D01*
X37216Y100917D02*
X37303Y100830D01*
X32677Y100653D02*
X33678Y101654D01*
X34127D01*
X34934Y102461D02*
Y103237D01*
X35748Y104050D02*
X39089D01*
X37303Y98622D02*
Y100830D01*
X36081Y102435D02*
X36312Y102666D01*
X35827Y102435D02*
X36081D01*
X34252Y98524D02*
X34253Y98525D01*
Y100280D01*
X32677Y98524D02*
Y100653D01*
X35827Y98524D02*
Y102435D01*
X34253Y100280D02*
X34255Y100282D01*
X34934Y103237D02*
X35748Y104050D01*
X52461Y134547D02*
X52620D01*
X53543Y133624D01*
X117150Y32388D02*
X117376Y32162D01*
X116727Y32388D02*
X117150D01*
X115600Y33514D02*
X116727Y32388D01*
X115600Y33514D02*
Y35138D01*
X106205Y30866D02*
X108161D01*
X109597Y32302D01*
Y35138D01*
X26019Y44595D02*
X29431Y48006D01*
X13866Y44595D02*
X26019D01*
X10039Y39354D02*
Y40768D01*
X13866Y44595D01*
X17109Y40938D02*
X20989D01*
X15059Y42988D02*
X17109Y40938D01*
X17652Y98032D02*
X19621Y96063D01*
X23917D01*
X17573Y98032D02*
X17652D01*
X53543Y131988D02*
Y133624D01*
X54665Y128051D02*
X54780Y127937D01*
X55190D01*
X57033Y126094D01*
Y126087D02*
Y126094D01*
X55692Y130020D02*
X57769Y127942D01*
X53543Y130020D02*
X55692D01*
X36408Y131988D02*
X38878D01*
X36353Y131933D02*
X36408Y131988D01*
X80319Y82484D02*
X80320D01*
X82096Y80709D01*
X78009Y80315D02*
Y80709D01*
X77379Y81339D02*
X78009Y80709D01*
Y79921D02*
Y80315D01*
X77143Y75590D02*
Y79061D01*
X77373Y79291D01*
X77379D01*
X78009Y79921D01*
X77143Y75590D02*
X78324Y74409D01*
X84013D01*
X78009Y71260D02*
X84013D01*
X78009Y66929D02*
Y71260D01*
X84013Y69409D02*
Y71260D01*
X91314Y77559D02*
X93461D01*
X90541Y78332D02*
X91314Y77559D01*
X82096Y80709D02*
X84013D01*
X42361Y117441D02*
X44319Y115483D01*
X42361Y117441D02*
X42421D01*
X26181Y117864D02*
Y119562D01*
X26575Y119956D01*
Y120276D01*
X26181Y115748D02*
X26757D01*
X26935Y115354D02*
Y115570D01*
X26757Y115748D02*
X26935Y115570D01*
X26378Y106360D02*
Y106438D01*
X27598Y107659D01*
X27677D01*
X45276Y98524D02*
Y104255D01*
X44319Y113269D02*
Y113318D01*
Y113220D02*
Y113269D01*
Y113171D02*
Y113220D01*
Y113121D02*
Y113171D01*
Y113072D02*
Y113121D01*
Y113023D02*
Y113072D01*
Y112974D02*
Y113023D01*
Y112944D02*
Y112974D01*
Y112925D02*
Y112944D01*
Y112895D02*
Y112925D01*
Y112875D02*
Y112895D01*
Y112856D02*
Y112875D01*
Y112836D02*
Y112856D01*
Y112826D02*
Y112836D01*
Y110714D02*
Y112826D01*
X44181Y105350D02*
X45276Y104255D01*
X43851Y105350D02*
X44181D01*
X43248Y105952D02*
X43851Y105350D01*
X43248Y105952D02*
Y109643D01*
X44319Y110714D01*
X54306Y105286D02*
X54533Y105513D01*
X54306Y104710D02*
Y105286D01*
X54533Y105513D02*
X55108D01*
X53303D02*
X54533D01*
X50000Y111989D02*
X50394D01*
X51024Y111360D01*
Y110966D02*
Y111360D01*
Y110966D02*
X52210Y109779D01*
Y107830D02*
Y109779D01*
Y107830D02*
X52303Y107737D01*
X52280Y106533D02*
Y107348D01*
X52856Y105956D02*
X52860D01*
X52303Y107372D02*
Y107737D01*
X52860Y105956D02*
X53303Y105513D01*
X52280Y106533D02*
X52856Y105956D01*
X52280Y107348D02*
X52303Y107372D01*
X37106Y107830D02*
Y112343D01*
X38091Y113327D01*
X31398Y107830D02*
Y112539D01*
X32185Y113327D01*
X56481Y134567D02*
X58858D01*
X55674Y133760D02*
X56481Y134567D01*
X55666Y133760D02*
X55674D01*
X58858Y134567D02*
Y134646D01*
X49705Y135925D02*
X57407D01*
X57466Y135866D01*
X57638D01*
X58858Y134646D01*
X44862Y139764D02*
X45281Y139345D01*
Y137987D02*
Y139345D01*
Y137987D02*
X46752Y136516D01*
X43799Y134843D02*
Y138701D01*
X44862Y139764D01*
X79091Y97962D02*
Y101753D01*
X77123D02*
X79091D01*
X57093Y84990D02*
X58327D01*
X57044Y85039D02*
X57093Y84990D01*
X58327D02*
X58573Y85236D01*
X54035Y86614D02*
X54135Y86714D01*
X57697D01*
X57797Y86814D01*
X61726Y85942D02*
X62347D01*
X62942Y86538D02*
Y87386D01*
X61434Y85650D02*
X61726Y85942D01*
X61434Y84465D02*
Y85650D01*
X58722Y83957D02*
X60551Y85786D01*
Y88407D01*
X62347Y85942D02*
X62942Y86538D01*
X60388Y83419D02*
X61434Y84465D01*
X60551Y88407D02*
X60587Y88443D01*
X62498Y91805D02*
X63390D01*
X59012Y90296D02*
X61084Y92368D01*
X59800Y89162D02*
Y89970D01*
X61410Y91581D01*
X59012Y89488D02*
Y90296D01*
X57713Y88189D02*
X59012Y89488D01*
X60587Y89644D02*
X61737Y90793D01*
X60587Y88443D02*
Y89644D01*
X59764Y86112D02*
Y89126D01*
X59800Y89162D01*
X61737Y90793D02*
X62742D01*
X61621Y93156D02*
X66873Y98407D01*
X58289Y92913D02*
X61439Y96063D01*
X61295Y93943D02*
X63652Y96300D01*
X57366Y89764D02*
X60758Y93156D01*
X68933Y96588D02*
X69213D01*
X63390Y91805D02*
X64498Y92913D01*
X62966Y91018D02*
X63842D01*
X61439Y96063D02*
X61466D01*
X63064Y92593D02*
X64767Y94296D01*
X66929Y94584D02*
X68933Y96588D01*
X62742Y90793D02*
X62966Y91018D01*
X60758Y93156D02*
X61621D01*
X60432Y93943D02*
X61295D01*
X54035Y92913D02*
X58289D01*
X54035Y91339D02*
X57828D01*
X62172Y92593D02*
X63064D01*
X61084Y92368D02*
X61948D01*
X66929Y94509D02*
Y94584D01*
X62274Y91581D02*
X62498Y91805D01*
X57828Y91339D02*
X60432Y93943D01*
X61948Y92368D02*
X62172Y92593D01*
X69213Y96588D02*
X71217Y98592D01*
X64498Y92913D02*
X65333D01*
X61410Y91581D02*
X62274D01*
X63842Y91018D02*
X64950Y92126D01*
X54035Y88189D02*
X57713D01*
X67947Y94488D02*
X68031D01*
X67716Y94258D02*
X67947Y94488D01*
X67716Y94183D02*
Y94258D01*
X65659Y92126D02*
X67716Y94183D01*
X64950Y92126D02*
X65659D01*
X68031Y94488D02*
X68537Y94994D01*
X70621D01*
X65333Y92913D02*
X66929Y94509D01*
X74761Y101359D02*
X75154Y101753D01*
X74761Y99134D02*
Y101359D01*
X70621Y94994D02*
X74761Y99134D01*
X58573Y85236D02*
X58888D01*
X59764Y86112D01*
X71217Y98592D02*
Y101753D01*
X66873Y98407D02*
X68115D01*
X68461Y98753D02*
Y98796D01*
X68115Y98407D02*
X68461Y98753D01*
X68855Y101359D02*
X69249Y101753D01*
X68855Y99190D02*
Y101359D01*
X68461Y98796D02*
X68855Y99190D01*
X56243Y98721D02*
X57654D01*
X58343Y98032D01*
X62553D01*
X67280Y101197D02*
Y101753D01*
X66887Y100803D02*
X67280Y101197D01*
X66330Y100803D02*
X66887D01*
X64313Y98786D02*
X66330Y100803D01*
X63307Y98786D02*
X64313D01*
X62553Y98032D02*
X63307Y98786D01*
X60482Y100787D02*
X61860Y99409D01*
X60482Y100787D02*
Y106940D01*
X104212Y45972D02*
X107492Y49252D01*
X111463D01*
X112402Y48313D01*
X111189Y48412D02*
X111614Y47987D01*
Y41093D02*
Y47987D01*
X108673Y48465D02*
X110816D01*
X105812Y45604D02*
X108673Y48465D01*
X110816D02*
X110868Y48412D01*
X111189D01*
X112402Y43696D02*
Y48313D01*
X104212Y45867D02*
Y45972D01*
X105812Y45179D02*
Y45604D01*
X112402Y43696D02*
X113583Y42515D01*
Y41093D02*
Y42515D01*
X115600Y41043D02*
X115821Y40823D01*
X117376D01*
X106398Y37402D02*
Y43307D01*
Y37323D02*
Y37402D01*
X109744Y46260D02*
Y46654D01*
X109114Y45630D02*
X109744Y46260D01*
X108721Y45630D02*
X109114D01*
X106398Y43307D02*
X108721Y45630D01*
X115600Y37106D02*
Y39075D01*
X122028Y32087D02*
X122835Y32894D01*
Y36457D01*
X120728Y33307D02*
X121949Y32087D01*
X122028D01*
X109597Y39075D02*
Y41043D01*
X108150Y39075D02*
X109597D01*
X107697Y38622D02*
X108150Y39075D01*
X107618Y38622D02*
X107697D01*
X106398Y37402D02*
X107618Y38622D01*
X113583Y29193D02*
X113839Y28937D01*
X113583Y29193D02*
Y35089D01*
X29671Y45154D02*
X31619D01*
X33119Y46654D01*
Y49877D02*
X33169Y49927D01*
X33119Y46654D02*
Y49877D01*
X43524Y53589D02*
Y58166D01*
X39862Y49927D02*
Y50484D01*
X40945Y51567D01*
X41502D01*
X43524Y53589D01*
X55272Y63038D02*
X55469D01*
X54485Y63826D02*
X55272Y63038D01*
X54485Y63826D02*
Y64023D01*
X53547Y64961D02*
X54485Y64023D01*
X53543Y64961D02*
X53547D01*
X47638Y59363D02*
X47957D01*
X48286Y59691D02*
X51139D01*
X47957Y59363D02*
X48286Y59691D01*
X48423Y56198D02*
Y58542D01*
X47638Y59326D02*
X48423Y58542D01*
X47638Y59326D02*
Y59363D01*
X59707Y56102D02*
X62549D01*
X62612Y56039D01*
X81890Y19390D02*
Y19563D01*
X83317Y17963D02*
X86221D01*
X81890Y19390D02*
X83317Y17963D01*
X83495Y27411D02*
X86221D01*
X83254Y27170D02*
X83495Y27411D01*
X83254Y26482D02*
Y27170D01*
X83028Y26256D02*
X83254Y26482D01*
X87008Y35089D02*
X90404D01*
X90453Y35138D01*
X43248Y35089D02*
X46850D01*
X43248Y35089D02*
X43248Y35089D01*
X44037Y27411D02*
X47638D01*
X43909Y27539D02*
X44037Y27411D01*
X44350Y22687D02*
X47638D01*
X46850Y6742D02*
X50295D01*
X83028D02*
X87008D01*
X93701Y26877D02*
Y29996D01*
X93498Y26673D02*
X93701Y26877D01*
X97342Y54331D02*
X98425Y53248D01*
Y45006D02*
Y53248D01*
Y30981D02*
X99410Y29996D01*
X98425Y30981D02*
Y38510D01*
X99410Y29996D02*
X99508Y29898D01*
Y25000D02*
Y29898D01*
X98573Y11319D02*
X101673D01*
X102362Y12009D01*
X97047Y12056D02*
X98247Y13255D01*
X99771D01*
X103839Y17323D01*
X98327Y11073D02*
X98573Y11319D01*
X100345Y8071D02*
X100508Y7908D01*
X101443D01*
X102362Y6988D01*
X100345Y3889D02*
Y6102D01*
X97860Y4602D02*
X98327Y5069D01*
X97860Y4061D02*
Y4602D01*
X97688Y3889D02*
X97860Y4061D01*
X97688Y3451D02*
Y3889D01*
X97462Y3225D02*
X97688Y3451D01*
X96358Y5020D02*
Y5069D01*
X95866Y4528D02*
X96358Y5020D01*
X95817Y4528D02*
X95866D01*
X94985Y3696D02*
X95817Y4528D01*
X94129Y3696D02*
X94985D01*
X93976Y3543D02*
X94129Y3696D01*
X94340Y6102D02*
Y8071D01*
X91634D02*
X94340D01*
X100345Y10039D02*
X105890D01*
X106004Y10153D01*
X110433Y17638D02*
X112938D01*
X106004Y10153D02*
Y12992D01*
X110433Y10876D02*
Y13858D01*
X109597Y10039D02*
X110433Y10876D01*
X109620Y14671D02*
X110433Y13858D01*
X108656Y14671D02*
X109620D01*
X107028Y16299D02*
X108656Y14671D01*
X107028Y16299D02*
Y16693D01*
X106398Y17323D02*
X107028Y16693D01*
X106004Y17323D02*
X106398D01*
X96358Y11073D02*
Y11122D01*
X97047Y11811D01*
Y12056D01*
X103839Y17323D02*
X106004D01*
X93405Y16240D02*
X93976Y16811D01*
X94340Y10039D02*
Y15610D01*
X93711Y16240D02*
X94340Y15610D01*
X93405Y16240D02*
X93711D01*
X93461Y20627D02*
X93498Y20591D01*
X97736D01*
X93461Y20627D02*
Y22687D01*
X90453Y17323D02*
Y19563D01*
X91535Y16240D02*
X93405D01*
X90453Y17323D02*
X91535Y16240D01*
X94340Y10039D02*
X94454Y10153D01*
X39291Y15256D02*
Y18726D01*
X46874D01*
X47638Y17963D01*
X24099Y110139D02*
X26378D01*
X23784Y109825D02*
X24099Y110139D01*
X23465Y109825D02*
X23784D01*
X15146Y104464D02*
X15195D01*
X15097D02*
X15146D01*
X15047D02*
X15097D01*
X14998D02*
X15047D01*
X14949D02*
X14998D01*
X14900D02*
X14949D01*
X14851D02*
X14900D01*
X14821D02*
X14851D01*
X14801D02*
X14821D01*
X14772D02*
X14801D01*
X14752D02*
X14772D01*
X14732D02*
X14752D01*
X14713D02*
X14732D01*
X14703D02*
X14713D01*
X13833D02*
X14703D01*
X10827Y101457D02*
X13833Y104464D01*
X22475Y88189D02*
X23917D01*
X22047Y88617D02*
Y90231D01*
Y88617D02*
X22475Y88189D01*
X20940Y86614D02*
X23917D01*
X19685Y87869D02*
X20940Y86614D01*
X7185Y82205D02*
Y84744D01*
X10827Y84842D02*
X15157D01*
X10728Y84744D02*
X10827Y84842D01*
X18898D02*
X23720D01*
X23917Y85039D01*
X10031Y44595D02*
X10425Y44989D01*
Y46937D01*
X10031Y47331D02*
X10425Y46937D01*
X10031Y47331D02*
Y51485D01*
X8563Y52953D02*
X10031Y51485D01*
X26575Y24213D02*
Y27539D01*
Y24213D02*
X26673Y24114D01*
X19496Y29322D02*
X22146Y26673D01*
X19496Y29322D02*
Y30020D01*
X22146Y29823D02*
X25079D01*
X25276Y30020D01*
X25354D01*
X26575Y31240D01*
Y31319D01*
X19496Y35130D02*
X22146Y32480D01*
Y29823D02*
Y32480D01*
X25670Y48602D02*
X25984D01*
X24666Y49606D02*
X25670Y48602D01*
X18110Y49557D02*
X21585D01*
X23785Y49606D02*
X24666D01*
X23765Y49626D02*
X23785Y49606D01*
X21654Y49626D02*
X23765D01*
X21585Y49557D02*
X21654Y49626D01*
X17022Y60588D02*
X17652Y61217D01*
X16215Y60588D02*
X17022D01*
X22165Y61217D02*
X22244Y61139D01*
X17652Y61217D02*
X22165D01*
X35827Y66558D02*
Y68405D01*
X22244Y61139D02*
Y61217D01*
X23465Y62438D01*
X23543D01*
X25984Y51230D02*
Y53445D01*
Y51221D02*
Y51230D01*
Y51201D02*
Y51221D01*
Y51181D02*
Y51201D01*
Y51161D02*
Y51181D01*
Y51132D02*
Y51161D01*
Y51112D02*
Y51132D01*
Y51083D02*
Y51112D01*
Y51034D02*
Y51083D01*
Y50984D02*
Y51034D01*
Y50935D02*
Y50984D01*
Y50886D02*
Y50935D01*
Y50837D02*
Y50886D01*
Y50787D02*
Y50837D01*
Y50738D02*
Y50787D01*
X27461Y61158D02*
Y61237D01*
X26240Y59938D02*
X27461Y61158D01*
X26161Y59938D02*
X26240D01*
X25098Y58875D02*
X26161Y59938D01*
X25098Y54331D02*
Y58875D01*
Y54331D02*
X25984Y53445D01*
X27461Y54823D02*
Y57458D01*
Y54823D02*
X27953Y54331D01*
X27500Y57418D02*
X32677D01*
X27461Y57458D02*
X27500Y57418D01*
X27500Y61277D02*
X32677D01*
X27461Y61237D02*
X27500Y61277D01*
X37402Y66001D02*
Y68405D01*
X34016Y62615D02*
X37402Y66001D01*
X33937Y62615D02*
X34016D01*
X32677Y61355D02*
X33937Y62615D01*
X32677Y61277D02*
Y61355D01*
X38976Y59564D02*
Y68405D01*
X37579Y58166D02*
X38976Y59564D01*
X69566Y81465D02*
X69685Y81346D01*
X69566Y81465D02*
Y93613D01*
X67280Y85916D02*
Y87050D01*
X66461Y87869D02*
X67280Y87050D01*
X65482Y88189D02*
X65802Y87869D01*
X66461D01*
X66953Y80583D02*
X67716Y81346D01*
X66953Y79799D02*
Y80583D01*
X71217Y77736D02*
Y79036D01*
Y77736D02*
X72064Y76890D01*
X73284Y75590D02*
X73363D01*
X72064Y76811D02*
X73284Y75590D01*
X72064Y76811D02*
Y76890D01*
X71217Y79036D02*
X72399D01*
X69685D02*
X71217D01*
X67716D02*
X69685D01*
X72399D02*
X72654Y79291D01*
X73048D01*
X73678Y79921D01*
Y80315D01*
X67716Y76725D02*
Y79036D01*
X69685Y79036D02*
X69685Y79036D01*
X63681Y79799D02*
X66953D01*
X67716Y79036D01*
X63681Y81418D02*
X64153Y81890D01*
X63681Y79799D02*
Y81418D01*
X63701Y77165D02*
Y79780D01*
X63681Y79799D02*
X63701Y79780D01*
X63701Y69409D02*
Y72342D01*
X63681Y69390D02*
X63701Y69409D01*
X63681Y66988D02*
X63740Y66929D01*
X63681Y66988D02*
Y69390D01*
X63878Y61237D02*
X67241D01*
X67280Y61277D01*
X61762Y61237D02*
Y61813D01*
X61339Y61991D02*
X61584D01*
X61008D02*
X61339D01*
X61584D02*
X61762Y61813D01*
X59882Y63117D02*
X61008Y61991D01*
X59882Y63117D02*
Y66929D01*
X51139Y63038D02*
X51336D01*
X52123Y62251D01*
Y62054D02*
Y62251D01*
Y62054D02*
X53317Y60860D01*
Y59691D02*
Y60860D01*
X52989Y58166D02*
Y59363D01*
X53317Y59691D01*
X51887Y56198D02*
X52601Y56911D01*
Y57778D01*
X52989Y58166D01*
X55469Y56876D02*
Y59691D01*
Y56876D02*
X56243Y56102D01*
X51575Y63474D02*
Y68405D01*
X51139Y63038D02*
X51575Y63474D01*
X55469Y59691D02*
X55666D01*
X56453Y60479D01*
Y60676D01*
X57670Y61892D01*
Y64129D01*
X54035Y67763D02*
X57670Y64129D01*
X54035Y67763D02*
Y70866D01*
X59921Y66969D02*
Y72342D01*
X59882Y66929D02*
X59921Y66969D01*
X59823Y72441D02*
X59921Y72342D01*
X68117Y75157D02*
X69685Y76725D01*
X58180Y75157D02*
X68117D01*
X57748Y75590D02*
X58180Y75157D01*
X54035Y75590D02*
X57748D01*
X63415Y87613D02*
Y88189D01*
X63187Y87386D02*
X63415Y87613D01*
X62942Y87386D02*
X63187D01*
X60388Y82455D02*
Y83419D01*
X59822Y81890D02*
X60388Y82455D01*
X59822Y77264D02*
X59921Y77165D01*
X54035Y85039D02*
X57044D01*
X54035Y94488D02*
X57339D01*
X58914Y96063D01*
X54035D02*
X56243D01*
X55108Y107580D02*
X59842D01*
X60482Y106940D01*
X50000Y104050D02*
X53645D01*
X54306Y104710D01*
X58914Y99409D02*
X58914D01*
X56360Y101963D02*
X58914Y99409D01*
X50156Y101963D02*
X56360D01*
X48425Y100233D02*
X50156Y101963D01*
X48425Y98524D02*
Y100233D01*
X52989Y100840D02*
X55108Y98721D01*
X56243D01*
X51139Y100840D02*
X52989D01*
X50000Y98524D02*
X50295Y98819D01*
Y99996D01*
X51139Y100840D01*
X51575Y98524D02*
X52427D01*
X52989Y97962D01*
X53317D01*
X53543Y97736D01*
X46850Y98524D02*
Y100901D01*
X48701Y102751D01*
X48779D01*
X50000Y103971D01*
Y104050D01*
X41144Y102722D02*
Y102958D01*
Y102722D02*
X42126Y101740D01*
Y98524D02*
Y101740D01*
X43701Y98524D02*
Y101170D01*
X43690Y101181D02*
X43701Y101170D01*
X40551Y98524D02*
Y100939D01*
X38976Y98524D02*
Y102574D01*
X38878Y102672D02*
X38976Y102574D01*
X37303Y98622D02*
X37402Y98524D01*
X39089Y104050D02*
X41294Y106255D01*
X33465Y105271D02*
X35270Y107076D01*
X30906Y102636D02*
X32753Y104483D01*
X31102Y98524D02*
Y101181D01*
X36353Y107076D02*
X37106Y107830D01*
X33465Y104829D02*
Y105271D01*
X32753Y104483D02*
X33119D01*
X35270Y107076D02*
X36353D01*
X33119Y104483D02*
X33465Y104829D01*
X30906Y101378D02*
Y102636D01*
Y101378D02*
X31102Y101181D01*
X29528Y104429D02*
X30169Y105070D01*
X32185Y106251D02*
Y107087D01*
X29528Y98524D02*
Y104429D01*
X31004Y105070D02*
X32185Y106251D01*
X30169Y105070D02*
X31004D01*
X30906Y98721D02*
X31102Y98524D01*
X26378D02*
Y106360D01*
X16868Y102673D02*
Y104464D01*
X16906Y102636D02*
X17136D01*
X16868Y102673D02*
X16906Y102636D01*
X17136D02*
X17573Y102198D01*
Y98032D02*
Y102198D01*
X18197Y92981D02*
Y97408D01*
X17573Y98032D02*
X18197Y97408D01*
D14*
X84013Y77559D02*
X87106D01*
X35512Y18726D02*
Y21092D01*
X37106Y22687D01*
X40551Y64995D02*
Y68405D01*
Y64995D02*
X40585Y64961D01*
X40551Y81890D02*
X48425Y74016D01*
X38976Y83465D02*
X40551Y81890D01*
X48425Y74016D02*
X54035D01*
X40551Y68405D02*
Y81890D01*
X56483Y73106D02*
Y73143D01*
X55610Y74016D02*
X56483Y73143D01*
X54035Y74016D02*
X55610D01*
X17652Y56887D02*
X21772D01*
X17524D02*
X17652D01*
X17088Y58642D02*
X17198Y58532D01*
Y57213D02*
X17524Y56887D01*
X17198Y57213D02*
Y58532D01*
X21772Y56887D02*
X22244Y57359D01*
X16220Y75590D02*
X16475Y75845D01*
Y78023D01*
X16585Y78133D01*
X35380Y117039D02*
X38158D01*
X122933Y26986D02*
X125451Y29504D01*
X122933Y26256D02*
Y26986D01*
X125451Y31730D02*
X125807Y32087D01*
X125451Y29504D02*
Y31730D01*
X106291Y29017D02*
X106401Y28907D01*
X104524Y30170D02*
Y33465D01*
Y30170D02*
X105677Y29017D01*
X106291D01*
X9154Y93613D02*
X10827D01*
X11459Y92981D02*
X13866D01*
X10827Y93613D02*
X11459Y92981D01*
X13794Y93054D02*
Y98032D01*
Y93054D02*
X13866Y92981D01*
X58858Y130787D02*
X59083Y130563D01*
X61209D01*
X61319Y130453D01*
X73678Y66929D02*
Y67323D01*
X73351Y67650D02*
X73678Y67323D01*
X72662Y67650D02*
X73351D01*
X71217Y69095D02*
X72662Y67650D01*
X73678Y70866D02*
Y71260D01*
X73351Y70539D02*
X73678Y70866D01*
X72957Y70539D02*
X73351D01*
X71623Y69204D02*
X72957Y70539D01*
X71327Y69204D02*
X71623D01*
X71217Y69095D02*
X71327Y69204D01*
X90256Y74409D02*
X93461D01*
X87106Y77559D02*
X90256Y74409D01*
X48720Y117441D02*
X49705Y118425D01*
Y121260D01*
X39480Y115717D02*
X39878D01*
X38158Y117039D02*
X39480Y115717D01*
X40585Y113488D02*
Y115009D01*
Y113488D02*
X41294Y112780D01*
Y109405D02*
Y112780D01*
X39878Y115717D02*
X40585Y115009D01*
X35270Y116929D02*
X35380Y117039D01*
X32185Y117185D02*
X34859D01*
X35114Y116929D01*
X35270D01*
X45401Y107830D02*
X46319Y108747D01*
Y109452D01*
X46850Y109984D01*
Y110139D01*
X45401Y107830D02*
X50000D01*
X45401Y107830D02*
X45401Y107830D01*
X48642Y139764D02*
X51575D01*
X83028Y101753D02*
X84997D01*
X81060D02*
X83028D01*
X87697Y100120D02*
Y100264D01*
X86501Y101459D02*
X87697Y100264D01*
X85087Y101459D02*
X86501D01*
X84997Y101549D02*
Y101753D01*
Y101549D02*
X85087Y101459D01*
X73186Y101753D02*
Y105378D01*
X74016Y106208D01*
Y106251D01*
X56847Y114155D02*
Y121356D01*
X56845Y121358D02*
X56847Y121356D01*
X95430Y114155D02*
Y119670D01*
X114075Y46260D02*
Y46654D01*
Y46260D02*
X114402Y45933D01*
X114795D01*
X119941Y40787D01*
X122835D01*
X122913Y40866D01*
X125216D01*
X125295Y40945D01*
X111556Y35147D02*
X111614Y35089D01*
X109597Y37106D02*
X111028D01*
X111556Y35147D02*
Y36579D01*
X111028Y37106D02*
X111556Y36579D01*
X106398Y28937D02*
X109980D01*
X111614Y30890D02*
Y35089D01*
X111449Y30724D02*
X111614Y30890D01*
X111449Y30440D02*
Y30724D01*
X110976Y29968D02*
X111449Y30440D01*
X110976Y29854D02*
Y29968D01*
X110059Y28937D02*
X110976Y29854D01*
X109980Y28937D02*
X110059D01*
D15*
X2500Y101000D02*
X44000Y142500D01*
X103000D01*
X144500Y101000D01*
Y42500D02*
Y101000D01*
X103000Y1000D02*
X144500Y42500D01*
X44000Y1000D02*
X103000D01*
X2500Y42500D02*
X44000Y1000D01*
X2500Y42500D02*
Y101000D01*
D34*
X91634Y54331D02*
D03*
X97342D02*
D03*
X93701Y29996D02*
D03*
X99410D02*
D03*
D38*
X86221Y17963D02*
D03*
Y22687D02*
D03*
X86221Y27411D02*
D03*
X47638D02*
D03*
X47638Y22687D02*
D03*
Y17963D02*
D03*
D68*
X75492Y126673D02*
D03*
X79823D02*
D03*
X75492Y122343D02*
D03*
X79823D02*
D03*
X125964Y103543D02*
D03*
Y109055D02*
D03*
X127933Y106299D02*
D03*
X123996D02*
D03*
D69*
X5906Y76142D02*
D03*
Y71142D02*
D03*
Y66142D02*
D03*
Y61142D02*
D03*
D73*
X113839Y28937D02*
D03*
X109980D02*
D03*
X122028Y32087D02*
D03*
X125807D02*
D03*
X44862Y139764D02*
D03*
X48642D02*
D03*
X59921Y77165D02*
D03*
X63701D02*
D03*
X17573Y98032D02*
D03*
X13794D02*
D03*
X59921Y72342D02*
D03*
X63701D02*
D03*
X20000Y75590D02*
D03*
X16220D02*
D03*
X39291Y18726D02*
D03*
X35512D02*
D03*
X77143Y75590D02*
D03*
X73363D02*
D03*
D74*
X109744Y46654D02*
D03*
X114075D02*
D03*
X59822Y81890D02*
D03*
X64153D02*
D03*
X18197Y92981D02*
D03*
X13866D02*
D03*
X78009Y66929D02*
D03*
X73678D02*
D03*
X78009Y71260D02*
D03*
X73678D02*
D03*
X78009Y80315D02*
D03*
X73678D02*
D03*
D75*
X110433Y13858D02*
D03*
Y17638D02*
D03*
X105118Y37421D02*
D03*
Y33642D02*
D03*
X99016Y16811D02*
D03*
Y20591D02*
D03*
X26575Y31319D02*
D03*
Y27539D02*
D03*
X58858Y134567D02*
D03*
Y130787D02*
D03*
X32185Y113327D02*
D03*
Y117185D02*
D03*
X38091Y117185D02*
D03*
Y113327D02*
D03*
X22244Y61139D02*
D03*
Y57359D02*
D03*
X50000Y104050D02*
D03*
Y107830D02*
D03*
X27461Y61237D02*
D03*
Y57458D02*
D03*
X26378Y106360D02*
D03*
Y110139D02*
D03*
X45401Y104050D02*
D03*
Y107830D02*
D03*
D76*
X122835Y36457D02*
D03*
Y40787D02*
D03*
X93405Y16240D02*
D03*
X93405Y20571D02*
D03*
X106004Y17323D02*
D03*
Y12992D02*
D03*
X17652Y61217D02*
D03*
Y56887D02*
D03*
X50000Y111989D02*
D03*
Y116320D02*
D03*
D80*
X39862Y49927D02*
D03*
X33169D02*
D03*
D85*
X22146Y26673D02*
D03*
Y29823D02*
D03*
X41294Y106255D02*
D03*
Y109405D02*
D03*
D107*
X32677Y61277D02*
D03*
Y57418D02*
D03*
D108*
X44238Y120577D02*
X46065D01*
X43799Y120138D02*
X44238Y120577D01*
D110*
X63327Y139468D02*
D03*
X105571Y109351D02*
D03*
D111*
X58327Y139469D02*
D03*
X110571Y109350D02*
D03*
X116634Y122382D02*
D03*
D112*
X116634Y117382D02*
D03*
D113*
X44862Y82645D02*
D03*
X87106Y77559D02*
D03*
X102657Y37303D02*
D03*
X119002Y25690D02*
D03*
X46065Y120577D02*
D03*
X90453Y81745D02*
D03*
X90354Y79504D02*
D03*
X105208Y44575D02*
D03*
X58573Y127584D02*
D03*
X69626Y124508D02*
D03*
X88444Y85101D02*
D03*
X119299Y34018D02*
D03*
X76870Y86102D02*
D03*
X71217Y69095D02*
D03*
X128327Y113071D02*
D03*
X37106Y22687D02*
D03*
X40585Y64961D02*
D03*
X128057Y34549D02*
D03*
X103300Y43039D02*
D03*
X87106Y54331D02*
D03*
X84013Y69409D02*
D03*
X20251Y97975D02*
D03*
X20940Y91339D02*
D03*
X21457Y94095D02*
D03*
X19488Y88472D02*
D03*
X52318Y115057D02*
D03*
X67471Y64690D02*
D03*
X93110Y90756D02*
D03*
X63910Y97408D02*
D03*
X23620Y34327D02*
D03*
X14681Y46006D02*
D03*
X27571Y113277D02*
D03*
X57814Y80795D02*
D03*
X56845Y82645D02*
D03*
X56420Y79406D02*
D03*
X56483Y73106D02*
D03*
X45276Y65949D02*
D03*
X24508Y64690D02*
D03*
X28543Y65949D02*
D03*
X25028Y68984D02*
D03*
X21457Y72441D02*
D03*
X19833Y78189D02*
D03*
X17088Y58642D02*
D03*
X13794Y61139D02*
D03*
X13866Y66147D02*
D03*
X13794Y71343D02*
D03*
X16585Y78133D02*
D03*
X18602Y64129D02*
D03*
X6398Y81418D02*
D03*
X18197Y79406D02*
D03*
X17088Y82464D02*
D03*
X24148Y40655D02*
D03*
X36312Y128437D02*
D03*
X34252Y126476D02*
D03*
X33563Y123504D02*
D03*
X30955Y121653D02*
D03*
X23465Y104921D02*
D03*
X33556Y103032D02*
D03*
X37216Y100917D02*
D03*
X36312Y102666D02*
D03*
X34255Y100282D02*
D03*
X34252Y109351D02*
D03*
X35463Y114472D02*
D03*
X52461Y134547D02*
D03*
X80811Y134554D02*
D03*
X69966Y135576D02*
D03*
X80661Y140059D02*
D03*
X87300Y139587D02*
D03*
X101279D02*
D03*
X102096Y116634D02*
D03*
X133570Y105615D02*
D03*
X122933Y26256D02*
D03*
X130315Y33465D02*
D03*
X117376Y32162D02*
D03*
X106205Y30866D02*
D03*
X106401Y28907D02*
D03*
X58366Y19685D02*
D03*
X66953D02*
D03*
X67028Y29331D02*
D03*
X73386Y36099D02*
D03*
X67471Y89431D02*
D03*
X29431Y48006D02*
D03*
X20989Y40938D02*
D03*
X15658Y35252D02*
D03*
X10039Y39354D02*
D03*
X15059Y42988D02*
D03*
X22736Y69095D02*
D03*
X21494Y79528D02*
D03*
X20251Y81418D02*
D03*
Y100224D02*
D03*
X15186D02*
D03*
X9154Y93613D02*
D03*
X61319Y130453D02*
D03*
X57033Y126087D02*
D03*
X36353Y131933D02*
D03*
X80319Y82484D02*
D03*
X48720Y117441D02*
D03*
X42421D02*
D03*
X26575Y120276D02*
D03*
X35270Y116929D02*
D03*
X46850Y110139D02*
D03*
X51575Y139764D02*
D03*
X55666Y133760D02*
D03*
X46752Y136516D02*
D03*
X87697Y100120D02*
D03*
X79091Y97962D02*
D03*
X57797Y86814D02*
D03*
X61466Y96063D02*
D03*
X64767Y94296D02*
D03*
X74016Y106251D02*
D03*
X61860Y99409D02*
D03*
X56845Y121358D02*
D03*
X94980Y120276D02*
D03*
X117376Y40823D02*
D03*
X125295Y40945D02*
D03*
X29671Y45154D02*
D03*
X53543Y64961D02*
D03*
X47638Y59363D02*
D03*
X62612Y56039D02*
D03*
X81890Y19563D02*
D03*
X83028Y26256D02*
D03*
X90453Y35138D02*
D03*
X43248Y35089D02*
D03*
X43909Y27539D02*
D03*
X44350Y22687D02*
D03*
X50295Y6742D02*
D03*
X83028D02*
D03*
X93498Y26673D02*
D03*
X99508Y25000D02*
D03*
X102362Y12009D02*
D03*
Y6988D02*
D03*
X100345Y3889D02*
D03*
X97462Y3225D02*
D03*
X93976Y3543D02*
D03*
X91634Y8071D02*
D03*
X113583Y17963D02*
D03*
X106004Y10153D02*
D03*
X109597Y10039D02*
D03*
X93461Y22687D02*
D03*
X90453Y19563D02*
D03*
X39291Y15256D02*
D03*
X23465Y109825D02*
D03*
X10827Y101457D02*
D03*
X8563Y52953D02*
D03*
X26673Y24114D02*
D03*
X19496Y30020D02*
D03*
X21654Y49626D02*
D03*
X27953Y54331D02*
D03*
X67280Y85916D02*
D03*
X71217Y79036D02*
D03*
X63681Y79799D02*
D03*
Y69390D02*
D03*
X67280Y61277D02*
D03*
X57339Y89764D02*
D03*
X58914Y96063D02*
D03*
X56243D02*
D03*
X58914Y99409D02*
D03*
X56243Y98721D02*
D03*
X53543Y97736D02*
D03*
X41144Y102958D02*
D03*
X43690Y101181D02*
D03*
X40551Y100939D02*
D03*
X38878Y102672D02*
D03*
X44783Y126083D02*
D03*
X48720D02*
D03*
X44783Y130020D02*
D03*
X48720D02*
D03*
D114*
X91831Y127854D02*
D03*
Y133760D02*
D03*
X94587D02*
D03*
X94587Y127854D02*
D03*
X93209Y130807D02*
D03*
D115*
X69566Y93613D02*
D03*
D116*
X75590Y92913D02*
D03*
X88976D02*
D03*
D117*
X98425Y54331D02*
D03*
D118*
X136221D02*
D03*
Y93701D02*
D03*
D119*
X113583Y41093D02*
D03*
X111614D02*
D03*
Y35089D02*
D03*
X113583D02*
D03*
D120*
X109597Y41043D02*
D03*
Y39075D02*
D03*
Y37106D02*
D03*
Y35138D02*
D03*
X115600D02*
D03*
Y37106D02*
D03*
Y39075D02*
D03*
Y41043D02*
D03*
D121*
X94340Y10039D02*
D03*
Y8071D02*
D03*
Y6102D02*
D03*
X100345D02*
D03*
Y8071D02*
D03*
Y10039D02*
D03*
D122*
X96358Y5069D02*
D03*
X98327D02*
D03*
Y11073D02*
D03*
X96358D02*
D03*
D123*
X51887Y56198D02*
D03*
X48423D02*
D03*
X56243Y56102D02*
D03*
X59707D02*
D03*
D124*
X59882Y66929D02*
D03*
X63740D02*
D03*
D125*
X10728Y84744D02*
D03*
X7185D02*
D03*
D126*
X64891Y88189D02*
D03*
X63415D02*
D03*
X15293Y104464D02*
D03*
X16770D02*
D03*
X63287Y61237D02*
D03*
X61811D02*
D03*
X17963Y69095D02*
D03*
X19439D02*
D03*
D127*
X64940Y88189D02*
D03*
X63366D02*
D03*
X15244Y104464D02*
D03*
X16819D02*
D03*
X63337Y61237D02*
D03*
X61762D02*
D03*
X17913Y69095D02*
D03*
X19488D02*
D03*
D128*
X64842Y88189D02*
D03*
X63464D02*
D03*
X15343Y104464D02*
D03*
X16721D02*
D03*
X63238Y61237D02*
D03*
X61860D02*
D03*
X18012Y69095D02*
D03*
X19390D02*
D03*
D129*
X64990Y88189D02*
D03*
X63316D02*
D03*
X15195Y104464D02*
D03*
X16868D02*
D03*
X63386Y61237D02*
D03*
X61713D02*
D03*
X17864Y69095D02*
D03*
X19537D02*
D03*
D130*
X65039Y88189D02*
D03*
X63267D02*
D03*
X15146Y104464D02*
D03*
X16917D02*
D03*
X63435Y61237D02*
D03*
X61663D02*
D03*
X17815Y69095D02*
D03*
X19587D02*
D03*
D131*
X65433Y88189D02*
D03*
X62874D02*
D03*
X14752Y104464D02*
D03*
X17311D02*
D03*
X63829Y61237D02*
D03*
X61270D02*
D03*
X17421Y69095D02*
D03*
X19980D02*
D03*
D132*
X65088Y88189D02*
D03*
X63218D02*
D03*
X15097Y104464D02*
D03*
X16967D02*
D03*
X63484Y61237D02*
D03*
X61614D02*
D03*
X17766Y69095D02*
D03*
X19636D02*
D03*
D133*
X65137Y88189D02*
D03*
X63169D02*
D03*
X15047Y104464D02*
D03*
X17016D02*
D03*
X63534Y61237D02*
D03*
X61565D02*
D03*
X17717Y69095D02*
D03*
X19685D02*
D03*
D134*
X65187Y88189D02*
D03*
X63120D02*
D03*
X14998Y104464D02*
D03*
X17065D02*
D03*
X63583Y61237D02*
D03*
X61516D02*
D03*
X17667Y69095D02*
D03*
X19734D02*
D03*
D135*
X65236Y88189D02*
D03*
X63070D02*
D03*
X14949Y104464D02*
D03*
X17114D02*
D03*
X63632Y61237D02*
D03*
X61466D02*
D03*
X17618Y69095D02*
D03*
X19783D02*
D03*
D136*
X65285Y88189D02*
D03*
X63021D02*
D03*
X14900Y104464D02*
D03*
X17164D02*
D03*
X63681Y61237D02*
D03*
X61417D02*
D03*
X17569Y69095D02*
D03*
X19833D02*
D03*
D137*
X65334Y88189D02*
D03*
X62972D02*
D03*
X14851Y104464D02*
D03*
X17213D02*
D03*
X63730Y61237D02*
D03*
X61368D02*
D03*
X17520Y69095D02*
D03*
X19882D02*
D03*
D138*
X65364Y88189D02*
D03*
X62942D02*
D03*
X14821Y104464D02*
D03*
X17242D02*
D03*
X63760Y61237D02*
D03*
X61339D02*
D03*
X17490Y69095D02*
D03*
X19911D02*
D03*
D139*
X65383Y88189D02*
D03*
X62923D02*
D03*
X14801Y104464D02*
D03*
X17262D02*
D03*
X63779Y61237D02*
D03*
X61319D02*
D03*
X17470Y69095D02*
D03*
X19931D02*
D03*
D140*
X65413Y88189D02*
D03*
X62893D02*
D03*
X14772Y104464D02*
D03*
X17291D02*
D03*
X63809Y61237D02*
D03*
X61289D02*
D03*
X17441Y69095D02*
D03*
X19961D02*
D03*
D141*
X65472Y88189D02*
D03*
X62834D02*
D03*
X14713Y104464D02*
D03*
X17351D02*
D03*
X63868Y61237D02*
D03*
X61230D02*
D03*
X17382Y69095D02*
D03*
X20020D02*
D03*
D142*
X65452Y88189D02*
D03*
X62854D02*
D03*
X14732Y104464D02*
D03*
X17331D02*
D03*
X63848Y61237D02*
D03*
X61250D02*
D03*
X17402Y69095D02*
D03*
X20000D02*
D03*
D143*
X65482Y88189D02*
D03*
X62824D02*
D03*
X18197Y50156D02*
D03*
Y52813D02*
D03*
X14703Y104464D02*
D03*
X17360D02*
D03*
X55108Y107580D02*
D03*
Y104923D02*
D03*
X63878Y61237D02*
D03*
X61221D02*
D03*
X17372Y69095D02*
D03*
X20030D02*
D03*
X25984Y48573D02*
D03*
Y51230D02*
D03*
X26181Y117864D02*
D03*
Y115207D02*
D03*
X44319Y115483D02*
D03*
Y112826D02*
D03*
D144*
X18197Y50746D02*
D03*
Y52223D02*
D03*
X55108Y106990D02*
D03*
Y105513D02*
D03*
X25984Y49163D02*
D03*
Y50640D02*
D03*
X26181Y117274D02*
D03*
Y115797D02*
D03*
X44319Y114893D02*
D03*
Y113417D02*
D03*
D145*
X18197Y50697D02*
D03*
Y52272D02*
D03*
X55108Y107039D02*
D03*
Y105464D02*
D03*
X25984Y49114D02*
D03*
Y50689D02*
D03*
X26181Y117323D02*
D03*
Y115748D02*
D03*
X44319Y114942D02*
D03*
Y113367D02*
D03*
D146*
X18197Y50796D02*
D03*
Y52174D02*
D03*
X55108Y106940D02*
D03*
Y105562D02*
D03*
X25984Y49213D02*
D03*
Y50591D02*
D03*
X26181Y117224D02*
D03*
Y115847D02*
D03*
X44319Y114844D02*
D03*
Y113466D02*
D03*
D147*
X18197Y50648D02*
D03*
Y52321D02*
D03*
X55108Y107088D02*
D03*
Y105415D02*
D03*
X25984Y49065D02*
D03*
Y50738D02*
D03*
X26181Y117372D02*
D03*
Y115699D02*
D03*
X44319Y114991D02*
D03*
Y113318D02*
D03*
D148*
X18197Y50599D02*
D03*
Y52370D02*
D03*
X55108Y107137D02*
D03*
Y105366D02*
D03*
X25984Y49016D02*
D03*
Y50787D02*
D03*
X26181Y117421D02*
D03*
Y115650D02*
D03*
X44319Y115041D02*
D03*
Y113269D02*
D03*
D149*
X18197Y50205D02*
D03*
Y52764D02*
D03*
X55108Y107531D02*
D03*
Y104972D02*
D03*
X25984Y48622D02*
D03*
Y51181D02*
D03*
X26181Y117815D02*
D03*
Y115256D02*
D03*
X44319Y115434D02*
D03*
Y112875D02*
D03*
D150*
X18197Y50550D02*
D03*
Y52420D02*
D03*
X55108Y107186D02*
D03*
Y105316D02*
D03*
X25984Y48967D02*
D03*
Y50837D02*
D03*
X26181Y117471D02*
D03*
Y115600D02*
D03*
X44319Y115090D02*
D03*
Y113220D02*
D03*
D151*
X18197Y50500D02*
D03*
Y52469D02*
D03*
X55108Y107236D02*
D03*
Y105267D02*
D03*
X25984Y48917D02*
D03*
Y50886D02*
D03*
X26181Y117520D02*
D03*
Y115551D02*
D03*
X44319Y115139D02*
D03*
Y113171D02*
D03*
D152*
X18197Y50451D02*
D03*
Y52518D02*
D03*
X55108Y107285D02*
D03*
Y105218D02*
D03*
X25984Y48868D02*
D03*
Y50935D02*
D03*
X26181Y117569D02*
D03*
Y115502D02*
D03*
X44319Y115188D02*
D03*
Y113121D02*
D03*
D153*
X18197Y50402D02*
D03*
Y52567D02*
D03*
X55108Y107334D02*
D03*
Y105169D02*
D03*
X25984Y48819D02*
D03*
Y50984D02*
D03*
X26181Y117618D02*
D03*
Y115453D02*
D03*
X44319Y115237D02*
D03*
Y113072D02*
D03*
D154*
X18197Y50353D02*
D03*
Y52617D02*
D03*
X55108Y107383D02*
D03*
Y105120D02*
D03*
X25984Y48770D02*
D03*
Y51034D02*
D03*
X26181Y117667D02*
D03*
Y115403D02*
D03*
X44319Y115287D02*
D03*
Y113023D02*
D03*
D155*
X18197Y50304D02*
D03*
Y52666D02*
D03*
X55108Y107432D02*
D03*
Y105070D02*
D03*
X25984Y48720D02*
D03*
Y51083D02*
D03*
X26181Y117717D02*
D03*
Y115354D02*
D03*
X44319Y115336D02*
D03*
Y112974D02*
D03*
D156*
X18197Y50274D02*
D03*
Y52695D02*
D03*
X55108Y107462D02*
D03*
Y105041D02*
D03*
X25984Y48691D02*
D03*
Y51112D02*
D03*
X26181Y117746D02*
D03*
Y115325D02*
D03*
X44319Y115365D02*
D03*
Y112944D02*
D03*
D157*
X18197Y50254D02*
D03*
Y52715D02*
D03*
X55108Y107482D02*
D03*
Y105021D02*
D03*
X25984Y48671D02*
D03*
Y51132D02*
D03*
X26181Y117766D02*
D03*
Y115305D02*
D03*
X44319Y115385D02*
D03*
Y112925D02*
D03*
D158*
X18197Y50225D02*
D03*
Y52744D02*
D03*
X55108Y107511D02*
D03*
Y104992D02*
D03*
X25984Y48642D02*
D03*
Y51161D02*
D03*
X26181Y117795D02*
D03*
Y115276D02*
D03*
X44319Y115415D02*
D03*
Y112895D02*
D03*
D159*
X18197Y50166D02*
D03*
Y52803D02*
D03*
X55108Y107570D02*
D03*
Y104932D02*
D03*
X25984Y48583D02*
D03*
Y51221D02*
D03*
X26181Y117854D02*
D03*
Y115217D02*
D03*
X44319Y115474D02*
D03*
Y112836D02*
D03*
D160*
X18197Y50185D02*
D03*
Y52784D02*
D03*
X55108Y107551D02*
D03*
Y104952D02*
D03*
X25984Y48602D02*
D03*
Y51201D02*
D03*
X26181Y117835D02*
D03*
Y115236D02*
D03*
X44319Y115454D02*
D03*
Y112856D02*
D03*
D161*
X43524Y58166D02*
D03*
X37579D02*
D03*
D162*
X15157Y84842D02*
D03*
X18898D02*
D03*
D163*
X19496Y35130D02*
D03*
X10031Y44595D02*
D03*
D164*
X67716Y76725D02*
D03*
Y79036D02*
D03*
Y81346D02*
D03*
X69685Y76725D02*
D03*
Y79036D02*
D03*
Y81346D02*
D03*
D165*
X46752Y128051D02*
D03*
D166*
X38878Y131988D02*
D03*
Y130020D02*
D03*
Y128051D02*
D03*
X39961Y126083D02*
D03*
Y124114D02*
D03*
X54665D02*
D03*
Y126083D02*
D03*
Y128051D02*
D03*
X53543Y130020D02*
D03*
Y131988D02*
D03*
X43799Y120138D02*
D03*
X49705Y121260D02*
D03*
X43799Y134843D02*
D03*
X49705Y135925D02*
D03*
D167*
X37106Y107830D02*
D03*
X31398D02*
D03*
D168*
X55469Y63038D02*
D03*
X51139D02*
D03*
X51139Y59691D02*
D03*
X55469Y59691D02*
D03*
D169*
X98425Y38510D02*
D03*
Y45006D02*
D03*
D170*
X38976Y83465D02*
D03*
D171*
X23917Y96063D02*
D03*
Y94488D02*
D03*
Y92913D02*
D03*
Y91339D02*
D03*
Y89764D02*
D03*
Y88189D02*
D03*
Y86614D02*
D03*
Y85039D02*
D03*
Y83465D02*
D03*
Y81890D02*
D03*
Y80315D02*
D03*
Y78740D02*
D03*
Y77165D02*
D03*
Y75590D02*
D03*
Y74016D02*
D03*
Y72441D02*
D03*
Y70866D02*
D03*
X54035D02*
D03*
Y72441D02*
D03*
Y74016D02*
D03*
Y75590D02*
D03*
Y77165D02*
D03*
Y78740D02*
D03*
Y80315D02*
D03*
Y81890D02*
D03*
Y83465D02*
D03*
Y85039D02*
D03*
Y86614D02*
D03*
Y88189D02*
D03*
Y89764D02*
D03*
Y91339D02*
D03*
Y92913D02*
D03*
Y94488D02*
D03*
Y96063D02*
D03*
D172*
X26378Y68405D02*
D03*
X27953D02*
D03*
X29528D02*
D03*
X31102D02*
D03*
X32677D02*
D03*
X34252D02*
D03*
X35827D02*
D03*
X37402D02*
D03*
X38976D02*
D03*
X40551D02*
D03*
X42126D02*
D03*
X43701D02*
D03*
X45276D02*
D03*
X46850D02*
D03*
X48425D02*
D03*
X50000D02*
D03*
X51575D02*
D03*
Y98524D02*
D03*
X50000D02*
D03*
X48425D02*
D03*
X46850D02*
D03*
X45276D02*
D03*
X43701D02*
D03*
X42126D02*
D03*
X40551D02*
D03*
X38976D02*
D03*
X37402D02*
D03*
X35827D02*
D03*
X34252D02*
D03*
X32677D02*
D03*
X31102D02*
D03*
X29528D02*
D03*
X27953D02*
D03*
X26378D02*
D03*
D173*
X59764Y50541D02*
D03*
X74094D02*
D03*
D174*
X46850Y35089D02*
D03*
X87008D02*
D03*
Y6742D02*
D03*
X46850D02*
D03*
D175*
X67280Y101753D02*
D03*
X69249D02*
D03*
X71217D02*
D03*
X73186D02*
D03*
X75154D02*
D03*
X77123D02*
D03*
X79091D02*
D03*
X81060D02*
D03*
X83028D02*
D03*
X84997D02*
D03*
D176*
X56847Y114155D02*
D03*
X95430D02*
D03*
D177*
X84013Y83858D02*
D03*
Y80709D02*
D03*
Y77559D02*
D03*
Y74409D02*
D03*
Y71260D02*
D03*
Y68110D02*
D03*
Y64961D02*
D03*
X93461D02*
D03*
Y68110D02*
D03*
Y71260D02*
D03*
Y74409D02*
D03*
Y77559D02*
D03*
Y80709D02*
D03*
Y83858D02*
D03*
D178*
X69566Y93613D02*
X74891D01*
D179*
X98425Y54331D02*
X136221D01*
M02*
