G04*
G04 #@! TF.GenerationSoftware,Altium Limited,Altium NEXUS,3.0.10 (100)*
G04*
G04 Layer_Color=16711935*
%FSLAX44Y44*%
%MOMM*%
G71*
G01*
G75*
%ADD54R,1.0000X1.0000*%
%ADD55R,1.0000X1.0000*%
G04:AMPARAMS|DCode=63|XSize=0.9mm|YSize=1.6mm|CornerRadius=0.25mm|HoleSize=0mm|Usage=FLASHONLY|Rotation=90.000|XOffset=0mm|YOffset=0mm|HoleType=Round|Shape=RoundedRectangle|*
%AMROUNDEDRECTD63*
21,1,0.9000,1.1000,0,0,90.0*
21,1,0.4000,1.6000,0,0,90.0*
1,1,0.5000,0.5500,0.2000*
1,1,0.5000,0.5500,-0.2000*
1,1,0.5000,-0.5500,-0.2000*
1,1,0.5000,-0.5500,0.2000*
%
%ADD63ROUNDEDRECTD63*%
%ADD67R,0.8600X0.8200*%
%ADD68R,0.5200X0.7200*%
%ADD69R,0.8200X0.8600*%
%ADD70R,0.7200X0.5200*%
%ADD74R,0.7500X1.1500*%
%ADD79R,0.5500X0.5500*%
%ADD103R,0.8400X0.8800*%
%ADD104C,0.1000*%
%ADD105C,1.0000*%
%ADD106C,0.5000*%
%ADD120R,0.3500X0.3750*%
%ADD121R,0.3750X0.3500*%
%ADD122R,0.3750X0.3500*%
%ADD123R,0.3500X0.3750*%
%ADD126R,0.5000X0.6000*%
%ADD127O,0.2250X1.1250*%
%ADD128O,0.2500X1.1120*%
%ADD129O,0.2000X1.1370*%
%ADD130O,0.2750X1.0980*%
%ADD131O,0.3000X1.0820*%
%ADD132O,0.5000X0.7600*%
%ADD133O,0.3250X1.0630*%
%ADD134O,0.3500X1.0400*%
%ADD135O,0.3750X1.0130*%
%ADD136O,0.4000X0.9810*%
%ADD137O,0.4250X0.9430*%
%ADD138O,0.4500X0.8970*%
%ADD139O,0.4650X0.8650*%
%ADD140O,0.4750X0.8400*%
%ADD141O,0.4900X0.8000*%
%ADD142O,0.5200X0.6300*%
%ADD143O,0.5100X0.7100*%
%ADD144C,0.5250*%
%ADD145O,1.1250X0.2250*%
%ADD146O,1.1120X0.2500*%
%ADD147O,1.1370X0.2000*%
%ADD148O,1.0980X0.2750*%
%ADD149O,1.0820X0.3000*%
%ADD150O,0.7600X0.5000*%
%ADD151O,1.0630X0.3250*%
%ADD152O,1.0400X0.3500*%
%ADD153O,1.0130X0.3750*%
%ADD154O,0.9810X0.4000*%
%ADD155O,0.9430X0.4250*%
%ADD156O,0.8970X0.4500*%
%ADD157O,0.8650X0.4650*%
%ADD158O,0.8400X0.4750*%
%ADD159O,0.8000X0.4900*%
%ADD160O,0.6300X0.5200*%
%ADD161O,0.7100X0.5100*%
%ADD166R,2.0500X2.0500*%
%ADD167C,0.2520*%
%ADD171R,6.4000X6.4000*%
%ADD172R,0.6500X0.2500*%
%ADD173R,0.2500X0.6500*%
%ADD178R,0.7500X0.3500*%
%ADD181C,0.7000*%
%ADD182R,0.9000X1.7000*%
%ADD183R,2.1000X2.1000*%
%ADD184R,3.3000X2.3000*%
%ADD185R,0.7600X0.7200*%
%ADD186R,0.8800X0.8400*%
%ADD187R,1.0900X1.4900*%
%ADD188R,0.8000X0.7500*%
G04:AMPARAMS|DCode=189|XSize=0.9mm|YSize=1.8mm|CornerRadius=0mm|HoleSize=0mm|Usage=FLASHONLY|Rotation=135.000|XOffset=0mm|YOffset=0mm|HoleType=Round|Shape=Rectangle|*
%AMROTATEDRECTD189*
4,1,4,0.9546,0.3182,-0.3182,-0.9546,-0.9546,-0.3182,0.3182,0.9546,0.9546,0.3182,0.0*
%
%ADD189ROTATEDRECTD189*%

%ADD190R,0.3000X0.3000*%
%ADD191R,0.8500X1.5000*%
%ADD192R,0.7000X0.6000*%
%ADD193R,1.1500X1.2500*%
%ADD194R,1.0500X1.1500*%
%ADD195R,1.2000X1.1000*%
%ADD196R,1.1000X2.4000*%
%ADD197R,1.1000X0.9000*%
%ADD198R,0.4000X1.5000*%
%ADD199R,1.7000X2.3000*%
G36*
X112043Y312037D02*
X112437Y311643D01*
X112650Y311129D01*
Y310850D01*
X112650Y303750D01*
X109850D01*
Y310850D01*
Y311129D01*
X110063Y311643D01*
X110457Y312037D01*
X110971Y312250D01*
X111529D01*
X112043Y312037D01*
D02*
G37*
G36*
X105143Y316437D02*
X105537Y316043D01*
X105750Y315529D01*
Y315250D01*
Y314972D01*
X105537Y314457D01*
X105143Y314063D01*
X104628Y313850D01*
X97250D01*
Y316650D01*
X104628D01*
X105143Y316437D01*
D02*
G37*
G36*
Y321437D02*
X105537Y321043D01*
X105750Y320528D01*
Y320250D01*
Y319972D01*
X105537Y319457D01*
X105143Y319063D01*
X104628Y318850D01*
X104350D01*
X97250Y318850D01*
Y321650D01*
X104628D01*
X105143Y321437D01*
D02*
G37*
G36*
Y326437D02*
X105537Y326043D01*
X105750Y325528D01*
Y325250D01*
Y324972D01*
X105537Y324457D01*
X105143Y324063D01*
X104628Y323850D01*
X97250D01*
Y326650D01*
X104628D01*
X105143Y326437D01*
D02*
G37*
G36*
X104350Y331650D02*
X104628D01*
X105143Y331437D01*
X105537Y331043D01*
X105750Y330528D01*
Y330250D01*
Y329972D01*
X105537Y329457D01*
X105143Y329063D01*
X104628Y328850D01*
X97250D01*
Y331650D01*
X104350D01*
Y331650D01*
D02*
G37*
G36*
X105143Y336437D02*
X105537Y336043D01*
X105750Y335528D01*
Y335250D01*
Y334972D01*
X105537Y334457D01*
X105143Y334063D01*
X104628Y333850D01*
X97250D01*
Y336650D01*
X104628D01*
X105143Y336437D01*
D02*
G37*
G36*
X112650Y339650D02*
X112650D01*
Y339371D01*
X112437Y338857D01*
X112043Y338463D01*
X111529Y338250D01*
X110971D01*
X110457Y338463D01*
X110063Y338857D01*
X109850Y339371D01*
Y339650D01*
Y346750D01*
X112650D01*
Y339650D01*
D02*
G37*
G36*
X127043Y312037D02*
X127437Y311643D01*
X127650Y311129D01*
Y310850D01*
Y303750D01*
X124850D01*
Y310850D01*
X124850D01*
Y311129D01*
X125063Y311643D01*
X125457Y312037D01*
X125971Y312250D01*
X126529D01*
X127043Y312037D01*
D02*
G37*
G36*
X140250Y313850D02*
X132872D01*
X132357Y314063D01*
X131963Y314457D01*
X131750Y314972D01*
Y315250D01*
Y315529D01*
X131963Y316043D01*
X132357Y316437D01*
X132872Y316650D01*
X140250D01*
Y313850D01*
D02*
G37*
G36*
Y318850D02*
X133150D01*
Y318850D01*
X132872D01*
X132357Y319063D01*
X131963Y319457D01*
X131750Y319972D01*
Y320250D01*
Y320528D01*
X131963Y321043D01*
X132357Y321437D01*
X132872Y321650D01*
X140250D01*
Y318850D01*
D02*
G37*
G36*
Y323850D02*
X132872D01*
X132357Y324063D01*
X131963Y324457D01*
X131750Y324972D01*
Y325250D01*
Y325528D01*
X131963Y326043D01*
X132357Y326437D01*
X132872Y326650D01*
X140250D01*
Y323850D01*
D02*
G37*
G36*
Y328850D02*
X132872D01*
X132357Y329063D01*
X131963Y329457D01*
X131750Y329972D01*
Y330250D01*
Y330528D01*
X131963Y331043D01*
X132357Y331437D01*
X132872Y331650D01*
X133150D01*
X140250Y331650D01*
Y328850D01*
D02*
G37*
G36*
Y333850D02*
X132872D01*
X132357Y334063D01*
X131963Y334457D01*
X131750Y334972D01*
Y335250D01*
Y335528D01*
X131963Y336043D01*
X132357Y336437D01*
X132872Y336650D01*
X140250D01*
Y333850D01*
D02*
G37*
G36*
X127650Y339650D02*
Y339371D01*
X127437Y338857D01*
X127043Y338463D01*
X126529Y338250D01*
X125971D01*
X125457Y338463D01*
X125063Y338857D01*
X124850Y339371D01*
Y339650D01*
X124850Y346750D01*
X127650D01*
Y339650D01*
D02*
G37*
D54*
X160850Y354250D02*
D03*
X268150Y277750D02*
D03*
D55*
X296250Y298150D02*
D03*
D63*
X15000Y193400D02*
D03*
Y180700D02*
D03*
Y168000D02*
D03*
Y155300D02*
D03*
D67*
X289150Y73500D02*
D03*
X279350D02*
D03*
X309950Y81500D02*
D03*
X319550D02*
D03*
X113950Y355000D02*
D03*
X123550D02*
D03*
X152200Y196000D02*
D03*
X161800D02*
D03*
X44636Y249000D02*
D03*
X35036D02*
D03*
X152200Y183750D02*
D03*
X161800D02*
D03*
X50800Y192000D02*
D03*
X41200D02*
D03*
X99800Y47565D02*
D03*
X90200D02*
D03*
X195942Y192000D02*
D03*
X186342D02*
D03*
D68*
X278750Y118500D02*
D03*
X289750D02*
D03*
X151949Y208000D02*
D03*
X162949D02*
D03*
X46220Y236173D02*
D03*
X35221D02*
D03*
X198142Y170000D02*
D03*
X187142D02*
D03*
X198142Y181000D02*
D03*
X187142D02*
D03*
X198142Y204000D02*
D03*
X187142D02*
D03*
D69*
X280500Y35200D02*
D03*
Y44800D02*
D03*
X267000Y95050D02*
D03*
Y85450D02*
D03*
X251500Y42700D02*
D03*
Y52300D02*
D03*
X67500Y79550D02*
D03*
Y69950D02*
D03*
X149500Y341800D02*
D03*
Y332200D02*
D03*
X81750Y287850D02*
D03*
Y297650D02*
D03*
X96750Y297650D02*
D03*
Y287850D02*
D03*
X56500Y155292D02*
D03*
Y145692D02*
D03*
X127000Y264287D02*
D03*
Y273887D02*
D03*
X69750Y155542D02*
D03*
Y145942D02*
D03*
X67000Y270153D02*
D03*
Y279753D02*
D03*
X115319Y264288D02*
D03*
Y273888D02*
D03*
D70*
X312000Y92600D02*
D03*
Y103600D02*
D03*
X237250Y41250D02*
D03*
X237250Y52250D02*
D03*
X269250Y44000D02*
D03*
Y33000D02*
D03*
X44836Y155492D02*
D03*
Y144492D02*
D03*
X127000Y284453D02*
D03*
Y295453D02*
D03*
D74*
X101250Y126815D02*
D03*
X84250D02*
D03*
D79*
X56250Y67750D02*
D03*
Y75750D02*
D03*
X104886Y269887D02*
D03*
Y277887D02*
D03*
D103*
X83000Y155642D02*
D03*
Y145842D02*
D03*
D104*
X27700Y199750D02*
D03*
X27700Y148950D02*
D03*
X27700Y161650D02*
D03*
X27700Y187050D02*
D03*
X27700Y174350D02*
D03*
D105*
X148150Y354250D02*
D03*
X280850Y277750D02*
D03*
X296250Y310850D02*
D03*
D106*
X113950Y209918D02*
D03*
D120*
X288500Y104375D02*
D03*
X283500D02*
D03*
Y89125D02*
D03*
X288500D02*
D03*
D121*
X278375Y104250D02*
D03*
Y99250D02*
D03*
Y94250D02*
D03*
Y89250D02*
D03*
X293625D02*
D03*
Y94250D02*
D03*
Y99250D02*
D03*
Y104250D02*
D03*
D122*
X239625Y25500D02*
D03*
Y20500D02*
D03*
Y15500D02*
D03*
X254875D02*
D03*
Y20500D02*
D03*
Y25500D02*
D03*
D123*
X244750Y12875D02*
D03*
X249750D02*
D03*
Y28125D02*
D03*
X244750D02*
D03*
D126*
X27250Y215250D02*
D03*
X18250D02*
D03*
D127*
X164824Y224000D02*
D03*
X161074D02*
D03*
X38846Y265338D02*
D03*
X42596D02*
D03*
X160750Y155542D02*
D03*
X157000D02*
D03*
X45625Y175500D02*
D03*
X49375D02*
D03*
D128*
X164949Y224000D02*
D03*
X160949D02*
D03*
X38721Y265338D02*
D03*
X42720D02*
D03*
X160875Y155542D02*
D03*
X156875D02*
D03*
X45500Y175500D02*
D03*
X49500D02*
D03*
D129*
X164699Y224000D02*
D03*
X161199D02*
D03*
X38970Y265338D02*
D03*
X42470D02*
D03*
X160625Y155542D02*
D03*
X157125D02*
D03*
X45750Y175500D02*
D03*
X49250D02*
D03*
D130*
X165074Y224000D02*
D03*
X160824D02*
D03*
X38595Y265338D02*
D03*
X42846D02*
D03*
X161000Y155542D02*
D03*
X156750D02*
D03*
X45375Y175500D02*
D03*
X49625D02*
D03*
D131*
X165199Y224000D02*
D03*
X160699D02*
D03*
X38470Y265338D02*
D03*
X42971D02*
D03*
X161125Y155542D02*
D03*
X156625D02*
D03*
X45250Y175500D02*
D03*
X49750D02*
D03*
D132*
X166199Y224000D02*
D03*
X159699D02*
D03*
X37471Y265338D02*
D03*
X43970D02*
D03*
X162125Y155542D02*
D03*
X155625D02*
D03*
X44250Y175500D02*
D03*
X50750D02*
D03*
D133*
X165324Y224000D02*
D03*
X160574D02*
D03*
X38345Y265338D02*
D03*
X43095D02*
D03*
X161250Y155542D02*
D03*
X156500D02*
D03*
X45125Y175500D02*
D03*
X49875D02*
D03*
D134*
X165449Y224000D02*
D03*
X160449D02*
D03*
X38221Y265338D02*
D03*
X43221D02*
D03*
X161375Y155542D02*
D03*
X156375D02*
D03*
X45000Y175500D02*
D03*
X50000D02*
D03*
D135*
X165574Y224000D02*
D03*
X160324D02*
D03*
X38096Y265338D02*
D03*
X43345D02*
D03*
X161500Y155542D02*
D03*
X156250D02*
D03*
X44875Y175500D02*
D03*
X50125D02*
D03*
D136*
X165699Y224000D02*
D03*
X160199D02*
D03*
X37970Y265338D02*
D03*
X43471D02*
D03*
X161625Y155542D02*
D03*
X156125D02*
D03*
X44750Y175500D02*
D03*
X50250D02*
D03*
D137*
X165824Y224000D02*
D03*
X160074D02*
D03*
X37845Y265338D02*
D03*
X43595D02*
D03*
X161750Y155542D02*
D03*
X156000D02*
D03*
X44625Y175500D02*
D03*
X50375D02*
D03*
D138*
X165949Y224000D02*
D03*
X159949D02*
D03*
X37720Y265338D02*
D03*
X43720D02*
D03*
X161875Y155542D02*
D03*
X155875D02*
D03*
X44500Y175500D02*
D03*
X50500D02*
D03*
D139*
X166024Y224000D02*
D03*
X159874D02*
D03*
X37645Y265338D02*
D03*
X43795D02*
D03*
X161950Y155542D02*
D03*
X155800D02*
D03*
X44425Y175500D02*
D03*
X50575D02*
D03*
D140*
X166074Y224000D02*
D03*
X159824D02*
D03*
X37596Y265338D02*
D03*
X43846D02*
D03*
X162000Y155542D02*
D03*
X155750D02*
D03*
X44375Y175500D02*
D03*
X50625D02*
D03*
D141*
X166149Y224000D02*
D03*
X159749D02*
D03*
X37520Y265338D02*
D03*
X43920D02*
D03*
X162075Y155542D02*
D03*
X155675D02*
D03*
X44300Y175500D02*
D03*
X50700D02*
D03*
D142*
X166299Y224000D02*
D03*
X159599D02*
D03*
X37371Y265338D02*
D03*
X44071D02*
D03*
X162225Y155542D02*
D03*
X155525D02*
D03*
X44150Y175500D02*
D03*
X50850D02*
D03*
D143*
X166249Y224000D02*
D03*
X159649D02*
D03*
X37420Y265338D02*
D03*
X44021D02*
D03*
X162175Y155542D02*
D03*
X155575D02*
D03*
X44200Y175500D02*
D03*
X50800D02*
D03*
D144*
X166324Y224000D02*
D03*
X159574D02*
D03*
X46220Y127396D02*
D03*
Y134146D02*
D03*
X37345Y265338D02*
D03*
X44096D02*
D03*
X139976Y273254D02*
D03*
Y266504D02*
D03*
X162250Y155542D02*
D03*
X155500D02*
D03*
X44125Y175500D02*
D03*
X50875D02*
D03*
X66000Y123375D02*
D03*
Y130125D02*
D03*
X66500Y299375D02*
D03*
Y292625D02*
D03*
X112569Y293328D02*
D03*
Y286578D02*
D03*
D145*
X46220Y128896D02*
D03*
Y132646D02*
D03*
X139976Y271754D02*
D03*
Y268004D02*
D03*
X66000Y124875D02*
D03*
Y128625D02*
D03*
X66500Y297875D02*
D03*
Y294125D02*
D03*
X112569Y291828D02*
D03*
Y288078D02*
D03*
D146*
X46220Y128771D02*
D03*
Y132771D02*
D03*
X139976Y271879D02*
D03*
Y267879D02*
D03*
X66000Y124750D02*
D03*
Y128750D02*
D03*
X66500Y298000D02*
D03*
Y294000D02*
D03*
X112569Y291953D02*
D03*
Y287953D02*
D03*
D147*
X46220Y129021D02*
D03*
Y132521D02*
D03*
X139976Y271629D02*
D03*
Y268129D02*
D03*
X66000Y125000D02*
D03*
Y128500D02*
D03*
X66500Y297750D02*
D03*
Y294250D02*
D03*
X112569Y291703D02*
D03*
Y288203D02*
D03*
D148*
X46220Y128646D02*
D03*
Y132896D02*
D03*
X139976Y272004D02*
D03*
Y267754D02*
D03*
X66000Y124625D02*
D03*
Y128875D02*
D03*
X66500Y298125D02*
D03*
Y293875D02*
D03*
X112569Y292078D02*
D03*
Y287828D02*
D03*
D149*
X46220Y128521D02*
D03*
Y133021D02*
D03*
X139976Y272129D02*
D03*
Y267629D02*
D03*
X66000Y124500D02*
D03*
Y129000D02*
D03*
X66500Y298250D02*
D03*
Y293750D02*
D03*
X112569Y292203D02*
D03*
Y287703D02*
D03*
D150*
X46220Y127521D02*
D03*
Y134021D02*
D03*
X139976Y273129D02*
D03*
Y266629D02*
D03*
X66000Y123500D02*
D03*
Y130000D02*
D03*
X66500Y299250D02*
D03*
Y292750D02*
D03*
X112569Y293203D02*
D03*
Y286703D02*
D03*
D151*
X46220Y128396D02*
D03*
Y133146D02*
D03*
X139976Y272254D02*
D03*
Y267504D02*
D03*
X66000Y124375D02*
D03*
Y129125D02*
D03*
X66500Y298375D02*
D03*
Y293625D02*
D03*
X112569Y292328D02*
D03*
Y287578D02*
D03*
D152*
X46220Y128271D02*
D03*
Y133271D02*
D03*
X139976Y272379D02*
D03*
Y267379D02*
D03*
X66000Y124250D02*
D03*
Y129250D02*
D03*
X66500Y298500D02*
D03*
Y293500D02*
D03*
X112569Y292453D02*
D03*
Y287453D02*
D03*
D153*
X46220Y128146D02*
D03*
Y133396D02*
D03*
X139976Y272504D02*
D03*
Y267254D02*
D03*
X66000Y124125D02*
D03*
Y129375D02*
D03*
X66500Y298625D02*
D03*
Y293375D02*
D03*
X112569Y292578D02*
D03*
Y287328D02*
D03*
D154*
X46220Y128021D02*
D03*
Y133521D02*
D03*
X139976Y272629D02*
D03*
Y267129D02*
D03*
X66000Y124000D02*
D03*
Y129500D02*
D03*
X66500Y298750D02*
D03*
Y293250D02*
D03*
X112569Y292703D02*
D03*
Y287203D02*
D03*
D155*
X46220Y127896D02*
D03*
Y133646D02*
D03*
X139976Y272754D02*
D03*
Y267004D02*
D03*
X66000Y123875D02*
D03*
Y129625D02*
D03*
X66500Y298875D02*
D03*
Y293125D02*
D03*
X112569Y292828D02*
D03*
Y287078D02*
D03*
D156*
X46220Y127771D02*
D03*
Y133771D02*
D03*
X139976Y272879D02*
D03*
Y266879D02*
D03*
X66000Y123750D02*
D03*
Y129750D02*
D03*
X66500Y299000D02*
D03*
Y293000D02*
D03*
X112569Y292953D02*
D03*
Y286953D02*
D03*
D157*
X46220Y127696D02*
D03*
Y133846D02*
D03*
X139976Y272954D02*
D03*
Y266804D02*
D03*
X66000Y123675D02*
D03*
Y129825D02*
D03*
X66500Y299075D02*
D03*
Y292925D02*
D03*
X112569Y293028D02*
D03*
Y286878D02*
D03*
D158*
X46220Y127646D02*
D03*
Y133896D02*
D03*
X139976Y273004D02*
D03*
Y266754D02*
D03*
X66000Y123625D02*
D03*
Y129875D02*
D03*
X66500Y299125D02*
D03*
Y292875D02*
D03*
X112569Y293078D02*
D03*
Y286828D02*
D03*
D159*
X46220Y127571D02*
D03*
Y133971D02*
D03*
X139976Y273079D02*
D03*
Y266679D02*
D03*
X66000Y123550D02*
D03*
Y129950D02*
D03*
X66500Y299200D02*
D03*
Y292800D02*
D03*
X112569Y293153D02*
D03*
Y286753D02*
D03*
D160*
X46220Y127421D02*
D03*
Y134121D02*
D03*
X139976Y273229D02*
D03*
Y266529D02*
D03*
X66000Y123400D02*
D03*
Y130100D02*
D03*
X66500Y299350D02*
D03*
Y292650D02*
D03*
X112569Y293303D02*
D03*
Y286603D02*
D03*
D161*
X46220Y127471D02*
D03*
Y134071D02*
D03*
X139976Y273179D02*
D03*
Y266579D02*
D03*
X66000Y123450D02*
D03*
Y130050D02*
D03*
X66500Y299300D02*
D03*
Y292700D02*
D03*
X112569Y293253D02*
D03*
Y286653D02*
D03*
D166*
X118750Y325250D02*
D03*
D167*
X98750Y335250D02*
D03*
Y330250D02*
D03*
Y325250D02*
D03*
X101500Y320250D02*
D03*
Y315250D02*
D03*
X138850D02*
D03*
Y320250D02*
D03*
Y325250D02*
D03*
X136000Y330250D02*
D03*
Y335250D02*
D03*
X111250Y305150D02*
D03*
X126250Y308000D02*
D03*
X111250Y342500D02*
D03*
X126250Y345250D02*
D03*
D171*
X99000Y212000D02*
D03*
D172*
X60750Y244000D02*
D03*
Y240000D02*
D03*
Y236000D02*
D03*
Y232000D02*
D03*
Y228000D02*
D03*
Y224000D02*
D03*
Y220000D02*
D03*
Y216000D02*
D03*
Y212000D02*
D03*
Y208000D02*
D03*
Y204000D02*
D03*
Y200000D02*
D03*
Y196000D02*
D03*
Y192000D02*
D03*
Y188000D02*
D03*
Y184000D02*
D03*
Y180000D02*
D03*
X137250D02*
D03*
Y184000D02*
D03*
Y188000D02*
D03*
Y192000D02*
D03*
Y196000D02*
D03*
Y200000D02*
D03*
Y204000D02*
D03*
Y208000D02*
D03*
Y212000D02*
D03*
Y216000D02*
D03*
Y220000D02*
D03*
Y224000D02*
D03*
Y228000D02*
D03*
Y232000D02*
D03*
Y236000D02*
D03*
Y240000D02*
D03*
Y244000D02*
D03*
D173*
X67000Y173750D02*
D03*
X71000D02*
D03*
X75000D02*
D03*
X79000D02*
D03*
X83000D02*
D03*
X87000D02*
D03*
X91000D02*
D03*
X95000D02*
D03*
X99000D02*
D03*
X103000D02*
D03*
X107000D02*
D03*
X111000D02*
D03*
X115000D02*
D03*
X119000D02*
D03*
X123000D02*
D03*
X127000D02*
D03*
X131000D02*
D03*
Y250250D02*
D03*
X127000D02*
D03*
X123000D02*
D03*
X119000D02*
D03*
X115000D02*
D03*
X111000D02*
D03*
X107000D02*
D03*
X103000D02*
D03*
X99000D02*
D03*
X95000D02*
D03*
X91000D02*
D03*
X87000D02*
D03*
X83000D02*
D03*
X79000D02*
D03*
X75000D02*
D03*
X71000D02*
D03*
X67000D02*
D03*
D178*
X213392Y213000D02*
D03*
Y205000D02*
D03*
Y197000D02*
D03*
Y189000D02*
D03*
Y181000D02*
D03*
Y173000D02*
D03*
Y165000D02*
D03*
X237392D02*
D03*
Y173000D02*
D03*
Y181000D02*
D03*
Y189000D02*
D03*
Y197000D02*
D03*
Y205000D02*
D03*
Y213000D02*
D03*
D181*
X166449Y224000D02*
G03*
X166449Y224000I-3500J0D01*
G01*
X49721Y130771D02*
G03*
X49721Y130771I-3500J0D01*
G01*
X44220Y265338D02*
G03*
X44220Y265338I-3500J0D01*
G01*
X143476Y269879D02*
G03*
X143476Y269879I-3500J0D01*
G01*
X162375Y155542D02*
G03*
X162375Y155542I-3500J0D01*
G01*
X51000Y175500D02*
G03*
X51000Y175500I-3500J0D01*
G01*
X69500Y126750D02*
G03*
X69500Y126750I-3500J0D01*
G01*
X70000Y296000D02*
G03*
X70000Y296000I-3500J0D01*
G01*
X116069Y289953D02*
G03*
X116069Y289953I-3500J0D01*
G01*
D182*
X192000Y236000D02*
D03*
X226000D02*
D03*
D183*
X250000Y138000D02*
D03*
D184*
X346000D02*
D03*
Y238000D02*
D03*
D185*
X131793Y142742D02*
D03*
X122993D02*
D03*
X142857Y142500D02*
D03*
X151657D02*
D03*
D186*
X152100Y170000D02*
D03*
X161900D02*
D03*
D187*
X110550Y147742D02*
D03*
X95450D02*
D03*
D188*
X38500Y215500D02*
D03*
X48000D02*
D03*
D189*
X49521Y89229D02*
D03*
X25479Y113271D02*
D03*
D190*
X171999Y194882D02*
D03*
Y200751D02*
D03*
Y206620D02*
D03*
X177000Y194882D02*
D03*
Y200751D02*
D03*
Y206620D02*
D03*
D191*
X94250Y273887D02*
D03*
X79750D02*
D03*
D192*
X140892Y160117D02*
D03*
X129894D02*
D03*
X129893Y151616D02*
D03*
X140892Y151616D02*
D03*
D193*
X250000Y97815D02*
D03*
Y114315D02*
D03*
D194*
X232750Y138000D02*
D03*
X247250D02*
D03*
X238000Y76190D02*
D03*
X252500D02*
D03*
D195*
X151800Y128375D02*
D03*
X188200D02*
D03*
D196*
X119000Y89125D02*
D03*
X221000D02*
D03*
Y17125D02*
D03*
X119000D02*
D03*
D197*
X219000Y45625D02*
D03*
Y57625D02*
D03*
X219000Y69625D02*
D03*
X121000D02*
D03*
X121000Y57625D02*
D03*
Y45625D02*
D03*
D198*
X170892Y258453D02*
D03*
X175892D02*
D03*
X180892D02*
D03*
X185892D02*
D03*
X190892D02*
D03*
X195892D02*
D03*
X200892D02*
D03*
X205892D02*
D03*
X210892D02*
D03*
X215892D02*
D03*
D199*
X144392Y289953D02*
D03*
X242392D02*
D03*
M02*
