G04*
G04 #@! TF.GenerationSoftware,Altium Limited,Altium NEXUS,3.0.10 (100)*
G04*
G04 Layer_Physical_Order=6*
G04 Layer_Color=16711680*
%FSLAX44Y44*%
%MOMM*%
G71*
G01*
G75*
%ADD11C,0.1000*%
%ADD14C,0.2540*%
G04:AMPARAMS|DCode=16|XSize=0.8mm|YSize=1.5mm|CornerRadius=0.2mm|HoleSize=0mm|Usage=FLASHONLY|Rotation=90.000|XOffset=0mm|YOffset=0mm|HoleType=Round|Shape=RoundedRectangle|*
%AMROUNDEDRECTD16*
21,1,0.8000,1.1000,0,0,90.0*
21,1,0.4000,1.5000,0,0,90.0*
1,1,0.4000,0.5500,0.2000*
1,1,0.4000,0.5500,-0.2000*
1,1,0.4000,-0.5500,-0.2000*
1,1,0.4000,-0.5500,0.2000*
%
%ADD16ROUNDEDRECTD16*%
%ADD22R,0.7600X0.7200*%
%ADD23R,0.4200X0.6200*%
%ADD24R,0.7200X0.7600*%
%ADD25R,0.6200X0.4200*%
%ADD32R,0.6500X1.0500*%
%ADD37R,0.4500X0.4500*%
%ADD62R,0.7400X0.7800*%
%ADD76R,0.9500X1.0500*%
%ADD80R,1.0000X0.8000*%
%ADD106C,0.5000*%
%ADD109C,0.3000*%
%ADD111R,0.9000X0.9000*%
%ADD112C,0.9000*%
%ADD113R,0.9000X0.9000*%
%ADD114C,0.4000*%
%ADD115C,0.4500*%
%ADD116R,0.4000X0.4000*%
%ADD117R,0.8000X1.6000*%
%ADD118R,2.0000X2.0000*%
%ADD119R,3.2000X2.2000*%
%ADD120R,0.3500X0.3750*%
%ADD121R,0.3750X0.3500*%
%ADD122R,0.3750X0.3500*%
%ADD123R,0.3500X0.3750*%
%ADD124R,0.6600X0.6200*%
%ADD125R,0.7800X0.7400*%
%ADD126R,0.5000X0.6000*%
%ADD127O,0.2250X1.1250*%
%ADD128O,0.2500X1.1120*%
%ADD129O,0.2000X1.1370*%
%ADD130O,0.2750X1.0980*%
%ADD131O,0.3000X1.0820*%
%ADD132O,0.5000X0.7600*%
%ADD133O,0.3250X1.0630*%
%ADD134O,0.3500X1.0400*%
%ADD135O,0.3750X1.0130*%
%ADD136O,0.4000X0.9810*%
%ADD137O,0.4250X0.9430*%
%ADD138O,0.4500X0.8970*%
%ADD139O,0.4650X0.8650*%
%ADD140O,0.4750X0.8400*%
%ADD141O,0.4900X0.8000*%
%ADD142O,0.5200X0.6300*%
%ADD143O,0.5100X0.7100*%
%ADD144C,0.5250*%
%ADD145O,1.1250X0.2250*%
%ADD146O,1.1120X0.2500*%
%ADD147O,1.1370X0.2000*%
%ADD148O,1.0980X0.2750*%
%ADD149O,1.0820X0.3000*%
%ADD150O,0.7600X0.5000*%
%ADD151O,1.0630X0.3250*%
%ADD152O,1.0400X0.3500*%
%ADD153O,1.0130X0.3750*%
%ADD154O,0.9810X0.4000*%
%ADD155O,0.9430X0.4250*%
%ADD156O,0.8970X0.4500*%
%ADD157O,0.8650X0.4650*%
%ADD158O,0.8400X0.4750*%
%ADD159O,0.8000X0.4900*%
%ADD160O,0.6300X0.5200*%
%ADD161O,0.7100X0.5100*%
%ADD162R,0.9900X1.3900*%
%ADD163R,0.7000X0.6500*%
G04:AMPARAMS|DCode=164|XSize=0.8mm|YSize=1.7mm|CornerRadius=0mm|HoleSize=0mm|Usage=FLASHONLY|Rotation=135.000|XOffset=0mm|YOffset=0mm|HoleType=Round|Shape=Rectangle|*
%AMROTATEDRECTD164*
4,1,4,0.8839,0.3182,-0.3182,-0.8839,-0.8839,-0.3182,0.3182,0.8839,0.8839,0.3182,0.0*
%
%ADD164ROTATEDRECTD164*%

%ADD165R,0.2000X0.2000*%
%ADD166R,2.0500X2.0500*%
%ADD167C,0.2520*%
%ADD168R,0.7500X1.4000*%
%ADD169R,0.6000X0.5000*%
%ADD170R,1.0500X1.1500*%
%ADD171R,6.4000X6.4000*%
%ADD172R,0.6500X0.2500*%
%ADD173R,0.2500X0.6500*%
%ADD174R,1.1000X1.0000*%
%ADD175R,1.0000X2.3000*%
%ADD176R,0.3000X1.4000*%
%ADD177R,1.6000X2.2000*%
%ADD178R,0.7500X0.3500*%
%ADD179C,0.4013*%
%ADD180C,2.0000*%
G36*
X142808Y355582D02*
X142543Y354250D01*
X142970Y352104D01*
X144185Y350285D01*
X146004Y349070D01*
X148150Y348643D01*
X150296Y349070D01*
X152116Y350285D01*
X152540Y350920D01*
X153810Y350534D01*
Y347750D01*
X153810Y347210D01*
X152792Y346600D01*
X146698D01*
X146400Y346724D01*
X146176D01*
X145814Y346874D01*
X129168D01*
X128622Y347590D01*
X129157Y348860D01*
X129890D01*
Y353730D01*
X123550D01*
Y356270D01*
X129890D01*
Y356852D01*
X141863D01*
X142808Y355582D01*
D02*
G37*
G36*
X127650Y339650D02*
Y339371D01*
X127437Y338857D01*
X127043Y338463D01*
X126529Y338250D01*
X125971D01*
X125457Y338463D01*
X125063Y338857D01*
X124850Y339371D01*
Y339650D01*
X124850Y346750D01*
X127650D01*
Y339650D01*
D02*
G37*
G36*
X112650D02*
X112650D01*
Y339371D01*
X112437Y338857D01*
X112043Y338463D01*
X111529Y338250D01*
X110971D01*
X110457Y338463D01*
X110063Y338857D01*
X109850Y339371D01*
Y339650D01*
Y346750D01*
X112650D01*
Y339650D01*
D02*
G37*
G36*
X140250Y333850D02*
X132872D01*
X132357Y334063D01*
X131963Y334457D01*
X131750Y334972D01*
Y335250D01*
Y335528D01*
X131963Y336043D01*
X132357Y336437D01*
X132872Y336650D01*
X140250D01*
Y333850D01*
D02*
G37*
G36*
X105143Y336437D02*
X105537Y336043D01*
X105750Y335528D01*
Y335250D01*
Y334972D01*
X105537Y334457D01*
X105143Y334063D01*
X104628Y333850D01*
X97250D01*
Y336650D01*
X104628D01*
X105143Y336437D01*
D02*
G37*
G36*
X140250Y328850D02*
X132872D01*
X132357Y329063D01*
X131963Y329457D01*
X131750Y329972D01*
Y330250D01*
Y330528D01*
X131963Y331043D01*
X132357Y331437D01*
X132872Y331650D01*
X133150D01*
X140250Y331650D01*
Y328850D01*
D02*
G37*
G36*
X104350Y331650D02*
X104628D01*
X105143Y331437D01*
X105537Y331043D01*
X105750Y330528D01*
Y330250D01*
Y329972D01*
X105537Y329457D01*
X105143Y329063D01*
X104628Y328850D01*
X97250D01*
Y331650D01*
X104350D01*
Y331650D01*
D02*
G37*
G36*
X254333Y355854D02*
X254396Y355582D01*
X254191Y354550D01*
X254424Y353380D01*
X255087Y352387D01*
X256080Y351724D01*
X257250Y351491D01*
X258421Y351724D01*
X259413Y352387D01*
X260076Y353380D01*
X260260Y354305D01*
X260977Y354689D01*
X261552Y354808D01*
X297262Y319098D01*
X296669Y317895D01*
X296250Y317950D01*
X294413Y317708D01*
X292700Y316999D01*
X291229Y315871D01*
X290101Y314400D01*
X289392Y312687D01*
X289317Y312120D01*
X296250D01*
Y309580D01*
X289317D01*
X289392Y309012D01*
X290101Y307299D01*
X291229Y305829D01*
X292413Y304920D01*
X292084Y303650D01*
X290750D01*
Y292650D01*
X301750D01*
Y303650D01*
X300416D01*
X300088Y304920D01*
X301271Y305829D01*
X302400Y307299D01*
X303109Y309012D01*
X303351Y310850D01*
X303296Y311269D01*
X304499Y311862D01*
X324996Y291365D01*
X324831Y290344D01*
X324635Y289930D01*
X323787Y289364D01*
X323124Y288371D01*
X322891Y287201D01*
X323124Y286030D01*
X323787Y285038D01*
X324779Y284375D01*
X325950Y284142D01*
X327120Y284375D01*
X328113Y285038D01*
X328679Y285886D01*
X329093Y286082D01*
X330114Y286247D01*
X356105Y260256D01*
X355619Y259082D01*
X240000D01*
X239235Y258765D01*
X238918Y258000D01*
Y234040D01*
X237670Y233346D01*
X236500Y233579D01*
X235329Y233346D01*
X234337Y232683D01*
X233674Y231691D01*
X233441Y230520D01*
X233568Y229884D01*
X232270Y228586D01*
X231000Y229112D01*
Y245000D01*
X221000D01*
Y227000D01*
X229952D01*
X231022Y226791D01*
X231126Y225782D01*
Y217673D01*
X228851Y215397D01*
X227680Y216022D01*
X227707Y216156D01*
X227474Y217327D01*
X226811Y218319D01*
X225819Y218982D01*
X224648Y219215D01*
X223477Y218982D01*
X222485Y218319D01*
X222188Y217874D01*
X204014D01*
X202866Y217398D01*
X196994Y211526D01*
X196518Y210378D01*
Y208214D01*
X196243Y208100D01*
X195042D01*
Y206898D01*
X194918Y206600D01*
X195042Y206302D01*
Y202210D01*
X194794Y201962D01*
X194318Y200814D01*
Y197658D01*
X193048Y197132D01*
X192682Y197498D01*
Y198140D01*
X191782Y199033D01*
X191782Y199410D01*
Y202730D01*
X187142D01*
X182502D01*
X182502Y199284D01*
X181232Y198595D01*
X180540Y199030D01*
Y199481D01*
X177000D01*
Y202021D01*
X180540D01*
Y204291D01*
X180134D01*
X179000Y204620D01*
Y208620D01*
X178322D01*
Y234713D01*
X187000D01*
Y227000D01*
X197000D01*
Y245000D01*
X187184D01*
X186416Y246028D01*
X189301Y248913D01*
X189932D01*
Y249544D01*
X190841Y250453D01*
X196961D01*
X197905Y249183D01*
X197833Y248824D01*
X198066Y247654D01*
X198729Y246661D01*
X199721Y245998D01*
X200892Y245765D01*
X202062Y245998D01*
X203055Y246661D01*
X203718Y247654D01*
X203951Y248824D01*
X204024Y248913D01*
X204622D01*
Y258453D01*
Y267993D01*
X201852D01*
Y266453D01*
X199662D01*
X198392Y266453D01*
Y266453D01*
X198392D01*
Y266453D01*
X189932D01*
Y267993D01*
X187162D01*
Y258453D01*
X184622D01*
Y267993D01*
X181852D01*
Y266453D01*
X168392D01*
Y257627D01*
X167330Y257187D01*
X162682Y252539D01*
X160800D01*
X159971Y253570D01*
X159951Y253671D01*
X159288Y254663D01*
X158295Y255326D01*
X157125Y255559D01*
X156489Y255432D01*
X155249Y256672D01*
Y271629D01*
X154773Y272777D01*
X153148Y274402D01*
X152000Y274877D01*
X145840D01*
X145467Y275143D01*
X145452Y275279D01*
X146167Y276413D01*
X154932D01*
Y277871D01*
X164892D01*
X165657Y278188D01*
X165974Y278953D01*
Y309953D01*
X165657Y310718D01*
X164892Y311035D01*
X152392D01*
X151626Y310718D01*
X151309Y309953D01*
Y303493D01*
X145662D01*
Y289953D01*
X143122D01*
Y303493D01*
X133852D01*
Y300233D01*
X132640Y300093D01*
Y300093D01*
X128270D01*
Y295453D01*
Y290813D01*
X130237D01*
X130725Y290082D01*
X131717Y289419D01*
X132888Y289186D01*
X133852Y288395D01*
Y281693D01*
X132582Y281167D01*
X131223Y282526D01*
Y282853D01*
X131100Y283152D01*
Y287553D01*
X122900D01*
Y281353D01*
X122900D01*
X122628Y280473D01*
X121459Y280228D01*
X121459Y280228D01*
X121459Y280228D01*
X114851D01*
X114193Y281213D01*
Y283146D01*
X114524Y283212D01*
X114548Y283228D01*
X114954Y283309D01*
X115042Y283368D01*
X115235Y283406D01*
X115344Y283479D01*
X115465Y283503D01*
X115671Y283641D01*
X115711Y283649D01*
X115852Y283743D01*
X115866Y283746D01*
X116966Y284481D01*
X116976Y284496D01*
X117147Y284610D01*
X117193Y284679D01*
X117412Y284825D01*
X117490Y284942D01*
X117637Y285040D01*
X117739Y285194D01*
X117832Y285256D01*
X117955Y285439D01*
X118002Y285471D01*
X118140Y285678D01*
X118152Y285686D01*
X118732Y286554D01*
X118738Y286584D01*
X118834Y286728D01*
X118846Y286789D01*
X118921Y286901D01*
X118938Y286984D01*
X118998Y287075D01*
X119017Y287169D01*
X119071Y287249D01*
X119091Y287353D01*
X119138Y287423D01*
X119293Y288203D01*
X119138Y288984D01*
X119117Y289015D01*
X118800Y289953D01*
X119117Y290891D01*
X119138Y290923D01*
X119293Y291703D01*
X119138Y292484D01*
X119091Y292553D01*
X119071Y292657D01*
X119017Y292738D01*
X118998Y292831D01*
X118938Y292922D01*
X118921Y293005D01*
X118846Y293117D01*
X118834Y293179D01*
X118738Y293323D01*
X118732Y293352D01*
X118152Y294221D01*
X118140Y294228D01*
X118002Y294436D01*
X117955Y294467D01*
X117832Y294651D01*
X117739Y294713D01*
X117637Y294866D01*
X117490Y294964D01*
X117412Y295081D01*
X117193Y295228D01*
X117147Y295296D01*
X116976Y295410D01*
X116966Y295425D01*
X115866Y296160D01*
X115852Y296163D01*
X115711Y296257D01*
X115671Y296265D01*
X115465Y296403D01*
X115344Y296427D01*
X115235Y296500D01*
X115042Y296538D01*
X114954Y296597D01*
X114548Y296678D01*
X114524Y296694D01*
X113119Y296974D01*
X112823D01*
X112569Y297024D01*
X112315Y296974D01*
X112019D01*
X111642Y296899D01*
X110715Y297826D01*
X110809Y298300D01*
X110576Y299471D01*
X109913Y300463D01*
X108920Y301126D01*
X107750Y301359D01*
X106580Y301126D01*
X105587Y300463D01*
X104924Y299471D01*
X104691Y298300D01*
X104924Y297129D01*
X105587Y296137D01*
X106441Y295566D01*
X106515Y295501D01*
X106646Y295277D01*
X106813Y294779D01*
X106914Y294113D01*
X106406Y293352D01*
X106400Y293323D01*
X106304Y293179D01*
X106292Y293117D01*
X106217Y293005D01*
X106200Y292922D01*
X106140Y292831D01*
X106121Y292738D01*
X106067Y292657D01*
X106047Y292553D01*
X106000Y292484D01*
X105845Y291703D01*
X106000Y290923D01*
X106021Y290891D01*
X106338Y289953D01*
X106021Y289015D01*
X106000Y288984D01*
X105845Y288203D01*
X106000Y287423D01*
X106047Y287353D01*
X106067Y287249D01*
X106121Y287169D01*
X106140Y287075D01*
X106200Y286984D01*
X106217Y286901D01*
X106292Y286789D01*
X106304Y286728D01*
X106400Y286584D01*
X106406Y286554D01*
X106987Y285686D01*
X106998Y285678D01*
X107136Y285471D01*
X107184Y285439D01*
X107306Y285256D01*
X107399Y285194D01*
X107501Y285040D01*
X107648Y284942D01*
X107726Y284825D01*
X107945Y284679D01*
X107991Y284610D01*
X108162Y284496D01*
X108172Y284481D01*
X108970Y283947D01*
X108655Y282769D01*
X108595Y282677D01*
X106156D01*
Y277887D01*
X103616D01*
Y282677D01*
X102466D01*
X101350Y283050D01*
Y291310D01*
X102890D01*
Y296380D01*
X90610D01*
Y294257D01*
X90076Y293819D01*
X89160Y293637D01*
X88279Y294110D01*
X87890Y294435D01*
Y296380D01*
X81750D01*
X75610D01*
Y291310D01*
X77150D01*
Y283050D01*
X77150D01*
X76891Y281887D01*
X75154D01*
Y289172D01*
X74678Y290320D01*
X72628Y292370D01*
X73002Y293296D01*
X73004Y293308D01*
X73069Y293470D01*
X73224Y294250D01*
X73069Y295030D01*
X73048Y295062D01*
X72731Y296000D01*
X73048Y296938D01*
X73069Y296970D01*
X73224Y297750D01*
X73069Y298530D01*
X73022Y298600D01*
X73002Y298704D01*
X72948Y298784D01*
X72929Y298878D01*
X72869Y298969D01*
X72852Y299052D01*
X72777Y299164D01*
X72765Y299226D01*
X72669Y299370D01*
X72663Y299399D01*
X72083Y300268D01*
X72071Y300275D01*
X71933Y300483D01*
X71885Y300514D01*
X71763Y300698D01*
X71670Y300759D01*
X71568Y300913D01*
X71421Y301011D01*
X71343Y301128D01*
X71124Y301274D01*
X71078Y301343D01*
X70907Y301457D01*
X70897Y301472D01*
X70027Y302053D01*
X69741Y303063D01*
X69800Y303516D01*
X69823Y303576D01*
X70326Y304329D01*
X70559Y305500D01*
X70326Y306670D01*
X69663Y307663D01*
X68671Y308326D01*
X67500Y308559D01*
X67343Y308528D01*
X66717Y309698D01*
X89986Y332966D01*
X90173Y332948D01*
X91165Y332285D01*
X92336Y332052D01*
X93506Y332285D01*
X94499Y332948D01*
X96019Y332974D01*
X96485Y332449D01*
Y332415D01*
X96168Y331650D01*
Y328850D01*
X96321Y328480D01*
X96112Y328110D01*
X94725Y327899D01*
X94395Y328393D01*
X93403Y329056D01*
X92233Y329289D01*
X91062Y329056D01*
X90070Y328393D01*
X89407Y327401D01*
X89174Y326230D01*
X89407Y325060D01*
X89747Y324550D01*
X88831Y323635D01*
X88578Y323804D01*
X88170Y324076D01*
X87000Y324309D01*
X85829Y324076D01*
X84837Y323413D01*
X84174Y322421D01*
X83941Y321250D01*
X84174Y320079D01*
X84837Y319087D01*
X85829Y318424D01*
X87000Y318191D01*
X88170Y318424D01*
X89163Y319087D01*
X89826Y320079D01*
X90059Y321250D01*
X89826Y322421D01*
X89486Y322930D01*
X90401Y323845D01*
X90655Y323676D01*
X91062Y323404D01*
X92233Y323171D01*
X93403Y323404D01*
X94395Y324067D01*
X94898Y324819D01*
X96112Y324630D01*
X96168Y324608D01*
Y323850D01*
X96485Y323085D01*
Y322415D01*
X96168Y321650D01*
Y318850D01*
X96485Y318085D01*
Y317415D01*
X96168Y316650D01*
Y313850D01*
X96485Y313085D01*
X97250Y312768D01*
X104628D01*
X104690Y312793D01*
X105960Y312460D01*
Y312460D01*
X107855D01*
X108322Y312029D01*
X108638Y311609D01*
X108793Y311190D01*
X108768Y311129D01*
Y305485D01*
X108701Y305150D01*
X108768Y304815D01*
Y303750D01*
X109085Y302985D01*
X109850Y302668D01*
X110915D01*
X111250Y302601D01*
X111585Y302668D01*
X112650D01*
X113415Y302985D01*
X113718Y303716D01*
X115421D01*
X115835Y303439D01*
X117006Y303206D01*
X118176Y303439D01*
X119169Y304102D01*
X119832Y305094D01*
X120064Y306265D01*
X119832Y307435D01*
X119169Y308428D01*
X118176Y309091D01*
X117006Y309324D01*
X115835Y309091D01*
X115421Y308814D01*
X113732D01*
Y311129D01*
X113707Y311190D01*
X113862Y311610D01*
X114178Y312030D01*
X114645Y312460D01*
X117480D01*
Y325250D01*
X120020D01*
Y312460D01*
X123799D01*
X124184Y311190D01*
X123510Y310740D01*
X122670Y309483D01*
X122628Y309270D01*
X124850D01*
Y310850D01*
X124850D01*
Y311129D01*
X125063Y311643D01*
X125457Y312037D01*
X125971Y312250D01*
X126529D01*
X127043Y312037D01*
X127437Y311643D01*
X127650Y311129D01*
Y310850D01*
Y309270D01*
X129872D01*
X129830Y309483D01*
X128990Y310740D01*
X128316Y311190D01*
X128701Y312460D01*
X131540D01*
Y312460D01*
X132810Y312793D01*
X132872Y312768D01*
X140250D01*
X141015Y313085D01*
X141332Y313850D01*
Y316650D01*
X141195Y316981D01*
X141482Y317637D01*
X141891Y317792D01*
X142944Y317936D01*
X143693Y317435D01*
X144863Y317202D01*
X146034Y317435D01*
X147026Y318098D01*
X147689Y319091D01*
X147849Y319893D01*
X148486Y320658D01*
X149058Y321061D01*
X149945Y321237D01*
X150937Y321900D01*
X151600Y322893D01*
X151833Y324063D01*
X151728Y324590D01*
X152593Y325860D01*
X155640D01*
Y330930D01*
X149500D01*
Y333470D01*
X155640D01*
Y338540D01*
X154100D01*
Y346060D01*
X154100Y346600D01*
X155118Y347210D01*
X159580D01*
Y354250D01*
X160850D01*
Y355520D01*
X167890D01*
Y356852D01*
X253653D01*
X254333Y355854D01*
D02*
G37*
G36*
X140250Y323850D02*
X132872D01*
X132357Y324063D01*
X131963Y324457D01*
X131750Y324972D01*
Y325250D01*
Y325528D01*
X131963Y326043D01*
X132357Y326437D01*
X132872Y326650D01*
X140250D01*
Y323850D01*
D02*
G37*
G36*
X105143Y326437D02*
X105537Y326043D01*
X105750Y325528D01*
Y325250D01*
Y324972D01*
X105537Y324457D01*
X105143Y324063D01*
X104628Y323850D01*
X97250D01*
Y326650D01*
X104628D01*
X105143Y326437D01*
D02*
G37*
G36*
X140250Y318850D02*
X133150D01*
Y318850D01*
X132872D01*
X132357Y319063D01*
X131963Y319457D01*
X131750Y319972D01*
Y320250D01*
Y320528D01*
X131963Y321043D01*
X132357Y321437D01*
X132872Y321650D01*
X140250D01*
Y318850D01*
D02*
G37*
G36*
X105143Y321437D02*
X105537Y321043D01*
X105750Y320528D01*
Y320250D01*
Y319972D01*
X105537Y319457D01*
X105143Y319063D01*
X104628Y318850D01*
X104350D01*
X97250Y318850D01*
Y321650D01*
X104628D01*
X105143Y321437D01*
D02*
G37*
G36*
X140250Y313850D02*
X132872D01*
X132357Y314063D01*
X131963Y314457D01*
X131750Y314972D01*
Y315250D01*
Y315529D01*
X131963Y316043D01*
X132357Y316437D01*
X132872Y316650D01*
X140250D01*
Y313850D01*
D02*
G37*
G36*
X105143Y316437D02*
X105537Y316043D01*
X105750Y315529D01*
Y315250D01*
Y314972D01*
X105537Y314457D01*
X105143Y314063D01*
X104628Y313850D01*
X97250D01*
Y316650D01*
X104628D01*
X105143Y316437D01*
D02*
G37*
G36*
X112043Y312037D02*
X112437Y311643D01*
X112650Y311129D01*
Y310850D01*
X112650Y303750D01*
X109850D01*
Y310850D01*
Y311129D01*
X110063Y311643D01*
X110457Y312037D01*
X110971Y312250D01*
X111529D01*
X112043Y312037D01*
D02*
G37*
G36*
X64472Y305657D02*
X64441Y305500D01*
X64674Y304329D01*
X64894Y304000D01*
X64573Y302747D01*
X64545Y302741D01*
X64521Y302725D01*
X64115Y302644D01*
X64027Y302585D01*
X63834Y302547D01*
X63725Y302474D01*
X63604Y302450D01*
X63398Y302312D01*
X63358Y302304D01*
X63217Y302210D01*
X63203Y302207D01*
X62103Y301472D01*
X62093Y301457D01*
X61922Y301343D01*
X61876Y301274D01*
X61657Y301128D01*
X61579Y301011D01*
X61432Y300913D01*
X61330Y300759D01*
X61237Y300698D01*
X61115Y300514D01*
X61067Y300483D01*
X60929Y300275D01*
X60918Y300268D01*
X60337Y299399D01*
X60331Y299370D01*
X60235Y299226D01*
X60223Y299164D01*
X60148Y299052D01*
X60131Y298969D01*
X60071Y298878D01*
X60052Y298784D01*
X59998Y298704D01*
X59978Y298600D01*
X59931Y298530D01*
X59776Y297750D01*
X59931Y296970D01*
X59952Y296938D01*
X60269Y296000D01*
X59952Y295062D01*
X59931Y295030D01*
X59776Y294250D01*
X59931Y293470D01*
X59978Y293400D01*
X59998Y293296D01*
X60052Y293216D01*
X60071Y293122D01*
X60131Y293031D01*
X60148Y292948D01*
X60223Y292836D01*
X60235Y292775D01*
X60331Y292630D01*
X60337Y292601D01*
X60918Y291733D01*
X60929Y291725D01*
X61067Y291517D01*
X61115Y291486D01*
X61237Y291302D01*
X61330Y291241D01*
X61432Y291087D01*
X61579Y290989D01*
X61657Y290872D01*
X61876Y290726D01*
X61922Y290657D01*
X62093Y290543D01*
X62103Y290528D01*
X63203Y289793D01*
X63217Y289790D01*
X63358Y289696D01*
X63398Y289688D01*
X63604Y289550D01*
X63725Y289526D01*
X63834Y289453D01*
X64027Y289415D01*
X64115Y289356D01*
X64521Y289275D01*
X64545Y289259D01*
X65927Y288984D01*
X65952Y288978D01*
X66633Y288385D01*
X66839Y288068D01*
X66969Y287738D01*
X66971Y287722D01*
X67043Y287363D01*
X66100Y286093D01*
X60860D01*
Y281023D01*
X67000D01*
Y278483D01*
X60860D01*
Y273413D01*
X62400D01*
Y265353D01*
X65376D01*
Y254500D01*
X64750D01*
Y246540D01*
X64460D01*
Y246250D01*
X56500D01*
Y245624D01*
X54285D01*
X53960Y246130D01*
X53733Y246894D01*
X54262Y247685D01*
X54495Y248856D01*
X54262Y250026D01*
X53599Y251019D01*
Y252406D01*
X54262Y253398D01*
X54495Y254569D01*
X54262Y255739D01*
X53599Y256732D01*
X52607Y257395D01*
X51436Y257628D01*
X50266Y257395D01*
X49273Y256732D01*
X48610Y255739D01*
X48377Y254569D01*
X47582Y253600D01*
X46260D01*
Y259584D01*
X45869Y260526D01*
X45995Y260714D01*
X46064Y260760D01*
X46178Y260931D01*
X46193Y260940D01*
X46928Y262040D01*
X46930Y262055D01*
X47025Y262196D01*
X47032Y262235D01*
X47170Y262442D01*
X47194Y262563D01*
X47267Y262672D01*
X47306Y262864D01*
X47365Y262952D01*
X47445Y263359D01*
X47462Y263383D01*
X47741Y264788D01*
Y265084D01*
X47792Y265338D01*
X47741Y265591D01*
Y265888D01*
X47462Y267292D01*
X47445Y267317D01*
X47365Y267723D01*
X47306Y267811D01*
X47267Y268003D01*
X47194Y268113D01*
X47170Y268234D01*
X47032Y268440D01*
X47025Y268479D01*
X46930Y268621D01*
X46928Y268635D01*
X46193Y269735D01*
X46178Y269745D01*
X46064Y269916D01*
X45995Y269962D01*
X45848Y270181D01*
X45731Y270259D01*
X45633Y270406D01*
X45480Y270508D01*
X45418Y270600D01*
X45235Y270723D01*
X45203Y270770D01*
X44995Y270909D01*
X44988Y270920D01*
X44120Y271500D01*
X44090Y271506D01*
X43946Y271603D01*
X43885Y271615D01*
X43772Y271690D01*
X43689Y271706D01*
X43598Y271767D01*
X43505Y271786D01*
X43425Y271839D01*
X43321Y271860D01*
X43251Y271907D01*
X42470Y272062D01*
X41690Y271907D01*
X41029Y271465D01*
X40412D01*
X39751Y271907D01*
X38970Y272062D01*
X38190Y271907D01*
X38120Y271860D01*
X38016Y271839D01*
X37936Y271786D01*
X37843Y271767D01*
X37752Y271706D01*
X37669Y271690D01*
X37557Y271615D01*
X37495Y271603D01*
X37351Y271506D01*
X37321Y271500D01*
X36453Y270920D01*
X36446Y270909D01*
X36238Y270770D01*
X36206Y270723D01*
X36023Y270600D01*
X35961Y270508D01*
X35808Y270406D01*
X35710Y270259D01*
X35593Y270181D01*
X35446Y269962D01*
X35378Y269916D01*
X35263Y269745D01*
X35248Y269735D01*
X34513Y268635D01*
X34511Y268621D01*
X34416Y268479D01*
X34409Y268440D01*
X34271Y268234D01*
X34247Y268113D01*
X34174Y268003D01*
X34135Y267811D01*
X34076Y267723D01*
X33996Y267317D01*
X33979Y267292D01*
X33777Y266275D01*
X28136Y260634D01*
X27500Y260760D01*
X26330Y260528D01*
X25337Y259865D01*
X24674Y258872D01*
X24441Y257702D01*
X24674Y256531D01*
X25337Y255539D01*
X26330Y254876D01*
X27500Y254643D01*
X28696Y253586D01*
Y250270D01*
X35036D01*
Y247730D01*
X28696D01*
Y242860D01*
X30042D01*
X30580Y241813D01*
X30581Y241590D01*
Y237443D01*
X35221D01*
X39861D01*
Y241590D01*
X39861Y241813D01*
X40399Y242860D01*
X41376D01*
Y244400D01*
X44597D01*
Y240273D01*
X43120D01*
Y232073D01*
X48917D01*
X49352Y232047D01*
X50268Y231295D01*
X50361Y230830D01*
X51024Y229837D01*
X52016Y229174D01*
X53187Y228941D01*
X53292Y228962D01*
X54376Y228026D01*
Y225086D01*
X54852Y223938D01*
X55896Y222894D01*
X55886Y222671D01*
X55585Y221624D01*
X53859D01*
X52169Y223314D01*
X52326Y223548D01*
X52559Y224718D01*
X52326Y225889D01*
X51663Y226881D01*
X50670Y227544D01*
X49500Y227777D01*
X48330Y227544D01*
X47337Y226881D01*
X46674Y225889D01*
X46441Y224718D01*
X46674Y223548D01*
X47337Y222556D01*
X48330Y221893D01*
X49120Y221735D01*
X49673Y220941D01*
X49121Y219750D01*
X44270D01*
X43500Y219750D01*
X42230Y219750D01*
X34000D01*
Y217124D01*
X30750D01*
Y219250D01*
X23750Y219250D01*
X23290Y220329D01*
Y220790D01*
X19520D01*
Y215250D01*
Y209710D01*
X22368D01*
X22894Y208440D01*
X13916Y199462D01*
X13500Y198459D01*
X11448D01*
Y254428D01*
X63302Y306283D01*
X64472Y305657D01*
D02*
G37*
G36*
X43288Y202326D02*
X43162Y201690D01*
X43395Y200520D01*
X44058Y199527D01*
X44233Y199410D01*
X43848Y198140D01*
X42470D01*
Y192000D01*
Y185860D01*
X47540D01*
Y187400D01*
X49176D01*
Y182210D01*
X48470Y182069D01*
X48438Y182048D01*
X47500Y181731D01*
X46562Y182048D01*
X46530Y182069D01*
X45750Y182224D01*
X44970Y182069D01*
X44900Y182022D01*
X44796Y182002D01*
X44715Y181948D01*
X44622Y181929D01*
X44531Y181869D01*
X44448Y181852D01*
X44336Y181777D01*
X44275Y181765D01*
X44130Y181669D01*
X44101Y181663D01*
X43232Y181082D01*
X43225Y181071D01*
X43017Y180933D01*
X42986Y180885D01*
X42802Y180763D01*
X42741Y180670D01*
X42587Y180568D01*
X42489Y180421D01*
X42372Y180343D01*
X42226Y180124D01*
X42157Y180078D01*
X42043Y179907D01*
X42028Y179897D01*
X41293Y178797D01*
X41290Y178783D01*
X41196Y178642D01*
X41188Y178602D01*
X41050Y178396D01*
X41026Y178275D01*
X40953Y178166D01*
X40915Y177973D01*
X40856Y177885D01*
X40775Y177479D01*
X40759Y177455D01*
X40479Y176050D01*
Y175754D01*
X40429Y175500D01*
X40479Y175246D01*
Y174950D01*
X40501Y174840D01*
Y168013D01*
X40977Y166865D01*
X44318Y163524D01*
X44191Y162888D01*
X44424Y161717D01*
X45087Y160725D01*
X46080Y160062D01*
X47084Y159862D01*
X46958Y158592D01*
X40736D01*
Y155330D01*
X40038Y155040D01*
X39166Y154169D01*
X37996Y154794D01*
X38095Y155292D01*
X37862Y156463D01*
X37199Y157455D01*
X36207Y158118D01*
X35036Y158351D01*
X33866Y158118D01*
X33173Y157656D01*
X32258Y158571D01*
X32881Y159504D01*
X33308Y161650D01*
X32881Y163796D01*
X32714Y164045D01*
X33315Y165432D01*
X33611Y165480D01*
X34050Y165187D01*
X35221Y164954D01*
X36391Y165187D01*
X37383Y165850D01*
X38047Y166842D01*
X38279Y168013D01*
X38047Y169183D01*
X37383Y170176D01*
X36391Y170839D01*
X35221Y171072D01*
X34050Y170839D01*
X33601Y170539D01*
X33326Y170584D01*
X32723Y171968D01*
X32881Y172204D01*
X33308Y174350D01*
X32881Y176496D01*
X32631Y176869D01*
X33189Y178320D01*
X33751Y178462D01*
X33866Y178385D01*
X35036Y178152D01*
X36207Y178385D01*
X37199Y179048D01*
X37862Y180040D01*
X38095Y181211D01*
X37862Y182381D01*
X37199Y183374D01*
X36207Y184037D01*
X35036Y184270D01*
X33866Y184037D01*
X33799Y183992D01*
X32887Y184898D01*
X32881Y184907D01*
X33308Y187050D01*
X32881Y189196D01*
X31665Y191015D01*
X29846Y192231D01*
X27700Y192658D01*
X25554Y192231D01*
X24829Y191746D01*
X23559Y192425D01*
Y194375D01*
X24829Y195054D01*
X25554Y194569D01*
X27700Y194142D01*
X29846Y194569D01*
X31665Y195785D01*
X32881Y197604D01*
X33308Y199750D01*
X32881Y201896D01*
X31665Y203715D01*
X29846Y204931D01*
X28963Y205106D01*
X29088Y206376D01*
X39238D01*
X43288Y202326D01*
D02*
G37*
G36*
X226821Y206979D02*
X226924Y206462D01*
X227587Y205469D01*
X227340Y204107D01*
X227336Y204104D01*
X226673Y203112D01*
X226440Y201941D01*
X226673Y200771D01*
X227336Y199778D01*
X228328Y199115D01*
X228350Y199111D01*
Y198964D01*
X228826Y197816D01*
X230790Y195852D01*
X231938Y195376D01*
X232338Y194977D01*
X232484Y194315D01*
X231669Y193290D01*
X231102D01*
Y190270D01*
X237392D01*
Y187730D01*
X231102D01*
Y184710D01*
X231894D01*
X232642Y183750D01*
Y178250D01*
X238918D01*
Y175750D01*
X232642D01*
Y170250D01*
X238918D01*
Y167750D01*
X232642D01*
Y162250D01*
X238918D01*
Y145790D01*
X234020D01*
Y138000D01*
Y130210D01*
X238918D01*
Y118000D01*
X239235Y117235D01*
X240000Y116918D01*
X243750D01*
Y107565D01*
X256250D01*
Y116918D01*
X261158D01*
X261644Y115744D01*
X261234Y115335D01*
X260759Y114187D01*
Y111843D01*
X260220Y111482D01*
X259557Y110490D01*
X259324Y109320D01*
X259557Y108149D01*
X260220Y107157D01*
X261212Y106494D01*
X262383Y106261D01*
X263553Y106494D01*
X264545Y107157D01*
X265208Y108149D01*
X265441Y109320D01*
X265441Y109321D01*
X265547Y109505D01*
X266541Y110299D01*
X267228Y110162D01*
X267441Y110204D01*
X268626Y109145D01*
Y99850D01*
X262400D01*
Y98667D01*
X261130Y97733D01*
X260750Y97809D01*
X259580Y97576D01*
X258587Y96913D01*
X257924Y95920D01*
X257691Y94750D01*
X257924Y93580D01*
X258587Y92587D01*
X259580Y91924D01*
X260750Y91691D01*
X260860Y91601D01*
Y86720D01*
X267000D01*
Y84180D01*
X260860D01*
Y79110D01*
X266120D01*
X266703Y78400D01*
X266936Y77229D01*
X267599Y76237D01*
X268591Y75574D01*
X269762Y75341D01*
X270932Y75574D01*
X271740Y76114D01*
X272470Y75904D01*
X273010Y75576D01*
Y74770D01*
X279350D01*
Y73500D01*
X280620D01*
Y67360D01*
X285690D01*
Y68900D01*
X293950D01*
Y78100D01*
X290124D01*
Y85352D01*
X290320Y85548D01*
X291586Y85512D01*
X292001Y85125D01*
X292477Y83977D01*
X295153Y81301D01*
X295309Y80520D01*
X295972Y79527D01*
X296964Y78864D01*
X298135Y78632D01*
X299305Y78864D01*
X300298Y79527D01*
X300961Y80520D01*
X301193Y81690D01*
X301010Y82615D01*
X301562Y83250D01*
X302020Y83547D01*
X303020Y83348D01*
X303880Y83519D01*
X305150Y82811D01*
Y76900D01*
X308326D01*
Y71102D01*
X304621Y67397D01*
X304428Y67416D01*
X303435Y68079D01*
X302265Y68312D01*
X301094Y68079D01*
X300102Y67416D01*
X299439Y66424D01*
X299206Y65253D01*
X299439Y64083D01*
X300102Y63090D01*
X301094Y62427D01*
X302265Y62194D01*
X303435Y62427D01*
X304428Y63090D01*
X304794Y63638D01*
X305921Y64105D01*
X311098Y69282D01*
X311574Y70430D01*
Y76900D01*
X313210D01*
Y75360D01*
X318280D01*
Y81500D01*
Y87640D01*
X313624D01*
Y89500D01*
X316100D01*
Y95700D01*
X307900D01*
Y91294D01*
X306630Y90767D01*
X301999Y95398D01*
X300851Y95874D01*
X296500D01*
Y99763D01*
X297770Y100704D01*
X298135Y100632D01*
X299305Y100864D01*
X300298Y101527D01*
X300961Y102520D01*
X301193Y103690D01*
X300961Y104861D01*
X300298Y105853D01*
X299305Y106516D01*
X298135Y106749D01*
X297770Y106677D01*
X296500Y107000D01*
Y107000D01*
X291250D01*
Y107250D01*
X290124D01*
Y107988D01*
X289648Y109136D01*
X287194Y111590D01*
X287295Y112860D01*
X294390D01*
Y116918D01*
X361932D01*
Y110062D01*
X327110Y75240D01*
X325890Y75816D01*
Y80230D01*
X320820D01*
Y75360D01*
X325434D01*
X326011Y74140D01*
X286273Y34403D01*
X285100Y34889D01*
Y38460D01*
X286640D01*
Y43530D01*
X280500D01*
Y44800D01*
X279230D01*
Y51140D01*
X274360D01*
Y47728D01*
X273350Y47100D01*
X265150D01*
Y45624D01*
X263750D01*
X262602Y45148D01*
X257273Y39819D01*
X256100Y40306D01*
Y45960D01*
X257640D01*
Y51030D01*
X251500D01*
X245360D01*
Y45960D01*
X246900D01*
Y44324D01*
X241350D01*
Y44350D01*
X233150D01*
Y44350D01*
X232377Y44030D01*
X231374Y44835D01*
Y47167D01*
X231913Y47527D01*
X231968Y47610D01*
X235980D01*
Y52250D01*
Y56890D01*
X231610D01*
Y53467D01*
X230340Y52632D01*
X229750Y52749D01*
X228580Y52516D01*
X227587Y51853D01*
X226924Y50861D01*
X226691Y49690D01*
X226924Y48520D01*
X227587Y47527D01*
X228126Y47167D01*
Y44000D01*
X228602Y42852D01*
X231352Y40102D01*
X232500Y39626D01*
X233150D01*
Y38150D01*
X238001D01*
Y28250D01*
X236750D01*
Y24790D01*
X235210D01*
Y21770D01*
X239625D01*
Y19230D01*
X235210D01*
Y16770D01*
X239625D01*
Y14230D01*
X235210D01*
Y11210D01*
X235210Y11210D01*
X235828Y9940D01*
X235641Y9000D01*
X235660Y8908D01*
X234617Y7638D01*
X228540D01*
Y15855D01*
X221000D01*
X213460D01*
Y7638D01*
X202482D01*
Y34625D01*
X202165Y35390D01*
X201400Y35707D01*
X189400D01*
X188635Y35390D01*
X188318Y34625D01*
Y7638D01*
X177083D01*
Y34625D01*
X176765Y35390D01*
X176000Y35707D01*
X164000D01*
X163235Y35390D01*
X162918Y34625D01*
Y7638D01*
X151682D01*
Y34625D01*
X151365Y35390D01*
X150600Y35707D01*
X138600D01*
X137835Y35390D01*
X137518Y34625D01*
Y7638D01*
X126540D01*
Y15855D01*
X111460D01*
Y11709D01*
X110287Y11223D01*
X58183Y63327D01*
X58669Y64500D01*
X59500D01*
Y71000D01*
X56209D01*
X56055Y71230D01*
X56734Y72500D01*
X59500D01*
Y74126D01*
X61360D01*
Y71220D01*
X73640D01*
Y76290D01*
X72100D01*
Y84350D01*
X69124D01*
Y99461D01*
X68648Y100609D01*
X64846Y104411D01*
X63921Y104794D01*
X63499Y105426D01*
X62507Y106089D01*
X61336Y106322D01*
X60166Y106089D01*
X59173Y105426D01*
X58510Y104434D01*
X58278Y103263D01*
X58510Y102093D01*
X59173Y101100D01*
X60166Y100437D01*
X61336Y100204D01*
X62507Y100437D01*
X63499Y101100D01*
X63559Y101106D01*
X65876Y98788D01*
Y84350D01*
X63233D01*
X62421Y85422D01*
X62821Y86020D01*
X63054Y87190D01*
X62821Y88361D01*
X62158Y89353D01*
X61166Y90016D01*
X59995Y90249D01*
X59262Y90103D01*
X58636Y91274D01*
X59774Y92411D01*
X52703Y99482D01*
X39268Y86047D01*
X46339Y78976D01*
Y78976D01*
X47095Y78019D01*
X46695Y77421D01*
X46561Y76745D01*
X45274Y76245D01*
X45265Y76245D01*
X25837Y95672D01*
X26255Y97050D01*
X26670Y97133D01*
X27663Y97796D01*
X28326Y98788D01*
X28559Y99959D01*
X28326Y101129D01*
X27663Y102122D01*
X27791Y103545D01*
X34011Y109765D01*
X35044Y109262D01*
X35198Y109156D01*
X35424Y108020D01*
X36087Y107027D01*
X37080Y106364D01*
X38250Y106132D01*
X38886Y106258D01*
X42310Y102834D01*
X43458Y102359D01*
X50790D01*
X51150Y101819D01*
X52142Y101156D01*
X53313Y100923D01*
X54483Y101156D01*
X55476Y101819D01*
X56139Y102812D01*
X56371Y103982D01*
X56139Y105153D01*
X55476Y106145D01*
X54483Y106808D01*
X53313Y107041D01*
X52142Y106808D01*
X51150Y106145D01*
X50790Y105606D01*
X44131D01*
X41182Y108554D01*
X41309Y109190D01*
X41076Y110361D01*
X41065Y110377D01*
X41744Y111647D01*
X66088D01*
X67236Y112123D01*
X74117Y119004D01*
X74754Y118878D01*
X75924Y119111D01*
X76916Y119774D01*
X77190Y120183D01*
X78460Y119798D01*
Y119025D01*
X82980D01*
Y125545D01*
X78460D01*
Y124075D01*
X77190Y123690D01*
X76916Y124100D01*
X75924Y124762D01*
X74754Y124995D01*
X73953Y124836D01*
X73832Y124852D01*
X72879Y125384D01*
X72599Y125632D01*
X72569Y125780D01*
X72548Y125812D01*
X72231Y126750D01*
X72548Y127688D01*
X72569Y127720D01*
X72724Y128500D01*
X72569Y129280D01*
X72522Y129350D01*
X72502Y129454D01*
X72448Y129534D01*
X72429Y129628D01*
X72369Y129719D01*
X72352Y129802D01*
X72277Y129914D01*
X72265Y129976D01*
X72169Y130120D01*
X72163Y130149D01*
X71582Y131018D01*
X71571Y131025D01*
X71433Y131233D01*
X71385Y131264D01*
X71263Y131448D01*
X71170Y131509D01*
X71068Y131663D01*
X70921Y131761D01*
X70843Y131878D01*
X70624Y132024D01*
X70578Y132093D01*
X70407Y132207D01*
X70397Y132222D01*
X69297Y132957D01*
X69283Y132960D01*
X69142Y133054D01*
X69102Y133062D01*
X68896Y133200D01*
X68775Y133224D01*
X68666Y133297D01*
X68473Y133335D01*
X68385Y133394D01*
X67979Y133475D01*
X67955Y133491D01*
X67624Y133557D01*
Y135750D01*
X67148Y136898D01*
X65714Y138332D01*
X66195Y139602D01*
X68480D01*
Y145942D01*
X71020D01*
Y139602D01*
X75890D01*
Y139602D01*
X76760Y139402D01*
X76760Y139402D01*
X77077Y139402D01*
X81730D01*
Y145842D01*
X84270D01*
Y139402D01*
X89240D01*
Y139402D01*
X89500Y139792D01*
X101400D01*
Y155692D01*
X100624D01*
Y167960D01*
X101730D01*
Y173750D01*
X104270D01*
Y167960D01*
X105376D01*
Y155692D01*
X104600D01*
Y139792D01*
X108926D01*
Y136788D01*
X105204Y133065D01*
X97000D01*
Y120565D01*
X105500D01*
Y129391D01*
X106562Y129831D01*
X111698Y134967D01*
X112174Y136115D01*
Y139792D01*
X116500D01*
X117153Y138793D01*
Y137102D01*
X121723D01*
Y142742D01*
Y148382D01*
X117153D01*
X116500Y149382D01*
Y155692D01*
X108624D01*
Y169500D01*
X111310D01*
X112084Y168230D01*
X111941Y167510D01*
X112174Y166340D01*
X112837Y165347D01*
X113829Y164685D01*
X115000Y164452D01*
X116171Y164685D01*
X117163Y165347D01*
X117826Y166340D01*
X118059Y167510D01*
X117916Y168230D01*
X118690Y169500D01*
X129376D01*
Y163617D01*
X125893D01*
Y156656D01*
X124353D01*
Y152886D01*
X129893D01*
Y150346D01*
X124353D01*
Y148382D01*
X124263D01*
Y142742D01*
Y137102D01*
X128833D01*
Y138642D01*
X136093D01*
Y146842D01*
X136093D01*
X135938Y147074D01*
X135997Y147216D01*
X136892Y148116D01*
X139268D01*
Y146600D01*
X138557D01*
Y138400D01*
X145817D01*
Y136860D01*
X150387D01*
Y142500D01*
X151657D01*
Y143770D01*
X157497D01*
Y148140D01*
X158092Y149047D01*
X158875Y149311D01*
X159813Y148995D01*
X159845Y148973D01*
X160625Y148818D01*
X161405Y148973D01*
X161475Y149020D01*
X161579Y149041D01*
X161659Y149094D01*
X161753Y149113D01*
X161844Y149174D01*
X161927Y149190D01*
X162039Y149265D01*
X162101Y149277D01*
X162245Y149374D01*
X162274Y149380D01*
X163143Y149960D01*
X163150Y149971D01*
X163358Y150110D01*
X163389Y150157D01*
X163573Y150280D01*
X163634Y150372D01*
X163788Y150475D01*
X163886Y150621D01*
X164003Y150699D01*
X164149Y150918D01*
X164218Y150964D01*
X164332Y151135D01*
X164347Y151145D01*
X165082Y152245D01*
X165085Y152260D01*
X165179Y152401D01*
X165187Y152440D01*
X165325Y152646D01*
X165349Y152767D01*
X165422Y152877D01*
X165460Y153069D01*
X165519Y153157D01*
X165600Y153563D01*
X165616Y153588D01*
X165682Y153919D01*
X168435D01*
X168729Y153479D01*
X169721Y152816D01*
X170892Y152584D01*
X172062Y152816D01*
X173055Y153479D01*
X173718Y154472D01*
X173951Y155642D01*
X173718Y156813D01*
X173055Y157805D01*
X172062Y158468D01*
X170892Y158701D01*
X169721Y158468D01*
X168729Y157805D01*
X168302Y157166D01*
X165682D01*
X165616Y157497D01*
X165600Y157521D01*
X165519Y157928D01*
X165460Y158016D01*
X165422Y158208D01*
X165349Y158317D01*
X165325Y158439D01*
X165187Y158645D01*
X165179Y158684D01*
X165085Y158825D01*
X165082Y158840D01*
X164347Y159940D01*
X164332Y159950D01*
X164218Y160121D01*
X164149Y160166D01*
X164003Y160385D01*
X163886Y160464D01*
X163788Y160610D01*
X163634Y160713D01*
X163573Y160805D01*
X163389Y160928D01*
X163358Y160975D01*
X163150Y161114D01*
X163143Y161125D01*
X162274Y161705D01*
X162245Y161711D01*
X162101Y161807D01*
X162039Y161819D01*
X161927Y161894D01*
X161844Y161911D01*
X161753Y161972D01*
X161659Y161990D01*
X161579Y162044D01*
X161475Y162065D01*
X161405Y162111D01*
X160625Y162267D01*
X159845Y162111D01*
X159813Y162090D01*
X158875Y161773D01*
X157937Y162090D01*
X157905Y162111D01*
X157125Y162267D01*
X156345Y162111D01*
X156275Y162065D01*
X156171Y162044D01*
X156090Y161990D01*
X155997Y161972D01*
X155906Y161911D01*
X155823Y161894D01*
X155711Y161819D01*
X155649Y161807D01*
X155505Y161711D01*
X155476Y161705D01*
X154994Y161383D01*
X153939Y161824D01*
X153724Y162055D01*
Y165300D01*
X155460D01*
Y163760D01*
X160630D01*
Y170000D01*
Y176240D01*
X155460D01*
Y174700D01*
X153824D01*
Y179150D01*
X155460D01*
Y177610D01*
X160530D01*
Y183750D01*
X161800D01*
Y185020D01*
X168140D01*
Y189276D01*
X173018D01*
X174166Y189752D01*
X177296Y192882D01*
X179000D01*
X180002Y192235D01*
Y185860D01*
X182502D01*
Y182270D01*
X187142D01*
X191782D01*
Y185860D01*
X192682D01*
Y187400D01*
X198885D01*
X198942Y187376D01*
X208642D01*
Y186250D01*
X218142D01*
X218626Y185181D01*
Y184819D01*
X218142Y183750D01*
X217356Y183750D01*
X208642D01*
Y182624D01*
X201242D01*
Y185100D01*
X195042D01*
Y176900D01*
X196518D01*
Y174100D01*
X195042D01*
Y165900D01*
X201242D01*
Y174100D01*
X199765D01*
Y176900D01*
X201242D01*
Y179376D01*
X208642D01*
Y178250D01*
X209676D01*
X210468Y176980D01*
X210333Y176300D01*
X209882Y175750D01*
X208642D01*
Y170250D01*
X218142Y170250D01*
X218626Y169181D01*
Y168819D01*
X218142Y167750D01*
X208642D01*
Y162250D01*
X214340D01*
X214826Y161077D01*
X212577Y158829D01*
X179157D01*
X174309Y163677D01*
X174435Y164313D01*
X174202Y165484D01*
X173539Y166476D01*
X172547Y167139D01*
X171376Y167372D01*
X170206Y167139D01*
X169610Y166741D01*
X168384Y167262D01*
X168340Y167304D01*
Y168730D01*
X163170D01*
Y163760D01*
X168340D01*
X168490Y163445D01*
X168550Y163143D01*
X169214Y162150D01*
X170206Y161487D01*
X171376Y161255D01*
X172013Y161381D01*
X177337Y156057D01*
X178485Y155581D01*
X213250D01*
X214398Y156057D01*
X221398Y163057D01*
X221874Y164205D01*
Y190000D01*
X221398Y191148D01*
X219682Y192864D01*
Y195730D01*
X213392D01*
Y198270D01*
X219682D01*
Y201290D01*
X220335Y202289D01*
X225449Y207403D01*
X226821Y206979D01*
D02*
G37*
G36*
X55516Y173444D02*
X55587Y173337D01*
X56579Y172674D01*
X57750Y172441D01*
X58920Y172674D01*
X59913Y173337D01*
X61331Y173174D01*
X61410Y173057D01*
X62402Y172393D01*
X63573Y172161D01*
X64750Y171100D01*
Y169500D01*
X68810D01*
X69584Y168230D01*
X69441Y167510D01*
X69674Y166340D01*
X70047Y165781D01*
X69476Y164512D01*
X65269D01*
X65076Y165484D01*
X64413Y166476D01*
X63421Y167139D01*
X62250Y167372D01*
X61080Y167139D01*
X60087Y166476D01*
X59424Y165484D01*
X59191Y164313D01*
X59424Y163143D01*
X60087Y162150D01*
X60174Y161263D01*
X59004Y160092D01*
X51900D01*
Y157116D01*
X48936D01*
Y158592D01*
X47542D01*
X47417Y159862D01*
X48421Y160062D01*
X49413Y160725D01*
X50076Y161717D01*
X50309Y162888D01*
X50076Y164058D01*
X49413Y165051D01*
X48421Y165714D01*
X47250Y165947D01*
X46614Y165820D01*
X44755Y167679D01*
X45381Y168849D01*
X45750Y168776D01*
X46530Y168931D01*
X46562Y168952D01*
X47500Y169269D01*
X48438Y168952D01*
X48470Y168931D01*
X49250Y168776D01*
X50030Y168931D01*
X50100Y168978D01*
X50204Y168998D01*
X50285Y169052D01*
X50378Y169071D01*
X50469Y169131D01*
X50552Y169148D01*
X50664Y169223D01*
X50725Y169235D01*
X50870Y169331D01*
X50899Y169337D01*
X51768Y169918D01*
X51775Y169929D01*
X51983Y170067D01*
X52014Y170115D01*
X52198Y170237D01*
X52259Y170330D01*
X52413Y170432D01*
X52511Y170579D01*
X52628Y170657D01*
X52774Y170876D01*
X52843Y170922D01*
X52957Y171093D01*
X52972Y171103D01*
X53707Y172203D01*
X53710Y172217D01*
X53804Y172358D01*
X53812Y172398D01*
X53950Y172604D01*
X53974Y172725D01*
X54047Y172834D01*
X54085Y173027D01*
X54144Y173115D01*
X54159Y173189D01*
X55022Y173483D01*
X55516Y173444D01*
D02*
G37*
G36*
X33866Y152466D02*
X35036Y152234D01*
X35544Y152335D01*
X35928Y151958D01*
X36344Y151199D01*
X35972Y150302D01*
Y139780D01*
X36448Y138631D01*
X40399Y134680D01*
X40058Y134170D01*
X40052Y134141D01*
X39956Y133996D01*
X39943Y133935D01*
X39868Y133822D01*
X39852Y133740D01*
X39791Y133649D01*
X39773Y133555D01*
X39719Y133475D01*
X39698Y133371D01*
X39652Y133301D01*
X39496Y132521D01*
X39652Y131741D01*
X39673Y131709D01*
X39990Y130771D01*
X39673Y129833D01*
X39652Y129801D01*
X39496Y129021D01*
X39652Y128240D01*
X39698Y128171D01*
X39719Y128067D01*
X39773Y127986D01*
X39791Y127893D01*
X39852Y127802D01*
X39868Y127719D01*
X39943Y127607D01*
X39956Y127545D01*
X40052Y127401D01*
X40058Y127372D01*
X40638Y126503D01*
X40649Y126496D01*
X40788Y126288D01*
X40835Y126257D01*
X40958Y126073D01*
X41050Y126011D01*
X41153Y125858D01*
X41299Y125760D01*
X41378Y125643D01*
X41596Y125497D01*
X41642Y125428D01*
X41813Y125314D01*
X41823Y125299D01*
X42923Y124564D01*
X42938Y124561D01*
X43079Y124467D01*
X43118Y124459D01*
X43324Y124321D01*
X43446Y124297D01*
X43555Y124224D01*
X43747Y124186D01*
X43835Y124127D01*
X44241Y124046D01*
X44266Y124030D01*
X45670Y123750D01*
X45967D01*
X46220Y123700D01*
X46474Y123750D01*
X46771D01*
X48175Y124030D01*
X48200Y124046D01*
X48606Y124127D01*
X48694Y124186D01*
X48886Y124224D01*
X48927Y124251D01*
X52594D01*
X52837Y123887D01*
X53829Y123224D01*
X55000Y122991D01*
X56171Y123224D01*
X57163Y123887D01*
X57523Y124426D01*
X59390D01*
X59431Y124220D01*
X59478Y124150D01*
X59498Y124046D01*
X59552Y123966D01*
X59571Y123872D01*
X59631Y123781D01*
X59648Y123698D01*
X59723Y123586D01*
X59735Y123525D01*
X59831Y123380D01*
X59837Y123351D01*
X60417Y122483D01*
X60429Y122475D01*
X60567Y122267D01*
X60615Y122236D01*
X60737Y122052D01*
X60830Y121990D01*
X60932Y121837D01*
X61079Y121739D01*
X61157Y121622D01*
X61376Y121476D01*
X61422Y121407D01*
X61593Y121293D01*
X61603Y121278D01*
X62703Y120543D01*
X62717Y120540D01*
X62858Y120446D01*
X62898Y120438D01*
X63104Y120300D01*
X63225Y120276D01*
X63334Y120203D01*
X63527Y120165D01*
X63615Y120106D01*
X64021Y120025D01*
X64045Y120009D01*
X65450Y119729D01*
X65746D01*
X66000Y119679D01*
X66254Y119729D01*
X66550D01*
X67955Y120009D01*
X67979Y120025D01*
X68385Y120106D01*
X68473Y120165D01*
X68666Y120203D01*
X68775Y120276D01*
X68896Y120300D01*
X69102Y120438D01*
X69142Y120446D01*
X69283Y120540D01*
X69297Y120543D01*
X70018Y119497D01*
X65415Y114894D01*
X40999D01*
X40212Y116164D01*
X40350Y116856D01*
X40117Y118026D01*
X39454Y119019D01*
X38461Y119682D01*
X37291Y119915D01*
X36120Y119682D01*
X35258Y119105D01*
X34184Y120179D01*
X26377Y112373D01*
X25479Y113271D01*
X24581Y112373D01*
X19957Y116997D01*
X13132Y110173D01*
X12634Y109858D01*
X11448Y110612D01*
Y150241D01*
X20500D01*
X21077Y150356D01*
X22183Y149405D01*
X22092Y148950D01*
X22519Y146804D01*
X23735Y144985D01*
X25554Y143769D01*
X27700Y143342D01*
X29846Y143769D01*
X31665Y144985D01*
X32881Y146804D01*
X33308Y148950D01*
X32881Y151096D01*
X32276Y152001D01*
X33192Y152917D01*
X33866Y152466D01*
D02*
G37*
G36*
X270520Y28360D02*
X274890D01*
Y29772D01*
X275900Y30400D01*
X278876D01*
Y28970D01*
X278375Y28559D01*
X277204Y28326D01*
X276212Y27663D01*
X275549Y26670D01*
X275316Y25500D01*
X275549Y24330D01*
X275810Y23939D01*
X259682Y7811D01*
X258336Y7872D01*
X258057Y8239D01*
X257741Y8908D01*
X257934Y9877D01*
X257701Y11048D01*
X257412Y11480D01*
X257750Y12750D01*
X257750D01*
Y14118D01*
X258446Y14638D01*
X259020Y14886D01*
X260000Y14691D01*
X261171Y14924D01*
X262163Y15587D01*
X262826Y16580D01*
X263059Y17750D01*
X262826Y18921D01*
X262163Y19913D01*
X261171Y20576D01*
X260364Y20736D01*
X259926Y20930D01*
X259290Y21962D01*
Y24230D01*
X254875D01*
Y26770D01*
X259586D01*
X260000Y27443D01*
X261171Y27676D01*
X262163Y28339D01*
X262340Y28604D01*
X263610Y28360D01*
Y28360D01*
X267980D01*
Y33000D01*
X270520D01*
Y28360D01*
D02*
G37*
%LPC*%
G36*
X167890Y352980D02*
X162120D01*
Y347210D01*
X167890D01*
Y352980D01*
D02*
G37*
G36*
X205260Y344825D02*
X204090Y344593D01*
X203097Y343930D01*
X202434Y342937D01*
X202201Y341767D01*
X202434Y340596D01*
X203097Y339604D01*
X204090Y338941D01*
X205260Y338708D01*
X206430Y338941D01*
X207423Y339604D01*
X208086Y340596D01*
X208319Y341767D01*
X208086Y342937D01*
X207423Y343930D01*
X206430Y344593D01*
X205260Y344825D01*
D02*
G37*
G36*
X177715Y347423D02*
X176544Y347190D01*
X175552Y346527D01*
X174889Y345535D01*
X174656Y344364D01*
X174889Y343194D01*
X175552Y342201D01*
X176091Y341841D01*
Y319158D01*
X175679Y319076D01*
X174687Y318413D01*
X174024Y317421D01*
X173791Y316250D01*
X174024Y315079D01*
X174687Y314087D01*
X175679Y313424D01*
X176850Y313191D01*
X178020Y313424D01*
X179013Y314087D01*
X179676Y315079D01*
X179909Y316250D01*
X179676Y317421D01*
X179338Y317926D01*
X179338Y317927D01*
Y341841D01*
X179878Y342201D01*
X180541Y343194D01*
X180774Y344364D01*
X180541Y345535D01*
X179878Y346527D01*
X178885Y347190D01*
X177715Y347423D01*
D02*
G37*
G36*
X85250Y316759D02*
X84080Y316526D01*
X83087Y315863D01*
X82424Y314870D01*
X82191Y313700D01*
X82424Y312529D01*
X83087Y311537D01*
X84080Y310874D01*
X85250Y310641D01*
X86421Y310874D01*
X87413Y311537D01*
X88076Y312529D01*
X88309Y313700D01*
X88076Y314870D01*
X87413Y315863D01*
X86421Y316526D01*
X85250Y316759D01*
D02*
G37*
G36*
X78625Y312059D02*
X77455Y311826D01*
X76462Y311163D01*
X75799Y310171D01*
X75566Y309000D01*
X75799Y307829D01*
X76462Y306837D01*
X77455Y306174D01*
X78625Y305941D01*
X79795Y306174D01*
X80788Y306837D01*
X81451Y307829D01*
X81684Y309000D01*
X81451Y310171D01*
X80788Y311163D01*
X79795Y311826D01*
X78625Y312059D01*
D02*
G37*
G36*
X124850Y306730D02*
X122628D01*
X122670Y306517D01*
X123510Y305260D01*
X124767Y304421D01*
X124850Y304404D01*
Y306730D01*
D02*
G37*
G36*
X129872D02*
X127650D01*
Y304404D01*
X127733Y304421D01*
X128990Y305260D01*
X129830Y306517D01*
X129872Y306730D01*
D02*
G37*
G36*
X87890Y303990D02*
X83020D01*
Y298920D01*
X87890D01*
Y303990D01*
D02*
G37*
G36*
X80480D02*
X75610D01*
Y298920D01*
X80480D01*
Y303990D01*
D02*
G37*
G36*
X102890Y303990D02*
X98020D01*
Y298920D01*
X102890D01*
Y303990D01*
D02*
G37*
G36*
X95480D02*
X90610D01*
Y298920D01*
X95480D01*
Y303990D01*
D02*
G37*
G36*
X125730Y300093D02*
X121360D01*
Y296723D01*
X125730D01*
Y300093D01*
D02*
G37*
G36*
X259324Y299309D02*
X258153Y299076D01*
X257161Y298413D01*
X256498Y297421D01*
X256265Y296250D01*
X256498Y295079D01*
X257161Y294087D01*
X258153Y293424D01*
X259324Y293191D01*
X260494Y293424D01*
X261487Y294087D01*
X262150Y295079D01*
X262383Y296250D01*
X262150Y297421D01*
X261487Y298413D01*
X260494Y299076D01*
X259324Y299309D01*
D02*
G37*
G36*
X252932Y303493D02*
X243662D01*
Y291223D01*
X252932D01*
Y303493D01*
D02*
G37*
G36*
X125730Y294183D02*
X121360D01*
Y290813D01*
X125730D01*
Y294183D01*
D02*
G37*
G36*
X266880Y284790D02*
X261110D01*
Y279020D01*
X266880D01*
Y284790D01*
D02*
G37*
G36*
X252932Y288683D02*
X243662D01*
Y276413D01*
X252932D01*
Y288683D01*
D02*
G37*
G36*
X234392Y311036D02*
X221892D01*
X221126Y310720D01*
X220809Y309954D01*
Y278954D01*
X221126Y278189D01*
X221892Y277872D01*
X231852D01*
Y276413D01*
X241122D01*
Y289953D01*
Y303493D01*
X235474D01*
Y309954D01*
X235157Y310720D01*
X234392Y311036D01*
D02*
G37*
G36*
X275190Y284790D02*
X269420D01*
Y277750D01*
Y270710D01*
X275190D01*
Y274034D01*
X276460Y274419D01*
X276884Y273784D01*
X278704Y272569D01*
X280850Y272142D01*
X282996Y272569D01*
X284815Y273784D01*
X286031Y275604D01*
X286457Y277750D01*
X286031Y279896D01*
X284815Y281715D01*
X282996Y282930D01*
X280850Y283357D01*
X278704Y282930D01*
X276884Y281715D01*
X276460Y281080D01*
X275190Y281466D01*
Y284790D01*
D02*
G37*
G36*
X266880Y276480D02*
X261110D01*
Y270710D01*
X266880D01*
Y276480D01*
D02*
G37*
G36*
X219932Y267993D02*
X217162D01*
Y259723D01*
X219932D01*
Y267993D01*
D02*
G37*
G36*
Y257183D02*
X217162D01*
Y248913D01*
X219932D01*
Y257183D01*
D02*
G37*
G36*
X214622Y267993D02*
X212162D01*
Y258453D01*
Y248913D01*
X214622D01*
Y258453D01*
Y267993D01*
D02*
G37*
G36*
X209622D02*
X207162D01*
Y258453D01*
Y248913D01*
X209622D01*
Y258453D01*
Y267993D01*
D02*
G37*
G36*
X191782Y209640D02*
X188412D01*
Y205270D01*
X191782D01*
Y209640D01*
D02*
G37*
G36*
X185872D02*
X182502D01*
Y205270D01*
X185872D01*
Y209640D01*
D02*
G37*
G36*
X39861Y234903D02*
X36491D01*
Y230533D01*
X39861D01*
Y234903D01*
D02*
G37*
G36*
X33951D02*
X30581D01*
Y230533D01*
X33951D01*
Y234903D01*
D02*
G37*
G36*
X16980Y220790D02*
X13210D01*
Y216520D01*
X16980D01*
Y220790D01*
D02*
G37*
G36*
Y213980D02*
X13210D01*
Y209710D01*
X16980D01*
Y213980D01*
D02*
G37*
G36*
X39930Y198140D02*
X34860D01*
Y193270D01*
X39930D01*
Y198140D01*
D02*
G37*
G36*
Y190730D02*
X34860D01*
Y185860D01*
X39930D01*
Y190730D01*
D02*
G37*
G36*
X168140Y182480D02*
X163070D01*
Y177610D01*
X168140D01*
Y182480D01*
D02*
G37*
G36*
X168340Y176240D02*
X163170D01*
Y171270D01*
X168340D01*
Y176240D01*
D02*
G37*
G36*
X191782Y179730D02*
X187142D01*
X182502D01*
Y175360D01*
Y171270D01*
X187142D01*
X191782D01*
Y175360D01*
Y179730D01*
D02*
G37*
G36*
Y168730D02*
X188412D01*
Y164360D01*
X191782D01*
Y168730D01*
D02*
G37*
G36*
X185872D02*
X182502D01*
Y164360D01*
X185872D01*
Y168730D01*
D02*
G37*
G36*
X231480Y145790D02*
X225460D01*
Y139270D01*
X231480D01*
Y145790D01*
D02*
G37*
G36*
X157497Y141230D02*
X152927D01*
Y136860D01*
X157497D01*
Y141230D01*
D02*
G37*
G36*
X231480Y136730D02*
X225460D01*
Y130210D01*
X231480D01*
Y136730D01*
D02*
G37*
G36*
X90040Y134605D02*
X85520D01*
Y128085D01*
X90040D01*
Y134605D01*
D02*
G37*
G36*
X82980D02*
X78460D01*
Y128085D01*
X82980D01*
Y134605D01*
D02*
G37*
G36*
X194700Y134375D02*
X181700D01*
Y122375D01*
X194700D01*
Y134375D01*
D02*
G37*
G36*
X158300D02*
X145300D01*
Y122375D01*
X158300D01*
Y134375D01*
D02*
G37*
G36*
X90040Y125545D02*
X85520D01*
Y119025D01*
X90040D01*
Y125545D01*
D02*
G37*
G36*
X317640Y108240D02*
X313270D01*
Y104870D01*
X317640D01*
Y108240D01*
D02*
G37*
G36*
X310730D02*
X306360D01*
Y104870D01*
X310730D01*
Y108240D01*
D02*
G37*
G36*
X317640Y102330D02*
X313270D01*
Y98960D01*
X317640D01*
Y102330D01*
D02*
G37*
G36*
X310730D02*
X306360D01*
Y98960D01*
X310730D01*
Y102330D01*
D02*
G37*
G36*
X126540Y103165D02*
X120270D01*
Y90395D01*
X126540D01*
Y103165D01*
D02*
G37*
G36*
X117730D02*
X111460D01*
Y90395D01*
X117730D01*
Y103165D01*
D02*
G37*
G36*
X228540D02*
X222270D01*
Y90395D01*
X228540D01*
Y103165D01*
D02*
G37*
G36*
X219730D02*
X213460D01*
Y90395D01*
X219730D01*
Y103165D01*
D02*
G37*
G36*
X325266Y90813D02*
X324095Y90580D01*
X323103Y89917D01*
X322440Y88925D01*
X322207Y87754D01*
X322113Y87640D01*
X320820D01*
Y82770D01*
X325890D01*
Y84820D01*
X326436Y84928D01*
X327429Y85591D01*
X328092Y86584D01*
X328325Y87754D01*
X328092Y88925D01*
X327429Y89917D01*
X326436Y90580D01*
X325266Y90813D01*
D02*
G37*
G36*
X176000Y110708D02*
X164000D01*
X163235Y110391D01*
X162918Y109625D01*
Y80625D01*
X163235Y79860D01*
X164000Y79543D01*
X176000D01*
X176765Y79860D01*
X177082Y80625D01*
Y109625D01*
X176765Y110391D01*
X176000Y110708D01*
D02*
G37*
G36*
X201400Y110708D02*
X189400D01*
X188634Y110391D01*
X188318Y109625D01*
Y80625D01*
X188634Y79860D01*
X189400Y79543D01*
X201400D01*
X202165Y79860D01*
X202482Y80625D01*
Y109625D01*
X202165Y110391D01*
X201400Y110708D01*
D02*
G37*
G36*
X150600Y110707D02*
X138600D01*
X137834Y110390D01*
X137517Y109625D01*
Y80625D01*
X137834Y79860D01*
X138600Y79543D01*
X150600D01*
X151365Y79860D01*
X151682Y80625D01*
Y109625D01*
X151365Y110390D01*
X150600Y110707D01*
D02*
G37*
G36*
X245290Y83980D02*
X239270D01*
Y77460D01*
X245290D01*
Y83980D01*
D02*
G37*
G36*
X236730D02*
X230710D01*
Y77460D01*
X236730D01*
Y83980D01*
D02*
G37*
G36*
X126540Y87855D02*
X111460D01*
Y75085D01*
X113460D01*
Y70895D01*
X128540D01*
Y76165D01*
X126540D01*
Y87855D01*
D02*
G37*
G36*
X245290Y74920D02*
X239270D01*
Y68400D01*
X245290D01*
Y74920D01*
D02*
G37*
G36*
X236730D02*
X230710D01*
Y68400D01*
X236730D01*
Y74920D01*
D02*
G37*
G36*
X278080Y72230D02*
X273010D01*
Y67360D01*
X278080D01*
Y72230D01*
D02*
G37*
G36*
X228540Y87855D02*
X221000D01*
X213460D01*
Y75704D01*
X213000Y74625D01*
X213000Y74005D01*
Y71249D01*
X212078D01*
X210930Y70773D01*
X210318Y70160D01*
X210081Y69588D01*
X209721Y69516D01*
X208729Y68853D01*
X208066Y67861D01*
X207833Y66690D01*
X208066Y65520D01*
X208729Y64527D01*
X209721Y63864D01*
X210892Y63632D01*
X212062Y63864D01*
X213055Y64527D01*
X213120Y64625D01*
X225000D01*
X225000Y74625D01*
X226080Y75085D01*
X228540D01*
Y87855D01*
D02*
G37*
G36*
X73640Y68680D02*
X68770D01*
Y63610D01*
X73640D01*
Y68680D01*
D02*
G37*
G36*
X66230D02*
X61360D01*
Y63610D01*
X66230D01*
Y68680D01*
D02*
G37*
G36*
X128540Y68355D02*
X113460D01*
Y63085D01*
X113920D01*
X115000Y62625D01*
X115000Y61190D01*
X113860Y60476D01*
X113730Y60469D01*
X112650Y60684D01*
X111480Y60451D01*
X110487Y59788D01*
X109824Y58795D01*
X109591Y57625D01*
X109824Y56455D01*
X110487Y55462D01*
X111480Y54799D01*
X112650Y54566D01*
X113730Y54781D01*
X113860Y54774D01*
X115000Y54060D01*
Y52625D01*
X127000D01*
X127000Y62625D01*
X128079Y63085D01*
X128540D01*
Y68355D01*
D02*
G37*
G36*
X256250Y104565D02*
X243750D01*
Y91065D01*
X248376D01*
Y82440D01*
X246750D01*
Y69940D01*
X251126D01*
Y66023D01*
X250587Y65663D01*
X249924Y64671D01*
X249691Y63500D01*
X249924Y62330D01*
X250587Y61337D01*
X251579Y60674D01*
X252750Y60441D01*
X253920Y60674D01*
X254913Y61337D01*
X255576Y62330D01*
X255809Y63500D01*
X255576Y64671D01*
X254913Y65663D01*
X254374Y66023D01*
Y69940D01*
X258250D01*
Y82440D01*
X251624D01*
Y91065D01*
X256250D01*
Y104565D01*
D02*
G37*
G36*
X257640Y58640D02*
X252770D01*
Y53570D01*
X257640D01*
Y58640D01*
D02*
G37*
G36*
X250230D02*
X245360D01*
Y53570D01*
X250230D01*
Y58640D01*
D02*
G37*
G36*
X242890Y56890D02*
X238520D01*
Y53520D01*
X242890D01*
Y56890D01*
D02*
G37*
G36*
X225000Y62625D02*
X213000D01*
Y52625D01*
X225000D01*
Y62625D01*
D02*
G37*
G36*
X88930Y53705D02*
X83860D01*
Y48835D01*
X88930D01*
Y53705D01*
D02*
G37*
G36*
X242890Y50980D02*
X238520D01*
Y47610D01*
X242890D01*
Y50980D01*
D02*
G37*
G36*
X148250Y53059D02*
X147079Y52826D01*
X146087Y52163D01*
X145424Y51171D01*
X145191Y50000D01*
X145424Y48829D01*
X146087Y47837D01*
X147079Y47174D01*
X148250Y46941D01*
X149421Y47174D01*
X150413Y47837D01*
X151076Y48829D01*
X151309Y50000D01*
X151076Y51171D01*
X150413Y52163D01*
X149421Y52826D01*
X148250Y53059D01*
D02*
G37*
G36*
X286640Y51140D02*
X281770D01*
Y46070D01*
X286640D01*
Y51140D01*
D02*
G37*
G36*
X88930Y46295D02*
X83860D01*
Y41425D01*
X88930D01*
Y46295D01*
D02*
G37*
G36*
X208000Y52749D02*
X206829Y52516D01*
X205837Y51853D01*
X205174Y50861D01*
X204941Y49690D01*
X205174Y48520D01*
X205837Y47527D01*
X206829Y46864D01*
X208000Y46631D01*
X208269Y46685D01*
X210477Y44477D01*
X211625Y44001D01*
X213000D01*
Y40625D01*
X225000D01*
Y50625D01*
X213000D01*
Y48342D01*
X211730Y47816D01*
X210859Y48687D01*
X211059Y49690D01*
X210826Y50861D01*
X210163Y51853D01*
X209170Y52516D01*
X208000Y52749D01*
D02*
G37*
G36*
X96540Y53705D02*
X91470D01*
Y47565D01*
Y41425D01*
X95279D01*
X95728Y41425D01*
X96080Y41375D01*
X96958Y40440D01*
X96981Y40014D01*
X96974Y39920D01*
X96927Y39682D01*
X96741Y38750D01*
X96974Y37580D01*
X97637Y36587D01*
X98630Y35924D01*
X99800Y35691D01*
X100971Y35924D01*
X101963Y36587D01*
X102626Y37580D01*
X102859Y38750D01*
X102626Y39920D01*
X101963Y40913D01*
X101424Y41273D01*
Y42965D01*
X104600D01*
Y45942D01*
X115000D01*
Y40625D01*
X127000D01*
Y50625D01*
X115000D01*
Y49189D01*
X104600D01*
Y52165D01*
X96540D01*
Y53705D01*
D02*
G37*
G36*
X126540Y31165D02*
X120270D01*
Y18395D01*
X126540D01*
Y31165D01*
D02*
G37*
G36*
X117730D02*
X111460D01*
Y18395D01*
X117730D01*
Y31165D01*
D02*
G37*
G36*
X228540D02*
X222270D01*
Y18395D01*
X228540D01*
Y31165D01*
D02*
G37*
G36*
X219730D02*
X213460D01*
Y18395D01*
X219730D01*
Y31165D01*
D02*
G37*
G36*
X28661Y125702D02*
X21753Y118793D01*
X25479Y115067D01*
X32388Y121975D01*
X28661Y125702D01*
D02*
G37*
%LPD*%
D11*
X178485Y157205D02*
X213250D01*
X232750Y226770D02*
X236500Y230520D01*
X232750Y217000D02*
Y226770D01*
X218642Y202892D02*
X232750Y217000D01*
X216513Y200500D02*
X218642Y202629D01*
Y202892D01*
X206750Y198250D02*
X209000Y200500D01*
X216513D01*
X206750Y195500D02*
Y198250D01*
Y195500D02*
X208750Y193500D01*
X216750D02*
X220250Y190000D01*
X208750Y193500D02*
X216750D01*
X220250Y164205D02*
Y190000D01*
X213250Y157205D02*
X220250Y164205D01*
X248250Y42500D02*
Y42700D01*
X238700D02*
X248250D01*
X260750Y94750D02*
X270200D01*
X270250Y94800D01*
X302265Y65253D02*
X304773D01*
X309950Y70430D01*
Y81500D01*
X229750Y207632D02*
X232382Y205000D01*
X237392D01*
X229974Y198964D02*
Y201466D01*
X229499Y201941D02*
X229974Y201466D01*
X267228Y113221D02*
X268763Y114756D01*
X176850Y317062D02*
X177715Y317927D01*
Y344364D01*
X176850Y316250D02*
Y317062D01*
X204014Y216250D02*
X224554D01*
X198142Y205000D02*
Y210378D01*
X204014Y216250D01*
X224554D02*
X224648Y216156D01*
X293625Y94250D02*
X300851D01*
X306650Y84600D02*
Y88451D01*
X300851Y94250D02*
X306650Y88451D01*
X107000Y151292D02*
Y173750D01*
Y151292D02*
X110550Y147742D01*
X262383Y114187D02*
X264699Y116503D01*
X262383Y109320D02*
Y114187D01*
X221250Y138000D02*
X232750D01*
X213392Y173000D02*
Y176300D01*
X53187Y232000D02*
X56000Y229187D01*
X54500Y239000D02*
X55129D01*
X56879Y237250D01*
X58750Y236000D02*
X60750D01*
X57500Y237250D02*
X58750Y236000D01*
X56879Y237250D02*
X57500D01*
X50000Y223187D02*
Y224219D01*
X49500Y224718D02*
X50000Y224219D01*
X171376Y164313D02*
X178485Y157205D01*
X161676Y244601D02*
Y246789D01*
X161705D02*
X162331Y247416D01*
X161676Y246789D02*
X161705D01*
X70820Y291222D02*
Y292799D01*
X73530Y276683D02*
Y289172D01*
X68414Y293000D02*
X70619D01*
X70820Y292799D01*
X71480Y291222D02*
X73530Y289172D01*
X70820Y291222D02*
X71480D01*
X70300Y273453D02*
X73530Y276683D01*
X145642Y228000D02*
X145711D01*
X137250D02*
X145642D01*
X141857Y205190D02*
X146820D01*
X152274Y201191D02*
Y207674D01*
X151949Y208000D02*
X152274Y207674D01*
X146820Y205190D02*
X146849Y205219D01*
X151949Y200865D02*
X152274Y201191D01*
X151949Y196251D02*
Y200865D01*
X142300Y208000D02*
X144218Y209918D01*
X137250Y208000D02*
X142300D01*
X144218Y209918D02*
X144385D01*
X146003Y213250D02*
X149153D01*
X145835Y213418D02*
X146003Y213250D01*
X142936Y213418D02*
X145835D01*
X141518Y212000D02*
X142936Y213418D01*
X137250Y212000D02*
X141518D01*
X141269Y204602D02*
X141857Y205190D01*
X137250Y204000D02*
X137852Y204602D01*
X141269D01*
X137900Y200651D02*
X141455D01*
X142495Y201690D01*
X137250Y196000D02*
X152200D01*
X142495Y201690D02*
X143307D01*
X137250Y200000D02*
X137900Y200651D01*
X140958Y183250D02*
X142018Y182190D01*
X144917D02*
X146727Y184000D01*
X151950D01*
X138000Y183250D02*
X140958D01*
X137250Y184000D02*
X138000Y183250D01*
X142018Y182190D02*
X144917D01*
X115000Y167510D02*
Y173750D01*
X59800Y158592D02*
X62021Y160813D01*
X65500D01*
X65574Y160888D01*
X78524D01*
X62250Y164313D02*
X62910D01*
X64336Y162888D01*
X82986Y161042D02*
X91000Y169056D01*
X77850Y163042D02*
X78354D01*
X78524Y160888D02*
X78679Y161042D01*
X82986D01*
X77696Y162888D02*
X77850Y163042D01*
X64336Y162888D02*
X77696D01*
X83000Y167688D02*
Y173750D01*
X78354Y163042D02*
X83000Y167688D01*
X72500Y167510D02*
Y168042D01*
X74293Y169835D02*
Y173043D01*
X72500Y168042D02*
X74293Y169835D01*
Y173043D02*
X75000Y173750D01*
X67000D02*
Y174469D01*
X66250Y175219D02*
X67000Y174469D01*
X63573Y175219D02*
X66250D01*
X58750Y188000D02*
X60750D01*
X57500Y186750D02*
X58750Y188000D01*
X56879Y186750D02*
X57500D01*
X54500Y184371D02*
X56879Y186750D01*
X54500Y184000D02*
Y184371D01*
X50375Y198600D02*
X50516Y198459D01*
X54546D01*
X56586Y196419D01*
X60332D02*
X60750Y196000D01*
X56586Y196419D02*
X60332D01*
X15000Y155300D02*
X35029D01*
X35036Y155292D01*
X15000Y168000D02*
X35208D01*
X35221Y168013D01*
X15000Y180700D02*
X34525D01*
X35036Y181211D01*
X43017Y132896D02*
X44512D01*
X42690Y133223D02*
Y134685D01*
Y133223D02*
X43017Y132896D01*
X37596Y139780D02*
X42690Y134685D01*
X37596Y150302D02*
X41186Y153892D01*
X37596Y139780D02*
Y150302D01*
X49625Y175500D02*
Y180036D01*
X50800Y192000D02*
X60750D01*
X49625Y180036D02*
X50800Y181211D01*
Y192000D01*
X42125Y168013D02*
Y175500D01*
Y168013D02*
X47250Y162888D01*
X16250Y206801D02*
X18250Y208801D01*
X24750Y208000D02*
X39911D01*
X15064Y198314D02*
X24750Y208000D01*
X39911D02*
X46220Y201690D01*
X15000Y193400D02*
X15064Y193464D01*
Y198314D01*
X61336Y103263D02*
X63698D01*
X67500Y99461D01*
Y79550D02*
Y99461D01*
X86682Y258200D02*
X88733Y260251D01*
X94528Y256329D02*
X94750Y256108D01*
X83000Y255658D02*
X85542Y258200D01*
X86682D01*
X88733Y260251D02*
Y262221D01*
X90799Y264287D02*
X99286D01*
X94750Y250500D02*
Y256108D01*
X91647Y260186D02*
X92233Y260771D01*
X91000Y260186D02*
X91647D01*
X87000Y250250D02*
X87004Y250254D01*
Y254712D01*
X83000Y250250D02*
Y255658D01*
X91000Y250250D02*
Y260186D01*
X87004Y254712D02*
X87007Y254716D01*
X88733Y262221D02*
X90799Y264287D01*
X133250Y341750D02*
X133656D01*
X136000Y339406D01*
X297561Y82264D02*
X298135Y81690D01*
X296486Y82264D02*
X297561D01*
X293625Y85125D02*
X296486Y82264D01*
X293625Y85125D02*
Y89250D01*
X269762Y78400D02*
X274729D01*
X278375Y82046D01*
Y89250D01*
X66088Y113271D02*
X74754Y121937D01*
X35221Y113271D02*
X66088D01*
X25500Y99959D02*
Y103550D01*
X35221Y113271D01*
X43458Y103982D02*
X53313D01*
X38250Y109190D02*
X43458Y103982D01*
X44836Y249000D02*
X49836Y244000D01*
X60750D01*
X44636Y249000D02*
X44836D01*
X136000Y335250D02*
Y339406D01*
X138850Y325250D02*
X139141Y324959D01*
X140183D01*
X144863Y320278D01*
Y320261D02*
Y320278D01*
X141457Y330250D02*
X146734Y324973D01*
X136000Y330250D02*
X141457D01*
X92475Y335250D02*
X98750D01*
X92336Y335111D02*
X92475Y335250D01*
X204010Y209510D02*
X204014D01*
X208524Y205000D01*
X198142Y204000D02*
Y205000D01*
X196542Y206600D02*
X198142Y205000D01*
Y203000D02*
Y204000D01*
X195942Y192000D02*
Y200814D01*
X196528Y201400D01*
X196542D01*
X198142Y203000D01*
X195942Y192000D02*
X198942Y189000D01*
X213392D01*
X198142Y181000D02*
X213392D01*
X198142Y170000D02*
Y181000D01*
X213392Y176300D02*
Y181000D01*
X231938Y197000D02*
X237392D01*
X229974Y198964D02*
X231938Y197000D01*
X208524Y205000D02*
X213392D01*
X107597Y298300D02*
X112569Y293328D01*
X107597Y298300D02*
X107750D01*
X66500Y299375D02*
Y303688D01*
X67500Y304688D01*
Y305500D01*
X66500Y294000D02*
X67962D01*
X68414Y293000D02*
Y293548D01*
X67962Y294000D02*
X68414Y293548D01*
X67000Y270153D02*
Y270353D01*
X70100Y273453D01*
X70300D01*
X115000Y250250D02*
Y264807D01*
X112569Y287703D02*
Y287828D01*
Y287578D02*
Y287703D01*
Y287453D02*
Y287578D01*
Y287328D02*
Y287453D01*
Y287203D02*
Y287328D01*
Y287078D02*
Y287203D01*
Y286953D02*
Y287078D01*
Y286878D02*
Y286953D01*
Y286828D02*
Y286878D01*
Y286753D02*
Y286828D01*
Y286703D02*
Y286753D01*
Y286653D02*
Y286703D01*
Y286603D02*
Y286653D01*
Y286578D02*
Y286603D01*
Y281213D02*
Y286578D01*
X112219Y267588D02*
X115000Y264807D01*
X111381Y267588D02*
X112219D01*
X109850Y269119D02*
X111381Y267588D01*
X109850Y269119D02*
Y278494D01*
X112569Y281213D01*
X137936Y267426D02*
X138514Y268004D01*
X137936Y265965D02*
Y267426D01*
X138514Y268004D02*
X139976D01*
X135390D02*
X138514D01*
X127000Y284453D02*
X128000D01*
X129600Y282853D01*
Y281853D02*
Y282853D01*
Y281853D02*
X132614Y278839D01*
Y273887D02*
Y278839D01*
Y273887D02*
X132851Y273651D01*
X132791Y270593D02*
Y272664D01*
X134255Y269129D02*
X134265D01*
X132851Y272724D02*
Y273651D01*
X134265Y269129D02*
X135390Y268004D01*
X132791Y270593D02*
X134255Y269129D01*
X132791Y272664D02*
X132851Y272724D01*
X94250Y273887D02*
Y285350D01*
X96750Y287850D01*
X79750Y273887D02*
Y285850D01*
X81750Y287850D01*
X143463Y341800D02*
X149500D01*
X141413Y339750D02*
X143463Y341800D01*
X141392Y339750D02*
X141413D01*
X149500Y341800D02*
Y342000D01*
X126250Y345250D02*
X145814D01*
X145964Y345100D01*
X146400D01*
X149500Y342000D01*
X113950Y355000D02*
X115014Y353936D01*
Y350486D02*
Y353936D01*
Y350486D02*
X118750Y346750D01*
X111250Y342500D02*
Y352300D01*
X113950Y355000D01*
X200892Y248824D02*
Y258453D01*
X195892D02*
X200892D01*
X145017Y215875D02*
X148149D01*
X144892Y216000D02*
X145017Y215875D01*
X148149D02*
X148774Y216500D01*
X137250Y220000D02*
X137503Y220253D01*
X146551D01*
X146804Y220506D01*
X156784Y218293D02*
X158361D01*
X159874Y219806D02*
Y221961D01*
X156042Y217551D02*
X156784Y218293D01*
X156042Y214543D02*
Y217551D01*
X149153Y213250D02*
X153800Y217897D01*
Y224553D01*
X158361Y218293D02*
X159874Y219806D01*
X153385Y211885D02*
X156042Y214543D01*
X153800Y224553D02*
X153891Y224644D01*
X158745Y233185D02*
X161010D01*
X149891Y229352D02*
X155154Y234615D01*
X151891Y226472D02*
Y228524D01*
X155983Y232615D01*
X149891Y227300D02*
Y229352D01*
X146592Y224000D02*
X149891Y227300D01*
X153891Y227695D02*
X156811Y230615D01*
X153891Y224644D02*
Y227695D01*
X151800Y218725D02*
Y226380D01*
X151891Y226472D01*
X156811Y230615D02*
X159365D01*
X156518Y236615D02*
X169856Y249953D01*
X148054Y236000D02*
X156054Y244000D01*
X155690Y238615D02*
X161676Y244601D01*
X145711Y228000D02*
X154326Y236615D01*
X175090Y245333D02*
X175801D01*
X161010Y233185D02*
X163825Y236000D01*
X159935Y231185D02*
X162158D01*
X156054Y244000D02*
X156125D01*
X160181Y235185D02*
X164508Y239512D01*
X169999Y240243D02*
X175090Y245333D01*
X159365Y230615D02*
X159935Y231185D01*
X154326Y236615D02*
X156518D01*
X153497Y238615D02*
X155690D01*
X137250Y236000D02*
X148054D01*
X137250Y232000D02*
X146882D01*
X157916Y235185D02*
X160181D01*
X155154Y234615D02*
X157347D01*
X169999Y240053D02*
Y240243D01*
X158175Y232615D02*
X158745Y233185D01*
X146882Y232000D02*
X153497Y238615D01*
X157347Y234615D02*
X157916Y235185D01*
X175801Y245333D02*
X180892Y250424D01*
X163825Y236000D02*
X165946D01*
X155983Y232615D02*
X158175D01*
X162158Y231185D02*
X164973Y234000D01*
X137250Y224000D02*
X146592D01*
X172585Y240000D02*
X172799D01*
X171999Y239414D02*
X172585Y240000D01*
X171999Y239224D02*
Y239414D01*
X166775Y234000D02*
X171999Y239224D01*
X164973Y234000D02*
X166775D01*
X172799Y240000D02*
X174083Y241285D01*
X179377D01*
X165946Y236000D02*
X169999Y240053D01*
X189892Y257453D02*
X190892Y258453D01*
X189892Y251800D02*
Y257453D01*
X179377Y241285D02*
X189892Y251800D01*
X148774Y216500D02*
X149575D01*
X151800Y218725D01*
X180892Y250424D02*
Y258453D01*
X169856Y249953D02*
X173013D01*
X173892Y250832D02*
Y250943D01*
X173013Y249953D02*
X173892Y250832D01*
X174892Y257453D02*
X175892Y258453D01*
X174892Y251943D02*
Y257453D01*
X173892Y250943D02*
X174892Y251943D01*
X142857Y250750D02*
X146442D01*
X148192Y249000D01*
X158885D01*
X170892Y257039D02*
Y258453D01*
X169892Y256039D02*
X170892Y257039D01*
X168478Y256039D02*
X169892D01*
X163354Y250916D02*
X168478Y256039D01*
X160800Y250916D02*
X163354D01*
X158885Y249000D02*
X160800Y250916D01*
X153625Y256000D02*
X157125Y252500D01*
X153625Y256000D02*
Y271629D01*
X264699Y116769D02*
X273030Y125100D01*
X283116D01*
X285500Y122716D01*
X282420Y122967D02*
X283500Y121887D01*
Y104375D02*
Y121887D01*
X276029Y123100D02*
X281471D01*
X268763Y115834D02*
X276029Y123100D01*
X281471D02*
X281604Y122967D01*
X282420D01*
X285500Y110988D02*
Y122716D01*
X264699Y116503D02*
Y116769D01*
X268763Y114756D02*
Y115834D01*
X285500Y110988D02*
X288500Y107988D01*
Y104375D02*
Y107988D01*
X293625Y104250D02*
X294185Y103690D01*
X298135D01*
X270250Y95000D02*
Y110000D01*
Y94800D02*
Y95000D01*
X278750Y117500D02*
Y118500D01*
X277150Y115900D02*
X278750Y117500D01*
X276150Y115900D02*
X277150D01*
X270250Y110000D02*
X276150Y115900D01*
X293625Y94250D02*
Y99250D01*
X309950Y81500D02*
X312000Y83550D01*
Y92600D01*
X306650Y84600D02*
X309750Y81500D01*
X309950D01*
X278375Y99250D02*
Y104250D01*
X274700Y99250D02*
X278375D01*
X273550Y98100D02*
X274700Y99250D01*
X273350Y98100D02*
X273550D01*
X270250Y95000D02*
X273350Y98100D01*
X288500Y74150D02*
X289150Y73500D01*
X288500Y74150D02*
Y89125D01*
X75365Y114690D02*
X80312D01*
X84121Y118500D01*
Y126687D02*
X84250Y126815D01*
X84121Y118500D02*
Y126687D01*
X110550Y136115D02*
Y147742D01*
X101250Y126815D02*
Y128230D01*
X104000Y130979D01*
X105414D01*
X110550Y136115D01*
X140392Y160117D02*
X140892D01*
X138392Y162117D02*
X140392Y160117D01*
X138392Y162117D02*
Y162617D01*
X136009Y165000D02*
X138392Y162617D01*
X136000Y165000D02*
X136009D01*
X121000Y150782D02*
X121812D01*
X122646Y151616D02*
X129893D01*
X121812Y150782D02*
X122646Y151616D01*
X122993Y142742D02*
Y148696D01*
X121000Y150689D02*
X122993Y148696D01*
X121000Y150689D02*
Y150782D01*
X151657Y142500D02*
X158873D01*
X159035Y142339D01*
X208000Y49250D02*
Y49690D01*
X211625Y45625D02*
X219000D01*
X208000Y49250D02*
X211625Y45625D01*
X212078Y69625D02*
X219000D01*
X211466Y69012D02*
X212078Y69625D01*
X211466Y67264D02*
Y69012D01*
X210892Y66690D02*
X211466Y67264D01*
X221000Y89125D02*
X229625D01*
X229750Y89250D01*
X109850Y89125D02*
X119000D01*
X109850Y89125D02*
X109850Y89125D01*
X111853Y69625D02*
X121000D01*
X111529Y69950D02*
X111853Y69625D01*
X112650Y57625D02*
X121000D01*
X119000Y17125D02*
X127750D01*
X210892D02*
X221000D01*
X238000Y68266D02*
Y76190D01*
X237484Y67750D02*
X238000Y68266D01*
X247250Y138000D02*
X250000Y135250D01*
Y114315D02*
Y135250D01*
Y78690D02*
X252500Y76190D01*
X250000Y78690D02*
Y97815D01*
X252500Y76190D02*
X252750Y75940D01*
Y63500D02*
Y75940D01*
X250375Y28750D02*
X258249D01*
X260000Y30501D01*
X246500Y30621D02*
X249547Y33668D01*
X253418D01*
X263750Y44000D01*
X249750Y28125D02*
X250375Y28750D01*
X254875Y20500D02*
X255289Y20086D01*
X257664D01*
X260000Y17750D01*
X254875Y9877D02*
Y15500D01*
X248564Y11689D02*
X249750Y12875D01*
X248564Y10314D02*
Y11689D01*
X248127Y9877D02*
X248564Y10314D01*
X248127Y8765D02*
Y9877D01*
X247553Y8191D02*
X248127Y8765D01*
X244750Y12750D02*
Y12875D01*
X243500Y11500D02*
X244750Y12750D01*
X243375Y11500D02*
X243500D01*
X241262Y9387D02*
X243375Y11500D01*
X239087Y9387D02*
X241262D01*
X238700Y9000D02*
X239087Y9387D01*
X239625Y15500D02*
Y20500D01*
X232750D02*
X239625D01*
X254875Y25500D02*
X268961D01*
X269250Y25789D01*
X280500Y44800D02*
X286863D01*
X269250Y25789D02*
Y33000D01*
X280500Y27625D02*
Y35200D01*
X278375Y25500D02*
X280500Y27625D01*
X278436Y37264D02*
X280500Y35200D01*
X275986Y37264D02*
X278436D01*
X271850Y41400D02*
X275986Y37264D01*
X271850Y41400D02*
Y42400D01*
X270250Y44000D02*
X271850Y42400D01*
X269250Y44000D02*
X270250D01*
X244750Y28125D02*
Y28250D01*
X246500Y30000D01*
Y30621D01*
X263750Y44000D02*
X269250D01*
X237250Y41250D02*
X238700Y42700D01*
X239625Y25500D02*
Y39650D01*
X238025Y41250D02*
X239625Y39650D01*
X237250Y41250D02*
X238025D01*
X237392Y52392D02*
X237484Y52300D01*
X248250D01*
X237392Y52392D02*
Y57625D01*
X229750Y44000D02*
Y49690D01*
X232500Y41250D02*
X237250D01*
X229750Y44000D02*
X232500Y41250D01*
X239625Y25500D02*
X239914Y25789D01*
X99800Y38750D02*
Y47565D01*
X119060D01*
X121000Y45625D01*
X61211Y279753D02*
X67000D01*
X60412Y278954D02*
X61211Y279753D01*
X59600Y278954D02*
X60412D01*
X38470Y265338D02*
X38595D01*
X38345D02*
X38470D01*
X38221D02*
X38345D01*
X38096D02*
X38221D01*
X37970D02*
X38096D01*
X37845D02*
X37970D01*
X37720D02*
X37845D01*
X37645D02*
X37720D01*
X37596D02*
X37645D01*
X37520D02*
X37596D01*
X37471D02*
X37520D01*
X37420D02*
X37471D01*
X37371D02*
X37420D01*
X37345D02*
X37371D01*
X35136D02*
X37345D01*
X27500Y257702D02*
X35136Y265338D01*
X57086Y224000D02*
X60750D01*
X56000Y225086D02*
Y229187D01*
Y225086D02*
X57086Y224000D01*
X53187Y220000D02*
X60750D01*
X50000Y223187D02*
X53187Y220000D01*
X18250Y208801D02*
Y215250D01*
X27500Y215500D02*
X38500D01*
X27250Y215250D02*
X27500Y215500D01*
X48000D02*
X60250D01*
X60750Y216000D01*
X25479Y113271D02*
X26479Y114271D01*
Y119221D01*
X25479Y120221D02*
X26479Y119221D01*
X25479Y120221D02*
Y130771D01*
X21750Y134500D02*
X25479Y130771D01*
X67500Y61500D02*
Y69950D01*
Y61500D02*
X67750Y61250D01*
X49521Y74479D02*
X56250Y67750D01*
X49521Y74479D02*
Y76250D01*
X56250Y75750D02*
X63700D01*
X64200Y76250D01*
X64400D01*
X67500Y79350D01*
Y79550D01*
X49521Y89229D02*
X56250Y82500D01*
Y75750D02*
Y82500D01*
X65201Y123450D02*
X66000D01*
X62651Y126000D02*
X65201Y123450D01*
X46000Y125875D02*
X54825D01*
X60413Y126000D02*
X62651D01*
X60363Y126050D02*
X60413Y126000D01*
X55000Y126050D02*
X60363D01*
X54825Y125875D02*
X55000Y126050D01*
X43236Y153892D02*
X44836Y155492D01*
X41186Y153892D02*
X43236D01*
X56300Y155492D02*
X56500Y155292D01*
X44836Y155492D02*
X56300D01*
X91000Y169056D02*
Y173750D01*
X56500Y155292D02*
Y155492D01*
X59600Y158592D01*
X59800D01*
X66000Y130125D02*
Y135750D01*
Y130100D02*
Y130125D01*
Y130050D02*
Y130100D01*
Y130000D02*
Y130050D01*
Y129950D02*
Y130000D01*
Y129875D02*
Y129950D01*
Y129825D02*
Y129875D01*
Y129750D02*
Y129825D01*
Y129625D02*
Y129750D01*
Y129500D02*
Y129625D01*
Y129375D02*
Y129500D01*
Y129250D02*
Y129375D01*
Y129125D02*
Y129250D01*
Y129000D02*
Y129125D01*
Y128875D02*
Y129000D01*
X69750Y155342D02*
Y155542D01*
X66650Y152242D02*
X69750Y155342D01*
X66450Y152242D02*
X66650D01*
X63750Y149542D02*
X66450Y152242D01*
X63750Y138000D02*
Y149542D01*
Y138000D02*
X66000Y135750D01*
X69750Y139250D02*
Y145942D01*
Y139250D02*
X71000Y138000D01*
X69850Y145842D02*
X83000D01*
X69750Y145942D02*
X69850Y145842D01*
X69850Y155642D02*
X83000D01*
X69750Y155542D02*
X69850Y155642D01*
X95000Y167642D02*
Y173750D01*
X86400Y159042D02*
X95000Y167642D01*
X86200Y159042D02*
X86400D01*
X83000Y155842D02*
X86200Y159042D01*
X83000Y155642D02*
Y155842D01*
X99000Y151292D02*
Y173750D01*
X95450Y147742D02*
X99000Y151292D01*
X176698Y206922D02*
X177000Y206620D01*
X176698Y206922D02*
Y237778D01*
X170892Y218226D02*
Y221107D01*
X168812Y223187D02*
X170892Y221107D01*
X166324Y224000D02*
X167137Y223187D01*
X168812D01*
X170060Y204681D02*
X171999Y206620D01*
X170060Y202690D02*
Y204681D01*
X180892Y197450D02*
Y200751D01*
Y197450D02*
X183042Y195300D01*
X186142Y192000D02*
X186342D01*
X183042Y195100D02*
X186142Y192000D01*
X183042Y195100D02*
Y195300D01*
X180892Y200751D02*
X183893D01*
X177000D02*
X180892D01*
X171999D02*
X177000D01*
X183893D02*
X184542Y201400D01*
X185542D01*
X187142Y203000D01*
Y204000D01*
X171999Y194882D02*
Y200751D01*
X177000Y200751D02*
X177000Y200751D01*
X161750Y202690D02*
X170060D01*
X171999Y200751D01*
X161750Y206801D02*
X162949Y208000D01*
X161750Y202690D02*
Y206801D01*
X161800Y196000D02*
Y202640D01*
X161750Y202690D02*
X161800Y202640D01*
X161800Y176300D02*
Y183750D01*
X161750Y176250D02*
X161800Y176300D01*
X161750Y170150D02*
X161900Y170000D01*
X161750Y170150D02*
Y176250D01*
X162250Y155542D02*
X170792D01*
X170892Y155642D01*
X156875Y155542D02*
Y157004D01*
X155800Y157457D02*
X156423D01*
X154961D02*
X155800D01*
X156423D02*
X156875Y157004D01*
X152100Y160317D02*
X154961Y157457D01*
X152100Y160317D02*
Y170000D01*
X129894Y160117D02*
X130393D01*
X132394Y158117D01*
Y157617D02*
Y158117D01*
Y157617D02*
X135426Y154585D01*
Y151616D02*
Y154585D01*
X134592Y147742D02*
Y150782D01*
X135426Y151616D01*
X131793Y142742D02*
X133606Y144555D01*
Y146757D01*
X134592Y147742D01*
X140892Y144465D02*
Y151616D01*
Y144465D02*
X142857Y142500D01*
X131000Y161224D02*
Y173750D01*
X129894Y160117D02*
X131000Y161224D01*
X140892Y151616D02*
X141392D01*
X143392Y153616D01*
Y154116D01*
X146481Y157205D01*
Y162888D01*
X137250Y172119D02*
X146481Y162888D01*
X137250Y172119D02*
Y180000D01*
X152200Y170100D02*
Y183750D01*
X152100Y170000D02*
X152200Y170100D01*
X151950Y184000D02*
X152200Y183750D01*
X173018Y190900D02*
X177000Y194882D01*
X147779Y190900D02*
X173018D01*
X146678Y192000D02*
X147779Y190900D01*
X137250Y192000D02*
X146678D01*
X161074Y222538D02*
Y224000D01*
X160496Y221961D02*
X161074Y222538D01*
X159874Y221961D02*
X160496D01*
X153385Y209436D02*
Y211885D01*
X151949Y208000D02*
X153385Y209436D01*
X151949Y196251D02*
X152200Y196000D01*
X137250Y216000D02*
X144892D01*
X137250Y240000D02*
X145642D01*
X149642Y244000D01*
X137250D02*
X142857D01*
X139976Y273254D02*
X152000D01*
X153625Y271629D01*
X127000Y264287D02*
X136259D01*
X137936Y265965D01*
X149641Y252500D02*
X149642D01*
X143153Y258987D02*
X149641Y252500D01*
X127396Y258987D02*
X143153D01*
X123000Y254591D02*
X127396Y258987D01*
X123000Y250250D02*
Y254591D01*
X134592Y256134D02*
X139976Y250750D01*
X142857D01*
X129894Y256134D02*
X134592D01*
X127000Y250250D02*
X127750Y251000D01*
Y253990D01*
X129894Y256134D01*
X131000Y250250D02*
X133166D01*
X134592Y248824D01*
X135426D01*
X136000Y248250D01*
X119000Y250250D02*
Y256287D01*
X123700Y260987D01*
X123900D01*
X127000Y264087D01*
Y264287D01*
X104505Y260914D02*
Y261513D01*
Y260914D02*
X107000Y258419D01*
Y250250D02*
Y258419D01*
X111000Y250250D02*
Y256971D01*
X110971Y257000D02*
X111000Y256971D01*
X103000Y250250D02*
Y256384D01*
X99000Y250250D02*
Y260537D01*
X98750Y260787D02*
X99000Y260537D01*
X94750Y250500D02*
X95000Y250250D01*
X99286Y264287D02*
X104886Y269887D01*
X85000Y267387D02*
X89586Y271973D01*
X78500Y260694D02*
X83193Y265387D01*
X79000Y250250D02*
Y257000D01*
X92336Y271973D02*
X94250Y273887D01*
X85000Y266266D02*
Y267387D01*
X83193Y265387D02*
X84121D01*
X89586Y271973D02*
X92336D01*
X84121Y265387D02*
X85000Y266266D01*
X78500Y257500D02*
Y260694D01*
Y257500D02*
X79000Y257000D01*
X75000Y265250D02*
X76629Y266879D01*
X81750Y269879D02*
Y272000D01*
X75000Y250250D02*
Y265250D01*
X78750Y266879D02*
X81750Y269879D01*
X76629Y266879D02*
X78750D01*
X78500Y250750D02*
X79000Y250250D01*
X67000D02*
Y270153D01*
X42846Y260791D02*
Y265338D01*
X42942Y260694D02*
X43526D01*
X42846Y260791D02*
X42942Y260694D01*
X43526D02*
X44636Y259584D01*
Y249000D02*
Y259584D01*
X46220Y236173D02*
Y247416D01*
X44636Y249000D02*
X46220Y247416D01*
D14*
X213392Y197000D02*
X221250D01*
X90200Y47565D02*
Y53575D01*
X94250Y57625D01*
X103000Y165086D02*
Y173750D01*
Y165086D02*
X103086Y165000D01*
X103000Y208000D02*
X123000Y188000D01*
X99000Y212000D02*
X103000Y208000D01*
X123000Y188000D02*
X137250D01*
X103000Y173750D02*
Y208000D01*
X143468Y185690D02*
Y185782D01*
X141250Y188000D02*
X143468Y185782D01*
X137250Y188000D02*
X141250D01*
X44836Y144492D02*
X55300D01*
X44512D02*
X44836D01*
X43403Y148950D02*
X43682Y148671D01*
Y145322D02*
X44512Y144492D01*
X43682Y145322D02*
Y148671D01*
X55300Y144492D02*
X56500Y145692D01*
X41200Y192000D02*
X41846Y192646D01*
Y198179D01*
X42125Y198459D01*
X89865Y297279D02*
X96921D01*
X312250Y68545D02*
X318645Y74941D01*
X312250Y66690D02*
Y68545D01*
X318645Y80596D02*
X319550Y81500D01*
X318645Y74941D02*
Y80596D01*
X269978Y73704D02*
X270257Y73425D01*
X265492Y76631D02*
Y85000D01*
Y76631D02*
X268419Y73704D01*
X269978D01*
X23250Y237778D02*
X27500D01*
X29105Y236173D02*
X35221D01*
X27500Y237778D02*
X29105Y236173D01*
X35036Y236357D02*
Y249000D01*
Y236357D02*
X35221Y236173D01*
X149500Y332200D02*
X150071Y331629D01*
X155471D01*
X155750Y331350D01*
X187142Y170000D02*
Y171000D01*
X186312Y171830D02*
X187142Y171000D01*
X184562Y171830D02*
X186312D01*
X180892Y175500D02*
X184562Y171830D01*
X187142Y180000D02*
Y181000D01*
X186312Y179170D02*
X187142Y180000D01*
X185312Y179170D02*
X186312D01*
X181921Y175779D02*
X185312Y179170D01*
X181171Y175779D02*
X181921D01*
X180892Y175500D02*
X181171Y175779D01*
X229250Y189000D02*
X237392D01*
X221250Y197000D02*
X229250Y189000D01*
X123750Y298300D02*
X126250Y300800D01*
Y308000D01*
X100280Y293920D02*
X101290D01*
X96921Y297279D02*
X100280Y293920D01*
X103086Y288260D02*
Y292124D01*
Y288260D02*
X104886Y286460D01*
Y277887D02*
Y286460D01*
X101290Y293920D02*
X103086Y292124D01*
X89586Y297000D02*
X89865Y297279D01*
X81750Y297650D02*
X88541D01*
X89191Y297000D01*
X89586D01*
X115319Y273888D02*
X117649Y276218D01*
Y278007D01*
X119000Y279358D01*
Y279753D01*
X115319Y273887D02*
X127000D01*
X115319Y273888D02*
X115319Y273887D01*
X123550Y355000D02*
X131000D01*
X210892Y258453D02*
X215892D01*
X205892D02*
X210892D01*
X222750Y254306D02*
Y254669D01*
X219714Y257705D02*
X222750Y254669D01*
X216122Y257705D02*
X219714D01*
X215892Y257935D02*
Y258453D01*
Y257935D02*
X216122Y257705D01*
X185892Y258453D02*
Y267661D01*
X188000Y269769D01*
Y269879D01*
X144392Y289953D02*
Y308244D01*
X144385Y308250D02*
X144392Y308244D01*
X242392Y289953D02*
Y303963D01*
X289750Y117500D02*
Y118500D01*
Y117500D02*
X290580Y116670D01*
X291580D01*
X304650Y103600D01*
X312000D01*
X312200Y103800D01*
X318050D01*
X318250Y104000D01*
X283352Y89273D02*
X283500Y89125D01*
X278375Y94250D02*
X282012D01*
X283352Y89273D02*
Y92910D01*
X282012Y94250D02*
X283352Y92910D01*
X270250Y73500D02*
X279350D01*
X283500Y78460D02*
Y89125D01*
X283080Y78040D02*
X283500Y78460D01*
X283080Y77318D02*
Y78040D01*
X281880Y76118D02*
X283080Y77318D01*
X281880Y75830D02*
Y76118D01*
X279550Y73500D02*
X281880Y75830D01*
X279350Y73500D02*
X279550D01*
D16*
X15000Y193400D02*
D03*
Y180700D02*
D03*
Y168000D02*
D03*
Y155300D02*
D03*
D22*
X289150Y73500D02*
D03*
X279350D02*
D03*
X309950Y81500D02*
D03*
X319550D02*
D03*
X113950Y355000D02*
D03*
X123550D02*
D03*
X152200Y196000D02*
D03*
X161800D02*
D03*
X44636Y249000D02*
D03*
X35036D02*
D03*
X152200Y183750D02*
D03*
X161800D02*
D03*
X50800Y192000D02*
D03*
X41200D02*
D03*
X99800Y47565D02*
D03*
X90200D02*
D03*
X195942Y192000D02*
D03*
X186342D02*
D03*
D23*
X278750Y118500D02*
D03*
X289750D02*
D03*
X151949Y208000D02*
D03*
X162949D02*
D03*
X46220Y236173D02*
D03*
X35221D02*
D03*
X198142Y170000D02*
D03*
X187142D02*
D03*
X198142Y181000D02*
D03*
X187142D02*
D03*
X198142Y204000D02*
D03*
X187142D02*
D03*
D24*
X280500Y35200D02*
D03*
Y44800D02*
D03*
X267000Y95050D02*
D03*
Y85450D02*
D03*
X251500Y42700D02*
D03*
Y52300D02*
D03*
X67500Y79550D02*
D03*
Y69950D02*
D03*
X149500Y341800D02*
D03*
Y332200D02*
D03*
X81750Y287850D02*
D03*
Y297650D02*
D03*
X96750Y297650D02*
D03*
Y287850D02*
D03*
X56500Y155292D02*
D03*
Y145692D02*
D03*
X127000Y264287D02*
D03*
Y273887D02*
D03*
X69750Y155542D02*
D03*
Y145942D02*
D03*
X67000Y270153D02*
D03*
Y279753D02*
D03*
X115319Y264288D02*
D03*
Y273888D02*
D03*
D25*
X312000Y92600D02*
D03*
Y103600D02*
D03*
X237250Y41250D02*
D03*
X237250Y52250D02*
D03*
X269250Y44000D02*
D03*
Y33000D02*
D03*
X44836Y155492D02*
D03*
Y144492D02*
D03*
X127000Y284453D02*
D03*
Y295453D02*
D03*
D32*
X101250Y126815D02*
D03*
X84250D02*
D03*
D37*
X56250Y67750D02*
D03*
Y75750D02*
D03*
X104886Y269887D02*
D03*
Y277887D02*
D03*
D62*
X83000Y155642D02*
D03*
Y145842D02*
D03*
D76*
X232750Y138000D02*
D03*
X247250D02*
D03*
X238000Y76190D02*
D03*
X252500D02*
D03*
D80*
X219000Y45625D02*
D03*
Y57625D02*
D03*
X219000Y69625D02*
D03*
X121000D02*
D03*
X121000Y57625D02*
D03*
Y45625D02*
D03*
D106*
X191750Y321750D02*
D03*
X202750D02*
D03*
X191750Y310750D02*
D03*
X202750D02*
D03*
X319950Y263000D02*
D03*
Y277000D02*
D03*
X324950Y270000D02*
D03*
X314950D02*
D03*
D109*
X112365Y306265D02*
X117006D01*
X111250Y305150D02*
X112365Y306265D01*
D111*
X160850Y354250D02*
D03*
X268150Y277750D02*
D03*
D112*
X148150Y354250D02*
D03*
X280850Y277750D02*
D03*
X296250Y310850D02*
D03*
D113*
X296250Y298150D02*
D03*
D114*
X113950Y209918D02*
D03*
X221250Y197000D02*
D03*
X260750Y94750D02*
D03*
X302265Y65253D02*
D03*
X117006Y306265D02*
D03*
X229750Y207632D02*
D03*
X229499Y201941D02*
D03*
X267228Y113221D02*
D03*
X148774Y324063D02*
D03*
X176850Y316250D02*
D03*
X224648Y216156D02*
D03*
X303020Y86407D02*
D03*
X195250Y218700D02*
D03*
X180892Y175500D02*
D03*
X325950Y287201D02*
D03*
X94250Y57625D02*
D03*
X103086Y165000D02*
D03*
X325266Y87754D02*
D03*
X262383Y109320D02*
D03*
X221250Y138000D02*
D03*
X213392Y176300D02*
D03*
X51436Y248856D02*
D03*
X53187Y232000D02*
D03*
X54500Y239000D02*
D03*
X49500Y224718D02*
D03*
X132888Y292245D02*
D03*
X171376Y164313D02*
D03*
X236500Y230520D02*
D03*
X162331Y247416D02*
D03*
X59995Y87190D02*
D03*
X37291Y116856D02*
D03*
X70030Y287722D02*
D03*
X146849Y205219D02*
D03*
X144385Y209918D02*
D03*
X143307Y201690D02*
D03*
X143468Y185690D02*
D03*
X115000Y167510D02*
D03*
X62250Y164313D02*
D03*
X72500Y167510D02*
D03*
X63573Y175219D02*
D03*
X54500Y184000D02*
D03*
X50375Y198600D02*
D03*
X43403Y148950D02*
D03*
X35036Y155292D02*
D03*
X35221Y168013D02*
D03*
X35036Y181211D02*
D03*
X42125Y198459D02*
D03*
X47250Y162888D02*
D03*
X16250Y206801D02*
D03*
X46220Y201690D02*
D03*
X43403Y209458D02*
D03*
X61336Y103263D02*
D03*
X92233Y326230D02*
D03*
X87000Y321250D02*
D03*
X85250Y313700D02*
D03*
X78625Y309000D02*
D03*
X59600Y266500D02*
D03*
X85232Y261700D02*
D03*
X94528Y256329D02*
D03*
X92233Y260771D02*
D03*
X87007Y254716D02*
D03*
X87000Y277750D02*
D03*
X90076Y290760D02*
D03*
X133250Y341750D02*
D03*
X205260Y341767D02*
D03*
X177715Y344364D02*
D03*
X204879Y355750D02*
D03*
X221743Y354550D02*
D03*
X257250D02*
D03*
X259324Y296250D02*
D03*
X339267Y268263D02*
D03*
X312250Y66690D02*
D03*
X331000Y85000D02*
D03*
X298135Y81690D02*
D03*
X269762Y78400D02*
D03*
X270257Y73425D02*
D03*
X148250Y50000D02*
D03*
X170060D02*
D03*
X170250Y74500D02*
D03*
X186400Y91690D02*
D03*
X171376Y227155D02*
D03*
X74754Y121937D02*
D03*
X53313Y103982D02*
D03*
X39770Y89539D02*
D03*
X25500Y99959D02*
D03*
X38250Y109190D02*
D03*
X57750Y175500D02*
D03*
X54595Y202000D02*
D03*
X51436Y206801D02*
D03*
Y254569D02*
D03*
X38572D02*
D03*
X23250Y237778D02*
D03*
X155750Y331350D02*
D03*
X144863Y320261D02*
D03*
X92336Y335111D02*
D03*
X204010Y209510D02*
D03*
X123750Y298300D02*
D03*
X107750D02*
D03*
X67500Y305500D02*
D03*
X89586Y297000D02*
D03*
X119000Y279753D02*
D03*
X131000Y355000D02*
D03*
X141392Y339750D02*
D03*
X118750Y346750D02*
D03*
X222750Y254306D02*
D03*
X200892Y248824D02*
D03*
X146804Y220506D02*
D03*
X156125Y244000D02*
D03*
X164508Y239512D02*
D03*
X188000Y269879D02*
D03*
X157125Y252500D02*
D03*
X144385Y308250D02*
D03*
X241250Y305500D02*
D03*
X298135Y103690D02*
D03*
X318250Y104000D02*
D03*
X75365Y114690D02*
D03*
X136000Y165000D02*
D03*
X121000Y150782D02*
D03*
X159035Y142339D02*
D03*
X208000Y49690D02*
D03*
X210892Y66690D02*
D03*
X229750Y89250D02*
D03*
X109850Y89125D02*
D03*
X111529Y69950D02*
D03*
X112650Y57625D02*
D03*
X127750Y17125D02*
D03*
X210892D02*
D03*
X237484Y67750D02*
D03*
X252750Y63500D02*
D03*
X260000Y30501D02*
D03*
Y17750D02*
D03*
X254875Y9877D02*
D03*
X247553Y8191D02*
D03*
X238700Y9000D02*
D03*
X232750Y20500D02*
D03*
X288500Y45625D02*
D03*
X269250Y25789D02*
D03*
X278375Y25500D02*
D03*
X237392Y57625D02*
D03*
X229750Y49690D02*
D03*
X99800Y38750D02*
D03*
X59600Y278954D02*
D03*
X27500Y257702D02*
D03*
X21750Y134500D02*
D03*
X67750Y61250D02*
D03*
X49521Y76250D02*
D03*
X55000Y126050D02*
D03*
X71000Y138000D02*
D03*
X170892Y218226D02*
D03*
X180892Y200751D02*
D03*
X161750Y202690D02*
D03*
Y176250D02*
D03*
X170892Y155642D02*
D03*
X145642Y228000D02*
D03*
X149642Y244000D02*
D03*
X142857D02*
D03*
X149642Y252500D02*
D03*
X142857Y250750D02*
D03*
X136000Y248250D02*
D03*
X104505Y261513D02*
D03*
X110971Y257000D02*
D03*
X103000Y256384D02*
D03*
X98750Y260787D02*
D03*
X113750Y320250D02*
D03*
X123750D02*
D03*
X113750Y330250D02*
D03*
X123750D02*
D03*
D115*
X233250Y324750D02*
D03*
Y339750D02*
D03*
X240250D02*
D03*
X240250Y324750D02*
D03*
X236750Y332250D02*
D03*
D116*
X176698Y237778D02*
D03*
D117*
X192000Y236000D02*
D03*
X226000D02*
D03*
D118*
X250000Y138000D02*
D03*
D119*
X346000D02*
D03*
Y238000D02*
D03*
D120*
X288500Y104375D02*
D03*
X283500D02*
D03*
Y89125D02*
D03*
X288500D02*
D03*
D121*
X278375Y104250D02*
D03*
Y99250D02*
D03*
Y94250D02*
D03*
Y89250D02*
D03*
X293625D02*
D03*
Y94250D02*
D03*
Y99250D02*
D03*
Y104250D02*
D03*
D122*
X239625Y25500D02*
D03*
Y20500D02*
D03*
Y15500D02*
D03*
X254875D02*
D03*
Y20500D02*
D03*
Y25500D02*
D03*
D123*
X244750Y12875D02*
D03*
X249750D02*
D03*
Y28125D02*
D03*
X244750D02*
D03*
D124*
X131793Y142742D02*
D03*
X122993D02*
D03*
X142857Y142500D02*
D03*
X151657D02*
D03*
D125*
X152100Y170000D02*
D03*
X161900D02*
D03*
D126*
X27250Y215250D02*
D03*
X18250D02*
D03*
D127*
X164824Y224000D02*
D03*
X161074D02*
D03*
X38846Y265338D02*
D03*
X42596D02*
D03*
X160750Y155542D02*
D03*
X157000D02*
D03*
X45625Y175500D02*
D03*
X49375D02*
D03*
D128*
X164949Y224000D02*
D03*
X160949D02*
D03*
X38721Y265338D02*
D03*
X42720D02*
D03*
X160875Y155542D02*
D03*
X156875D02*
D03*
X45500Y175500D02*
D03*
X49500D02*
D03*
D129*
X164699Y224000D02*
D03*
X161199D02*
D03*
X38970Y265338D02*
D03*
X42470D02*
D03*
X160625Y155542D02*
D03*
X157125D02*
D03*
X45750Y175500D02*
D03*
X49250D02*
D03*
D130*
X165074Y224000D02*
D03*
X160824D02*
D03*
X38595Y265338D02*
D03*
X42846D02*
D03*
X161000Y155542D02*
D03*
X156750D02*
D03*
X45375Y175500D02*
D03*
X49625D02*
D03*
D131*
X165199Y224000D02*
D03*
X160699D02*
D03*
X38470Y265338D02*
D03*
X42971D02*
D03*
X161125Y155542D02*
D03*
X156625D02*
D03*
X45250Y175500D02*
D03*
X49750D02*
D03*
D132*
X166199Y224000D02*
D03*
X159699D02*
D03*
X37471Y265338D02*
D03*
X43970D02*
D03*
X162125Y155542D02*
D03*
X155625D02*
D03*
X44250Y175500D02*
D03*
X50750D02*
D03*
D133*
X165324Y224000D02*
D03*
X160574D02*
D03*
X38345Y265338D02*
D03*
X43095D02*
D03*
X161250Y155542D02*
D03*
X156500D02*
D03*
X45125Y175500D02*
D03*
X49875D02*
D03*
D134*
X165449Y224000D02*
D03*
X160449D02*
D03*
X38221Y265338D02*
D03*
X43221D02*
D03*
X161375Y155542D02*
D03*
X156375D02*
D03*
X45000Y175500D02*
D03*
X50000D02*
D03*
D135*
X165574Y224000D02*
D03*
X160324D02*
D03*
X38096Y265338D02*
D03*
X43345D02*
D03*
X161500Y155542D02*
D03*
X156250D02*
D03*
X44875Y175500D02*
D03*
X50125D02*
D03*
D136*
X165699Y224000D02*
D03*
X160199D02*
D03*
X37970Y265338D02*
D03*
X43471D02*
D03*
X161625Y155542D02*
D03*
X156125D02*
D03*
X44750Y175500D02*
D03*
X50250D02*
D03*
D137*
X165824Y224000D02*
D03*
X160074D02*
D03*
X37845Y265338D02*
D03*
X43595D02*
D03*
X161750Y155542D02*
D03*
X156000D02*
D03*
X44625Y175500D02*
D03*
X50375D02*
D03*
D138*
X165949Y224000D02*
D03*
X159949D02*
D03*
X37720Y265338D02*
D03*
X43720D02*
D03*
X161875Y155542D02*
D03*
X155875D02*
D03*
X44500Y175500D02*
D03*
X50500D02*
D03*
D139*
X166024Y224000D02*
D03*
X159874D02*
D03*
X37645Y265338D02*
D03*
X43795D02*
D03*
X161950Y155542D02*
D03*
X155800D02*
D03*
X44425Y175500D02*
D03*
X50575D02*
D03*
D140*
X166074Y224000D02*
D03*
X159824D02*
D03*
X37596Y265338D02*
D03*
X43846D02*
D03*
X162000Y155542D02*
D03*
X155750D02*
D03*
X44375Y175500D02*
D03*
X50625D02*
D03*
D141*
X166149Y224000D02*
D03*
X159749D02*
D03*
X37520Y265338D02*
D03*
X43920D02*
D03*
X162075Y155542D02*
D03*
X155675D02*
D03*
X44300Y175500D02*
D03*
X50700D02*
D03*
D142*
X166299Y224000D02*
D03*
X159599D02*
D03*
X37371Y265338D02*
D03*
X44071D02*
D03*
X162225Y155542D02*
D03*
X155525D02*
D03*
X44150Y175500D02*
D03*
X50850D02*
D03*
D143*
X166249Y224000D02*
D03*
X159649D02*
D03*
X37420Y265338D02*
D03*
X44021D02*
D03*
X162175Y155542D02*
D03*
X155575D02*
D03*
X44200Y175500D02*
D03*
X50800D02*
D03*
D144*
X166324Y224000D02*
D03*
X159574D02*
D03*
X46220Y127396D02*
D03*
Y134146D02*
D03*
X37345Y265338D02*
D03*
X44096D02*
D03*
X139976Y273254D02*
D03*
Y266504D02*
D03*
X162250Y155542D02*
D03*
X155500D02*
D03*
X44125Y175500D02*
D03*
X50875D02*
D03*
X66000Y123375D02*
D03*
Y130125D02*
D03*
X66500Y299375D02*
D03*
Y292625D02*
D03*
X112569Y293328D02*
D03*
Y286578D02*
D03*
D145*
X46220Y128896D02*
D03*
Y132646D02*
D03*
X139976Y271754D02*
D03*
Y268004D02*
D03*
X66000Y124875D02*
D03*
Y128625D02*
D03*
X66500Y297875D02*
D03*
Y294125D02*
D03*
X112569Y291828D02*
D03*
Y288078D02*
D03*
D146*
X46220Y128771D02*
D03*
Y132771D02*
D03*
X139976Y271879D02*
D03*
Y267879D02*
D03*
X66000Y124750D02*
D03*
Y128750D02*
D03*
X66500Y298000D02*
D03*
Y294000D02*
D03*
X112569Y291953D02*
D03*
Y287953D02*
D03*
D147*
X46220Y129021D02*
D03*
Y132521D02*
D03*
X139976Y271629D02*
D03*
Y268129D02*
D03*
X66000Y125000D02*
D03*
Y128500D02*
D03*
X66500Y297750D02*
D03*
Y294250D02*
D03*
X112569Y291703D02*
D03*
Y288203D02*
D03*
D148*
X46220Y128646D02*
D03*
Y132896D02*
D03*
X139976Y272004D02*
D03*
Y267754D02*
D03*
X66000Y124625D02*
D03*
Y128875D02*
D03*
X66500Y298125D02*
D03*
Y293875D02*
D03*
X112569Y292078D02*
D03*
Y287828D02*
D03*
D149*
X46220Y128521D02*
D03*
Y133021D02*
D03*
X139976Y272129D02*
D03*
Y267629D02*
D03*
X66000Y124500D02*
D03*
Y129000D02*
D03*
X66500Y298250D02*
D03*
Y293750D02*
D03*
X112569Y292203D02*
D03*
Y287703D02*
D03*
D150*
X46220Y127521D02*
D03*
Y134021D02*
D03*
X139976Y273129D02*
D03*
Y266629D02*
D03*
X66000Y123500D02*
D03*
Y130000D02*
D03*
X66500Y299250D02*
D03*
Y292750D02*
D03*
X112569Y293203D02*
D03*
Y286703D02*
D03*
D151*
X46220Y128396D02*
D03*
Y133146D02*
D03*
X139976Y272254D02*
D03*
Y267504D02*
D03*
X66000Y124375D02*
D03*
Y129125D02*
D03*
X66500Y298375D02*
D03*
Y293625D02*
D03*
X112569Y292328D02*
D03*
Y287578D02*
D03*
D152*
X46220Y128271D02*
D03*
Y133271D02*
D03*
X139976Y272379D02*
D03*
Y267379D02*
D03*
X66000Y124250D02*
D03*
Y129250D02*
D03*
X66500Y298500D02*
D03*
Y293500D02*
D03*
X112569Y292453D02*
D03*
Y287453D02*
D03*
D153*
X46220Y128146D02*
D03*
Y133396D02*
D03*
X139976Y272504D02*
D03*
Y267254D02*
D03*
X66000Y124125D02*
D03*
Y129375D02*
D03*
X66500Y298625D02*
D03*
Y293375D02*
D03*
X112569Y292578D02*
D03*
Y287328D02*
D03*
D154*
X46220Y128021D02*
D03*
Y133521D02*
D03*
X139976Y272629D02*
D03*
Y267129D02*
D03*
X66000Y124000D02*
D03*
Y129500D02*
D03*
X66500Y298750D02*
D03*
Y293250D02*
D03*
X112569Y292703D02*
D03*
Y287203D02*
D03*
D155*
X46220Y127896D02*
D03*
Y133646D02*
D03*
X139976Y272754D02*
D03*
Y267004D02*
D03*
X66000Y123875D02*
D03*
Y129625D02*
D03*
X66500Y298875D02*
D03*
Y293125D02*
D03*
X112569Y292828D02*
D03*
Y287078D02*
D03*
D156*
X46220Y127771D02*
D03*
Y133771D02*
D03*
X139976Y272879D02*
D03*
Y266879D02*
D03*
X66000Y123750D02*
D03*
Y129750D02*
D03*
X66500Y299000D02*
D03*
Y293000D02*
D03*
X112569Y292953D02*
D03*
Y286953D02*
D03*
D157*
X46220Y127696D02*
D03*
Y133846D02*
D03*
X139976Y272954D02*
D03*
Y266804D02*
D03*
X66000Y123675D02*
D03*
Y129825D02*
D03*
X66500Y299075D02*
D03*
Y292925D02*
D03*
X112569Y293028D02*
D03*
Y286878D02*
D03*
D158*
X46220Y127646D02*
D03*
Y133896D02*
D03*
X139976Y273004D02*
D03*
Y266754D02*
D03*
X66000Y123625D02*
D03*
Y129875D02*
D03*
X66500Y299125D02*
D03*
Y292875D02*
D03*
X112569Y293078D02*
D03*
Y286828D02*
D03*
D159*
X46220Y127571D02*
D03*
Y133971D02*
D03*
X139976Y273079D02*
D03*
Y266679D02*
D03*
X66000Y123550D02*
D03*
Y129950D02*
D03*
X66500Y299200D02*
D03*
Y292800D02*
D03*
X112569Y293153D02*
D03*
Y286753D02*
D03*
D160*
X46220Y127421D02*
D03*
Y134121D02*
D03*
X139976Y273229D02*
D03*
Y266529D02*
D03*
X66000Y123400D02*
D03*
Y130100D02*
D03*
X66500Y299350D02*
D03*
Y292650D02*
D03*
X112569Y293303D02*
D03*
Y286603D02*
D03*
D161*
X46220Y127471D02*
D03*
Y134071D02*
D03*
X139976Y273179D02*
D03*
Y266579D02*
D03*
X66000Y123450D02*
D03*
Y130050D02*
D03*
X66500Y299300D02*
D03*
Y292700D02*
D03*
X112569Y293253D02*
D03*
Y286653D02*
D03*
D162*
X110550Y147742D02*
D03*
X95450D02*
D03*
D163*
X38500Y215500D02*
D03*
X48000D02*
D03*
D164*
X49521Y89229D02*
D03*
X25479Y113271D02*
D03*
D165*
X171999Y194882D02*
D03*
Y200751D02*
D03*
Y206620D02*
D03*
X177000Y194882D02*
D03*
Y200751D02*
D03*
Y206620D02*
D03*
D166*
X118750Y325250D02*
D03*
D167*
X98750Y335250D02*
D03*
Y330250D02*
D03*
Y325250D02*
D03*
X101500Y320250D02*
D03*
Y315250D02*
D03*
X138850D02*
D03*
Y320250D02*
D03*
Y325250D02*
D03*
X136000Y330250D02*
D03*
Y335250D02*
D03*
X111250Y305150D02*
D03*
X126250Y308000D02*
D03*
X111250Y342500D02*
D03*
X126250Y345250D02*
D03*
D168*
X94250Y273887D02*
D03*
X79750D02*
D03*
D169*
X140892Y160117D02*
D03*
X129894D02*
D03*
X129893Y151616D02*
D03*
X140892Y151616D02*
D03*
D170*
X250000Y97815D02*
D03*
Y114315D02*
D03*
D171*
X99000Y212000D02*
D03*
D172*
X60750Y244000D02*
D03*
Y240000D02*
D03*
Y236000D02*
D03*
Y232000D02*
D03*
Y228000D02*
D03*
Y224000D02*
D03*
Y220000D02*
D03*
Y216000D02*
D03*
Y212000D02*
D03*
Y208000D02*
D03*
Y204000D02*
D03*
Y200000D02*
D03*
Y196000D02*
D03*
Y192000D02*
D03*
Y188000D02*
D03*
Y184000D02*
D03*
Y180000D02*
D03*
X137250D02*
D03*
Y184000D02*
D03*
Y188000D02*
D03*
Y192000D02*
D03*
Y196000D02*
D03*
Y200000D02*
D03*
Y204000D02*
D03*
Y208000D02*
D03*
Y212000D02*
D03*
Y216000D02*
D03*
Y220000D02*
D03*
Y224000D02*
D03*
Y228000D02*
D03*
Y232000D02*
D03*
Y236000D02*
D03*
Y240000D02*
D03*
Y244000D02*
D03*
D173*
X67000Y173750D02*
D03*
X71000D02*
D03*
X75000D02*
D03*
X79000D02*
D03*
X83000D02*
D03*
X87000D02*
D03*
X91000D02*
D03*
X95000D02*
D03*
X99000D02*
D03*
X103000D02*
D03*
X107000D02*
D03*
X111000D02*
D03*
X115000D02*
D03*
X119000D02*
D03*
X123000D02*
D03*
X127000D02*
D03*
X131000D02*
D03*
Y250250D02*
D03*
X127000D02*
D03*
X123000D02*
D03*
X119000D02*
D03*
X115000D02*
D03*
X111000D02*
D03*
X107000D02*
D03*
X103000D02*
D03*
X99000D02*
D03*
X95000D02*
D03*
X91000D02*
D03*
X87000D02*
D03*
X83000D02*
D03*
X79000D02*
D03*
X75000D02*
D03*
X71000D02*
D03*
X67000D02*
D03*
D174*
X151800Y128375D02*
D03*
X188200D02*
D03*
D175*
X119000Y89125D02*
D03*
X221000D02*
D03*
Y17125D02*
D03*
X119000D02*
D03*
D176*
X170892Y258453D02*
D03*
X175892D02*
D03*
X180892D02*
D03*
X185892D02*
D03*
X190892D02*
D03*
X195892D02*
D03*
X200892D02*
D03*
X205892D02*
D03*
X210892D02*
D03*
X215892D02*
D03*
D177*
X144392Y289953D02*
D03*
X242392D02*
D03*
D178*
X213392Y213000D02*
D03*
Y205000D02*
D03*
Y197000D02*
D03*
Y189000D02*
D03*
Y181000D02*
D03*
Y173000D02*
D03*
Y165000D02*
D03*
X237392D02*
D03*
Y173000D02*
D03*
Y181000D02*
D03*
Y189000D02*
D03*
Y197000D02*
D03*
Y205000D02*
D03*
Y213000D02*
D03*
D179*
X176698Y237778D02*
X190222D01*
D180*
X250000Y138000D02*
X346000D01*
M02*
