M48
;Layer_Color=9474304
;FILE_FORMAT=4:4
METRIC,LZ
T4F00S00C2.4000
%
G90
G05
T04
G00X00265066Y-00008955
M15
G01X00268221Y-00007481
G01X00270105Y-00005945
G01X00375515Y00099465
G01X00377594Y00102258
G01X00378784Y00105531
G01X0037903Y0010795
G01X0037903Y0025654
G01X00378525Y00259986
G01X00377051Y00263141
G01X00375515Y00265025
G01X00270105Y00370435
G01X00267312Y00372514
G01X00264038Y00373704
G01X0026162Y0037395
G01X0011176Y0037395
G01X00108314Y00373445
G01X00105159Y00371971
G01X00103275Y00370435
G01X-00002135Y00265025
G01X-00004214Y00262232
G01X-00005404Y00258959
G01X-0000565Y0025654
G01X-0000565Y0010795
G01X-00005145Y00104504
G01X-00003671Y00101349
G01X-00002135Y00099465
G01X00103275Y-00005945
G01X00106068Y-00008024
G01X00109341Y-00009214
G01X0011176Y-0000946
G01X0026162Y-0000946
G01X00265066Y-00008955
M16
M17
M30
