M48
;Layer_Color=9474304
;FILE_FORMAT=4:4
METRIC,LZ
;TYPE=PLATED
T1F00S00C0.2000
T2F00S00C0.6000
T3F00S00C0.9000
;TYPE=NON_PLATED
%
T01
X002387Y00009
X00247553Y00008191
X00254875Y00009877
X0026Y0001775
Y00030501
X0026925Y00025789
X00278375Y000255
X002885Y00045625
X00302265Y00065253
X0031225Y0006669
X00298135Y0008169
X00269762Y000784
X00270257Y00073425
X0025275Y000635
X00237484Y0006775
X00237392Y00057625
X0022975Y0004969
X0023275Y000205
X00210892Y00017125
X00208Y0004969
X00210892Y0006669
X0017025Y000745
X0017006Y0005
X0014825
X0011265Y00057625
X00111529Y0006995
X0009425Y00057625
X000998Y0003875
X0012775Y00017125
X0006775Y0006125
X00049521Y0007625
X00059995Y0008719
X00061336Y00103263
X00053313Y00103982
X0003825Y0010919
X00037291Y00116856
X00055Y0012605
X00074754Y00121937
X00075365Y0011469
X00071Y00138
X000725Y0016751
X0006225Y00164313
X00063573Y00175219
X0005775Y001755
X000545Y00184
X00054595Y00202
X00050375Y001986
X0004622Y0020169
X00042125Y00198459
X00043403Y00209458
X00051436Y00206801
X000495Y00224718
X00053187Y00232
X000545Y00239
X00051436Y00248856
Y00254569
X00038572
X000275Y00257702
X0002325Y00237778
X0001625Y00206801
X00035036Y00181211
X00035221Y00168013
X00035036Y00155292
X00043403Y0014895
X0004725Y00162888
X0002175Y001345
X000255Y00099959
X0003977Y00089539
X0010985Y00089125
X00121Y00150782
X00115Y0016751
X00103086Y00165
X00136
X00143468Y0018569
X00143307Y0020169
X00146849Y00205219
X00144385Y00209918
X00146804Y00220506
X00145642Y00228
X00142857Y00244
Y0025075
X00149642Y002525
X00157125
X00156125Y00244
X00149642
X00162331Y00247416
X00164508Y00239512
X00171376Y00227155
X00170892Y00218226
X0016175Y0020269
X00180892Y00200751
Y001755
X0016175Y0017625
X00171376Y00164313
X00170892Y00155642
X00159035Y00142339
X001864Y0009169
X0020401Y0020951
X0019525Y002187
X00200892Y00248824
X00188Y00269879
X0019175Y0031075
Y0032175
X0020275
Y0031075
X0017685Y0031625
X00177715Y00344364
X0020526Y00341767
X00204879Y0035575
X0015575Y0033135
X00148774Y00324063
X00144863Y00320261
X00144385Y0030825
X00132888Y00292245
X0012375Y002983
X00117006Y00306265
X0010775Y002983
X00089586Y00297
X00090076Y0029076
X00087Y0027775
X00085232Y002617
X00092233Y00260771
X0009875Y00260787
X00104505Y00261513
X00103Y00256384
X00094528Y00256329
X00087007Y00254716
X00110971Y00257
X00119Y00279753
X0012375Y0032025
X0011375
Y0033025
X0012375
X0013325Y0034175
X00141392Y0033975
X00131Y00355
X0011875Y0034675
X00092336Y00335111
X00092233Y0032623
X00087Y0032125
X0008525Y003137
X00078625Y00309
X000675Y003055
X0007003Y00287722
X000596Y00278954
Y002665
X00136Y0024825
X0011395Y00209918
X00224648Y00216156
X0022975Y00207632
X00229499Y00201941
X0022125Y00197
X00213392Y001763
X0022125Y00138
X0022975Y0008925
X0026075Y0009475
X00262383Y0010932
X00267228Y00113221
X00298135Y0010369
X0031825Y00104
X00325266Y00087754
X00331Y00085
X0030302Y00086407
X0031995Y00263
X0032495Y0027
X0031495
X0031995Y00277
X0032595Y00287201
X00339267Y00268263
X00259324Y0029625
X0024125Y003055
X0024025Y0032475
X0023325
X0023675Y0033225
X0023325Y0033975
X0024025
X0025725Y0035455
X00221743
X0022275Y00254306
X002365Y0023052
T02
X0014815Y0035425
X0016085Y0035425
X0029625Y0031085
X0029625Y0029815
X0028085Y0027775
X0026815Y0027775
T03
X000277Y0014895
X000277Y0016165
Y0017435
X000277Y0018705
X000277Y0019975
M30
