M48
;Layer_Color=9474304
;FILE_FORMAT=2:5
INCH,LZ
T4F00S00C0.09449
%
G90
G05
T04
G00X0104357Y-0003525
M15
G01X0105599Y-0002945
G01X0106341Y-0002341
G01X0147841Y0039159
G01X0148659Y0040259
G01X0149127Y0041548
G01X0149224Y00425
G01X0149224Y0101
G01X0149025Y0102357
G01X0148445Y0103599
G01X0147841Y0104341
G01X0106341Y0145841
G01X0105241Y0146659
G01X0103952Y0147127
G01X0103Y0147224
G01X0044Y0147224
G01X0042643Y0147025
G01X0041401Y0146445
G01X0040659Y0145841
G01X-0000841Y0104341
G01X-0001659Y0103241
G01X-0002127Y0101952
G01X-0002224Y0101
G01X-0002224Y00425
G01X-0002025Y0041143
G01X-0001445Y0039901
G01X-0000841Y0039159
G01X0040659Y-0002341
G01X0041759Y-0003159
G01X0043048Y-0003627
G01X0044Y-0003724
G01X0103Y-0003724
G01X0104357Y-0003525
M16
M17
M30
