M48
;Layer_Color=9474304
;FILE_FORMAT=2:5
INCH,LZ
;TYPE=PLATED
T1F00S00C0.00787
T2F00S00C0.02362
T3F00S00C0.03543
;TYPE=NON_PLATED
%
T01
X0093976Y0003543
X0097462Y0003225
X0100345Y0003889
X0102362Y0006988
Y0012009
X0106004Y0010153
X0109597Y0010039
X0113583Y0017963
X0119002Y002569
X0122933Y0026256
X0117376Y0032162
X0106205Y0030866
X0106401Y0028907
X0099508Y0025
X0093498Y0026673
X0093461Y0022687
X0090453Y0019563
X0091634Y0008071
X0083028Y0006742
X008189Y0019563
X0083028Y0026256
X0067028Y0029331
X0066953Y0019685
X0058366
X004435Y0022687
X0043909Y0027539
X0037106Y0022687
X0039291Y0015256
X0050295Y0006742
X0026673Y0024114
X0019496Y003002
X002362Y0034327
X0024148Y0040655
X0020989Y0040938
X0015059Y0042988
X0014681Y0046006
X0021654Y0049626
X0029431Y0048006
X0029671Y0045154
X0027953Y0054331
X0028543Y0065949
X0024508Y006469
X0025028Y0068984
X0022736Y0069095
X0021457Y0072441
X0021494Y0079528
X0019833Y0078189
X0018197Y0079406
X0016585Y0078133
X0017088Y0082464
X0020251Y0081418
X0019488Y0088472
X002094Y0091339
X0021457Y0094095
X0020251Y0097975
Y0100224
X0015186
X0010827Y0101457
X0009154Y0093613
X0006398Y0081418
X0013794Y0071343
X0013866Y0066147
X0013794Y0061139
X0017088Y0058642
X0018602Y0064129
X0008563Y0052953
X0010039Y0039354
X0015658Y0035252
X0043248Y0035089
X0047638Y0059363
X0045276Y0065949
X0040585Y0064961
X0053543
X0056483Y0073106
X005642Y0079406
X0057814Y0080795
X0056845Y0082645
X0057797Y0086814
X0057339Y0089764
X0056243Y0096063
Y0098721
X0058914Y0099409
X006186
X0061466Y0096063
X0058914
X006391Y0097408
X0064767Y0094296
X0067471Y0089431
X006728Y0085916
X0063681Y0079799
X0071217Y0079036
Y0069095
X0063681Y006939
X0067471Y006469
X006728Y0061277
X0062612Y0056039
X0073386Y0036099
X0080319Y0082484
X007687Y0086102
X0079091Y0097962
X0074016Y0106251
X0075492Y0122343
Y0126673
X0079823
Y0122343
X0069626Y0124508
X0069966Y0135576
X0080811Y0134554
X0080661Y0140059
X0061319Y0130453
X0058573Y0127584
X0057033Y0126087
X0056845Y0121358
X0052318Y0115057
X004872Y0117441
X0046065Y0120577
X0042421Y0117441
X003527Y0116929
X0035463Y0114472
X0034252Y0109351
X0033556Y0103032
X0036312Y0102666
X0038878Y0102672
X0041144Y0102958
X0040551Y0100939
X0037216Y0100917
X0034255Y0100282
X004369Y0101181
X004685Y0110139
X004872Y0126083
X0044783
Y013002
X004872
X0052461Y0134547
X0055666Y013376
X0051575Y0139764
X0046752Y0136516
X0036353Y0131933
X0036312Y0128437
X0034252Y0126476
X0033563Y0123504
X0030955Y0121653
X0026575Y0120276
X0027571Y0113277
X0023465Y0109825
Y0104921
X0053543Y0097736
X0044862Y0082645
X0088444Y0085101
X0090453Y0081745
X0090354Y0079504
X0087106Y0077559
X0084013Y0069409
X0087106Y0054331
X0090453Y0035138
X0102657Y0037303
X01033Y0043039
X0105208Y0044575
X0117376Y0040823
X0125295Y0040945
X0128057Y0034549
X0130315Y0033465
X0119299Y0034018
X0125964Y0103543
X0127933Y0106299
X0123996
X0125964Y0109055
X0128327Y0113071
X013357Y0105615
X0102096Y0116634
X009498Y0120276
X0094587Y0127854
X0091831
X0093209Y0130807
X0091831Y013376
X0094587
X0101279Y0139587
X00873
X0087697Y010012
X009311Y0090756
T02
X0058327Y0139469
X0063327Y0139468
X0116634Y0122382
X0116634Y0117382
X0110571Y010935
X0105571Y0109351
T03
X0010905Y0058642
X0010905Y0063642
Y0068642
X0010905Y0073642
X0010905Y0078642
M30
