G04*
G04 #@! TF.GenerationSoftware,Altium Limited,Altium NEXUS,3.0.10 (100)*
G04*
G04 Layer_Physical_Order=1*
G04 Layer_Color=255*
%FSLAX44Y44*%
%MOMM*%
G71*
G01*
G75*
%ADD11C,0.1000*%
%ADD12C,0.2000*%
%ADD14C,0.2540*%
G04:AMPARAMS|DCode=16|XSize=0.8mm|YSize=1.5mm|CornerRadius=0.2mm|HoleSize=0mm|Usage=FLASHONLY|Rotation=90.000|XOffset=0mm|YOffset=0mm|HoleType=Round|Shape=RoundedRectangle|*
%AMROUNDEDRECTD16*
21,1,0.8000,1.1000,0,0,90.0*
21,1,0.4000,1.5000,0,0,90.0*
1,1,0.4000,0.5500,0.2000*
1,1,0.4000,0.5500,-0.2000*
1,1,0.4000,-0.5500,-0.2000*
1,1,0.4000,-0.5500,0.2000*
%
%ADD16ROUNDEDRECTD16*%
%ADD17O,0.8000X0.2500*%
%ADD18O,0.2500X0.8000*%
%ADD19R,2.0500X2.0500*%
%ADD20R,0.3500X0.5750*%
%ADD21R,0.5750X0.3500*%
%ADD22R,0.7600X0.7200*%
%ADD23R,0.4200X0.6200*%
%ADD24R,0.7200X0.7600*%
%ADD25R,0.6200X0.4200*%
%ADD26R,0.4000X0.9500*%
%ADD27R,0.3500X2.3000*%
%ADD28R,1.3000X0.3500*%
%ADD29R,0.9300X1.3700*%
%ADD30R,2.6000X0.7900*%
%ADD31R,0.2500X0.7500*%
%ADD32R,0.6500X1.0500*%
%ADD33R,0.7000X0.9000*%
%ADD34R,0.8500X0.9500*%
%ADD35R,0.6500X0.6500*%
%ADD36R,2.6200X1.0900*%
%ADD37R,0.4500X0.4500*%
%ADD38R,0.9000X0.7000*%
%ADD39R,0.8000X0.2800*%
%ADD40R,1.2000X2.0000*%
%ADD41R,0.9500X0.8500*%
G04:AMPARAMS|DCode=42|XSize=0.885mm|YSize=0.7mm|CornerRadius=0.0035mm|HoleSize=0mm|Usage=FLASHONLY|Rotation=90.000|XOffset=0mm|YOffset=0mm|HoleType=Round|Shape=RoundedRectangle|*
%AMROUNDEDRECTD42*
21,1,0.8850,0.6930,0,0,90.0*
21,1,0.8780,0.7000,0,0,90.0*
1,1,0.0070,0.3465,0.4390*
1,1,0.0070,0.3465,-0.4390*
1,1,0.0070,-0.3465,-0.4390*
1,1,0.0070,-0.3465,0.4390*
%
%ADD42ROUNDEDRECTD42*%
G04:AMPARAMS|DCode=43|XSize=0.361mm|YSize=0.361mm|CornerRadius=0.0018mm|HoleSize=0mm|Usage=FLASHONLY|Rotation=315.000|XOffset=0mm|YOffset=0mm|HoleType=Round|Shape=RoundedRectangle|*
%AMROUNDEDRECTD43*
21,1,0.3610,0.3574,0,0,315.0*
21,1,0.3574,0.3610,0,0,315.0*
1,1,0.0036,0.0000,-0.2527*
1,1,0.0036,-0.2527,0.0000*
1,1,0.0036,0.0000,0.2527*
1,1,0.0036,0.2527,0.0000*
%
%ADD43ROUNDEDRECTD43*%
G04:AMPARAMS|DCode=44|XSize=0.537mm|YSize=0.537mm|CornerRadius=0.0027mm|HoleSize=0mm|Usage=FLASHONLY|Rotation=315.000|XOffset=0mm|YOffset=0mm|HoleType=Round|Shape=RoundedRectangle|*
%AMROUNDEDRECTD44*
21,1,0.5370,0.5316,0,0,315.0*
21,1,0.5316,0.5370,0,0,315.0*
1,1,0.0054,0.0000,-0.3759*
1,1,0.0054,-0.3759,0.0000*
1,1,0.0054,0.0000,0.3759*
1,1,0.0054,0.3759,0.0000*
%
%ADD44ROUNDEDRECTD44*%
G04:AMPARAMS|DCode=45|XSize=0.537mm|YSize=0.537mm|CornerRadius=0.0027mm|HoleSize=0mm|Usage=FLASHONLY|Rotation=225.000|XOffset=0mm|YOffset=0mm|HoleType=Round|Shape=RoundedRectangle|*
%AMROUNDEDRECTD45*
21,1,0.5370,0.5316,0,0,225.0*
21,1,0.5316,0.5370,0,0,225.0*
1,1,0.0054,-0.3759,0.0000*
1,1,0.0054,0.0000,0.3759*
1,1,0.0054,0.3759,0.0000*
1,1,0.0054,0.0000,-0.3759*
%
%ADD45ROUNDEDRECTD45*%
G04:AMPARAMS|DCode=46|XSize=0.361mm|YSize=0.361mm|CornerRadius=0.0018mm|HoleSize=0mm|Usage=FLASHONLY|Rotation=225.000|XOffset=0mm|YOffset=0mm|HoleType=Round|Shape=RoundedRectangle|*
%AMROUNDEDRECTD46*
21,1,0.3610,0.3574,0,0,225.0*
21,1,0.3574,0.3610,0,0,225.0*
1,1,0.0036,-0.2527,0.0000*
1,1,0.0036,0.0000,0.2527*
1,1,0.0036,0.2527,0.0000*
1,1,0.0036,0.0000,-0.2527*
%
%ADD46ROUNDEDRECTD46*%
G04:AMPARAMS|DCode=47|XSize=2.54mm|YSize=0.76mm|CornerRadius=0.0038mm|HoleSize=0mm|Usage=FLASHONLY|Rotation=180.000|XOffset=0mm|YOffset=0mm|HoleType=Round|Shape=RoundedRectangle|*
%AMROUNDEDRECTD47*
21,1,2.5400,0.7524,0,0,180.0*
21,1,2.5324,0.7600,0,0,180.0*
1,1,0.0076,-1.2662,0.3762*
1,1,0.0076,1.2662,0.3762*
1,1,0.0076,1.2662,-0.3762*
1,1,0.0076,-1.2662,-0.3762*
%
%ADD47ROUNDEDRECTD47*%
%ADD48R,0.6500X1.1000*%
%ADD49R,2.1500X6.3000*%
G04:AMPARAMS|DCode=50|XSize=0.95mm|YSize=0.85mm|CornerRadius=0mm|HoleSize=0mm|Usage=FLASHONLY|Rotation=135.000|XOffset=0mm|YOffset=0mm|HoleType=Round|Shape=Rectangle|*
%AMROTATEDRECTD50*
4,1,4,0.6364,-0.0354,0.0354,-0.6364,-0.6364,0.0354,-0.0354,0.6364,0.6364,-0.0354,0.0*
%
%ADD50ROTATEDRECTD50*%

G04:AMPARAMS|DCode=51|XSize=1.05mm|YSize=0.65mm|CornerRadius=0mm|HoleSize=0mm|Usage=FLASHONLY|Rotation=135.000|XOffset=0mm|YOffset=0mm|HoleType=Round|Shape=Rectangle|*
%AMROTATEDRECTD51*
4,1,4,0.6010,-0.1414,0.1414,-0.6010,-0.6010,0.1414,-0.1414,0.6010,0.6010,-0.1414,0.0*
%
%ADD51ROTATEDRECTD51*%

G04:AMPARAMS|DCode=53|XSize=0.9mm|YSize=0.7mm|CornerRadius=0mm|HoleSize=0mm|Usage=FLASHONLY|Rotation=45.000|XOffset=0mm|YOffset=0mm|HoleType=Round|Shape=Rectangle|*
%AMROTATEDRECTD53*
4,1,4,-0.0707,-0.5657,-0.5657,-0.0707,0.0707,0.5657,0.5657,0.0707,-0.0707,-0.5657,0.0*
%
%ADD53ROTATEDRECTD53*%

%ADD54R,1.0000X1.0000*%
%ADD55R,1.0000X1.0000*%
G04:AMPARAMS|DCode=56|XSize=0.75mm|YSize=2.4mm|CornerRadius=0.1875mm|HoleSize=0mm|Usage=FLASHONLY|Rotation=270.000|XOffset=0mm|YOffset=0mm|HoleType=Round|Shape=RoundedRectangle|*
%AMROUNDEDRECTD56*
21,1,0.7500,2.0250,0,0,270.0*
21,1,0.3750,2.4000,0,0,270.0*
1,1,0.3750,-1.0125,-0.1875*
1,1,0.3750,-1.0125,0.1875*
1,1,0.3750,1.0125,0.1875*
1,1,0.3750,1.0125,-0.1875*
%
%ADD56ROUNDEDRECTD56*%
G04:AMPARAMS|DCode=57|XSize=0.75mm|YSize=2.4mm|CornerRadius=0.1875mm|HoleSize=0mm|Usage=FLASHONLY|Rotation=0.000|XOffset=0mm|YOffset=0mm|HoleType=Round|Shape=RoundedRectangle|*
%AMROUNDEDRECTD57*
21,1,0.7500,2.0250,0,0,0.0*
21,1,0.3750,2.4000,0,0,0.0*
1,1,0.3750,0.1875,-1.0125*
1,1,0.3750,-0.1875,-1.0125*
1,1,0.3750,-0.1875,1.0125*
1,1,0.3750,0.1875,1.0125*
%
%ADD57ROUNDEDRECTD57*%
%ADD58R,0.5500X0.5500*%
%ADD59R,0.4500X0.4500*%
%ADD60R,0.5200X0.3200*%
%ADD61R,0.5000X1.2600*%
%ADD62R,0.7400X0.7800*%
%ADD106C,0.5000*%
%ADD107R,1.6000X2.0000*%
%ADD108R,0.6000X0.2500*%
%ADD109C,0.3000*%
%ADD110C,0.4000*%
%ADD111R,0.9000X0.9000*%
%ADD112C,0.9000*%
%ADD113R,0.9000X0.9000*%
%ADD114C,0.4000*%
%ADD115C,0.4500*%
G36*
X244000Y348500D02*
X247211D01*
Y344650D01*
X245290D01*
Y344790D01*
X238020D01*
Y332250D01*
X235480D01*
Y344790D01*
X228210D01*
Y344650D01*
X222348D01*
X221991Y345512D01*
X221405Y346098D01*
X220257Y346574D01*
X216600D01*
Y348210D01*
X218140D01*
Y353280D01*
X212000D01*
Y355820D01*
X218140D01*
Y356852D01*
X228960D01*
Y355520D01*
X235750D01*
X242540D01*
Y356852D01*
X244000D01*
Y348500D01*
D02*
G37*
G36*
X278352Y338009D02*
X277866Y336836D01*
X259338D01*
X259328Y336831D01*
X259324Y336833D01*
X258545Y336511D01*
X258429Y336395D01*
X256426Y338398D01*
X255278Y338874D01*
X254959D01*
X254250Y339850D01*
Y344650D01*
X251289D01*
Y348500D01*
X254500D01*
Y351252D01*
X255770Y351931D01*
X256080Y351724D01*
X257250Y351491D01*
X258421Y351724D01*
X259413Y352387D01*
X260076Y353380D01*
X260260Y354305D01*
X260977Y354689D01*
X261552Y354808D01*
X278352Y338009D01*
D02*
G37*
G36*
X142808Y355582D02*
X142543Y354250D01*
X142970Y352104D01*
X143858Y350774D01*
X143766Y350636D01*
X143611Y349856D01*
Y343403D01*
X143170Y343055D01*
X142341Y342620D01*
X141392Y342809D01*
X140221Y342576D01*
X139229Y341913D01*
X138566Y340921D01*
X138333Y339750D01*
X138566Y338579D01*
X138843Y338165D01*
Y330717D01*
X117376Y309250D01*
X117006Y309324D01*
X115835Y309091D01*
X114843Y308428D01*
X114180Y307435D01*
X113947Y306265D01*
X114018Y305910D01*
X113072Y304640D01*
X112360D01*
Y299570D01*
X118500D01*
Y297030D01*
X112360D01*
Y291960D01*
X113900D01*
Y290324D01*
X106071D01*
X105750Y290538D01*
Y294617D01*
X107020Y295386D01*
X107750Y295241D01*
X108920Y295474D01*
X109913Y296137D01*
X110576Y297129D01*
X110809Y298300D01*
X110576Y299471D01*
X109913Y300463D01*
X108920Y301126D01*
X107750Y301359D01*
X107020Y301213D01*
X105750Y301983D01*
Y304000D01*
X98000D01*
X98000Y305270D01*
Y306750D01*
X96874D01*
Y323213D01*
X96398Y324361D01*
X95165Y325594D01*
X95291Y326230D01*
X95058Y327401D01*
X94395Y328393D01*
X93403Y329056D01*
X92233Y329289D01*
X91062Y329056D01*
X90070Y328393D01*
X89407Y327401D01*
X89174Y326230D01*
X89407Y325060D01*
X89747Y324550D01*
X88831Y323634D01*
X88170Y324076D01*
X87000Y324309D01*
X85829Y324076D01*
X84837Y323413D01*
X84174Y322421D01*
X83941Y321250D01*
X84174Y320079D01*
X84837Y319087D01*
X85829Y318424D01*
X86476Y318295D01*
X86930Y317621D01*
X86854Y317458D01*
X86091Y316591D01*
X85250Y316759D01*
X84080Y316526D01*
X83087Y315863D01*
X82424Y314870D01*
X82191Y313700D01*
X82424Y312529D01*
X83087Y311537D01*
X83626Y311177D01*
Y306750D01*
X82500D01*
Y305270D01*
X82500Y304000D01*
X80249D01*
Y306477D01*
X80788Y306837D01*
X81451Y307829D01*
X81684Y309000D01*
X81451Y310171D01*
X80788Y311163D01*
X79795Y311826D01*
X78625Y312059D01*
X77455Y311826D01*
X76462Y311163D01*
X75799Y310171D01*
X75566Y309000D01*
X75799Y307829D01*
X76462Y306837D01*
X77001Y306477D01*
Y304000D01*
X74750D01*
Y300540D01*
X73210D01*
Y297520D01*
X78625D01*
Y294980D01*
X73210D01*
Y290617D01*
X72845Y290354D01*
X71940Y290054D01*
X71201Y290548D01*
X70030Y290781D01*
X68860Y290548D01*
X67867Y289885D01*
X67204Y288893D01*
X66971Y287722D01*
X67204Y286552D01*
X67867Y285560D01*
X68860Y284897D01*
X70030Y284664D01*
X71201Y284897D01*
X71301Y284964D01*
X72116Y284626D01*
X74750D01*
Y283500D01*
X81912D01*
X82184Y282230D01*
X78152Y278198D01*
X77676Y277050D01*
Y272600D01*
X76040D01*
Y274140D01*
X70970D01*
Y268000D01*
X69700D01*
Y266730D01*
X63360D01*
Y261860D01*
Y257520D01*
X68000D01*
Y254980D01*
X63360D01*
Y251036D01*
X63075Y250917D01*
X56824D01*
X55676Y250442D01*
X55426Y250192D01*
X53943Y250505D01*
X53599Y251019D01*
Y252406D01*
X54262Y253398D01*
X54495Y254569D01*
X54262Y255739D01*
X53599Y256732D01*
X52607Y257395D01*
X51436Y257628D01*
X50266Y257395D01*
X49273Y256732D01*
X48610Y255739D01*
X48377Y254569D01*
X48504Y253933D01*
X46433Y251862D01*
X42422D01*
X41540Y252451D01*
Y253790D01*
X33770D01*
Y249500D01*
X31230D01*
Y253790D01*
X29227D01*
X28946Y255060D01*
X29663Y255539D01*
X30326Y256531D01*
X30559Y257702D01*
X30326Y258872D01*
X29987Y259380D01*
X30599Y260650D01*
X32960D01*
Y259110D01*
X38030D01*
Y265250D01*
X39300D01*
Y266520D01*
X45640D01*
Y270610D01*
X51390D01*
Y274980D01*
X46750D01*
X42110D01*
Y271390D01*
X39805D01*
X38850Y272150D01*
Y280350D01*
X38850D01*
X38416Y281397D01*
X63302Y306283D01*
X64472Y305657D01*
X64441Y305500D01*
X64674Y304329D01*
X65337Y303337D01*
X66329Y302674D01*
X67500Y302441D01*
X68671Y302674D01*
X69663Y303337D01*
X70326Y304329D01*
X70559Y305500D01*
X70326Y306670D01*
X69663Y307663D01*
X68671Y308326D01*
X67500Y308559D01*
X67343Y308528D01*
X66717Y309698D01*
X89986Y332966D01*
X90173Y332948D01*
X91165Y332285D01*
X92336Y332052D01*
X93506Y332285D01*
X94499Y332948D01*
X95162Y333940D01*
X95395Y335111D01*
X95162Y336281D01*
X94499Y337274D01*
X94480Y337461D01*
X113872Y356852D01*
X141863D01*
X142808Y355582D01*
D02*
G37*
G36*
X169687Y332680D02*
X172030Y330337D01*
X172030Y330337D01*
X173023Y329674D01*
X174193Y329441D01*
X174297D01*
X174975Y328171D01*
X174680Y327729D01*
X174638Y327520D01*
X181000D01*
Y324980D01*
X174638D01*
X174680Y324771D01*
X174822Y324559D01*
X174143Y323289D01*
X174000D01*
X174000Y323289D01*
X173220Y323134D01*
X172558Y322692D01*
X172558Y322692D01*
X171387Y321520D01*
X170944Y320859D01*
X170803Y320150D01*
X155511D01*
Y320978D01*
X155356Y321759D01*
X154914Y322420D01*
X154913Y322420D01*
X154814Y322520D01*
Y325720D01*
X154814Y325720D01*
X154658Y326500D01*
X154216Y327162D01*
X154216Y327162D01*
X149686Y331692D01*
X149417Y331871D01*
X149112Y332177D01*
X149598Y333350D01*
X169240D01*
X169687Y332680D01*
D02*
G37*
G36*
X279467Y323617D02*
X279468Y323613D01*
X280260Y323285D01*
X287190D01*
X287983Y323613D01*
X288311Y324406D01*
Y326391D01*
X289484Y326877D01*
X297262Y319098D01*
X296669Y317895D01*
X296250Y317950D01*
X294413Y317708D01*
X292700Y316999D01*
X291229Y315871D01*
X290101Y314400D01*
X289581Y313144D01*
X288311Y313397D01*
Y314094D01*
X287983Y314886D01*
X287190Y315215D01*
X280261D01*
X279468Y314886D01*
X279467Y314883D01*
X276019Y311436D01*
X267981D01*
X264533Y314883D01*
X264532Y314886D01*
X263740Y315215D01*
X261898D01*
Y318770D01*
X261423Y319918D01*
X259228Y322112D01*
X259715Y323285D01*
X263740D01*
X264532Y323613D01*
X264533Y323617D01*
X267981Y327065D01*
X276019D01*
X279467Y323617D01*
D02*
G37*
G36*
X146713Y328808D02*
X146713Y328808D01*
X146982Y328629D01*
X147538Y328072D01*
X147197Y326617D01*
X146611Y326226D01*
X145948Y325234D01*
X145789Y324431D01*
X145152Y323666D01*
X144580Y323264D01*
X143693Y323087D01*
X142701Y322424D01*
X142037Y321432D01*
X141805Y320261D01*
X141931Y319625D01*
X133952Y311646D01*
X133476Y310498D01*
Y303640D01*
X131770D01*
Y299000D01*
X129230D01*
Y303640D01*
X124860D01*
X124640Y304640D01*
X121771D01*
X121245Y305910D01*
X143194Y327859D01*
X143747Y328686D01*
X143941Y329661D01*
Y329785D01*
X145211Y330311D01*
X146713Y328808D01*
D02*
G37*
G36*
X144863Y317202D02*
X145380Y317305D01*
X146650Y316436D01*
Y307250D01*
X145998Y306250D01*
X140750D01*
Y297250D01*
X149812D01*
X150710Y296352D01*
X150710Y293960D01*
X149510Y293790D01*
X147520D01*
Y287750D01*
X144980D01*
Y293790D01*
X139242D01*
X139210Y293790D01*
X138011Y293695D01*
X137536Y294843D01*
X136724Y295655D01*
Y309825D01*
X144227Y317329D01*
X144863Y317202D01*
D02*
G37*
G36*
X258545Y301989D02*
X259324Y301667D01*
X259328Y301669D01*
X259338Y301665D01*
X275609D01*
X275960Y300540D01*
X275960D01*
Y294520D01*
X282750D01*
Y291980D01*
X275960D01*
Y285960D01*
X275960D01*
X276347Y284772D01*
X275190Y284790D01*
Y284790D01*
X269420D01*
Y277750D01*
Y270710D01*
X272527D01*
Y259860D01*
X271749Y259082D01*
X255056D01*
Y277815D01*
X254833Y278937D01*
X254198Y279888D01*
X253247Y280523D01*
X252125Y280747D01*
X248375D01*
X247253Y280523D01*
X246302Y279888D01*
X245667Y278937D01*
X245444Y277815D01*
Y259082D01*
X244056D01*
Y277815D01*
X243833Y278937D01*
X243198Y279888D01*
X242247Y280523D01*
X241125Y280747D01*
X237375D01*
X236253Y280523D01*
X235302Y279888D01*
X234667Y278937D01*
X234444Y277815D01*
Y257565D01*
X234667Y256444D01*
X235302Y255492D01*
X236253Y254857D01*
X237375Y254634D01*
X238918D01*
Y234040D01*
X237670Y233346D01*
X236500Y233579D01*
X235864Y233452D01*
X226718Y242598D01*
X225570Y243074D01*
X177351D01*
X168361Y252064D01*
X167213Y252539D01*
X160882D01*
X160059Y253449D01*
X160718Y254634D01*
X161125D01*
X162247Y254857D01*
X163198Y255492D01*
X163833Y256444D01*
X164056Y257565D01*
Y277815D01*
X163833Y278937D01*
X163198Y279888D01*
X163082Y281493D01*
X163244Y281710D01*
X166068D01*
X166256Y281710D01*
X166418Y281493D01*
X166302Y279888D01*
X165667Y278937D01*
X165444Y277815D01*
Y257565D01*
X165667Y256444D01*
X166302Y255492D01*
X167253Y254857D01*
X168375Y254634D01*
X172125D01*
X173247Y254857D01*
X174198Y255492D01*
X174833Y256444D01*
X175056Y257565D01*
Y277815D01*
X174833Y278937D01*
X174198Y279888D01*
X173247Y280523D01*
X172125Y280747D01*
X169518D01*
X168375Y280747D01*
X168319Y280736D01*
X167642Y280816D01*
X167290Y281826D01*
X167290Y282448D01*
Y287480D01*
X161250D01*
Y290020D01*
X167290D01*
Y295500D01*
X170702D01*
X170750Y294250D01*
X170750D01*
Y283250D01*
X179750D01*
Y283250D01*
X181000D01*
Y283250D01*
X190000D01*
Y291334D01*
X190648Y291602D01*
X193328Y294282D01*
X193597Y294931D01*
X194846Y295296D01*
X194876Y295285D01*
X195000Y294250D01*
X195000D01*
Y283250D01*
X202202D01*
X202500Y283126D01*
X202584D01*
X202852Y282481D01*
X203471Y281862D01*
X203288Y280682D01*
X203191Y280482D01*
X202302Y279888D01*
X201667Y278937D01*
X201444Y277815D01*
Y257565D01*
X201667Y256444D01*
X202302Y255492D01*
X203253Y254857D01*
X204375Y254634D01*
X208125D01*
X209247Y254857D01*
X210198Y255492D01*
X210833Y256444D01*
X211056Y257565D01*
Y277815D01*
X210833Y278937D01*
X210219Y279856D01*
X210256Y280055D01*
X210630Y281126D01*
X212870D01*
X213244Y280055D01*
X213281Y279856D01*
X212667Y278937D01*
X212444Y277815D01*
Y257565D01*
X212667Y256444D01*
X213302Y255492D01*
X214253Y254857D01*
X215375Y254634D01*
X219125D01*
X220247Y254857D01*
X221198Y255492D01*
X221833Y256444D01*
X222056Y257565D01*
Y277815D01*
X221833Y278937D01*
X221198Y279888D01*
X220247Y280523D01*
X219125Y280747D01*
X219089D01*
X218563Y282017D01*
X219673Y283126D01*
X220000D01*
X220298Y283250D01*
X227500D01*
Y293955D01*
X228610Y294635D01*
X229710Y294267D01*
Y292960D01*
X235480D01*
Y299000D01*
X238020D01*
Y292960D01*
X241710D01*
Y292270D01*
X249000D01*
Y291000D01*
D01*
Y292270D01*
X256290D01*
Y293258D01*
X256329Y293295D01*
X257560Y293820D01*
X258153Y293424D01*
X259324Y293191D01*
X259960Y293318D01*
X261176Y292102D01*
X262324Y291626D01*
X264000D01*
Y287500D01*
X274500D01*
Y299000D01*
X264000D01*
Y296470D01*
X262730Y295922D01*
X262399Y296235D01*
X262377Y296279D01*
X262150Y297421D01*
X261487Y298413D01*
X260494Y299076D01*
X259324Y299309D01*
X258153Y299076D01*
X257294Y298502D01*
X254752Y301045D01*
X254750Y301048D01*
Y304258D01*
X256004Y304514D01*
X256020Y304514D01*
X258545Y301989D01*
D02*
G37*
G36*
X304508Y289558D02*
X305169Y289116D01*
X305950Y288961D01*
X305950Y288961D01*
X314214D01*
X314994Y289116D01*
X315655Y289558D01*
X315814D01*
X317689Y287683D01*
X317801Y287516D01*
X319945Y285372D01*
X320066Y284764D01*
X320508Y284102D01*
X320896Y283713D01*
X320410Y282540D01*
X311490D01*
Y283790D01*
X307220D01*
Y280000D01*
X305950D01*
Y278730D01*
X300410D01*
Y276624D01*
X297395D01*
X296247Y276148D01*
X293145Y273046D01*
X287412Y278779D01*
X286264Y279255D01*
X286158D01*
X286031Y279896D01*
X285389Y280856D01*
X286068Y282126D01*
X287759D01*
X288907Y282602D01*
X297398Y291092D01*
X297873Y292240D01*
Y292650D01*
X301416D01*
X304508Y289558D01*
D02*
G37*
G36*
X113900Y284540D02*
X113566Y284401D01*
X92869Y263703D01*
X92233Y263830D01*
X91062Y263597D01*
X90070Y262934D01*
X89508Y262094D01*
X88898Y262061D01*
X88186Y262228D01*
X88058Y262871D01*
X87395Y263863D01*
X86403Y264526D01*
X85232Y264759D01*
X85082Y264729D01*
X84100Y265535D01*
Y272600D01*
X80924D01*
Y276378D01*
X84690Y280144D01*
X85960Y279618D01*
Y279210D01*
X88980D01*
Y284625D01*
X91520D01*
Y279210D01*
X93980D01*
Y284625D01*
X96520D01*
Y279210D01*
X99540D01*
Y283500D01*
X105750D01*
Y286533D01*
X106519Y286852D01*
X106744Y287076D01*
X113900D01*
Y284540D01*
D02*
G37*
G36*
X290849Y270750D02*
X287747Y267648D01*
X287271Y266500D01*
Y259082D01*
X275845D01*
X275774Y259188D01*
Y273334D01*
X277044Y273678D01*
X278704Y272569D01*
X280850Y272142D01*
X282996Y272569D01*
X284815Y273784D01*
X285460Y274750D01*
X286724Y274875D01*
X290849Y270750D01*
D02*
G37*
G36*
X122802Y281617D02*
X123008Y280360D01*
X122302Y279888D01*
X121667Y278937D01*
X121444Y277815D01*
Y258636D01*
X120174Y258110D01*
X114636Y263648D01*
X113488Y264124D01*
X106304D01*
X106115Y264045D01*
X105676Y264339D01*
X104505Y264571D01*
X103335Y264339D01*
X102342Y263676D01*
X102149Y263386D01*
X101004Y262983D01*
X100590Y263166D01*
X99921Y263613D01*
X99292Y263738D01*
X98812Y265055D01*
X115387Y281630D01*
X122797D01*
X122802Y281617D01*
D02*
G37*
G36*
X139210Y286394D02*
Y281981D01*
X139190Y281683D01*
X138470Y280747D01*
X135375D01*
X134253Y280523D01*
X133302Y279888D01*
X132667Y278937D01*
X132444Y277815D01*
Y257565D01*
X132667Y256444D01*
X133302Y255492D01*
X134253Y254857D01*
X135375Y254634D01*
X139125D01*
X140247Y254857D01*
X141198Y255492D01*
X141833Y256444D01*
X142056Y257565D01*
Y277815D01*
X141833Y278937D01*
X141198Y279888D01*
X141082Y281493D01*
X141244Y281710D01*
X144256D01*
X144418Y281493D01*
X144302Y279888D01*
X143667Y278937D01*
X143444Y277815D01*
Y257565D01*
X143667Y256444D01*
X144302Y255492D01*
X145253Y254857D01*
X145670Y254774D01*
X146450Y253608D01*
X146357Y253197D01*
X145020Y252913D01*
X144028Y253576D01*
X142857Y253809D01*
X141686Y253576D01*
X140694Y252913D01*
X140031Y251921D01*
X139798Y250750D01*
X139989Y249792D01*
X138826Y249421D01*
X138163Y250413D01*
X137170Y251076D01*
X136000Y251309D01*
X134830Y251076D01*
X133837Y250413D01*
X133174Y249421D01*
X132941Y248250D01*
X133174Y247080D01*
X133524Y246556D01*
X132537Y245747D01*
X124920Y253364D01*
X125446Y254634D01*
X128125D01*
X129247Y254857D01*
X130198Y255492D01*
X130833Y256444D01*
X131056Y257565D01*
Y277815D01*
X130833Y278937D01*
X130198Y279888D01*
X129492Y280360D01*
X129698Y281617D01*
X129703Y281630D01*
X133075D01*
X134223Y282105D01*
X137536Y285418D01*
X138011Y286566D01*
X139210Y286394D01*
D02*
G37*
G36*
X108931Y253564D02*
X109348Y253224D01*
Y251389D01*
X109824Y250241D01*
X143074Y216991D01*
X142548Y215721D01*
X122031D01*
X116664Y221088D01*
X115515Y221564D01*
X102574D01*
X101711Y222834D01*
X101806Y223315D01*
Y227065D01*
X101583Y228187D01*
X100948Y229138D01*
X99997Y229774D01*
X98875Y229997D01*
X78625D01*
X77503Y229774D01*
X76552Y229138D01*
X75917Y228187D01*
X75694Y227065D01*
Y226814D01*
X70500D01*
Y228940D01*
X63467D01*
X63148Y229710D01*
X56605Y236252D01*
X56663Y236837D01*
X57326Y237829D01*
X57559Y239000D01*
X57326Y240170D01*
X56751Y241031D01*
X57481Y241998D01*
X76897D01*
X77451Y240822D01*
X77435Y240728D01*
X76552Y240138D01*
X75917Y239187D01*
X75694Y238065D01*
Y234315D01*
X75917Y233194D01*
X76552Y232243D01*
X77503Y231607D01*
X78625Y231384D01*
X98875D01*
X99997Y231607D01*
X100948Y232243D01*
X101583Y233194D01*
X101806Y234315D01*
Y238065D01*
X101583Y239187D01*
X100948Y240138D01*
X99997Y240774D01*
X98875Y240997D01*
X96088D01*
X95836Y242267D01*
X96336Y242474D01*
X107648Y253786D01*
X108931Y253564D01*
D02*
G37*
G36*
X204710Y228960D02*
X212250D01*
Y227690D01*
X213520D01*
Y220150D01*
X219790D01*
Y228316D01*
X220963Y228802D01*
X238918Y210848D01*
Y201230D01*
X238710D01*
Y186150D01*
X238918D01*
Y184230D01*
X238710D01*
Y169150D01*
X238918D01*
Y166236D01*
X237648Y165710D01*
X234020Y169338D01*
X233822Y169420D01*
X234074Y170690D01*
X235250D01*
Y182690D01*
X223250D01*
Y174524D01*
X222077Y174038D01*
X218515Y177600D01*
Y177750D01*
X218040Y178898D01*
X206320Y190618D01*
X205171Y191094D01*
X170693D01*
X158270Y203517D01*
X158756Y204690D01*
X167250D01*
Y205488D01*
X167456Y205609D01*
X168520Y205877D01*
X170710Y203687D01*
Y203150D01*
X171247D01*
X178294Y196103D01*
X179442Y195627D01*
X193932D01*
X195080Y196103D01*
X202128Y203150D01*
X202790D01*
Y203647D01*
X203499Y204215D01*
X204710Y203681D01*
Y203150D01*
X210980D01*
Y210690D01*
Y218230D01*
X204710D01*
Y213642D01*
X203894Y213221D01*
X202790Y214000D01*
Y218230D01*
X196520D01*
Y210690D01*
X195250D01*
Y209421D01*
X187710D01*
Y203150D01*
X195876D01*
X196362Y201977D01*
X193260Y198875D01*
X180114D01*
X177012Y201977D01*
X177498Y203150D01*
X185790D01*
Y209421D01*
X178250D01*
Y210690D01*
X176980D01*
Y218230D01*
X174912D01*
X174534Y218918D01*
X175279Y220150D01*
X176980D01*
Y227690D01*
X178250D01*
Y228960D01*
X185790D01*
Y233841D01*
X187710D01*
Y228960D01*
X195250D01*
X202790D01*
Y233841D01*
X204710D01*
Y228960D01*
D02*
G37*
G36*
X136421Y234204D02*
X137569Y233728D01*
X142567D01*
X144306Y231989D01*
X143993Y230506D01*
X143479Y230163D01*
X142816Y229170D01*
X142583Y228000D01*
X142816Y226829D01*
X143479Y225837D01*
X144471Y225174D01*
X145642Y224941D01*
X146812Y225174D01*
X147694Y225763D01*
X147939Y225810D01*
X149150Y225565D01*
X149286Y225237D01*
X153710Y220813D01*
Y220150D01*
X154373D01*
X156481Y218042D01*
X156678Y217960D01*
X156426Y216690D01*
X155250D01*
Y211380D01*
X154077Y210894D01*
X148402Y216569D01*
X148641Y218126D01*
X148967Y218344D01*
X149630Y219336D01*
X149863Y220506D01*
X149630Y221677D01*
X148967Y222669D01*
X147975Y223332D01*
X146804Y223565D01*
X145633Y223332D01*
X144641Y222669D01*
X144298Y222155D01*
X142815Y221842D01*
X112595Y252062D01*
Y254477D01*
X113134Y254837D01*
X113478Y255351D01*
X114961Y255664D01*
X136421Y234204D01*
D02*
G37*
G36*
X24900Y266221D02*
Y260650D01*
X24900Y260650D01*
X25013Y259380D01*
X24674Y258872D01*
X24441Y257702D01*
X24568Y257066D01*
X22102Y254600D01*
X21626Y253452D01*
Y246290D01*
X21520D01*
Y232250D01*
Y218210D01*
X22316D01*
X22876Y217371D01*
Y210690D01*
X23352Y209542D01*
X26483Y206411D01*
X26133Y205046D01*
X25554Y204931D01*
X23735Y203715D01*
X22519Y201896D01*
X22092Y199750D01*
X22061Y199718D01*
X20500Y200029D01*
X16270D01*
Y193400D01*
X13730D01*
Y200029D01*
X11448D01*
Y254428D01*
X23727Y266707D01*
X24900Y266221D01*
D02*
G37*
G36*
X46020Y218210D02*
X46387D01*
X46939Y216940D01*
X46578Y216070D01*
Y209980D01*
X45072Y208474D01*
X44597Y207326D01*
Y204214D01*
X44058Y203853D01*
X43395Y202861D01*
X43162Y201690D01*
X43395Y200520D01*
X44058Y199527D01*
X45050Y198864D01*
X46220Y198631D01*
X47516Y197594D01*
X47549Y197430D01*
X48212Y196437D01*
X49205Y195774D01*
X50375Y195541D01*
X51546Y195774D01*
X52538Y196437D01*
X53201Y197430D01*
X53434Y198600D01*
X54595Y198941D01*
X55766Y199174D01*
X56758Y199837D01*
X57421Y200830D01*
X57510Y201278D01*
X57868Y201426D01*
X58898Y202456D01*
X59374Y203604D01*
Y210750D01*
X61500D01*
Y218250D01*
X54810D01*
Y219955D01*
X56296Y221440D01*
X60740D01*
X60852Y221171D01*
X62649Y219374D01*
X63000Y218250D01*
X63000Y218250D01*
X63000D01*
X63000Y218250D01*
Y210750D01*
X70500D01*
Y212876D01*
X75694D01*
Y212315D01*
X75917Y211194D01*
X76552Y210243D01*
X77503Y209607D01*
X78625Y209384D01*
X98875D01*
X99997Y209607D01*
X100948Y210243D01*
X101583Y211194D01*
X101806Y212315D01*
Y216065D01*
X101611Y217047D01*
X101679Y217327D01*
X102356Y218317D01*
X114843D01*
X120211Y212949D01*
X121359Y212474D01*
X140958D01*
X141636Y211204D01*
X141559Y211088D01*
X141327Y209918D01*
X141559Y208747D01*
X142223Y207755D01*
X143215Y207092D01*
X143793Y205849D01*
X143214Y204731D01*
X142136Y204516D01*
X141144Y203853D01*
X140481Y202861D01*
X140248Y201690D01*
X140393Y200960D01*
X139624Y199690D01*
X138250D01*
Y187690D01*
X149376D01*
Y182690D01*
X138250D01*
Y170690D01*
X149376D01*
Y165690D01*
X138250D01*
Y153690D01*
X150250D01*
Y156496D01*
X151423Y156982D01*
X166960Y141446D01*
Y97690D01*
X155250D01*
Y85690D01*
X167250D01*
X167250Y85690D01*
Y85690D01*
X167357Y85440D01*
X167435Y85259D01*
X167974Y84720D01*
X167974Y84720D01*
X168008Y84686D01*
X169479Y83215D01*
X168668Y82230D01*
X167571Y82230D01*
X162520D01*
Y75960D01*
X168790D01*
Y80966D01*
X168790Y82108D01*
X169774Y82920D01*
X170710Y81984D01*
Y75960D01*
X178250D01*
Y74690D01*
X179520D01*
Y67150D01*
X183960D01*
Y54802D01*
X184435Y53654D01*
X187059Y51031D01*
Y46532D01*
X185883Y45988D01*
X185789Y46004D01*
X185198Y46888D01*
X184247Y47523D01*
X183125Y47747D01*
X179375D01*
X178253Y47523D01*
X177412Y46961D01*
X177241Y46897D01*
X175912Y47094D01*
X175308Y47998D01*
X173848Y48974D01*
X172125Y49317D01*
X171520D01*
Y34690D01*
Y20064D01*
X172125D01*
X173848Y20406D01*
X175308Y21382D01*
X175912Y22287D01*
X177241Y22483D01*
X177412Y22419D01*
X178253Y21857D01*
X179375Y21634D01*
X183125D01*
X184247Y21857D01*
X185198Y22493D01*
X185833Y23444D01*
X186056Y24565D01*
Y30657D01*
X187326Y30910D01*
X187534Y30408D01*
X207465Y10477D01*
X208613Y10001D01*
X228209D01*
X229357Y10477D01*
X229756Y10876D01*
X234935D01*
X235762Y9606D01*
X235641Y9000D01*
X235660Y8908D01*
X234617Y7638D01*
X113872D01*
X49516Y71994D01*
X49516Y72003D01*
X50016Y73290D01*
X50691Y73424D01*
X51684Y74087D01*
X52347Y75079D01*
X52580Y76250D01*
X52347Y77421D01*
X51684Y78413D01*
X50691Y79076D01*
X49521Y79309D01*
X48350Y79076D01*
X47358Y78413D01*
X46695Y77421D01*
X46561Y76745D01*
X45274Y76245D01*
X45265Y76245D01*
X38267Y83242D01*
X38753Y84416D01*
X41220D01*
X42368Y84891D01*
X44823Y87346D01*
X45299Y88494D01*
Y91965D01*
X49375D01*
Y92942D01*
X55086D01*
X55713Y92523D01*
Y89849D01*
X56188Y88701D01*
X57063Y87826D01*
X56936Y87190D01*
X57169Y86020D01*
X57832Y85028D01*
X58825Y84364D01*
X59995Y84132D01*
X61166Y84364D01*
X62158Y85028D01*
X62821Y86020D01*
X63054Y87190D01*
X62821Y88361D01*
X62158Y89353D01*
X61166Y90016D01*
X59995Y90249D01*
X58960Y91267D01*
Y93565D01*
X60586D01*
Y98012D01*
X61783Y99234D01*
X61971D01*
X62086Y99059D01*
Y93565D01*
X63713D01*
Y92854D01*
X64188Y91706D01*
X69852Y86042D01*
X71000Y85567D01*
X75694D01*
Y85315D01*
X75917Y84194D01*
X76479Y83352D01*
X76543Y83181D01*
X76346Y81853D01*
X75442Y81248D01*
X74466Y79788D01*
X74124Y78065D01*
Y77460D01*
X88750D01*
X103377D01*
Y78065D01*
X103034Y79788D01*
X102058Y81248D01*
X101154Y81853D01*
X100957Y83181D01*
X101021Y83352D01*
X101583Y84194D01*
X101806Y85315D01*
Y89065D01*
X101583Y90187D01*
X100948Y91138D01*
X99997Y91774D01*
X98875Y91997D01*
X78625D01*
X77503Y91774D01*
X76552Y91138D01*
X75917Y90187D01*
X75694Y89065D01*
Y88814D01*
X71673D01*
X68191Y92295D01*
X68586Y93565D01*
X68586D01*
Y100065D01*
X64219D01*
X63929Y100482D01*
X63656Y101335D01*
X64162Y102093D01*
X64395Y103263D01*
X64351Y103486D01*
X65358Y104756D01*
X67879D01*
X74688Y97947D01*
X75694Y97530D01*
Y96315D01*
X75917Y95194D01*
X76552Y94243D01*
X77503Y93607D01*
X78625Y93384D01*
X98875D01*
X99997Y93607D01*
X100948Y94243D01*
X101583Y95194D01*
X101806Y96315D01*
Y100065D01*
X101583Y101187D01*
X100948Y102138D01*
X99997Y102774D01*
X98875Y102997D01*
X78625D01*
X77503Y102774D01*
X76552Y102138D01*
X76522Y102093D01*
X75258Y101969D01*
X69589Y107638D01*
X68586Y108053D01*
Y109989D01*
X68586Y111164D01*
X69549Y111996D01*
X73504Y108042D01*
X74652Y107567D01*
X75694D01*
Y107315D01*
X75917Y106194D01*
X76552Y105243D01*
X77503Y104607D01*
X78625Y104384D01*
X98875D01*
X99997Y104607D01*
X100948Y105243D01*
X101583Y106194D01*
X101806Y107315D01*
Y111065D01*
X101583Y112187D01*
X100948Y113138D01*
X99997Y113773D01*
X98875Y113997D01*
X78625D01*
X77503Y113773D01*
X76552Y113138D01*
X75917Y112187D01*
X75889Y112045D01*
X74511Y111628D01*
X68586Y117552D01*
Y121756D01*
X62086D01*
Y115256D01*
X66290D01*
X69327Y112219D01*
X68494Y111256D01*
X67354Y111256D01*
X62086D01*
Y107856D01*
X61336Y107420D01*
X60586Y107856D01*
Y111256D01*
X54086D01*
Y108182D01*
X53313Y107041D01*
X52142Y106808D01*
X51150Y106145D01*
X50645Y105390D01*
X49465Y105564D01*
X49375Y105601D01*
Y107165D01*
X47189D01*
Y111950D01*
X49575D01*
Y114536D01*
X55681D01*
X56567Y114712D01*
X57317Y115214D01*
X57359Y115256D01*
X60586D01*
Y121756D01*
X55298D01*
X55173Y123026D01*
X56171Y123224D01*
X57163Y123887D01*
X57826Y124880D01*
X58059Y126050D01*
X57826Y127220D01*
X57163Y128213D01*
X56171Y128876D01*
X55000Y129109D01*
X53829Y128876D01*
X52837Y128213D01*
X52385Y127536D01*
X51115Y127911D01*
Y133090D01*
X46145D01*
Y126650D01*
X44875D01*
Y125380D01*
X38635D01*
Y121837D01*
X37431Y120782D01*
X36727Y120884D01*
X36615Y121075D01*
Y125380D01*
X24135D01*
Y120210D01*
X25675D01*
Y111950D01*
X32979D01*
X35254Y109675D01*
X35247Y109473D01*
X35191Y109190D01*
X34547Y108405D01*
X33835D01*
Y107165D01*
X28375D01*
Y103168D01*
X27105Y102494D01*
X26670Y102785D01*
X25500Y103018D01*
X24330Y102785D01*
X23337Y102122D01*
X22674Y101129D01*
X22592Y100714D01*
X21213Y100296D01*
X18058Y103451D01*
Y111950D01*
X21135D01*
Y120210D01*
X22675D01*
Y125380D01*
X16435D01*
Y126650D01*
X15165D01*
Y133090D01*
X11448D01*
Y150241D01*
X14051D01*
X14466Y149238D01*
X22162Y141542D01*
X23310Y141067D01*
X43690D01*
X44838Y141542D01*
X48398Y145102D01*
X48874Y146250D01*
Y160365D01*
X49413Y160725D01*
X50076Y161717D01*
X50309Y162888D01*
X50076Y164058D01*
X49413Y165051D01*
X48421Y165714D01*
X47250Y165947D01*
X46080Y165714D01*
X45087Y165051D01*
X44424Y164058D01*
X44191Y162888D01*
X44424Y161717D01*
X45087Y160725D01*
X45626Y160365D01*
Y146923D01*
X43018Y144314D01*
X32745D01*
X32066Y145584D01*
X32881Y146804D01*
X33308Y148950D01*
X32881Y151096D01*
X32276Y152001D01*
X33192Y152917D01*
X33866Y152466D01*
X35036Y152234D01*
X36207Y152466D01*
X37199Y153130D01*
X37862Y154122D01*
X38095Y155292D01*
X37862Y156463D01*
X37199Y157455D01*
X36207Y158118D01*
X35036Y158351D01*
X33866Y158118D01*
X33173Y157656D01*
X32258Y158571D01*
X32881Y159504D01*
X33308Y161650D01*
X32881Y163796D01*
X31665Y165615D01*
X29846Y166831D01*
X27700Y167258D01*
X25554Y166831D01*
X24829Y166346D01*
X23559Y167025D01*
Y168975D01*
X24829Y169654D01*
X25554Y169169D01*
X27700Y168742D01*
X29846Y169169D01*
X31665Y170385D01*
X32881Y172204D01*
X33308Y174350D01*
X32881Y176496D01*
X31665Y178315D01*
X29846Y179531D01*
X27700Y179958D01*
X27394Y179897D01*
X26408Y180700D01*
X27394Y181503D01*
X27700Y181442D01*
X29846Y181869D01*
X30962Y182615D01*
X32105Y181851D01*
X31977Y181211D01*
X32210Y180040D01*
X32873Y179048D01*
X33866Y178385D01*
X35036Y178152D01*
X36207Y178385D01*
X37199Y179048D01*
X38626Y178897D01*
X38760Y178573D01*
X54167Y163165D01*
X55315Y162690D01*
X59727D01*
X60087Y162150D01*
X61080Y161487D01*
X62250Y161255D01*
X63421Y161487D01*
X64413Y162150D01*
X65076Y163143D01*
X65309Y164313D01*
X65276Y164480D01*
X66309Y165750D01*
X70068D01*
X70337Y165347D01*
X71329Y164685D01*
X72500Y164452D01*
X73671Y164685D01*
X74663Y165347D01*
X75143Y166066D01*
X76298Y166263D01*
X76552Y166243D01*
X77503Y165607D01*
X78625Y165384D01*
X98875D01*
X99997Y165607D01*
X100948Y166243D01*
X101583Y167194D01*
X101806Y168315D01*
Y172065D01*
X101583Y173187D01*
X100948Y174138D01*
X99997Y174774D01*
X98875Y174997D01*
X78625D01*
X77503Y174774D01*
X76552Y174138D01*
X75917Y173187D01*
X75807Y172634D01*
X70500D01*
Y173250D01*
X67276D01*
X66492Y174520D01*
X66631Y175219D01*
X66398Y176390D01*
X65735Y177382D01*
X64743Y178045D01*
X63573Y178278D01*
X62402Y178045D01*
X61410Y177382D01*
X59991Y177546D01*
X59913Y177663D01*
X58920Y178326D01*
X57750Y178559D01*
X56579Y178326D01*
X55587Y177663D01*
X54924Y176670D01*
X54691Y175500D01*
X54886Y174520D01*
X54638Y173946D01*
X54118Y173250D01*
X54000D01*
Y169584D01*
X52827Y169098D01*
X41531Y180394D01*
Y182344D01*
X41056Y183492D01*
X37374Y187174D01*
Y203181D01*
X36898Y204329D01*
X32930Y208297D01*
X31782Y208773D01*
X28845D01*
X28242Y209520D01*
X28763Y210710D01*
X31230D01*
Y215000D01*
X32500D01*
Y216270D01*
X41540D01*
Y218210D01*
X43480D01*
Y232250D01*
X46020D01*
Y218210D01*
D02*
G37*
G36*
X299250Y108853D02*
X297980Y107923D01*
X297806Y107979D01*
Y111065D01*
X297583Y112187D01*
X296948Y113138D01*
X295997Y113773D01*
X294875Y113997D01*
X274625D01*
X273503Y113773D01*
X272552Y113138D01*
X271917Y112187D01*
X271694Y111065D01*
Y107315D01*
X271917Y106194D01*
X272552Y105243D01*
X273503Y104607D01*
X274625Y104384D01*
X293513D01*
X293708Y103771D01*
X292881Y102997D01*
X274625D01*
X273503Y102774D01*
X272552Y102138D01*
X271917Y101187D01*
X271694Y100065D01*
Y96315D01*
X271917Y95194D01*
X272552Y94243D01*
X273503Y93607D01*
X274625Y93384D01*
X294875D01*
X295997Y93607D01*
X296948Y94243D01*
X297583Y95194D01*
X297806Y96315D01*
Y99402D01*
X298135Y100632D01*
X299305Y100864D01*
X299980Y101315D01*
X301049Y100916D01*
X301250Y100753D01*
Y92000D01*
X306708D01*
X307194Y90827D01*
X305324Y88956D01*
X304605D01*
X304191Y89233D01*
X303020Y89466D01*
X301849Y89233D01*
X300857Y88570D01*
X300194Y87577D01*
X299961Y86407D01*
X300143Y85492D01*
X299276Y84671D01*
X298054Y85051D01*
X297806Y85979D01*
Y89065D01*
X297583Y90187D01*
X296948Y91138D01*
X295997Y91774D01*
X294875Y91997D01*
X274625D01*
X273503Y91774D01*
X272552Y91138D01*
X271917Y90187D01*
X271694Y89065D01*
Y85315D01*
X271917Y84193D01*
X272479Y83352D01*
X272543Y83181D01*
X272346Y81853D01*
X271442Y81248D01*
X271274Y80997D01*
X270932Y81226D01*
X269762Y81459D01*
X268591Y81226D01*
X267599Y80563D01*
X266936Y79570D01*
X266703Y78400D01*
X266936Y77229D01*
X267599Y76237D01*
X268591Y75574D01*
X269762Y75341D01*
X270161Y74126D01*
X270466Y72593D01*
X271442Y71132D01*
X272346Y70528D01*
X272543Y69200D01*
X272479Y69028D01*
X271917Y68187D01*
X271694Y67065D01*
Y63315D01*
X271917Y62193D01*
X272552Y61242D01*
X273503Y60607D01*
X274625Y60384D01*
X294041D01*
X294568Y59114D01*
X272664Y37211D01*
X272189Y36063D01*
Y24457D01*
X268297Y20565D01*
X267124Y21051D01*
Y71083D01*
X266648Y72231D01*
X258874Y80006D01*
Y90985D01*
X260144Y91812D01*
X260750Y91691D01*
X261921Y91924D01*
X262913Y92587D01*
X263576Y93580D01*
X263809Y94750D01*
X263576Y95920D01*
X262913Y96913D01*
X261921Y97576D01*
X260750Y97809D01*
X260392Y98103D01*
Y105630D01*
X261662Y106404D01*
X262383Y106261D01*
X263553Y106494D01*
X264545Y107157D01*
X265208Y108149D01*
X265441Y109320D01*
X265441Y109321D01*
X265547Y109505D01*
X266541Y110299D01*
X267228Y110162D01*
X268399Y110395D01*
X269391Y111058D01*
X270054Y112050D01*
X270287Y113221D01*
X270054Y114391D01*
X269391Y115384D01*
X268996Y115648D01*
X269381Y116918D01*
X272101D01*
X272552Y116243D01*
X273503Y115607D01*
X274625Y115384D01*
X294875D01*
X295997Y115607D01*
X296948Y116243D01*
X297399Y116918D01*
X299250D01*
Y108853D01*
D02*
G37*
G36*
X340750Y106000D02*
X345253D01*
X345577Y105651D01*
X345771Y105267D01*
X345848Y104730D01*
X342437Y101318D01*
X342228Y101179D01*
X342098Y101049D01*
X328750D01*
Y105000D01*
X323402D01*
X322750Y106000D01*
Y116918D01*
X340750D01*
Y106000D01*
D02*
G37*
G36*
X257145Y98391D02*
X256102Y97348D01*
X255626Y96200D01*
Y79334D01*
X256102Y78186D01*
X263877Y70411D01*
Y67907D01*
X262703Y67421D01*
X239374Y90750D01*
Y101783D01*
X240250Y102690D01*
X240644Y102690D01*
X252250D01*
Y114690D01*
X240593D01*
X239639Y115707D01*
X239716Y116728D01*
X240000Y116918D01*
X257145D01*
Y98391D01*
D02*
G37*
G36*
X296888Y46092D02*
X292793Y41997D01*
X293331Y41460D01*
X279936Y28065D01*
X279545Y28326D01*
X278375Y28559D01*
X277204Y28326D01*
X276706Y27993D01*
X275436Y28613D01*
Y35390D01*
X287418Y47373D01*
X290997Y43794D01*
X295092Y47888D01*
X296888Y46092D01*
D02*
G37*
G36*
X168872Y188322D02*
X170020Y187847D01*
X204499D01*
X212056Y180289D01*
X211743Y178806D01*
X211229Y178463D01*
X210566Y177470D01*
X210333Y176300D01*
X210566Y175129D01*
X211229Y174137D01*
X212221Y173474D01*
X213392Y173241D01*
X214562Y173474D01*
X215555Y174137D01*
X215569Y174158D01*
X217204Y174319D01*
X224481Y167042D01*
X224678Y166960D01*
X224426Y165690D01*
X223250D01*
Y153690D01*
X235250D01*
X236126Y152783D01*
Y149597D01*
X235250Y148690D01*
X234856Y148690D01*
X223250D01*
Y136690D01*
X234856D01*
X235250Y136690D01*
X236126Y135783D01*
Y132597D01*
X235250Y131690D01*
X234856Y131690D01*
X223250D01*
Y119690D01*
X234856D01*
X235250Y119690D01*
X236126Y118783D01*
Y115597D01*
X235250Y114690D01*
X234856Y114690D01*
X223250D01*
Y102690D01*
X234856D01*
X235250Y102690D01*
X236126Y101783D01*
Y90078D01*
X236602Y88930D01*
X261877Y63655D01*
Y34267D01*
X260606Y33440D01*
X260000Y33560D01*
X258829Y33327D01*
X257896Y32704D01*
X257559Y32773D01*
X256626Y33138D01*
Y33420D01*
X251520D01*
Y20064D01*
X252125D01*
X253848Y20406D01*
X255308Y21382D01*
X256284Y22843D01*
X256626Y24565D01*
Y27864D01*
X257559Y28230D01*
X257896Y28299D01*
X258829Y27676D01*
X260000Y27443D01*
X260606Y27563D01*
X261877Y26736D01*
Y21923D01*
X260636Y20682D01*
X260000Y20809D01*
X258829Y20576D01*
X257837Y19913D01*
X257174Y18921D01*
X256941Y17750D01*
X257174Y16580D01*
X257837Y15587D01*
X258351Y15244D01*
X258664Y13761D01*
X256982Y12078D01*
X256046Y12703D01*
X254875Y12936D01*
X253704Y12703D01*
X252712Y12040D01*
X251091Y11899D01*
X247342Y15648D01*
X246194Y16124D01*
X228255D01*
X227107Y15648D01*
X226708Y15249D01*
X210114D01*
X204999Y20364D01*
X205525Y21634D01*
X208125D01*
X209247Y21857D01*
X210088Y22419D01*
X210259Y22483D01*
X211588Y22287D01*
X212192Y21382D01*
X213652Y20406D01*
X215375Y20064D01*
X215980D01*
Y34690D01*
Y49317D01*
X215375D01*
X213652Y48974D01*
X212262Y48045D01*
X212162Y48000D01*
X210728Y48093D01*
X210637Y48237D01*
X210826Y48520D01*
X211059Y49690D01*
X210826Y50861D01*
X210163Y51853D01*
X209170Y52516D01*
X208000Y52749D01*
X206829Y52516D01*
X205837Y51853D01*
X205174Y50861D01*
X204941Y49690D01*
X205075Y49017D01*
X204505Y47983D01*
X204470Y47941D01*
X204188Y47709D01*
X203253Y47523D01*
X202302Y46888D01*
X201749Y46061D01*
X201479Y45903D01*
X200323Y45691D01*
X189763Y56251D01*
Y67150D01*
X193980D01*
Y74690D01*
Y82230D01*
X187956D01*
X187021Y83166D01*
X187832Y84150D01*
X188929Y84150D01*
X193980D01*
Y90420D01*
X187710D01*
Y85414D01*
X187710Y84273D01*
X186726Y83461D01*
X185790Y84396D01*
Y90420D01*
X178250D01*
Y91690D01*
X176980D01*
Y99230D01*
X172540D01*
Y146289D01*
X172065Y147437D01*
X158228Y161274D01*
Y197170D01*
X159498Y197696D01*
X168872Y188322D01*
D02*
G37*
%LPC*%
G36*
X242540Y352980D02*
X237020D01*
Y346960D01*
X242540D01*
Y352980D01*
D02*
G37*
G36*
X234480D02*
X228960D01*
Y346960D01*
X234480D01*
Y352980D01*
D02*
G37*
G36*
X118750Y349809D02*
X117579Y349576D01*
X116587Y348913D01*
X115924Y347920D01*
X115691Y346750D01*
X115924Y345579D01*
X116587Y344587D01*
X117579Y343924D01*
X118750Y343691D01*
X119921Y343924D01*
X120913Y344587D01*
X121576Y345579D01*
X121809Y346750D01*
X121576Y347920D01*
X120913Y348913D01*
X119921Y349576D01*
X118750Y349809D01*
D02*
G37*
G36*
X133250Y344809D02*
X132079Y344576D01*
X131087Y343913D01*
X130424Y342920D01*
X130191Y341750D01*
X130424Y340579D01*
X131087Y339587D01*
X132079Y338924D01*
X133250Y338691D01*
X134421Y338924D01*
X135413Y339587D01*
X136076Y340579D01*
X136309Y341750D01*
X136076Y342920D01*
X135413Y343913D01*
X134421Y344576D01*
X133250Y344809D01*
D02*
G37*
G36*
X51390Y281890D02*
X48020D01*
Y277520D01*
X51390D01*
Y281890D01*
D02*
G37*
G36*
X45480D02*
X42110D01*
Y277520D01*
X45480D01*
Y281890D01*
D02*
G37*
G36*
X68430Y274140D02*
X63360D01*
Y269270D01*
X68430D01*
Y274140D01*
D02*
G37*
G36*
X45640Y263980D02*
X40570D01*
Y259110D01*
X45640D01*
Y263980D01*
D02*
G37*
G36*
X256290Y289730D02*
X250270D01*
Y284210D01*
X256290D01*
Y289730D01*
D02*
G37*
G36*
X247730D02*
X241710D01*
Y284210D01*
X247730D01*
Y289730D01*
D02*
G37*
G36*
X266880Y284790D02*
X261110D01*
Y279020D01*
X266880D01*
Y284790D01*
D02*
G37*
G36*
Y276480D02*
X261110D01*
Y270710D01*
X266880D01*
Y276480D01*
D02*
G37*
G36*
X230125Y280747D02*
X226375D01*
X225253Y280523D01*
X224302Y279888D01*
X223667Y278937D01*
X223444Y277815D01*
Y257565D01*
X223667Y256444D01*
X224302Y255492D01*
X225253Y254857D01*
X226375Y254634D01*
X230125D01*
X231247Y254857D01*
X232198Y255492D01*
X232833Y256444D01*
X233056Y257565D01*
Y277815D01*
X232833Y278937D01*
X232198Y279888D01*
X231247Y280523D01*
X230125Y280747D01*
D02*
G37*
G36*
X183125Y280747D02*
X179375D01*
X178253Y280523D01*
X177302Y279888D01*
X176667Y278937D01*
X176444Y277815D01*
Y257565D01*
X176667Y256444D01*
X177302Y255492D01*
X178253Y254857D01*
X179375Y254634D01*
X183125D01*
X184247Y254857D01*
X185198Y255492D01*
X185833Y256444D01*
X186056Y257565D01*
Y277815D01*
X185833Y278937D01*
X185198Y279888D01*
X184247Y280523D01*
X183125Y280747D01*
D02*
G37*
G36*
X200892Y251883D02*
X199721Y251650D01*
X198729Y250987D01*
X198066Y249995D01*
X197833Y248824D01*
X198066Y247654D01*
X198729Y246661D01*
X199721Y245998D01*
X200892Y245765D01*
X202062Y245998D01*
X203055Y246661D01*
X203718Y247654D01*
X203951Y248824D01*
X203718Y249995D01*
X203055Y250987D01*
X202062Y251650D01*
X200892Y251883D01*
D02*
G37*
G36*
X304680Y283790D02*
X300410D01*
Y281270D01*
X304680D01*
Y283790D01*
D02*
G37*
G36*
X210980Y226420D02*
X204710D01*
Y220150D01*
X210980D01*
Y226420D01*
D02*
G37*
G36*
X202790D02*
X196520D01*
Y220150D01*
X202790D01*
Y226420D01*
D02*
G37*
G36*
X193980D02*
X187710D01*
Y220150D01*
X193980D01*
Y226420D01*
D02*
G37*
G36*
X185790D02*
X179520D01*
Y220150D01*
X185790D01*
Y226420D01*
D02*
G37*
G36*
X224648Y219215D02*
X223477Y218982D01*
X222485Y218319D01*
X221822Y217327D01*
X221589Y216156D01*
X221822Y214986D01*
X222485Y213993D01*
X223477Y213330D01*
X224648Y213097D01*
X225819Y213330D01*
X226811Y213993D01*
X227474Y214986D01*
X227707Y216156D01*
X227474Y217327D01*
X226811Y218319D01*
X225819Y218982D01*
X224648Y219215D01*
D02*
G37*
G36*
X185790Y218230D02*
X179520D01*
Y211961D01*
X185790D01*
Y218230D01*
D02*
G37*
G36*
X193980D02*
X187710D01*
Y211961D01*
X193980D01*
Y218230D01*
D02*
G37*
G36*
X219790Y218230D02*
X213520D01*
Y211960D01*
X219790D01*
Y218230D01*
D02*
G37*
G36*
Y209420D02*
X213520D01*
Y203150D01*
X219790D01*
Y209420D01*
D02*
G37*
G36*
X229750Y210691D02*
X228580Y210458D01*
X227587Y209795D01*
X226924Y208803D01*
X226691Y207632D01*
X226924Y206462D01*
X227587Y205469D01*
X227340Y204107D01*
X227336Y204104D01*
X226673Y203112D01*
X226440Y201941D01*
X226635Y200960D01*
X226393Y200395D01*
X225868Y199690D01*
X223250D01*
Y187690D01*
X235250D01*
Y199690D01*
X233130D01*
X232605Y200395D01*
X232363Y200960D01*
X232558Y201941D01*
X232325Y203112D01*
X231662Y204104D01*
X231909Y205466D01*
X231913Y205469D01*
X232576Y206462D01*
X232809Y207632D01*
X232576Y208803D01*
X231913Y209795D01*
X230921Y210458D01*
X229750Y210691D01*
D02*
G37*
G36*
X18980Y246290D02*
X15960D01*
Y233520D01*
X18980D01*
Y246290D01*
D02*
G37*
G36*
Y230980D02*
X15960D01*
Y218210D01*
X18980D01*
Y230980D01*
D02*
G37*
G36*
X41540Y213730D02*
X33770D01*
Y210710D01*
X41540D01*
Y213730D01*
D02*
G37*
G36*
X98875Y207997D02*
X78625D01*
X77503Y207773D01*
X76552Y207138D01*
X75917Y206187D01*
X75694Y205065D01*
Y201315D01*
X75917Y200194D01*
X76552Y199243D01*
X77503Y198607D01*
X78625Y198384D01*
X98875D01*
X99997Y198607D01*
X100948Y199243D01*
X101583Y200194D01*
X101806Y201315D01*
Y205065D01*
X101583Y206187D01*
X100948Y207138D01*
X99997Y207773D01*
X98875Y207997D01*
D02*
G37*
G36*
X134790Y201230D02*
X128520D01*
Y194960D01*
X134790D01*
Y201230D01*
D02*
G37*
G36*
X125980D02*
X119710D01*
Y194960D01*
X125980D01*
Y201230D01*
D02*
G37*
G36*
X127250Y193690D02*
D01*
D01*
D01*
D02*
G37*
G36*
X98875Y196997D02*
X78625D01*
X77503Y196774D01*
X76552Y196138D01*
X75917Y195187D01*
X75694Y194065D01*
Y190315D01*
X75917Y189194D01*
X76552Y188243D01*
X77503Y187607D01*
X78625Y187384D01*
X98875D01*
X99997Y187607D01*
X100948Y188243D01*
X101583Y189194D01*
X101806Y190315D01*
Y194065D01*
X101583Y195187D01*
X100948Y196138D01*
X99997Y196774D01*
X98875Y196997D01*
D02*
G37*
G36*
X134790Y192420D02*
X128520D01*
Y186150D01*
X134790D01*
Y192420D01*
D02*
G37*
G36*
X125980D02*
X119710D01*
Y186150D01*
X125980D01*
Y192420D01*
D02*
G37*
G36*
X54500Y187059D02*
X53330Y186826D01*
X52337Y186163D01*
X51674Y185170D01*
X51441Y184000D01*
X51674Y182829D01*
X52337Y181837D01*
X53330Y181174D01*
X54500Y180941D01*
X55670Y181174D01*
X56663Y181837D01*
X57326Y182829D01*
X57559Y184000D01*
X57326Y185170D01*
X56663Y186163D01*
X55670Y186826D01*
X54500Y187059D01*
D02*
G37*
G36*
X134790Y184230D02*
X128520D01*
Y177960D01*
X134790D01*
Y184230D01*
D02*
G37*
G36*
X125980D02*
X119710D01*
Y177960D01*
X125980D01*
Y184230D01*
D02*
G37*
G36*
X98875Y185997D02*
X78625D01*
X77503Y185774D01*
X76552Y185138D01*
X75917Y184187D01*
X75694Y183065D01*
Y179315D01*
X75917Y178194D01*
X76552Y177243D01*
X77503Y176607D01*
X78625Y176384D01*
X98875D01*
X99997Y176607D01*
X100948Y177243D01*
X101583Y178194D01*
X101806Y179315D01*
Y183065D01*
X101583Y184187D01*
X100948Y185138D01*
X99997Y185774D01*
X98875Y185997D01*
D02*
G37*
G36*
X134790Y175420D02*
X128520D01*
Y169150D01*
X134790D01*
Y175420D01*
D02*
G37*
G36*
X125980D02*
X119710D01*
Y169150D01*
X125980D01*
Y175420D01*
D02*
G37*
G36*
X35221Y171072D02*
X34050Y170839D01*
X33058Y170176D01*
X32395Y169183D01*
X32162Y168013D01*
X32395Y166842D01*
X33058Y165850D01*
X34050Y165187D01*
X35221Y164954D01*
X36391Y165187D01*
X37383Y165850D01*
X38047Y166842D01*
X38279Y168013D01*
X38047Y169183D01*
X37383Y170176D01*
X36391Y170839D01*
X35221Y171072D01*
D02*
G37*
G36*
X115000Y170569D02*
X113829Y170336D01*
X112837Y169673D01*
X112174Y168681D01*
X111941Y167510D01*
X112174Y166340D01*
X112837Y165347D01*
X113829Y164685D01*
X115000Y164452D01*
X116171Y164685D01*
X117163Y165347D01*
X117826Y166340D01*
X118059Y167510D01*
X117826Y168681D01*
X117163Y169673D01*
X116171Y170336D01*
X115000Y170569D01*
D02*
G37*
G36*
X133250Y165690D02*
X121250D01*
Y153690D01*
X133250D01*
Y165690D01*
D02*
G37*
G36*
X98875Y157997D02*
X78625D01*
X77503Y157774D01*
X76552Y157138D01*
X75917Y156187D01*
X75694Y155065D01*
Y151315D01*
X75917Y150194D01*
X76552Y149243D01*
X77503Y148607D01*
X78625Y148384D01*
X98875D01*
X99997Y148607D01*
X100948Y149243D01*
X101583Y150194D01*
X101806Y151315D01*
Y155065D01*
X101583Y156187D01*
X100948Y157138D01*
X99997Y157774D01*
X98875Y157997D01*
D02*
G37*
G36*
Y146997D02*
X78625D01*
X77503Y146774D01*
X76552Y146138D01*
X75917Y145187D01*
X75694Y144065D01*
Y140315D01*
X75917Y139194D01*
X76552Y138243D01*
X77503Y137607D01*
X78625Y137384D01*
X98875D01*
X99997Y137607D01*
X100948Y138243D01*
X101583Y139194D01*
X101806Y140315D01*
Y144065D01*
X101583Y145187D01*
X100948Y146138D01*
X99997Y146774D01*
X98875Y146997D01*
D02*
G37*
G36*
X150250Y148690D02*
X138250D01*
Y136690D01*
X150250D01*
Y148690D01*
D02*
G37*
G36*
X133250D02*
X121250D01*
Y136690D01*
X133250D01*
Y148690D01*
D02*
G37*
G36*
X22675Y133090D02*
X17705D01*
Y127920D01*
X22675D01*
Y133090D01*
D02*
G37*
G36*
X43605Y133090D02*
X38635D01*
Y127920D01*
X43605D01*
Y133090D01*
D02*
G37*
G36*
X36615D02*
X31645D01*
Y127920D01*
X36615D01*
Y133090D01*
D02*
G37*
G36*
X29105D02*
X24135D01*
Y127920D01*
X29105D01*
Y133090D01*
D02*
G37*
G36*
X98875Y135997D02*
X78625D01*
X77503Y135774D01*
X76552Y135138D01*
X75917Y134187D01*
X75694Y133065D01*
Y129315D01*
X75917Y128194D01*
X76552Y127243D01*
X77503Y126607D01*
X78625Y126384D01*
X98875D01*
X99997Y126607D01*
X100948Y127243D01*
X101583Y128194D01*
X101806Y129315D01*
Y133065D01*
X101583Y134187D01*
X100948Y135138D01*
X99997Y135774D01*
X98875Y135997D01*
D02*
G37*
G36*
Y124997D02*
X78625D01*
X77503Y124774D01*
X76705Y124241D01*
X75924Y124762D01*
X74754Y124995D01*
X73583Y124762D01*
X72591Y124100D01*
X71928Y123107D01*
X71695Y121937D01*
X71928Y120766D01*
X72591Y119774D01*
X73583Y119111D01*
X74754Y118878D01*
X75798Y117791D01*
X75917Y117194D01*
X76552Y116243D01*
X77503Y115607D01*
X78625Y115384D01*
X98875D01*
X99997Y115607D01*
X100948Y116243D01*
X101583Y117194D01*
X101806Y118315D01*
Y122065D01*
X101583Y123187D01*
X100948Y124138D01*
X99997Y124774D01*
X98875Y124997D01*
D02*
G37*
G36*
X150250Y131690D02*
X138250D01*
Y119690D01*
X150250D01*
Y131690D01*
D02*
G37*
G36*
X133250D02*
X121250D01*
Y119690D01*
X133250D01*
Y131690D01*
D02*
G37*
G36*
X150250Y114690D02*
X138250D01*
Y102690D01*
X150250D01*
Y114690D01*
D02*
G37*
G36*
X133250D02*
X121250D01*
Y102690D01*
X133250D01*
Y114690D01*
D02*
G37*
G36*
X159980Y82230D02*
X153710D01*
Y75960D01*
X159980D01*
Y82230D01*
D02*
G37*
G36*
X176980Y73420D02*
X170710D01*
Y67150D01*
X176980D01*
Y73420D01*
D02*
G37*
G36*
X168790D02*
X162520D01*
Y67150D01*
X168790D01*
Y73420D01*
D02*
G37*
G36*
X159980D02*
X153710D01*
Y67150D01*
X159980D01*
Y73420D01*
D02*
G37*
G36*
X103377Y74920D02*
X88750D01*
X74124D01*
Y74315D01*
X74466Y72593D01*
X75442Y71132D01*
Y70248D01*
X74466Y68788D01*
X74124Y67065D01*
Y66460D01*
X88750D01*
Y65190D01*
D01*
Y66460D01*
X103377D01*
Y67065D01*
X103034Y68788D01*
X102058Y70248D01*
Y71132D01*
X103034Y72593D01*
X103377Y74315D01*
Y74920D01*
D02*
G37*
G36*
Y63920D02*
X90020D01*
Y58814D01*
X98875D01*
X100598Y59156D01*
X102058Y60132D01*
X103034Y61593D01*
X103377Y63315D01*
Y63920D01*
D02*
G37*
G36*
X87480D02*
X74124D01*
Y63315D01*
X74466Y61593D01*
X75442Y60132D01*
X76902Y59156D01*
X78625Y58814D01*
X87480D01*
Y63920D01*
D02*
G37*
G36*
X112650Y60684D02*
X111480Y60451D01*
X110487Y59788D01*
X109824Y58795D01*
X109591Y57625D01*
X109824Y56455D01*
X110487Y55462D01*
X111480Y54799D01*
X112650Y54566D01*
X113820Y54799D01*
X114813Y55462D01*
X115476Y56455D01*
X115709Y57625D01*
X115476Y58795D01*
X114813Y59788D01*
X113820Y60451D01*
X112650Y60684D01*
D02*
G37*
G36*
X148250Y53059D02*
X147079Y52826D01*
X146087Y52163D01*
X145424Y51171D01*
X145191Y50000D01*
X145420Y48851D01*
X145424Y48826D01*
X145253Y47523D01*
X144302Y46888D01*
X143667Y45937D01*
X143444Y44815D01*
Y36314D01*
X142056D01*
Y44815D01*
X141833Y45937D01*
X141198Y46888D01*
X140247Y47523D01*
X139125Y47747D01*
X135375D01*
X134253Y47523D01*
X133302Y46888D01*
X132667Y45937D01*
X132444Y44815D01*
Y24565D01*
X132667Y23444D01*
X133302Y22493D01*
X134253Y21857D01*
X135375Y21634D01*
X139125D01*
X140247Y21857D01*
X141198Y22493D01*
X141833Y23444D01*
X142056Y24565D01*
Y33067D01*
X143444D01*
Y24565D01*
X143667Y23444D01*
X144302Y22492D01*
X145253Y21857D01*
X146375Y21634D01*
X150125D01*
X151247Y21857D01*
X152088Y22419D01*
X152259Y22483D01*
X153588Y22287D01*
X154192Y21382D01*
X155652Y20406D01*
X157375Y20064D01*
X157980D01*
Y34690D01*
Y49317D01*
X157375D01*
X155652Y48974D01*
X154192Y47998D01*
X153588Y47094D01*
X152295Y46902D01*
X151233Y47629D01*
X151076Y48826D01*
X151080Y48851D01*
X151309Y50000D01*
X151076Y51171D01*
X150413Y52163D01*
X149421Y52826D01*
X148250Y53059D01*
D02*
G37*
G36*
X99800Y41809D02*
X98630Y41576D01*
X97637Y40913D01*
X96974Y39920D01*
X96741Y38750D01*
X96974Y37580D01*
X97637Y36587D01*
X98630Y35924D01*
X99800Y35691D01*
X100971Y35924D01*
X101963Y36587D01*
X102626Y37580D01*
X102859Y38750D01*
X102626Y39920D01*
X101963Y40913D01*
X100971Y41576D01*
X99800Y41809D01*
D02*
G37*
G36*
X128125Y47747D02*
X124375D01*
X123253Y47523D01*
X122302Y46888D01*
X121667Y45937D01*
X121444Y44815D01*
Y24565D01*
X121667Y23444D01*
X122302Y22492D01*
X123253Y21857D01*
X124375Y21634D01*
X128125D01*
X129247Y21857D01*
X130198Y22492D01*
X130833Y23444D01*
X131056Y24565D01*
Y44815D01*
X130833Y45937D01*
X130198Y46888D01*
X129247Y47523D01*
X128125Y47747D01*
D02*
G37*
G36*
X161125Y49317D02*
X160520D01*
Y34690D01*
Y20064D01*
X161125D01*
X162848Y20406D01*
X164308Y21382D01*
X165637Y21085D01*
X166652Y20406D01*
X168375Y20064D01*
X168980D01*
Y34690D01*
Y49317D01*
X168375D01*
X166652Y48974D01*
X165192Y47998D01*
X163863Y48296D01*
X162848Y48974D01*
X161125Y49317D01*
D02*
G37*
G36*
X171376Y167372D02*
X170206Y167139D01*
X169214Y166476D01*
X168550Y165484D01*
X168318Y164313D01*
X168550Y163143D01*
X169214Y162150D01*
X170206Y161487D01*
X171376Y161255D01*
X172547Y161487D01*
X173539Y162150D01*
X174202Y163143D01*
X174435Y164313D01*
X174202Y165484D01*
X173539Y166476D01*
X172547Y167139D01*
X171376Y167372D01*
D02*
G37*
G36*
X170892Y158701D02*
X169721Y158468D01*
X168729Y157805D01*
X168066Y156813D01*
X167833Y155642D01*
X168066Y154472D01*
X168729Y153479D01*
X169721Y152816D01*
X170892Y152584D01*
X172062Y152816D01*
X173055Y153479D01*
X173718Y154472D01*
X173951Y155642D01*
X173718Y156813D01*
X173055Y157805D01*
X172062Y158468D01*
X170892Y158701D01*
D02*
G37*
G36*
X219790Y99230D02*
X213520D01*
Y92960D01*
X219790D01*
Y99230D01*
D02*
G37*
G36*
X210980D02*
X204710D01*
Y92960D01*
X210980D01*
Y99230D01*
D02*
G37*
G36*
X202790Y99230D02*
X196520D01*
Y92960D01*
X202790D01*
Y99230D01*
D02*
G37*
G36*
X193980D02*
X187710D01*
Y92960D01*
X193980D01*
Y99230D01*
D02*
G37*
G36*
X185790D02*
X179520D01*
Y92960D01*
X185790D01*
Y99230D01*
D02*
G37*
G36*
X219790Y90420D02*
X213520D01*
Y84150D01*
X219790D01*
Y90420D01*
D02*
G37*
G36*
X210980D02*
X204710D01*
Y84150D01*
X210980D01*
Y90420D01*
D02*
G37*
G36*
X202790Y90420D02*
X196520D01*
Y84150D01*
X202790D01*
Y90420D01*
D02*
G37*
G36*
X219790Y82230D02*
X213520D01*
Y75960D01*
X219790D01*
Y82230D01*
D02*
G37*
G36*
X210980D02*
X204710D01*
Y75960D01*
X210980D01*
Y82230D01*
D02*
G37*
G36*
X202790D02*
X196520D01*
Y75960D01*
X202790D01*
Y82230D01*
D02*
G37*
G36*
Y73420D02*
X196520D01*
Y67150D01*
X202790D01*
Y73420D01*
D02*
G37*
G36*
X219790D02*
X204710D01*
Y67150D01*
X207456D01*
X207833Y66690D01*
X208066Y65520D01*
X208729Y64527D01*
X209721Y63864D01*
X210892Y63632D01*
X212062Y63864D01*
X213055Y64527D01*
X213718Y65520D01*
X213951Y66690D01*
X214328Y67150D01*
X219790D01*
Y73420D01*
D02*
G37*
G36*
X252750Y66559D02*
X251579Y66326D01*
X250587Y65663D01*
X249924Y64671D01*
X249691Y63500D01*
X249818Y62864D01*
X238102Y51148D01*
X237626Y50000D01*
Y47747D01*
X237375D01*
X236253Y47523D01*
X235412Y46961D01*
X235241Y46897D01*
X233912Y47094D01*
X233308Y47998D01*
X232561Y48498D01*
X232576Y48520D01*
X232809Y49690D01*
X232576Y50861D01*
X231913Y51853D01*
X230921Y52516D01*
X229750Y52749D01*
X228580Y52516D01*
X227587Y51853D01*
X226924Y50861D01*
X226691Y49690D01*
X225505Y49144D01*
X224652Y48974D01*
X223637Y48296D01*
X222308Y47998D01*
X220848Y48974D01*
X219125Y49317D01*
X218520D01*
Y34690D01*
Y20064D01*
X219125D01*
X220848Y20406D01*
X221863Y21085D01*
X223192Y21382D01*
X224652Y20406D01*
X226375Y20064D01*
X226980D01*
Y34690D01*
X229520D01*
Y20064D01*
X230125D01*
X231848Y20406D01*
X233308Y21382D01*
X233912Y22287D01*
X235241Y22483D01*
X235412Y22419D01*
X236253Y21857D01*
X237375Y21634D01*
X241125D01*
X242247Y21857D01*
X243088Y22419D01*
X243259Y22483D01*
X244588Y22287D01*
X245192Y21382D01*
X246652Y20406D01*
X248375Y20064D01*
X248980D01*
Y34690D01*
Y49317D01*
X248375D01*
X246652Y48974D01*
X245192Y47998D01*
X244588Y47094D01*
X243259Y46897D01*
X243088Y46961D01*
X242247Y47523D01*
X241125Y47747D01*
X240874D01*
Y49328D01*
X252114Y60568D01*
X252750Y60441D01*
X253920Y60674D01*
X254913Y61337D01*
X255576Y62330D01*
X255809Y63500D01*
X255576Y64671D01*
X254913Y65663D01*
X253920Y66326D01*
X252750Y66559D01*
D02*
G37*
G36*
X252125Y49317D02*
X251520D01*
Y35960D01*
X256626D01*
Y44815D01*
X256284Y46538D01*
X255308Y47998D01*
X253848Y48974D01*
X252125Y49317D01*
D02*
G37*
%LPD*%
D11*
X257250Y79334D02*
X265500Y71083D01*
X257250Y79334D02*
Y96200D01*
X258769Y97718D02*
Y193293D01*
X257250Y96200D02*
X258769Y97718D01*
X327810Y287775D02*
X328036Y288000D01*
X332629D01*
X325950Y287201D02*
X326524Y287775D01*
X327810D01*
X354760Y244260D02*
Y265868D01*
X332629Y288000D02*
X354760Y265868D01*
X344500Y234000D02*
Y234500D01*
X348250Y238250D01*
X348750D01*
X354760Y244260D01*
X268763Y253801D02*
X274150Y259188D01*
Y279536D01*
X278364Y283750D01*
X287759D01*
X296250Y292240D02*
Y298150D01*
X287759Y283750D02*
X296250Y292240D01*
X268763Y235700D02*
Y253801D01*
X271250Y232917D02*
X273647Y230520D01*
X271250Y232917D02*
Y233213D01*
X268763Y235700D02*
X271250Y233213D01*
X298250Y225581D02*
X300250Y223582D01*
X298250Y225581D02*
Y228463D01*
X296193Y230520D02*
X298250Y228463D01*
X273647Y230520D02*
X296193D01*
X87699Y249500D02*
X94528Y256329D01*
X63573Y249500D02*
X87699D01*
X56809Y243622D02*
X95188D01*
X57652Y247294D02*
X93910D01*
X106500Y257478D02*
X109522Y260500D01*
X95188Y243622D02*
X106500Y254934D01*
X93910Y247294D02*
X103000Y256384D01*
X106500Y254934D02*
Y257478D01*
X47946Y248250D02*
X50850D01*
X51436Y248836D02*
Y248856D01*
X50850Y248250D02*
X51436Y248836D01*
X48000Y240470D02*
X56824Y249294D01*
X63366D01*
X63573Y249500D01*
X54500Y239000D02*
X55074Y239574D01*
X51000Y237550D02*
X53050Y235500D01*
X51000Y237550D02*
Y240642D01*
X62000Y222319D02*
Y228562D01*
X53050Y235500D02*
X55062D01*
X62000Y228562D01*
X55074Y241887D02*
X56809Y243622D01*
X51000Y240642D02*
X57652Y247294D01*
X55074Y239574D02*
Y241887D01*
X48000Y231259D02*
Y240470D01*
X53313Y223582D02*
Y225946D01*
X48000Y231259D02*
X53313Y225946D01*
X48202Y216070D02*
X51187Y219055D01*
Y221456D01*
X53313Y223582D01*
X51436Y206801D02*
Y216476D01*
X53187Y218226D02*
Y220627D01*
X51436Y216476D02*
X53187Y218226D01*
Y220627D02*
X57750Y225190D01*
X48202Y209307D02*
Y216070D01*
X46220Y201690D02*
Y207326D01*
X48202Y209307D01*
X133075Y283253D02*
X136388Y286566D01*
X132888Y289600D02*
Y292245D01*
X135100Y310498D02*
X144863Y320261D01*
X136388Y286566D02*
Y293695D01*
X135100Y294983D02*
X136388Y293695D01*
X131288Y288000D02*
X132888Y289600D01*
X135100Y294983D02*
Y310498D01*
X119200Y288000D02*
X131288D01*
X225570Y241450D02*
X236500Y230520D01*
X176679Y241450D02*
X225570D01*
X167213Y250916D02*
X176679Y241450D01*
X157466Y247500D02*
X160882Y250916D01*
X167213D01*
X150194Y244552D02*
X152039D01*
X154675Y247500D02*
X157466D01*
X152039Y244552D02*
X152625Y245138D01*
Y245450D01*
X149642Y244000D02*
X150194Y244552D01*
X152625Y245450D02*
X154675Y247500D01*
X24500Y210690D02*
Y217371D01*
X35750Y186501D02*
X39908Y182344D01*
X24500Y210690D02*
X28041Y207149D01*
X31782D01*
X35750Y186501D02*
Y203181D01*
X31782Y207149D02*
X35750Y203181D01*
X36750Y225500D02*
Y226914D01*
Y223714D02*
Y225500D01*
X151000Y159701D02*
Y199062D01*
X55315Y164313D02*
X62250D01*
X255249Y10251D02*
X257451D01*
X104505Y261513D02*
X105317D01*
X157629Y219190D02*
X164872D01*
X137569Y235352D02*
X143240D01*
X109522Y260500D02*
X112421D01*
X150434Y226385D02*
Y228157D01*
X112421Y260500D02*
X137569Y235352D01*
X143240D02*
X150434Y228157D01*
X203626Y209126D02*
X204010Y209510D01*
X150434Y226385D02*
X157629Y219190D01*
X164872D02*
X169442Y214620D01*
Y207251D02*
Y214620D01*
Y207251D02*
X179442Y197251D01*
X193932D01*
X203626Y206945D02*
Y209126D01*
X193932Y197251D02*
X203626Y206945D01*
X39908Y179721D02*
X55315Y164313D01*
X39908Y179721D02*
Y182344D01*
X24500Y217371D02*
X25879Y218750D01*
X30371D01*
X33836Y222214D01*
X35250D02*
X36750Y223714D01*
X170020Y189470D02*
X205171D01*
X110971Y251389D02*
X145354Y217006D01*
X145668D01*
X216892Y176927D02*
Y177750D01*
X154750Y204741D02*
Y207925D01*
X145668Y217006D02*
X154750Y207925D01*
X110971Y251389D02*
Y257000D01*
X216892Y176927D02*
X225629Y168190D01*
X154750Y204741D02*
X170020Y189470D01*
X225629Y168190D02*
X232871D01*
X205171Y189470D02*
X216892Y177750D01*
X232871Y168190D02*
X237750Y163312D01*
Y90078D02*
Y163312D01*
Y90078D02*
X263500Y64328D01*
Y21250D02*
Y64328D01*
X260000Y17750D02*
X263500Y21250D01*
X105317Y261513D02*
X106304Y262500D01*
X254875Y9877D02*
X255249Y10251D01*
X257451D02*
X265500Y18300D01*
X161718Y237352D02*
X163606Y235464D01*
X106304Y262500D02*
X113488D01*
X138636Y237352D02*
X161718D01*
X216598Y235464D02*
X258769Y193293D01*
X265500Y18300D02*
Y71083D01*
X113488Y262500D02*
X138636Y237352D01*
X163606Y235464D02*
X216598D01*
X188682Y31556D02*
X208613Y11625D01*
X144503Y209800D02*
X147218D01*
X150697Y199365D02*
X151000Y199062D01*
X208613Y11625D02*
X228209D01*
X144385Y209918D02*
X144503Y209800D01*
X151000Y159701D02*
X168583Y142118D01*
Y86407D02*
Y142118D01*
Y86407D02*
X172967Y82024D01*
X183038D01*
X185583Y79479D01*
Y54802D02*
Y79479D01*
Y54802D02*
X188682Y51703D01*
Y31556D02*
Y51703D01*
X229084Y12500D02*
X243244D01*
X228209Y11625D02*
X229084Y12500D01*
X150697Y199365D02*
Y206321D01*
X243244Y12500D02*
X247553Y8191D01*
X147218Y209800D02*
X150697Y206321D01*
X298135Y81690D02*
X298250Y81575D01*
Y60500D02*
Y81575D01*
X273813Y36063D02*
X298250Y60500D01*
X273813Y23784D02*
Y36063D01*
X256406Y6377D02*
X273813Y23784D01*
X64379Y219940D02*
X115515D01*
X246194Y14500D02*
X251053Y9641D01*
X200145Y22922D02*
X209442Y13625D01*
X228255Y14500D02*
X246194D01*
X251053Y8749D02*
X253425Y6377D01*
X200145Y22922D02*
Y43573D01*
X188139Y55579D02*
X200145Y43573D01*
X188139Y55579D02*
Y79751D01*
X183533Y84357D02*
X188139Y79751D01*
X173462Y84357D02*
X183533D01*
X170917Y86902D02*
X173462Y84357D01*
X170917Y86902D02*
Y146289D01*
X156604Y160602D02*
X170917Y146289D01*
X156604Y160602D02*
Y198329D01*
X152697Y202236D02*
X156604Y198329D01*
X152697Y202236D02*
Y207149D01*
X145749Y214097D02*
X152697Y207149D01*
X121359Y214097D02*
X145749D01*
X115515Y219940D02*
X121359Y214097D01*
X251053Y8749D02*
Y9641D01*
X62000Y222319D02*
X64379Y219940D01*
X209442Y13625D02*
X227380D01*
X228255Y14500D01*
X253425Y6377D02*
X256406D01*
X92233Y260771D02*
X114714Y283253D01*
X133075D01*
X45775Y94565D02*
X55086D01*
X44775D02*
X45775D01*
X57336Y89849D02*
Y96815D01*
Y89849D02*
X59995Y87190D01*
X37296Y116850D02*
X44875D01*
X37291Y116856D02*
X37296Y116850D01*
X70644Y287722D02*
X72116Y286250D01*
X78625D01*
X70030Y287722D02*
X70644D01*
X66750Y169500D02*
X68260Y171010D01*
X87930D01*
X88750Y170190D01*
X47250Y146250D02*
Y162888D01*
X43690Y142690D02*
X47250Y146250D01*
X15614Y150386D02*
X23310Y142690D01*
X43690D01*
X15000Y155300D02*
X15614Y154686D01*
Y150386D02*
Y154686D01*
X15000Y155300D02*
Y168000D01*
X27500Y263050D02*
X29700Y265250D01*
X27500Y257702D02*
Y263050D01*
X35750Y271300D02*
Y276250D01*
X33000Y268550D02*
X35750Y271300D01*
X33000Y268350D02*
Y268550D01*
X29900Y265250D02*
X33000Y268350D01*
X29700Y265250D02*
X29900D01*
X95250Y302875D02*
Y323213D01*
X92233Y326230D02*
X95250Y323213D01*
X87000Y320079D02*
Y321250D01*
X90250Y302875D02*
Y316828D01*
X87000Y320079D02*
X90250Y316828D01*
X85250Y302875D02*
Y313700D01*
X78625Y301250D02*
Y309000D01*
X79300Y257550D02*
Y268000D01*
Y256550D02*
Y257550D01*
X81600Y258850D02*
X84451Y261700D01*
X79300Y257550D02*
X80600Y258850D01*
X81600D01*
X84451Y261700D02*
X85232D01*
X79300Y268000D02*
Y277050D01*
X84000Y283375D02*
X85250Y284625D01*
X84000Y281750D02*
Y283375D01*
X79300Y277050D02*
X84000Y281750D01*
X90076Y290760D02*
X90566Y291250D01*
X101875D01*
Y286250D02*
X103000D01*
X106071Y288700D02*
X118500D01*
X105371Y288000D02*
X106071Y288700D01*
X104750Y288000D02*
X105371D01*
X103000Y286250D02*
X104750Y288000D01*
X118500Y288700D02*
X119200Y288000D01*
X205260Y340181D02*
Y341767D01*
X203079Y338000D02*
X205260Y340181D01*
X200250Y337750D02*
X200861D01*
X201111Y338000D01*
X203079D01*
X184250Y344364D02*
Y355250D01*
Y342750D02*
Y344364D01*
X184555D01*
X177715D02*
X184250D01*
X197250Y332500D02*
Y334844D01*
X198351Y335945D01*
X198444D01*
X200250Y337750D01*
X183750Y355750D02*
X184250Y355250D01*
X192250Y332500D02*
Y335656D01*
X191556Y336351D02*
X192250Y335656D01*
X191556Y336351D02*
Y336445D01*
X188250Y339750D02*
X191556Y336445D01*
X187250Y339750D02*
X188250D01*
X184250Y342750D02*
X187250Y339750D01*
X224250Y337250D02*
Y342250D01*
Y332250D02*
Y337250D01*
X221743Y342250D02*
X224250D01*
X220843Y343150D02*
X221743Y342250D01*
X220843Y343150D02*
Y344364D01*
X220257Y344950D02*
X220843Y344364D01*
X212000Y344950D02*
X220257D01*
X224250Y322250D02*
X224786Y321714D01*
X229164D01*
X230129Y320750D01*
X243371D01*
X244336Y321715D01*
X248715D01*
X249250Y322250D01*
X175500Y307389D02*
X177111Y309000D01*
X174750Y305000D02*
X175500Y305750D01*
X177111Y309000D02*
X177439D01*
X175500Y305750D02*
Y307389D01*
X170750Y301000D02*
Y302000D01*
X178025Y310557D02*
X178718Y311250D01*
X181000D01*
X177439Y309000D02*
X178025Y309586D01*
X173750Y305000D02*
X174750D01*
X170750Y302000D02*
X173750Y305000D01*
X178025Y309586D02*
Y310557D01*
X175250Y288750D02*
X185500D01*
Y289750D01*
X188500Y292750D01*
X189500D01*
X192181Y295431D01*
Y299930D01*
X192250Y300000D01*
X223000Y287750D02*
Y288750D01*
X220000Y284750D02*
X223000Y287750D01*
X219000Y284750D02*
X220000D01*
X217000Y282750D02*
X219000Y284750D01*
X204879Y282750D02*
X217000D01*
X199500Y287750D02*
Y288750D01*
Y287750D02*
X202500Y284750D01*
X203414D01*
X204000Y284164D01*
Y283629D02*
Y284164D01*
Y283629D02*
X204879Y282750D01*
X197250Y291000D02*
Y300000D01*
Y291000D02*
X199500Y288750D01*
X207250Y290500D02*
Y299943D01*
Y290500D02*
X209000Y288750D01*
X207943Y299250D02*
X224750D01*
X207250Y299943D02*
X207943Y299250D01*
X224750Y313250D02*
X236500D01*
X236750Y313000D01*
X213500Y306250D02*
X213694Y306444D01*
X217945D01*
X220750Y309250D01*
Y310250D01*
X223750Y313250D01*
X224750D01*
X262324Y293250D02*
X269250D01*
X259324Y296250D02*
X262324Y293250D01*
X249000Y304500D02*
X249500D01*
X253250Y300750D01*
Y300250D02*
Y300750D01*
Y300250D02*
X257250Y296250D01*
X259324D01*
X249250Y304750D02*
Y322250D01*
X249000Y304500D02*
X249250Y304750D01*
X260275Y309704D02*
Y318770D01*
X252991Y326350D02*
X255275Y324066D01*
Y323770D02*
X260275Y318770D01*
X255275Y323770D02*
Y324066D01*
X249250Y327250D02*
X250150Y326350D01*
X252991D01*
X249250Y337250D02*
X255278D01*
X259324Y333204D01*
X156125Y244000D02*
X160716D01*
X160800Y243916D01*
X167028D01*
X173165Y237778D02*
X223730D01*
X167028Y243916D02*
X173165Y237778D01*
X236318Y225190D02*
X284750D01*
X223730Y237778D02*
X236318Y225190D01*
X293145Y270750D02*
X297395Y275000D01*
X288895Y266500D02*
X293145Y270750D01*
X280850Y277750D02*
X280968Y277631D01*
X286264D01*
X293145Y270750D01*
X295250Y245750D02*
X296250D01*
X292250Y248750D02*
X295250Y245750D01*
X292250Y248750D02*
Y249750D01*
X288895Y253105D02*
X292250Y249750D01*
X288895Y253105D02*
Y266500D01*
X297395Y275000D02*
X305950D01*
X296250Y259750D02*
X297250D01*
X300250Y262750D01*
Y263750D01*
X301500Y265000D01*
X305950D01*
X346750Y263250D02*
Y267966D01*
X339716Y275000D02*
X346750Y267966D01*
X333950Y275000D02*
X339716D01*
X340500Y218700D02*
Y229500D01*
X344500Y233500D01*
Y234000D01*
X345500Y218700D02*
X346250Y219450D01*
Y222655D01*
X354595Y231000D02*
X361500D01*
X346250Y222655D02*
X354595Y231000D01*
X148250Y34690D02*
Y50000D01*
X137250Y34690D02*
X148250D01*
X148250Y34690D01*
X74754Y121937D02*
X75836Y120854D01*
X88086D02*
X88750Y120190D01*
X75836Y120854D02*
X88086D01*
X53313Y103982D02*
X57336Y108006D01*
X49289Y99959D02*
X53313Y103982D01*
X16435Y102390D02*
X32786Y86039D01*
X43675Y93465D02*
X44775Y94565D01*
X32786Y86039D02*
X41220D01*
X43675Y88494D02*
Y93465D01*
X41220Y86039D02*
X43675Y88494D01*
X25500Y98190D02*
Y99959D01*
Y98190D02*
X28461Y95230D01*
X65336Y118506D02*
X74652Y109190D01*
X88750D01*
X45775Y99565D02*
X46168Y99959D01*
X49289D01*
X31311Y95230D02*
X31975Y94565D01*
X28461Y95230D02*
X31311D01*
X87845Y99095D02*
X88750Y98190D01*
X75836Y99095D02*
X87845D01*
X68441Y106489D02*
X75836Y99095D01*
X65336Y108006D02*
X66853Y106489D01*
X68441D01*
X71000Y87190D02*
X88750D01*
X65336Y92854D02*
Y96815D01*
Y92854D02*
X71000Y87190D01*
X55086Y94565D02*
X57336Y96815D01*
X16435Y102390D02*
Y116850D01*
X30375Y116650D02*
Y116850D01*
Y116650D02*
X33575Y113450D01*
X33775D01*
X38035Y109190D01*
X38250D01*
X57750Y169500D02*
Y175500D01*
X57750Y175500D01*
X54595Y202000D02*
X55169Y202574D01*
X56720D01*
X57750Y203604D01*
Y214500D01*
X66750D02*
X88440D01*
X88750Y214190D01*
X66750Y225190D02*
X88750D01*
X43250Y246121D02*
Y247652D01*
X47934Y248238D02*
X47946Y248250D01*
X43836Y248238D02*
X47934D01*
X43250Y247652D02*
X43836Y248238D01*
X47106Y250238D02*
X51436Y254569D01*
X42422Y250238D02*
X47106D01*
X36750Y239000D02*
Y241750D01*
X38250Y243250D01*
X38262D01*
X39500Y244488D01*
Y246129D01*
X40500Y247129D01*
Y248317D01*
X42422Y250238D01*
X41500Y230250D02*
Y244371D01*
X43250Y246121D01*
X33836Y222214D02*
X35250D01*
X36750Y226914D02*
X38250Y228414D01*
X39664D01*
X41500Y230250D01*
X23250Y253452D02*
X27500Y257702D01*
X23250Y246250D02*
Y253452D01*
X28250Y239000D02*
Y241750D01*
X26750Y243250D02*
X28250Y241750D01*
X26250Y243250D02*
X26750D01*
X23250Y246250D02*
X26250Y243250D01*
X239250Y34690D02*
Y50000D01*
X252750Y63500D01*
D12*
X148155Y330250D02*
X148244D01*
X145856Y332549D02*
Y333316D01*
Y332549D02*
X148155Y330250D01*
X148150Y352356D02*
Y354250D01*
X145650Y349856D02*
X148150Y352356D01*
X145650Y333522D02*
Y349856D01*
Y333522D02*
X145856Y333316D01*
X321950Y285544D02*
X324415Y283078D01*
X319243Y288958D02*
X321950Y286251D01*
X319243Y288958D02*
Y292493D01*
X329121Y283078D02*
X331950Y280250D01*
X324415Y283078D02*
X329121D01*
X319243Y292493D02*
X319950Y293201D01*
X333700Y280250D02*
X333950Y280000D01*
X321950Y285544D02*
Y286251D01*
X331950Y280250D02*
X333700D01*
X329250Y183750D02*
X330078Y182922D01*
X300250Y182980D02*
X308010Y175219D01*
X300250Y182980D02*
Y223582D01*
X308010Y175219D02*
X317969D01*
X327672Y181422D02*
X329250Y183000D01*
X324172Y181422D02*
X327672D01*
X317969Y175219D02*
X324172Y181422D01*
X324500Y74500D02*
X325266Y75266D01*
Y87754D01*
X307750Y80274D02*
X315231Y87754D01*
X325266D01*
X155372Y313700D02*
X157922D01*
X153472Y318150D02*
X157922Y313700D01*
X160750D01*
X153472Y318150D02*
Y320978D01*
X152774Y321676D02*
X153472Y320978D01*
X152774Y321676D02*
Y325720D01*
X148244Y330250D02*
X152774Y325720D01*
X146250Y301750D02*
X147250D01*
X149750Y304250D01*
Y305250D01*
X150921Y306422D01*
Y309250D01*
X155372Y313700D01*
X174000Y321250D02*
X181000D01*
X172828Y320079D02*
X174000Y321250D01*
X172828Y318150D02*
Y320079D01*
X168378Y313700D02*
X172828Y318150D01*
X160750Y313700D02*
X168378D01*
X249250Y354250D02*
X249550Y354550D01*
X257250D01*
X249250Y342250D02*
Y354250D01*
X249250Y354250D02*
X249250Y354250D01*
X316414Y293201D02*
X319950D01*
X314214Y291000D02*
X316414Y293201D01*
X305950Y291000D02*
X314214D01*
X296250Y298150D02*
X299596Y294804D01*
X302146D01*
X305950Y291000D01*
X330078Y175922D02*
Y182922D01*
Y175922D02*
X332994Y173006D01*
X356100Y179800D02*
Y182000D01*
X352450Y176150D02*
X356100Y179800D01*
X350250Y176150D02*
X352450D01*
X347107Y173006D02*
X350250Y176150D01*
X332994Y173006D02*
X347107D01*
X329250Y183750D02*
Y185000D01*
X335500Y191428D02*
Y199300D01*
X333750Y189678D02*
X335500Y191428D01*
X333750Y188422D02*
Y189678D01*
X332578Y187250D02*
X333750Y188422D01*
X331500Y187250D02*
X332578D01*
X329250Y185000D02*
X331500Y187250D01*
X350500Y196929D02*
Y199300D01*
Y196929D02*
X350750Y196679D01*
X353121D01*
X356100Y193700D01*
Y182000D02*
Y193700D01*
X345500Y199300D02*
X350500D01*
X340400Y182000D02*
Y199200D01*
X340500Y199300D01*
X305500Y74500D02*
X307750Y76750D01*
Y80274D01*
X322379Y72379D02*
X324500Y74500D01*
X322379Y67629D02*
Y72379D01*
X312476Y57726D02*
X322379Y67629D01*
X308010Y59010D02*
X309294Y57726D01*
X312476D01*
D14*
X195250Y210690D02*
Y218700D01*
Y210690D02*
X195250Y210690D01*
X221250Y197000D02*
Y201690D01*
X299480Y240770D02*
Y243520D01*
X302020Y238230D02*
X303020D01*
X305250Y236000D01*
X297250Y245750D02*
X299480Y243520D01*
Y240770D02*
X302020Y238230D01*
X296250Y245750D02*
X297250D01*
X305250Y235000D02*
Y236000D01*
X137912Y296088D02*
X143020Y290980D01*
X143990Y308250D02*
X144385D01*
X143260Y307520D02*
X143990Y308250D01*
X140810Y307520D02*
X143260D01*
X137912Y304622D02*
X140810Y307520D01*
X137912Y296088D02*
Y304622D01*
X143020Y289980D02*
Y290980D01*
X145250Y287750D02*
X146250D01*
X143020Y289980D02*
X145250Y287750D01*
X152098Y293529D02*
X155750D01*
X146250Y287750D02*
X147250D01*
X149480Y289980D01*
Y290911D01*
X152098Y293529D01*
X15000Y193400D02*
Y205156D01*
X16250Y206406D01*
Y206801D01*
X15000Y180700D02*
Y193400D01*
X43315Y209458D02*
X43403D01*
X43250Y209523D02*
X43315Y209458D01*
X46750Y276250D02*
Y277250D01*
X47580Y278080D01*
X48580D01*
X49454Y278954D01*
X59600D01*
X39300Y265250D02*
X39500D01*
X41830Y267580D01*
Y267780D01*
X45920Y271870D01*
Y275420D01*
X46750Y276250D01*
X78625Y296250D02*
X88441D01*
X89191Y297000D01*
X89586D01*
X78625Y291250D02*
Y296250D01*
X61495Y268000D02*
X69700D01*
X59995Y266500D02*
X61495Y268000D01*
X59600Y266500D02*
X59995D01*
X68000Y256250D02*
Y266300D01*
X69700Y268000D01*
X89270Y280810D02*
Y284625D01*
X90250D02*
X95250D01*
X89270D02*
X90250D01*
X87730Y279270D02*
X89270Y280810D01*
X87730Y278876D02*
Y279270D01*
X87000Y278146D02*
X87730Y278876D01*
X87000Y277750D02*
Y278146D01*
X156399Y300649D02*
X156750Y301000D01*
X156399Y294178D02*
Y300649D01*
X155750Y293529D02*
X156399Y294178D01*
X161250Y288750D02*
Y289750D01*
X159020Y291980D02*
X161250Y289750D01*
X157299Y291980D02*
X159020D01*
X155750Y293529D02*
X157299Y291980D01*
X197250Y316250D02*
X207230Y326230D01*
X191750Y321750D02*
X197250Y316250D01*
X187270Y326230D02*
X191750Y321750D01*
X181000Y326250D02*
X185772D01*
X185792Y326230D02*
X187270D01*
X185772Y326250D02*
X185792Y326230D01*
X198250Y343750D02*
Y355250D01*
X197750Y355750D02*
X198250Y355250D01*
X197750Y355750D02*
X204879D01*
X212000Y354550D02*
X221743D01*
X235750Y333250D02*
Y354250D01*
Y333250D02*
X236750Y332250D01*
X208728Y326250D02*
X213500D01*
X208708Y326230D02*
X208728Y326250D01*
X207230Y326230D02*
X208708D01*
X224250Y327250D02*
X232020D01*
X236750Y331980D01*
Y332250D01*
X246471Y293529D02*
X249000Y291000D01*
X242221Y293529D02*
X246471D01*
X239980Y295770D02*
X242221Y293529D01*
X239980Y295770D02*
Y296770D01*
X237750Y299000D02*
X239980Y296770D01*
X236750Y299000D02*
X237750D01*
X239980Y301230D01*
Y302230D01*
X240971Y303221D01*
Y305221D01*
X241250Y305500D01*
X187250Y300000D02*
Y306250D01*
X191750Y310750D01*
X181000Y306250D02*
X187250D01*
X236750Y332250D02*
X249250D01*
X268150Y277750D02*
X279770Y289370D01*
Y290270D02*
X282750Y293250D01*
X279770Y289370D02*
Y290270D01*
X296250Y310850D02*
X296561Y310539D01*
X302612D01*
X310050Y303100D01*
X313220Y278730D02*
X319950Y272000D01*
X305950Y280000D02*
X309950D01*
X311220Y278730D01*
X313220D01*
X319950Y270000D02*
Y272000D01*
X314950Y270000D02*
X319950D01*
X305950D02*
X314950D01*
X314950Y263000D02*
X319950D01*
X305950Y260000D02*
X311950D01*
X314950Y263000D01*
X320250Y234000D02*
X331000D01*
X319250Y235000D02*
X320250Y234000D01*
X319950Y235700D02*
Y263000D01*
X319250Y235000D02*
X319950Y235700D01*
X333950Y270000D02*
X337135D01*
X338871Y268263D01*
X339267D01*
Y252145D02*
Y268263D01*
X339122Y252000D02*
X339267Y252145D01*
X344716Y251284D02*
X346750Y249250D01*
X339838Y251284D02*
X344716D01*
X339122Y252000D02*
X339838Y251284D01*
X335500Y211500D02*
Y218700D01*
Y211500D02*
X338000Y209000D01*
X331000Y233500D02*
Y234000D01*
Y233500D02*
X333980Y230520D01*
X335500Y218700D02*
Y229032D01*
X334012Y230520D02*
X335500Y229032D01*
X333980Y230520D02*
X334012D01*
X359520Y219020D02*
X361000Y220500D01*
X358352Y219020D02*
X359520D01*
X358032Y218700D02*
X358352Y219020D01*
X350500Y218700D02*
X358032D01*
X361000Y211250D02*
Y220500D01*
X347050Y209000D02*
X350730Y205320D01*
X352690D01*
X354760Y203250D01*
X361000D01*
X338000Y209000D02*
X347050D01*
X321318D02*
X338000D01*
X312250Y199932D02*
X321318Y209000D01*
X312250Y183000D02*
Y199932D01*
X294575Y48404D02*
X295990Y46990D01*
X291775Y48404D02*
X294575D01*
X290361Y46990D02*
X291775Y48404D01*
X290260Y46990D02*
X290361D01*
X288895Y45625D02*
X290260Y46990D01*
X288500Y45625D02*
X288895D01*
X313020Y72520D02*
X315000Y74500D01*
X313020Y67855D02*
Y72520D01*
X312250Y67085D02*
X313020Y67855D01*
X312250Y66690D02*
Y67085D01*
X335477Y89477D02*
X338727D01*
X331000Y85000D02*
X335477Y89477D01*
X282644Y74084D02*
X284750Y76190D01*
X270653Y73425D02*
X271312Y74084D01*
X270257Y73425D02*
X270653D01*
X271312Y74084D02*
X282644D01*
X221250Y188950D02*
Y197000D01*
X223730Y186000D02*
X246250D01*
X221980Y187750D02*
X223730Y186000D01*
X221980Y187750D02*
Y188220D01*
X221250Y188950D02*
X221980Y188220D01*
X230357Y23091D02*
X235698Y17750D01*
X246250D01*
X249240Y33681D02*
X250250Y34690D01*
X249240Y20740D02*
Y33681D01*
X246250Y17750D02*
X249240Y20740D01*
X215374Y32814D02*
X217250Y34690D01*
X215374Y21607D02*
Y32814D01*
X210892Y17125D02*
X215374Y21607D01*
X228250Y34690D02*
X230357Y32584D01*
Y23091D02*
Y32584D01*
X170155Y34785D02*
X170250Y34690D01*
X170155Y34785D02*
Y49905D01*
X170060Y50000D02*
X170155Y49905D01*
X159250Y34690D02*
X170250D01*
X170250Y34690D01*
X71690Y65190D02*
X88750D01*
X67750Y61250D02*
X71690Y65190D01*
X88750D02*
Y76190D01*
X178060Y74500D02*
X178250Y74690D01*
X170250Y74500D02*
X178060D01*
X161250Y74690D02*
X170060D01*
X170250Y74500D01*
X178250Y91690D02*
X186400D01*
X193762D02*
X195250Y90202D01*
X186400Y91690D02*
X193762D01*
X195250Y74690D02*
Y90202D01*
X212250Y74690D02*
X230543D01*
X237484Y67750D01*
X212250Y91690D02*
X227310D01*
X229750Y89250D01*
X246250Y176690D02*
X246250Y176690D01*
X246250Y176690D02*
Y186000D01*
Y193690D02*
X246250Y193690D01*
X246250Y186000D02*
Y193690D01*
X177715Y227155D02*
X178250Y227690D01*
X171376Y227155D02*
X177715D01*
X171136Y226914D02*
X171376Y227155D01*
X162026Y226914D02*
X171136D01*
X161250Y227690D02*
X162026Y226914D01*
X212250Y210690D02*
X221250Y201690D01*
X195250Y227690D02*
X212250D01*
X195250Y218700D02*
Y227690D01*
X178250Y210690D02*
X178275Y210665D01*
Y203368D02*
Y210665D01*
Y203368D02*
X180892Y200751D01*
X127250Y176690D02*
Y193690D01*
Y176690D02*
X130934Y173006D01*
Y170066D02*
Y173006D01*
Y170066D02*
X136000Y165000D01*
X39380Y90325D02*
X39770Y89934D01*
X38875Y99565D02*
X39380Y99061D01*
X39770Y89539D02*
Y89934D01*
X39380Y90325D02*
Y99061D01*
X44875Y104895D02*
Y116850D01*
Y104895D02*
X45205Y104565D01*
X45775D01*
X55681Y116850D02*
X57336Y118506D01*
X44875Y116850D02*
X55681D01*
X16435Y126650D02*
X44875D01*
X44875Y126650D01*
X16435Y126650D02*
X18865Y129080D01*
Y131615D01*
X21750Y134500D01*
X28250Y225500D02*
Y227674D01*
X27520Y228404D02*
X28250Y227674D01*
X20730Y228404D02*
X27520D01*
X20250Y228884D02*
X20730Y228404D01*
X20250Y228884D02*
Y232250D01*
X32500Y249500D02*
X37250D01*
X37730Y249980D01*
Y253161D01*
X38293Y253724D01*
Y254289D01*
X38572Y254569D01*
X44750Y211418D02*
Y232250D01*
X43250Y209918D02*
X44750Y211418D01*
X43250Y209523D02*
Y209918D01*
X32500Y215000D02*
X32980Y214520D01*
X38253D01*
X43250Y209523D01*
X20250Y232250D02*
Y237298D01*
X20730Y237778D01*
X23250D01*
X129800Y298300D02*
X130500Y299000D01*
X123750Y298300D02*
X129800D01*
X118500D02*
X123750D01*
D16*
X15000Y193400D02*
D03*
Y180700D02*
D03*
Y168000D02*
D03*
Y155300D02*
D03*
D17*
X181000Y326250D02*
D03*
Y321250D02*
D03*
Y316250D02*
D03*
Y311250D02*
D03*
Y306250D02*
D03*
X213500D02*
D03*
Y311250D02*
D03*
Y316250D02*
D03*
Y321250D02*
D03*
Y326250D02*
D03*
D18*
X187250Y300000D02*
D03*
X192250D02*
D03*
X197250D02*
D03*
X202250D02*
D03*
X207250D02*
D03*
Y332500D02*
D03*
X202250D02*
D03*
X197250D02*
D03*
X192250D02*
D03*
X187250D02*
D03*
D19*
X197250Y316250D02*
D03*
D20*
X85250Y302875D02*
D03*
X90250D02*
D03*
X95250D02*
D03*
Y284625D02*
D03*
X90250D02*
D03*
X85250D02*
D03*
D21*
X101875Y301250D02*
D03*
Y296250D02*
D03*
Y291250D02*
D03*
Y286250D02*
D03*
X78625D02*
D03*
Y291250D02*
D03*
Y296250D02*
D03*
Y301250D02*
D03*
D22*
X79300Y268000D02*
D03*
X69700D02*
D03*
X29700Y265250D02*
D03*
X39300D02*
D03*
D23*
X79000Y256250D02*
D03*
X68000D02*
D03*
X35750Y276250D02*
D03*
X46750D02*
D03*
D24*
X118500Y288700D02*
D03*
Y298300D02*
D03*
X212000Y344950D02*
D03*
Y354550D02*
D03*
D25*
X130500Y288000D02*
D03*
Y299000D02*
D03*
D26*
X36750Y225500D02*
D03*
X28250D02*
D03*
X36750Y239000D02*
D03*
X28250D02*
D03*
D27*
X44750Y232250D02*
D03*
X20250D02*
D03*
D28*
X32500Y215000D02*
D03*
Y249500D02*
D03*
D29*
X356100Y182000D02*
D03*
X340400D02*
D03*
D30*
X338000Y209000D02*
D03*
D31*
X350500Y218700D02*
D03*
X345500D02*
D03*
X340500D02*
D03*
X335500D02*
D03*
X330500D02*
D03*
X325500D02*
D03*
X350500Y199300D02*
D03*
X345500D02*
D03*
X340500Y199300D02*
D03*
X335500D02*
D03*
X330500Y199300D02*
D03*
X325500D02*
D03*
D32*
X329250Y183000D02*
D03*
X312250Y183000D02*
D03*
D33*
X184555Y344364D02*
D03*
X198556D02*
D03*
X183750Y355750D02*
D03*
X197750D02*
D03*
X156750Y301000D02*
D03*
X170750D02*
D03*
X209000Y288750D02*
D03*
X223000D02*
D03*
X185500D02*
D03*
X199500D02*
D03*
X161250D02*
D03*
X175250D02*
D03*
X319250Y235000D02*
D03*
X305250D02*
D03*
D34*
X344500Y234000D02*
D03*
X331000D02*
D03*
X269250Y293250D02*
D03*
X282750D02*
D03*
X249250Y354250D02*
D03*
X235750D02*
D03*
D35*
X361500Y221000D02*
D03*
Y231000D02*
D03*
D36*
X160750Y313700D02*
D03*
Y339800D02*
D03*
D37*
X361000Y211250D02*
D03*
X361000Y203250D02*
D03*
D38*
X146250Y287750D02*
D03*
Y301750D02*
D03*
X224750Y313250D02*
D03*
Y299250D02*
D03*
X236750Y299000D02*
D03*
Y313000D02*
D03*
X296250Y245750D02*
D03*
Y259750D02*
D03*
X346750Y263250D02*
D03*
Y249250D02*
D03*
D39*
X249250Y332250D02*
D03*
X249250Y342250D02*
D03*
X249250Y337250D02*
D03*
Y327250D02*
D03*
X249250Y322250D02*
D03*
X224250D02*
D03*
Y327250D02*
D03*
Y337250D02*
D03*
Y342250D02*
D03*
Y332250D02*
D03*
D40*
X236750D02*
D03*
D41*
X249000Y304500D02*
D03*
Y291000D02*
D03*
D42*
X283725Y309704D02*
D03*
X260275D02*
D03*
Y328796D02*
D03*
X283725D02*
D03*
D43*
X284676Y305296D02*
D03*
X259324Y333204D02*
D03*
D44*
X280256Y310341D02*
D03*
X263744Y328159D02*
D03*
D45*
Y310341D02*
D03*
X280256Y328159D02*
D03*
D46*
X259324Y305296D02*
D03*
X284676Y333204D02*
D03*
D47*
X272000Y306550D02*
D03*
Y331950D02*
D03*
D48*
X305500Y74500D02*
D03*
X315000D02*
D03*
X324500D02*
D03*
Y98500D02*
D03*
X305500D02*
D03*
D49*
X352500Y138500D02*
D03*
X311000D02*
D03*
D50*
X348273Y99023D02*
D03*
X338727Y89477D02*
D03*
D51*
X308010Y59010D02*
D03*
X295990Y46990D02*
D03*
D53*
X310050Y303100D02*
D03*
X319950Y293201D02*
D03*
D54*
X161250Y227690D02*
D03*
X178250D02*
D03*
X195250D02*
D03*
X161250Y210690D02*
D03*
X178250Y210690D02*
D03*
X195250D02*
D03*
X212250Y91690D02*
D03*
X195250Y91690D02*
D03*
X178250D02*
D03*
X161250Y91690D02*
D03*
X212250Y74690D02*
D03*
X195250D02*
D03*
X178250D02*
D03*
X161250D02*
D03*
X212250Y210690D02*
D03*
Y227690D02*
D03*
X229250Y108690D02*
D03*
Y125690D02*
D03*
Y142690D02*
D03*
Y159690D02*
D03*
Y176690D02*
D03*
Y193690D02*
D03*
X144250Y193690D02*
D03*
Y176690D02*
D03*
Y159690D02*
D03*
Y142690D02*
D03*
Y125690D02*
D03*
Y108690D02*
D03*
D55*
X246250Y108690D02*
D03*
Y125690D02*
D03*
Y142690D02*
D03*
Y159690D02*
D03*
Y176690D02*
D03*
Y193690D02*
D03*
X127250Y193690D02*
D03*
Y176690D02*
D03*
Y159690D02*
D03*
Y142690D02*
D03*
Y125690D02*
D03*
Y108690D02*
D03*
D56*
X284750Y65190D02*
D03*
Y76190D02*
D03*
Y87190D02*
D03*
Y98190D02*
D03*
Y109190D02*
D03*
Y120190D02*
D03*
Y131190D02*
D03*
Y142190D02*
D03*
Y153190D02*
D03*
Y170190D02*
D03*
Y181190D02*
D03*
Y192190D02*
D03*
Y203190D02*
D03*
Y214190D02*
D03*
Y225190D02*
D03*
Y236190D02*
D03*
X88750Y153190D02*
D03*
Y236190D02*
D03*
Y225190D02*
D03*
X88750Y214190D02*
D03*
X88750Y203190D02*
D03*
Y192190D02*
D03*
Y181190D02*
D03*
Y170190D02*
D03*
Y142190D02*
D03*
Y131190D02*
D03*
Y120190D02*
D03*
Y109190D02*
D03*
Y98190D02*
D03*
Y87190D02*
D03*
Y76190D02*
D03*
Y65190D02*
D03*
D57*
X250250Y267690D02*
D03*
X239250Y267690D02*
D03*
X228250Y267690D02*
D03*
X217250Y267690D02*
D03*
X206250Y267690D02*
D03*
X181250Y267690D02*
D03*
X170250Y267690D02*
D03*
X159250D02*
D03*
X148250D02*
D03*
X137250D02*
D03*
X126250D02*
D03*
Y34690D02*
D03*
X137250Y34690D02*
D03*
X148250Y34690D02*
D03*
X159250Y34690D02*
D03*
X170250Y34690D02*
D03*
X181250Y34690D02*
D03*
X206250Y34690D02*
D03*
X217250Y34690D02*
D03*
X228250Y34690D02*
D03*
X239250Y34690D02*
D03*
X250250Y34690D02*
D03*
D58*
X66750Y169500D02*
D03*
X57750D02*
D03*
X57750Y214500D02*
D03*
X66750D02*
D03*
X57750Y225190D02*
D03*
X66750D02*
D03*
D59*
X65336Y118506D02*
D03*
X57336D02*
D03*
X65336Y108006D02*
D03*
X57336D02*
D03*
X65336Y96815D02*
D03*
X57336D02*
D03*
D60*
X45775Y94565D02*
D03*
Y99565D02*
D03*
X45775Y104565D02*
D03*
X31975Y94565D02*
D03*
Y99565D02*
D03*
Y104565D02*
D03*
D61*
X38875Y99565D02*
D03*
D62*
X44875Y116850D02*
D03*
X44875Y126650D02*
D03*
X30375Y116850D02*
D03*
Y126650D02*
D03*
X16435Y116850D02*
D03*
Y126650D02*
D03*
D106*
X191750Y321750D02*
D03*
X202750D02*
D03*
X191750Y310750D02*
D03*
X202750D02*
D03*
X319950Y263000D02*
D03*
Y277000D02*
D03*
X324950Y270000D02*
D03*
X314950D02*
D03*
D107*
X319950D02*
D03*
D108*
X333950Y280000D02*
D03*
Y275000D02*
D03*
Y270000D02*
D03*
Y265000D02*
D03*
Y260000D02*
D03*
X305950D02*
D03*
Y265000D02*
D03*
Y270000D02*
D03*
Y275000D02*
D03*
Y280000D02*
D03*
D109*
X117006Y306265D02*
X117197Y306456D01*
X118187D01*
X141392Y329661D02*
Y339750D01*
X118187Y306456D02*
X141392Y329661D01*
X303020Y86407D02*
X306379D01*
X314950Y96743D02*
X316707Y98500D01*
X314950Y94977D02*
Y96743D01*
X306379Y86407D02*
X314950Y94977D01*
X316707Y98500D02*
X324500D01*
X347919Y99376D02*
Y103266D01*
X348911Y104257D01*
Y134911D01*
X352500Y138500D01*
X324500Y98500D02*
X343154D01*
X344030Y99376D01*
X347919D01*
X348273Y99023D01*
X305500Y98500D02*
Y133000D01*
X311000Y138500D01*
D110*
X174193Y332500D02*
X187250D01*
X171850Y334843D02*
X174193Y332500D01*
X171850Y334843D02*
Y336350D01*
X168400Y339800D02*
X171850Y336350D01*
X160750Y339800D02*
X168400D01*
D111*
X160850Y354250D02*
D03*
X268150Y277750D02*
D03*
D112*
X148150Y354250D02*
D03*
X280850Y277750D02*
D03*
X296250Y310850D02*
D03*
D113*
X296250Y298150D02*
D03*
D114*
X113950Y209918D02*
D03*
X221250Y197000D02*
D03*
X260750Y94750D02*
D03*
X302265Y65253D02*
D03*
X117006Y306265D02*
D03*
X229750Y207632D02*
D03*
X229499Y201941D02*
D03*
X267228Y113221D02*
D03*
X148774Y324063D02*
D03*
X176850Y316250D02*
D03*
X224648Y216156D02*
D03*
X303020Y86407D02*
D03*
X195250Y218700D02*
D03*
X180892Y175500D02*
D03*
X325950Y287201D02*
D03*
X94250Y57625D02*
D03*
X103086Y165000D02*
D03*
X325266Y87754D02*
D03*
X262383Y109320D02*
D03*
X221250Y138000D02*
D03*
X213392Y176300D02*
D03*
X51436Y248856D02*
D03*
X53187Y232000D02*
D03*
X54500Y239000D02*
D03*
X49500Y224718D02*
D03*
X132888Y292245D02*
D03*
X171376Y164313D02*
D03*
X236500Y230520D02*
D03*
X162331Y247416D02*
D03*
X59995Y87190D02*
D03*
X37291Y116856D02*
D03*
X70030Y287722D02*
D03*
X146849Y205219D02*
D03*
X144385Y209918D02*
D03*
X143307Y201690D02*
D03*
X143468Y185690D02*
D03*
X115000Y167510D02*
D03*
X62250Y164313D02*
D03*
X72500Y167510D02*
D03*
X63573Y175219D02*
D03*
X54500Y184000D02*
D03*
X50375Y198600D02*
D03*
X43403Y148950D02*
D03*
X35036Y155292D02*
D03*
X35221Y168013D02*
D03*
X35036Y181211D02*
D03*
X42125Y198459D02*
D03*
X47250Y162888D02*
D03*
X16250Y206801D02*
D03*
X46220Y201690D02*
D03*
X43403Y209458D02*
D03*
X61336Y103263D02*
D03*
X92233Y326230D02*
D03*
X87000Y321250D02*
D03*
X85250Y313700D02*
D03*
X78625Y309000D02*
D03*
X59600Y266500D02*
D03*
X85232Y261700D02*
D03*
X94528Y256329D02*
D03*
X92233Y260771D02*
D03*
X87007Y254716D02*
D03*
X87000Y277750D02*
D03*
X90076Y290760D02*
D03*
X133250Y341750D02*
D03*
X205260Y341767D02*
D03*
X177715Y344364D02*
D03*
X204879Y355750D02*
D03*
X221743Y354550D02*
D03*
X257250D02*
D03*
X259324Y296250D02*
D03*
X339267Y268263D02*
D03*
X312250Y66690D02*
D03*
X331000Y85000D02*
D03*
X298135Y81690D02*
D03*
X269762Y78400D02*
D03*
X270257Y73425D02*
D03*
X148250Y50000D02*
D03*
X170060D02*
D03*
X170250Y74500D02*
D03*
X186400Y91690D02*
D03*
X171376Y227155D02*
D03*
X74754Y121937D02*
D03*
X53313Y103982D02*
D03*
X39770Y89539D02*
D03*
X25500Y99959D02*
D03*
X38250Y109190D02*
D03*
X57750Y175500D02*
D03*
X54595Y202000D02*
D03*
X51436Y206801D02*
D03*
Y254569D02*
D03*
X38572D02*
D03*
X23250Y237778D02*
D03*
X155750Y331350D02*
D03*
X144863Y320261D02*
D03*
X92336Y335111D02*
D03*
X204010Y209510D02*
D03*
X123750Y298300D02*
D03*
X107750D02*
D03*
X67500Y305500D02*
D03*
X89586Y297000D02*
D03*
X119000Y279753D02*
D03*
X131000Y355000D02*
D03*
X141392Y339750D02*
D03*
X118750Y346750D02*
D03*
X222750Y254306D02*
D03*
X200892Y248824D02*
D03*
X146804Y220506D02*
D03*
X156125Y244000D02*
D03*
X164508Y239512D02*
D03*
X188000Y269879D02*
D03*
X157125Y252500D02*
D03*
X144385Y308250D02*
D03*
X241250Y305500D02*
D03*
X298135Y103690D02*
D03*
X318250Y104000D02*
D03*
X75365Y114690D02*
D03*
X136000Y165000D02*
D03*
X121000Y150782D02*
D03*
X159035Y142339D02*
D03*
X208000Y49690D02*
D03*
X210892Y66690D02*
D03*
X229750Y89250D02*
D03*
X109850Y89125D02*
D03*
X111529Y69950D02*
D03*
X112650Y57625D02*
D03*
X127750Y17125D02*
D03*
X210892D02*
D03*
X237484Y67750D02*
D03*
X252750Y63500D02*
D03*
X260000Y30501D02*
D03*
Y17750D02*
D03*
X254875Y9877D02*
D03*
X247553Y8191D02*
D03*
X238700Y9000D02*
D03*
X232750Y20500D02*
D03*
X288500Y45625D02*
D03*
X269250Y25789D02*
D03*
X278375Y25500D02*
D03*
X237392Y57625D02*
D03*
X229750Y49690D02*
D03*
X99800Y38750D02*
D03*
X59600Y278954D02*
D03*
X27500Y257702D02*
D03*
X21750Y134500D02*
D03*
X67750Y61250D02*
D03*
X49521Y76250D02*
D03*
X55000Y126050D02*
D03*
X71000Y138000D02*
D03*
X170892Y218226D02*
D03*
X180892Y200751D02*
D03*
X161750Y202690D02*
D03*
Y176250D02*
D03*
X170892Y155642D02*
D03*
X145642Y228000D02*
D03*
X149642Y244000D02*
D03*
X142857D02*
D03*
X149642Y252500D02*
D03*
X142857Y250750D02*
D03*
X136000Y248250D02*
D03*
X104505Y261513D02*
D03*
X110971Y257000D02*
D03*
X103000Y256384D02*
D03*
X98750Y260787D02*
D03*
X113750Y320250D02*
D03*
X123750D02*
D03*
X113750Y330250D02*
D03*
X123750D02*
D03*
D115*
X233250Y324750D02*
D03*
Y339750D02*
D03*
X240250D02*
D03*
X240250Y324750D02*
D03*
X236750Y332250D02*
D03*
M02*
