G04*
G04 #@! TF.GenerationSoftware,Altium Limited,Altium NEXUS,3.0.10 (100)*
G04*
G04 Layer_Color=32896*
%FSLAX44Y44*%
%MOMM*%
G71*
G01*
G75*
%ADD10C,0.2500*%
%ADD11C,0.1000*%
%ADD12C,0.2000*%
%ADD13C,0.1500*%
%ADD14C,0.2540*%
%ADD110C,0.4000*%
%ADD202C,0.1250*%
D10*
X305250Y104250D02*
G03*
X305250Y104250I-1250J0D01*
G01*
X245750Y39250D02*
G03*
X245750Y39250I-1250J0D01*
G01*
X10250Y215000D02*
G03*
X10250Y215000I-1250J0D01*
G01*
X57488Y82512D02*
G03*
X57488Y82512I-1250J0D01*
G01*
X134250Y351750D02*
G03*
X134250Y351750I-1250J0D01*
G01*
X68000Y259500D02*
G03*
X68000Y259500I-1250J0D01*
G01*
X172142Y245953D02*
G03*
X172142Y245953I-1250J0D01*
G01*
X252892Y213000D02*
G03*
X252892Y213000I-1250J0D01*
G01*
D11*
X101500Y279887D02*
G03*
X101500Y279887I-500J0D01*
G01*
X125892Y163867D02*
G03*
X125892Y163867I-500J0D01*
G01*
X169499Y192750D02*
Y208750D01*
X179500D01*
Y192750D02*
Y208750D01*
X169499Y192750D02*
X179500D01*
D12*
X150750Y269595D02*
Y276500D01*
X299500Y83250D02*
Y110250D01*
X272500Y83250D02*
X299500D01*
X272500D02*
Y110250D01*
X299500D01*
X234250Y33500D02*
X260250D01*
Y7500D02*
Y33500D01*
X234250Y7500D02*
X260250D01*
X234250D02*
Y33500D01*
X91250Y131065D02*
X94250D01*
X91250Y122565D02*
X94250D01*
X17750Y221250D02*
X27750D01*
X17750Y209250D02*
X27750D01*
X35732Y120695D02*
X56945Y99482D01*
X18055Y103018D02*
X39268Y81805D01*
X137000Y340400D02*
Y343500D01*
Y307000D02*
Y310100D01*
X100500Y307000D02*
X106100D01*
X131400D02*
X137000D01*
X100500Y340400D02*
Y343500D01*
Y307000D02*
Y310100D01*
Y343500D02*
X106100D01*
X131400D02*
X137000D01*
X58250Y252750D02*
X62000D01*
X136000D02*
X139750D01*
Y171250D02*
Y175000D01*
Y249000D02*
Y252750D01*
X58250Y171250D02*
X62000D01*
X136000D02*
X139750D01*
X58250D02*
Y175000D01*
Y249000D02*
Y252750D01*
X118253Y31125D02*
Y39125D01*
X118253Y104125D02*
X118253Y128629D01*
X143000D01*
X197000D02*
X221747D01*
X221747Y104125D01*
X221747Y31125D02*
Y39125D01*
X241390Y304953D02*
Y306953D01*
X145390D02*
X241392D01*
X221392Y262953D02*
X241390D01*
Y274953D01*
X150750Y262953D02*
X165392Y262953D01*
X150750Y262953D02*
Y269595D01*
X145392Y304953D02*
Y306953D01*
X220892Y160500D02*
X229892D01*
X220892Y217500D02*
X229892D01*
D13*
X171219Y224000D02*
G03*
X171219Y224000I-8270J0D01*
G01*
X54490Y130771D02*
G03*
X54490Y130771I-8270J0D01*
G01*
X48991Y265338D02*
G03*
X48991Y265338I-8270J0D01*
G01*
X148246Y269879D02*
G03*
X148246Y269879I-8270J0D01*
G01*
X167145Y155542D02*
G03*
X167145Y155542I-8270J0D01*
G01*
X55770Y175500D02*
G03*
X55770Y175500I-8270J0D01*
G01*
X74270Y126750D02*
G03*
X74270Y126750I-8270J0D01*
G01*
X74770Y296000D02*
G03*
X74770Y296000I-8270J0D01*
G01*
X120839Y289953D02*
G03*
X120839Y289953I-8270J0D01*
G01*
X183250Y206750D02*
G03*
X183250Y206750I-750J0D01*
G01*
D14*
X199000Y228000D02*
X219000D01*
X199000Y244000D02*
X219000D01*
X361000Y153000D02*
Y223000D01*
X331000Y153000D02*
Y223000D01*
X134892Y161867D02*
X135892D01*
X134892Y149867D02*
X135892D01*
X17540Y138790D02*
X20079D01*
Y141329D01*
X17540D01*
Y138790D01*
D110*
X183680Y230920D02*
G03*
X183680Y230920I-1350J0D01*
G01*
D202*
X86000Y279887D02*
X88000D01*
X86000Y267887D02*
X88000D01*
M02*
