G04*
G04 #@! TF.GenerationSoftware,Altium Limited,Altium NEXUS,3.0.14 (129)*
G04*
G04 Layer_Color=65535*
%FSLAX25Y25*%
%MOIN*%
G70*
G01*
G75*
%ADD10C,0.00984*%
%ADD11C,0.00394*%
%ADD12C,0.00787*%
%ADD13C,0.00591*%
%ADD14C,0.01000*%
%ADD15C,0.00000*%
G36*
X85354Y984D02*
X82449D01*
X83157Y4004D01*
X81142D01*
X80433Y984D01*
X77528D01*
X78894Y6811D01*
X76299Y6811D01*
X74929Y984D01*
X71850D01*
X73224Y6811D01*
X66453Y6811D01*
X66232Y5882D01*
X70417D01*
X69972Y3992D01*
X65791Y3992D01*
X65567Y3032D01*
X69937D01*
X69457Y984D01*
X62008D01*
X63858Y8858D01*
X82279D01*
X81587Y5894D01*
X83602D01*
X84299Y8858D01*
X87205D01*
X85354Y984D01*
D02*
G37*
G36*
X89106Y4354D02*
X87071Y1701D01*
X88516D01*
X88370Y1047D01*
X85992D01*
X86083Y1469D01*
X88110Y4110D01*
X86669D01*
X86815Y4764D01*
X89197D01*
X89106Y4354D01*
D02*
G37*
D10*
X70350Y133780D02*
G03*
X70350Y133780I-492J0D01*
G01*
X26673Y118602D02*
G03*
X26673Y118602I-492J0D01*
G01*
X3642Y94095D02*
G03*
X3642Y94095I-492J0D01*
G01*
X98630Y124146D02*
G03*
X98630Y124146I-500J0D01*
G01*
X118209Y27657D02*
G03*
X118209Y27657I-492J0D01*
G01*
X116437Y63583D02*
G03*
X116437Y63583I-492J0D01*
G01*
X117008Y112697D02*
G03*
X117008Y112697I-492J0D01*
G01*
X115326Y22120D02*
G03*
X115326Y22120I-492J0D01*
G01*
D11*
X126575Y76575D02*
G03*
X126575Y76575I-197J0D01*
G01*
X20423Y37231D02*
G03*
X20423Y37231I-197J0D01*
G01*
X90256Y135728D02*
X96161D01*
X90256Y125886D02*
X96161Y125886D01*
D12*
X69882Y130512D02*
Y132283D01*
X71653D01*
X83661D02*
X85433D01*
Y130512D02*
Y132283D01*
Y116732D02*
Y118504D01*
X83661Y116732D02*
X85433D01*
X69882D02*
Y118504D01*
Y116732D02*
X71653D01*
X28346Y109449D02*
Y121850D01*
Y109449D02*
X42717D01*
Y121850D01*
X28346D02*
X42717D01*
X6693Y97441D02*
Y99508D01*
Y83366D02*
Y85433D01*
X16831Y83366D02*
X18898D01*
X6693D02*
X8760D01*
X18898Y97441D02*
Y99508D01*
Y83366D02*
Y85433D01*
X16831Y99508D02*
X18898D01*
X6693D02*
X8760D01*
X139764Y85020D02*
Y86417D01*
Y78150D02*
Y79547D01*
X126378Y85020D02*
Y86417D01*
Y78150D02*
Y79547D01*
X125689Y70374D02*
X126870D01*
X125689Y73721D02*
X126870D01*
X75219Y136954D02*
X75612D01*
X75219Y134198D02*
X75612D01*
X74902Y141437D02*
X75295D01*
X74902Y138681D02*
X75295D01*
X58524Y127067D02*
Y130217D01*
X68051Y127067D02*
Y130217D01*
X56201Y115847D02*
Y116240D01*
X58957Y115847D02*
Y116240D01*
X64272Y119882D02*
X64665D01*
X64272Y117126D02*
X64665D01*
X84842Y112303D02*
X85236D01*
X84842Y115059D02*
X85236D01*
X75590Y112303D02*
X75984D01*
X75590Y115059D02*
X75984D01*
X113051Y124508D02*
Y126870D01*
X101122D02*
X101122Y124508D01*
X87106Y120374D02*
Y120768D01*
X89862Y120374D02*
Y120768D01*
X66043Y112303D02*
X66437D01*
X66043Y115059D02*
X66437D01*
X94587Y120276D02*
Y120669D01*
X91831Y120276D02*
Y120669D01*
X118110Y33071D02*
Y35039D01*
X129921Y33071D02*
Y35039D01*
X118110Y33071D02*
X129921D01*
X118110Y35039D02*
X129921D01*
X128248Y43307D02*
X132972D01*
X128248Y65748D02*
X132972D01*
X119663Y19265D02*
X120498Y20101D01*
X117297Y21632D02*
X118132Y22467D01*
X118681Y99606D02*
Y100394D01*
Y99606D02*
X120945D01*
X133248D02*
Y100394D01*
X130984Y99606D02*
X133248D01*
Y112205D02*
Y112992D01*
X130984D02*
X133248D01*
X118681D02*
X120945D01*
X118681Y112205D02*
Y112992D01*
X124851Y118496D02*
X125129Y118217D01*
X122902Y116547D02*
X123181Y116269D01*
X118012Y99311D02*
Y99705D01*
X115256Y99311D02*
Y99705D01*
X135138Y100689D02*
Y101083D01*
X137894Y100689D02*
Y101083D01*
X122736Y91142D02*
X123130D01*
X122736Y93898D02*
X123130D01*
X112696Y13066D02*
Y22120D01*
X103051Y13066D02*
X112696Y13066D01*
X34350Y13066D02*
Y22120D01*
Y13066D02*
X43994D01*
X34350Y96925D02*
Y105979D01*
X43994D01*
X112696Y96925D02*
Y105979D01*
X103051Y105979D02*
X112696Y105979D01*
X38003Y8858D02*
Y10957D01*
X39053Y12007D01*
X40102Y10957D01*
Y8858D01*
Y10433D01*
X38003D01*
X41152Y12007D02*
Y8858D01*
X42726D01*
X43251Y9383D01*
Y9908D01*
X42726Y10433D01*
X41152D01*
X42726D01*
X43251Y10957D01*
Y11482D01*
X42726Y12007D01*
X41152D01*
X44300Y8858D02*
X45350D01*
X44825D01*
Y12007D01*
X44300D01*
X13484Y61730D02*
Y58778D01*
X14960D01*
X15452Y59270D01*
Y61238D01*
X14960Y61730D01*
X13484D01*
X16436D02*
X18404D01*
Y61238D01*
X16436Y59270D01*
Y58778D01*
X18404D01*
X19388D02*
X21356Y60746D01*
X22340Y61730D02*
X23324D01*
X22832D01*
Y58778D01*
X22340D01*
X23324D01*
X24800Y61730D02*
X25784D01*
X25291D01*
Y58778D01*
X24800D01*
X25784D01*
X29227Y61238D02*
X28735Y61730D01*
X27751D01*
X27259Y61238D01*
Y60746D01*
X27751Y60254D01*
X28735D01*
X29227Y59762D01*
Y59270D01*
X28735Y58778D01*
X27751D01*
X27259Y59270D01*
X13484Y56298D02*
Y53347D01*
X14960D01*
X15452Y53838D01*
Y55806D01*
X14960Y56298D01*
X13484D01*
X16436Y54822D02*
X18404D01*
X19388Y56298D02*
X20372D01*
X19880D01*
Y53347D01*
X19388D01*
X20372D01*
X21848Y56298D02*
X23816D01*
X22832D01*
Y53347D01*
X26767Y56298D02*
X24800D01*
Y53347D01*
X26767D01*
X24800Y54822D02*
X25784D01*
X27751Y56298D02*
X29719D01*
X28735D01*
Y53347D01*
D13*
X54826Y141968D02*
X57327D01*
X67527Y137669D02*
Y141268D01*
X66826Y141968D02*
X67527Y141268D01*
X57327Y141968D02*
X66826D01*
X54126Y141268D02*
X54826Y141968D01*
X54126Y137668D02*
Y141268D01*
Y137668D02*
X54827Y136967D01*
X57025D01*
X61828D01*
X66825D01*
X67527Y137669D01*
X111571Y106851D02*
X114071D01*
X101371Y107551D02*
Y111150D01*
Y107551D02*
X102071Y106851D01*
X111571D01*
X114071D02*
X114771Y107551D01*
Y111151D01*
X114071Y111852D02*
X114771Y111151D01*
X111872Y111852D02*
X114071D01*
X107070D02*
X111872D01*
X102072D02*
X107070D01*
X101371Y111150D02*
X102072Y111852D01*
X119134Y123382D02*
Y125882D01*
X114834Y113182D02*
X118433D01*
X119134Y113882D01*
Y123382D01*
X118434Y126582D02*
X119134Y125882D01*
X114833Y126582D02*
X118434D01*
X114133Y125882D02*
X114833Y126582D01*
X114133Y123683D02*
Y125882D01*
Y118881D02*
Y123683D01*
Y113883D02*
Y118881D01*
Y113883D02*
X114834Y113182D01*
D14*
X6905Y54642D02*
X7905D01*
Y55641D01*
X6905D01*
Y54642D01*
D15*
X2500Y101000D02*
X44000Y142500D01*
X103000D01*
X144500Y101000D01*
Y42500D02*
Y101000D01*
X103000Y1000D02*
X144500Y42500D01*
X44000Y1000D02*
X103000D01*
X2500Y42500D02*
X44000Y1000D01*
X2500Y42500D02*
Y101000D01*
M02*
